<svg xmlns="http://www.w3.org/2000/svg" xmlns:xlink="http://www.w3.org/1999/xlink" width="80" height="80" viewBox="0 0 80 80">
  <defs>
    <clipPath id="clip-path">
      <rect id="Rectángulo_456401" data-name="Rectángulo 456401" width="60.16" height="60.357" fill="#12263f"/>
    </clipPath>
  </defs>
  <g id="Grupo_1192050" data-name="Grupo 1192050" transform="translate(-175.889 -5521)">
    <rect id="Rectángulo_402006" data-name="Rectángulo 402006" width="80" height="80" rx="5" transform="translate(175.889 5521)" fill="#a0f7fe"/>
    <g id="Grupo_1192290" data-name="Grupo 1192290" transform="translate(185.809 5530.822)">
      <g id="Grupo_1192289" data-name="Grupo 1192289" clip-path="url(#clip-path)">
        <path id="Trazado_1003375" data-name="Trazado 1003375" d="M14.06,100.74l-2.788-2.774a1.173,1.173,0,0,1,.055-1.671,1.211,1.211,0,0,1,1.728.115l2.526,2.516a1.568,1.568,0,0,0,2.239,0l2.062-2.06c.84-.839.5-1.8-.272-2.572L7.38,82.085a1.632,1.632,0,0,0-2.435-.166L2.879,83.98a1.558,1.558,0,0,0-.041,2.213l2.709,2.761A1.172,1.172,0,0,1,3.8,90.518L.99,87.676a3.9,3.9,0,0,1,.283-5.464l2.094-2.073A4.119,4.119,0,0,1,7.8,79.4l3.908-3.875a4.391,4.391,0,0,1-1.3-4.016,4.752,4.752,0,0,1,2.571-3.046,4.743,4.743,0,0,1-.265-3.913,4.286,4.286,0,0,1,2.908-2.406,4.241,4.241,0,0,1,3.116-5.212,4.222,4.222,0,0,1,1.126-4.1c1.155-1.2,2.653-1.12,4.221-1.062.845-.223,1.765-.876,2.935-.668,3.028.539,6.012,1.266,9.084,1.615a4.189,4.189,0,0,1,4.116,5.289,4.166,4.166,0,0,1,3.081,5.15,4.2,4.2,0,0,1,3.111,5.15,4.432,4.432,0,0,1,3.059,2.9,4.3,4.3,0,0,1-1.189,4.3l3.906,3.9a4.023,4.023,0,0,1,4.7.681l2.074,2.06a3.982,3.982,0,0,1,0,5.7l-12.709,12.68a3.919,3.919,0,0,1-5.527.021l-2.074-2.062a4.116,4.116,0,0,1-.764-4.8l-4.8-4.806c-1.414.313-5.523-.559-6.288.186l-4.629,4.505a4.009,4.009,0,0,1-.5,4.865l-2.078,2.092a3.909,3.909,0,0,1-5.531.212M32.579,54.585l-6.06-1.119c-.18-.033-.465.022-.491.139-.214.991,2.3,3.555,3.518,4.07Zm-3.2,5.67a11.136,11.136,0,0,1-5.812-5.912c-.521-.58-1.836-.153-2.186.35a1.793,1.793,0,0,0,.092,2.329l5.263,5.285a1.808,1.808,0,0,0,2.434.191c.519-.392,1.083-1.831.209-2.244m17.29,17.08c-.33-.3-1.4,1.807-2.534.67a1.2,1.2,0,0,1,.024-1.776l2.549-2.545a1.745,1.745,0,1,0-2.464-2.467l-.959.948a1.2,1.2,0,0,1-1.663.053,1.142,1.142,0,0,1-.087-1.628l2.214-2.272A1.691,1.691,0,0,0,43.662,66a1.785,1.785,0,0,0-2.427-.055c-.478.422-.835.9-1.332,1.284a1.17,1.17,0,0,1-1.654-1.64L40.5,63.314a1.744,1.744,0,1,0-2.473-2.457L36.9,61.98a1.186,1.186,0,0,1-1.735-.066,1.224,1.224,0,0,1,.137-1.7l2.165-2.17a1.732,1.732,0,0,0-2.442-2.454L31.608,59a4.2,4.2,0,0,1-.048,4.325,4.128,4.128,0,0,1-3.493,1.942,4.178,4.178,0,0,1-4.134,4.147A4.276,4.276,0,0,1,19.745,73.6a4.157,4.157,0,0,1-2.118,3.585,4.61,4.61,0,0,1-4.157,0l-3.824,3.8L20.52,91.847l4.7-4.591c1.525-1.49,5.266-.511,7.845-.8,2.087-.235,2.7-3,4.179-1.917a1.148,1.148,0,0,1,.261,1.629,21.456,21.456,0,0,1-1.883,1.872L39.46,91.9,50.392,81.025c-1.263-1.283-2.381-2.47-3.723-3.69m-21.4-13.106-4.453-4.48a1.733,1.733,0,0,0-2.508.114,1.775,1.775,0,0,0,.146,2.438l4.25,4.226a1.724,1.724,0,0,0,2.564-2.3m-4.383,3.849-3.176-3.15a1.732,1.732,0,0,0-2.44,2.459l3.3,3.292a1.743,1.743,0,0,0,2.428-.009,1.785,1.785,0,0,0-.109-2.591m-4.062,4.242L15.64,71.147A1.733,1.733,0,0,0,13.2,73.606a14.411,14.411,0,0,0,1.314,1.287,1.73,1.73,0,0,0,2.31-2.574M44.626,98.807,57.359,86.077a1.589,1.589,0,0,0-.079-2.235l-2.09-2.075a1.619,1.619,0,0,0-2.134-.027l-12.816,12.8a1.537,1.537,0,0,0,0,2.159l2.16,2.182a1.6,1.6,0,0,0,2.223-.072" transform="translate(0 -41.433)" fill="#12263f"/>
        <path id="Trazado_1003376" data-name="Trazado 1003376" d="M233.979,7.97a1.186,1.186,0,1,1-1.806-1.538l4.517-4.484a1.209,1.209,0,0,1,1.59.177,1.234,1.234,0,0,1-.1,1.654Z" transform="translate(-188.148 -1.394)" fill="#12263f"/>
        <path id="Trazado_1003377" data-name="Trazado 1003377" d="M57.007,6.348A1.211,1.211,0,0,1,57,8a1.154,1.154,0,0,1-1.684-.013L51.062,3.751A1.192,1.192,0,0,1,50.852,2.2a1.178,1.178,0,0,1,1.669-.286Z" transform="translate(-41.101 -1.356)" fill="#12263f"/>
        <path id="Trazado_1003378" data-name="Trazado 1003378" d="M155.028,6.313a1.271,1.271,0,0,1-1.2,1.345,1.236,1.236,0,0,1-1.2-1.263l-.008-5.087a1.209,1.209,0,1,1,2.408.01Z" transform="translate(-123.832 -0.001)" fill="#12263f"/>
        <path id="Trazado_1003379" data-name="Trazado 1003379" d="M39.406,270.038a1.177,1.177,0,1,1-1.177-1.177,1.177,1.177,0,0,1,1.177,1.177" transform="translate(-30.064 -218.154)" fill="#12263f"/>
        <path id="Trazado_1003380" data-name="Trazado 1003380" d="M209.779,208.762a1.175,1.175,0,1,1-1.175-1.175,1.175,1.175,0,0,1,1.175,1.175" transform="translate(-168.308 -168.436)" fill="#12263f"/>
      </g>
    </g>
  </g>
</svg>
