<svg xmlns="http://www.w3.org/2000/svg" xmlns:xlink="http://www.w3.org/1999/xlink" width="84" height="84" viewBox="0 0 84 84">
  <defs>
    <clipPath id="clip-path">
      <rect id="Rectángulo_456408" data-name="Rectángulo 456408" width="61.094" height="61.231" fill="#12263f"/>
    </clipPath>
  </defs>
  <g id="Grupo_1192084" data-name="Grupo 1192084" transform="translate(-706 -1685.277)">
    <g id="Grupo_1177731" data-name="Grupo 1177731">
      <g id="Grupo_1119665" data-name="Grupo 1119665" transform="translate(530.111 -3835.723)">
        <path id="Trazado_991847" data-name="Trazado 991847" d="M5,0H79a5,5,0,0,1,5,5V79a5,5,0,0,1-5,5H5a5,5,0,0,1-5-5V5A5,5,0,0,1,5,0Z" transform="translate(175.889 5521)" fill="#a0f7fe"/>
      </g>
      <g id="Grupo_1192295" data-name="Grupo 1192295" transform="translate(717.453 1696.662)">
        <rect id="Rectángulo_456403" data-name="Rectángulo 456403" width="1.792" height="3.858" transform="translate(59.256 57.342)" fill="#12263f"/>
        <g id="Grupo_1192294" data-name="Grupo 1192294">
          <g id="Grupo_1192293" data-name="Grupo 1192293" clip-path="url(#clip-path)">
            <path id="Trazado_1003392" data-name="Trazado 1003392" d="M38.622,103.034a3.507,3.507,0,0,1-1.8.054c.009-6.4.93-13.577,4.239-19.218-6.475-2.957-8.985-8.742-10.5-15.356-1.514,6.648-4.023,12.37-10.508,15.373,3.378,5.673,4.2,12.869,4.265,19.2a4.709,4.709,0,0,1-1.809,0c-.019-5.988-.89-13.32-4.191-18.53-2.3.728-4.56,1.542-5.71,3.731a4.584,4.584,0,0,1-1.571-.733,7.005,7.005,0,0,1,4.047-3.716l4.6-1.809a8.2,8.2,0,0,1-4-5.56,24.132,24.132,0,0,1-5.568.624c-4.427.047-8.2,3.249-8.262,7.694L1.789,90.17a2.8,2.8,0,0,1-1.744-.041V85.152A9.891,9.891,0,0,1,6.122,76.09C2.366,72.935-.091,68.842.052,63.983A5.1,5.1,0,0,1,3.705,59.5,3.312,3.312,0,0,1,6.5,57.1l8.59-.071a11.011,11.011,0,0,0,5.273-1.632c-.033,2.633.906,6.022-2.055,7.108.088,1.264-.252,2.637.1,3.876.319,1.128,1.492,1.905,1.923,3,.3.756-.079,1.559.193,2.389,5.306-5.293,4.081-11.105,6.017-17.242a4.092,4.092,0,0,1,4.022-2.657A4.121,4.121,0,0,1,34.7,54.839c.36,1.366.609,2.695.859,4.068a8.916,8.916,0,0,1-1.692.346l-.829-3.7a2.04,2.04,0,0,0-1.552-1.694l.007,6.833A39.625,39.625,0,0,0,32.508,68.7c.959,4.655,2.893,9.414,6.955,12.239a6.088,6.088,0,0,0,4.186-5.084c-6.152-2.505-8.912-8.582-9.527-14.784a3.3,3.3,0,0,1,1.755-.14,18.685,18.685,0,0,0,3.541,9.527c.233-2.106,1.393-2.3,2.13-4.065.642-3.4-1.114-7.283,1.959-9.41,4.083-2.827,9.723-2.217,13.744.313,5.308,3.34,4.773,10.677.777,14.778L55.574,74.59a2.477,2.477,0,0,0-.755,1.431,9.844,9.844,0,0,1,6.24,9.037l.022,12.38a4.605,4.605,0,0,1-1.754.019l-.072-12.473a8.052,8.052,0,0,0-8.218-7.894,23.182,23.182,0,0,1-5.595-.629,8.38,8.38,0,0,1-4.006,5.593l4.5,1.734A7.262,7.262,0,0,1,50.086,87.5a3.852,3.852,0,0,1-1.57.79c-1.1-2.151-3.445-3.04-5.7-3.741-3.258,5.1-4.184,12.376-4.189,18.48M21.652,80.943c4.167-2.915,6.044-7.725,7-12.435a40.481,40.481,0,0,0,1-8.012l.015-6.636a2.069,2.069,0,0,0-1.6,1.8c-.566,2.34-.93,4.6-1.278,6.979-.828,5.656-3.816,11.015-9.34,13.228a6.205,6.205,0,0,0,4.209,5.071M53,75.4c.932-2.2,2.5-3.188,4.108-5,2.871-3.237,3.364-9.069-.93-11.664-3.6-2.178-9.475-2.9-12.43.565a19.284,19.284,0,0,0,2.682.1,4.592,4.592,0,0,1,4.355,4.9,3.1,3.1,0,0,1,2.116,2.979,3.133,3.133,0,0,1-2.062,2.873c-.129,1.352.606,4.582,2.16,5.251M8.029,75.2a14.132,14.132,0,0,0,1.1-3.605,3.122,3.122,0,0,1,.068-5.9c-.119-2.456,1.559-4.757,3.969-4.788l4.222-.055a1.183,1.183,0,0,0,1.1-.752,3.19,3.19,0,0,0,.028-1.87,13,13,0,0,1-2.659.539l-8.964.067c-1.167.009-1.636,1.268-1.669,2.394a2.938,2.938,0,0,0-3.3,2.566c-.583,4.23,2.655,9.135,6.1,11.409M49.053,68.47c1.157.2,1.762-.185,1.99-.85a1.216,1.216,0,0,0-.953-1.6,1.317,1.317,0,0,1-.956-.462c-.37-.691.419-3.981-2.5-4.3a20.343,20.343,0,0,0-3.1,0c-.277,1.869.227,3.818-.2,5.7-.373,1.636-2.622,2.005-1.944,5.495a13.873,13.873,0,0,0,8.866,2.772,12.38,12.38,0,0,1-1.2-6.757M10.02,75.188a14.505,14.505,0,0,0,8.545-1.91c-.008-1.114.5-2.448-.077-3.351l-1.9-3c-.731-1.154.083-2.843-.176-4.255-.936-.053-1.9-.057-2.845-.017A2.807,2.807,0,0,0,11,66.048c.281,1.988-2.377.831-2.148,2.732a1.252,1.252,0,0,0,1.468,1.114c1.581-.581.033,4.349-.3,5.294" transform="translate(-0.036 -41.947)" fill="#12263f"/>
            <path id="Trazado_1003393" data-name="Trazado 1003393" d="M70.541,289.827a6.186,6.186,0,0,1-1.769-.041,5.63,5.63,0,0,1-.033-1.736,5.456,5.456,0,0,1,1.789,0,7.547,7.547,0,0,1,.013,1.778" transform="translate(-55.553 -232.907)" fill="#12263f"/>
            <rect id="Rectángulo_456404" data-name="Rectángulo 456404" width="1.792" height="11.117" transform="translate(0 50.086)" fill="#12263f"/>
            <rect id="Rectángulo_456405" data-name="Rectángulo 456405" width="1.837" height="1.881" transform="translate(9.581 55.081)" fill="#12263f"/>
            <rect id="Rectángulo_456406" data-name="Rectángulo 456406" width="1.79" height="6.892" transform="translate(29.616)" fill="#12263f"/>
            <path id="Trazado_1003394" data-name="Trazado 1003394" d="M122.217,15.384,118.7,11.017a3.816,3.816,0,0,1,1.387-1.147l3.478,4.4a4.338,4.338,0,0,1-1.344,1.117" transform="translate(-95.998 -7.983)" fill="#12263f"/>
            <rect id="Rectángulo_456407" data-name="Rectángulo 456407" width="5.773" height="1.806" transform="matrix(0.622, -0.783, 0.783, 0.622, 33.509, 6.348)" fill="#12263f"/>
          </g>
        </g>
      </g>
    </g>
  </g>
</svg>
