<svg xmlns="http://www.w3.org/2000/svg" xmlns:xlink="http://www.w3.org/1999/xlink" width="150" height="150" viewBox="0 0 150 150">
  <defs>
    <clipPath id="clip-path">
      <rect id="Rectángulo_456392" data-name="Rectángulo 456392" width="88.661" height="91.59" fill="#15342f"/>
    </clipPath>
  </defs>
  <g id="Grupo_1192014" data-name="Grupo 1192014" transform="translate(-383.746 -8400)">
    <circle id="Elipse_13609" data-name="Elipse 13609" cx="75" cy="75" r="75" transform="translate(383.746 8400)" fill="#fff"/>
    <g id="Grupo_1192272" data-name="Grupo 1192272" transform="translate(414.416 8429.204)">
      <g id="Grupo_1192271" data-name="Grupo 1192271" clip-path="url(#clip-path)">
        <path id="Trazado_1003285" data-name="Trazado 1003285" d="M181.314,208.643c-3.13-2.695-.315-5.993-.511-6.4-.089-.184-.339-.6-.69-.414a36.947,36.947,0,0,1-11.826,4.413,4.9,4.9,0,0,1-5.346-4.073,4.96,4.96,0,0,1,3.773-5.7,22.324,22.324,0,0,0,5.009-1.637l.047-5.672c.024-2.941,2.771-3.833,5.675-7.4,2.214-2.722,5.856-1.208,9.118-1.752a26.448,26.448,0,0,0,1.613-5.026,4.95,4.95,0,0,1,6.1-3.635,5.017,5.017,0,0,1,3.544,6.1,41.171,41.171,0,0,1-3.97,10.375c-.144.264.747.951.994.762a4.388,4.388,0,0,1,5.675.07,4.342,4.342,0,0,1,.3,6.06c.916,1.287,2.209,2.185,3.195,3.393,1.751,2.145.726,4.731-1.383,6.246-.136,1.016-.024,2.344-.812,3.136l-5,5.025a3.932,3.932,0,0,1-5.655.117c-1.415-1.364-2.661-2.78-4.18-4.08a4.289,4.289,0,0,1-5.681.091M174.392,195.9c-.014,1.542-5.833,2.9-7.034,3.188a2.287,2.287,0,0,0-1.745,2.724,2.254,2.254,0,0,0,2.7,1.719,33.392,33.392,0,0,0,10.735-4.272,9.763,9.763,0,0,1,12.271-12.551,32.469,32.469,0,0,0,3.9-10.128,2.215,2.215,0,0,0-1.822-2.654,2.286,2.286,0,0,0-2.671,1.894,24.744,24.744,0,0,1-2.428,6.732c-1.757.673-7.679-.212-8.492.66a35.485,35.485,0,0,1-4.591,4.548,2.2,2.2,0,0,0-.768,1.743Zm24.035.381-5.446-5.448a6.989,6.989,0,0,0-10.021,9.727l3.216,3.233L190,200.01c3.781-3.74,5.859.151,8.422-3.724m.46-3.508a1.543,1.543,0,0,0-.18-2.126,1.387,1.387,0,0,0-1.954.02,10.434,10.434,0,0,0,2.134,2.106m-4.058,17.9,4.812-4.8c.728-.726-.682-1.6-.193-2.6.457-.932,3.027-1.386,2.695-2.92a3.737,3.737,0,0,0-1.931-2.08c-3.495,4.522-5.821,1.186-8.1,3.461l-3.972,3.973,4.822,4.89a1.22,1.22,0,0,0,1.862.07m-9.983-4.173a7.339,7.339,0,0,0-1.921-2.034,1.513,1.513,0,0,0,.133,2.144c.369.4,1.845.5,1.787-.11" transform="translate(-116.252 -122.184)" fill="#15342f"/>
        <path id="Trazado_1003286" data-name="Trazado 1003286" d="M242.864,245.118c-.064,2.159-2.879.391-2.816,2.455.025.825-.329,1.513-1.056,1.636a1.323,1.323,0,0,1-1.6-1.05,3.688,3.688,0,0,1,.861-3.185,3.621,3.621,0,0,1,3.526-1.164,1.264,1.264,0,0,1,1.083,1.308" transform="translate(-169.392 -173.974)" fill="#15342f"/>
        <path id="Trazado_1003287" data-name="Trazado 1003287" d="M243.335,267.647a1.363,1.363,0,1,1-1.363-1.363,1.363,1.363,0,0,1,1.363,1.363" transform="translate(-171.744 -190.07)" fill="#15342f"/>
        <path id="Trazado_1003288" data-name="Trazado 1003288" d="M262.7,248.313a1.355,1.355,0,1,1-1.355-1.355,1.355,1.355,0,0,1,1.355,1.355" transform="translate(-185.58 -176.275)" fill="#15342f"/>
        <path id="Trazado_1003289" data-name="Trazado 1003289" d="M125.235,126.505a13.367,13.367,0,1,0-3.463,3.584,1.363,1.363,0,0,1,1.752.587,1.4,1.4,0,0,1-.357,1.672,16,16,0,1,1,4.478-4.7,1.383,1.383,0,0,1-1.63.581c-.423-.14-1.246-.976-.78-1.722" transform="translate(-69.959 -73.652)" fill="#15342f"/>
        <path id="Trazado_1003290" data-name="Trazado 1003290" d="M142.019,161.474c2.929.167,1.465-3.2,3.437-3.357a1.341,1.341,0,0,1,1.463,1.416,4.753,4.753,0,0,1-9.5-.206,1.323,1.323,0,0,1,1.406-1.216c2,.131.537,3.211,3.2,3.363" transform="translate(-98.083 -112.856)" fill="#15342f"/>
        <path id="Trazado_1003291" data-name="Trazado 1003291" d="M131.76,145.967a1.382,1.382,0,1,1-1.382-1.382,1.382,1.382,0,0,1,1.382,1.382" transform="translate(-92.076 -103.203)" fill="#15342f"/>
        <path id="Trazado_1003292" data-name="Trazado 1003292" d="M172.1,145.963a1.381,1.381,0,1,1-1.381-1.381,1.381,1.381,0,0,1,1.381,1.381" transform="translate(-120.868 -103.201)" fill="#15342f"/>
        <path id="Trazado_1003293" data-name="Trazado 1003293" d="M198.465,32.846A10.044,10.044,0,0,0,200.93,22.6a10.262,10.262,0,0,0-7.213-6.828,1.334,1.334,0,0,1,.8-2.544,12.887,12.887,0,0,1,5.8,21.579l-5.266,5.3a41.144,41.144,0,0,1,2.844,8.707,4.962,4.962,0,0,1-4.184,5.648,5.034,5.034,0,0,1-5.637-4.079,20,20,0,0,0-1.566-4.749l-5.614-.054c-3.146-.03-3.668-2.635-7.375-5.584a4.651,4.651,0,0,1-1.767-3.65v-5.5a24.814,24.814,0,0,0-4.937-1.61,4.964,4.964,0,0,1,2.015-9.722,41.4,41.4,0,0,1,7.778,2.525l5.617-5.575c1.265-1.256,6.012-4.7,7.052-2.37.908,2.037-2.34,1.423-5.31,4.4l-6.142,6.164a2.127,2.127,0,0,0-.581,1.975,2.489,2.489,0,0,0,1.368,1.7,9.48,9.48,0,0,1,2.465-4.445l3.7-3.713a1.559,1.559,0,0,1,2.411.135c1.582,1.589,3.058,3.212,4.739,4.667,1.346.3,3.244-.366,4.046.979.872,1.465-.242,2.252-.193,2.764.058.623,2.309,1.8,1.176,3.069-1.351,1.519-2.823,2.857-4.253,4.3a9.214,9.214,0,0,1-4.057,2.156,1.972,1.972,0,0,0,1.438,1.346,2.138,2.138,0,0,0,2.138-.52ZM193.586,51.72c3.561-.877.2-7.151-.719-9.742-5.152,1.8-6.705-2.9-8.762-3.928a10.612,10.612,0,0,1-5.229-5.236c-.943-1.954-5.608-3.561-4.036-8.528a32.03,32.03,0,0,0-6.424-2.126,2.282,2.282,0,0,0-2.835,1.849,2.326,2.326,0,0,0,1.817,2.614,31.01,31.01,0,0,1,6.27,2.107,1.4,1.4,0,0,1,.743,1.285l.037,6.27A2.28,2.28,0,0,0,175.4,38.1a22.532,22.532,0,0,1,4,4.008c1.3,1.638,6.286.387,8.813.953,2.563,3.305,1.587,9.587,5.371,8.655m.443-20.78a2.969,2.969,0,0,1-1.357-3.13c-.745-.161-1.565.114-2.068-.367l-4.723-4.52-3.059,3.037a5.739,5.739,0,0,0,8.116,8.115c1.071-1.021,2.051-1.98,3.089-3.135" transform="translate(-116.245 -9.409)" fill="#15342f"/>
        <path id="Trazado_1003294" data-name="Trazado 1003294" d="M236.461,68.632c.064,1.929,2.237.252,2.435,2.2a1.3,1.3,0,0,1-.867,1.374,3.268,3.268,0,0,1-3.143-.739,3.4,3.4,0,0,1-1.028-3.066,1.274,1.274,0,0,1,1.287-1.139c.773-.015,1.286.441,1.316,1.367" transform="translate(-166.891 -48.013)" fill="#15342f"/>
        <path id="Trazado_1003295" data-name="Trazado 1003295" d="M240.234,56.139a1.348,1.348,0,1,1-1.348-1.348,1.348,1.348,0,0,1,1.348,1.348" transform="translate(-169.551 -39.109)" fill="#15342f"/>
        <path id="Trazado_1003296" data-name="Trazado 1003296" d="M257.292,73.211a1.345,1.345,0,1,1-1.345-1.345,1.345,1.345,0,0,1,1.345,1.345" transform="translate(-181.732 -51.297)" fill="#15342f"/>
        <path id="Trazado_1003297" data-name="Trazado 1003297" d="M32.038,30.618c-3.253,2.551-4.362,5.46-6.876,5.509l-6.132.119a24.923,24.923,0,0,0-1.61,5.007A4.964,4.964,0,1,1,7.753,39,38.19,38.19,0,0,1,12.08,27.877c.177-.31-.554-.855-.834-.644a4.218,4.218,0,0,1-5.8-6.105L1.073,16.661a3.887,3.887,0,0,1,.091-5.454L11.9.507c1.1-1.1,2.4-.182,3.259.6a9.586,9.586,0,0,1,3.513,6.62c2.107-1.588,4.336-1.594,5.951-.191a4.14,4.14,0,0,1,.653,5.513c-.261.366-.313.664-.143.9.277.382.585.4,1.007.168a36.025,36.025,0,0,1,10.767-4.024A4.9,4.9,0,0,1,42.6,13.934a4.978,4.978,0,0,1-3.919,5.922,28.6,28.6,0,0,0-4.795,1.52c-.454,3.261.961,7.04-1.848,9.242M6.634,18.386l7.98-8.035a4.3,4.3,0,0,0-.354-6.284c-.389-.343-.592-.76-1.179-.969L3.47,12.661c-.53.527-1.113,1.363-.5,2.059a51.091,51.091,0,0,0,3.66,3.666m16.325-6.8A1.379,1.379,0,0,0,22.881,9.6a1.478,1.478,0,0,0-1.97-.042,12.965,12.965,0,0,0,2.047,2.031m-9.621,13.5a6.8,6.8,0,0,0,9.412-9.793L18,10.526c-.626.362-.753.985-1.216,1.452L8.515,20.308c1.666,1.647,3.077,3.228,4.823,4.779m11.127,8.438c1.71-.007,2.682-2.522,5.652-4.781,1.987-1.511.6-5.949,1.131-8.981a21.383,21.383,0,0,1,6.609-2.449,2.4,2.4,0,0,0,2.12-2.777,2.306,2.306,0,0,0-2.914-1.771,34.444,34.444,0,0,0-10.26,4.1A9.544,9.544,0,0,1,14.61,28.952,33.167,33.167,0,0,0,10.333,39.82a2.187,2.187,0,0,0,1.819,2.524c3.178.484,2.429-3.049,4.754-7.99a1.413,1.413,0,0,1,1.39-.8ZM9.406,25.118a10.581,10.581,0,0,0-2-1.977,1.371,1.371,0,0,0,.151,2.039,1.355,1.355,0,0,0,1.85-.062" transform="translate(0 0)" fill="#15342f"/>
        <path id="Trazado_1003298" data-name="Trazado 1003298" d="M58.472,70.348a1.362,1.362,0,0,1-1.22-1.457c.142-1.568,1.811-1.03,2.464-1.47s-.124-2.244,1.311-2.463a1.267,1.267,0,0,1,1.569.916,3.563,3.563,0,0,1-.809,3.27,3.663,3.663,0,0,1-3.314,1.2" transform="translate(-40.862 -46.349)" fill="#15342f"/>
        <path id="Trazado_1003299" data-name="Trazado 1003299" d="M65.3,51.891a1.359,1.359,0,1,1-1.36-1.36,1.359,1.359,0,0,1,1.36,1.36" transform="translate(-44.672 -36.068)" fill="#15342f"/>
        <path id="Trazado_1003300" data-name="Trazado 1003300" d="M45.666,71.524a1.358,1.358,0,1,1-1.358-1.358,1.358,1.358,0,0,1,1.358,1.358" transform="translate(-30.657 -50.084)" fill="#15342f"/>
        <path id="Trazado_1003301" data-name="Trazado 1003301" d="M19.144,185.248a1.28,1.28,0,0,1,.622-1.8c1.967-.738,2.093,1.946,3.338,3.482a9.552,9.552,0,0,1,12.186,12.344,33.245,33.245,0,0,0,10.568,4.234,2.268,2.268,0,0,0,2.836-1.894,2.384,2.384,0,0,0-2.074-2.631,21.753,21.753,0,0,1-6.66-2.468l-.119-7.09c-.007-.42-.129-1.224-.537-1.488-1.989-1.288-3.292-3.412-5.1-4.888-1.983-.936-7.756.866-8.7-1.334a33.364,33.364,0,0,1-1.962-5.96,2.3,2.3,0,0,0-2.962-1.768,2.329,2.329,0,0,0-1.466,2.98,10.119,10.119,0,0,1,.392,1.624,1.3,1.3,0,0,1-1,1.6c-1.623.293-1.99-2.042-2.141-3.631a4.937,4.937,0,0,1,4.225-5.351,4.993,4.993,0,0,1,5.571,3.928,27.244,27.244,0,0,0,1.551,4.876c3.208.493,7.045-.973,9.207,1.8,2.857,3.67,5.541,4.2,5.583,7.328l.078,5.7a23.948,23.948,0,0,0,4.917,1.594,4.959,4.959,0,0,1,3.729,6.217,5.054,5.054,0,0,1-6.224,3.459,38.984,38.984,0,0,1-10.63-4.252.482.482,0,0,0-.683.137c-.348.469,2.591,3.438-.357,6.226a4.275,4.275,0,0,1-5.867-.046A9.52,9.52,0,0,1,14.119,194.84a4.287,4.287,0,0,1-.2-5.746,4.214,4.214,0,0,1,5.863-.471c.3.236.948-.22.794-.526Zm7.66,19.892,4.369-4.388a6.808,6.808,0,0,0-9.342-9.9c-1.811,1.691-3.465,3.353-5.157,5.152a6.79,6.79,0,0,0,.469,9.664,6.892,6.892,0,0,0,9.661-.527M18,190.724a1.387,1.387,0,0,0-2.044.137,1.232,1.232,0,0,0,.083,1.855A12.052,12.052,0,0,0,18,190.724m11.515,15.595a1.446,1.446,0,0,0,2.039-.135,1.552,1.552,0,0,0,.02-1.935,11.518,11.518,0,0,0-2.06,2.071" transform="translate(-8.7 -122.165)" fill="#15342f"/>
        <path id="Trazado_1003302" data-name="Trazado 1003302" d="M59.753,249.935c-1.628-.242-.864-2.049-1.443-2.5-.7-.546-2.2.074-2.449-1.273a1.307,1.307,0,0,1,.842-1.585,3.636,3.636,0,0,1,4.425,4.5,1.324,1.324,0,0,1-1.375.854" transform="translate(-39.851 -174.474)" fill="#15342f"/>
        <path id="Trazado_1003303" data-name="Trazado 1003303" d="M63.785,269.8a1.362,1.362,0,1,1-1.362-1.362,1.362,1.362,0,0,1,1.362,1.362" transform="translate(-43.584 -191.608)" fill="#15342f"/>
        <path id="Trazado_1003304" data-name="Trazado 1003304" d="M44.174,250.171a1.355,1.355,0,1,1-1.355-1.355,1.355,1.355,0,0,1,1.355,1.355" transform="translate(-29.596 -177.602)" fill="#15342f"/>
      </g>
    </g>
  </g>
</svg>
