<svg id="Grupo_1192017" data-name="Grupo 1192017" xmlns="http://www.w3.org/2000/svg" xmlns:xlink="http://www.w3.org/1999/xlink" width="84" height="84" viewBox="0 0 84 84">
  <defs>
    <clipPath id="clip-path">
      <rect id="Rectángulo_456395" data-name="Rectángulo 456395" width="59.119" height="57.227" fill="#12263f"/>
    </clipPath>
  </defs>
  <g id="Grupo_1177731" data-name="Grupo 1177731">
    <g id="Grupo_1119665" data-name="Grupo 1119665">
      <path id="Trazado_991847" data-name="Trazado 991847" d="M5,0H79a5,5,0,0,1,5,5V79a5,5,0,0,1-5,5H5a5,5,0,0,1-5-5V5A5,5,0,0,1,5,0Z" fill="#a0f7fe"/>
    </g>
    <g id="Grupo_1192278" data-name="Grupo 1192278" transform="translate(12.441 13.386)">
      <g id="Grupo_1192277" data-name="Grupo 1192277" clip-path="url(#clip-path)">
        <path id="Trazado_1003320" data-name="Trazado 1003320" d="M43.3,157.9a1.173,1.173,0,0,1-.984.383l-5.913.044a1.474,1.474,0,0,0-1.34,1.556,1.56,1.56,0,0,0,1.537,1.56l7.2.02a1.6,1.6,0,0,0,1.252-.6l3.9-5.133a.867.867,0,0,1,1.066-.236.918.918,0,0,1,.324,1.24l-2.974,4,.026,7.482,9.975,0,.038-4.911a.837.837,0,0,1,.879-.916.863.863,0,0,1,.834.921l-.006,5.719a.863.863,0,0,1-.959.9H.977c-.505,0-.937-.282-.94-.735L.008,163.31a.872.872,0,0,1,.835-.922c.633-.016.889.467.893,1.1l.025,4.723,9.982,0,0-7.55-2.966-3.922A.959.959,0,0,1,9,155.563a.865.865,0,0,1,1.18.163l3.9,5.133a1.563,1.563,0,0,0,1.25.606l7.2-.024a1.571,1.571,0,0,0,1.535-1.733,1.637,1.637,0,0,0-1.883-1.436c-2.045.041-3.976.075-6.062-.037l-5.01-6.556c-1.356-1.775-2.329,2.331-7.652-.349-.859-.162-1.714,1.236-1.716,2l-.014,5.912a.86.86,0,0,1-.861.919.882.882,0,0,1-.854-.927L0,153.7a4.347,4.347,0,0,1,2.148-3.842,6.124,6.124,0,0,1-.947-3.19l.019-5.086a3.388,3.388,0,0,1,3.413-3.329l4.231,0a3.409,3.409,0,0,1,3.4,3.43v5.188a5.645,5.645,0,0,1-.8,2.775c.162.363.571.417.79.7l4.719,6.169,3.405,0c.228-4.325-.754-5.328,3.83-7.636l-.325-1.657-.013-5.536a3.445,3.445,0,0,1,3.472-3.441l6.655,0a.883.883,0,0,1,.94.881l-.022,8.293c0,.491-.324.9-.254,1.351,1.87.827,4.031,2.076,4.043,4.378l.016,3.339a31.789,31.789,0,0,0,3.444.041l3.974-5.257a6.542,6.542,0,0,1,1.571-1.577,5.512,5.512,0,0,1-.849-3.009l-.009-4.8a3.528,3.528,0,0,1,3.588-3.637l4.055.008a3.39,3.39,0,0,1,3.421,3.335l.027,4.736a6.528,6.528,0,0,1-.958,3.536,4.256,4.256,0,0,1,2.135,3.656v5.73a.884.884,0,0,1-.853.928.867.867,0,0,1-.864-.92l0-5.757c0-.815-.795-2.324-1.736-2.156-5.343,2.663-6.312-1.426-7.646.333ZM7.374,142.118c1.282-.4,1.125.894,3.076.744.316-.961.085-2.527-1.113-2.749a33.936,33.936,0,0,0-4.711-.1,1.735,1.735,0,0,0-1.686,1.847l.014,4.343a2.963,2.963,0,0,0,2.95-.427c1.356-1.277.677-3.406,1.471-3.654m25.8.242a13.99,13.99,0,0,0,0-2.388l-6.185.089c-1.092.016-1.6,1.368-1.277,2.3Zm20.106,3.451a2.893,2.893,0,0,0,2.906.37l-.03-4.683a1.608,1.608,0,0,0-1.466-1.476,43.4,43.4,0,0,0-4.769.056c-1.262.151-1.585,1.75-1.234,2.789,1.8.2,2.068-1.341,3.192-.678.6.355.055,2.432,1.4,3.623m-20.073.872a15.77,15.77,0,0,0-.064-2.594l-7.471,0a21.161,21.161,0,0,0-.036,2.788,3.787,3.787,0,0,0,7.571-.2m-22.678-2.029a6.271,6.271,0,0,1-2.049-.355A4.34,4.34,0,0,1,3.2,148.061a3.774,3.774,0,0,0,4.343,2.373c2.708-.561,3.294-3.188,2.981-5.781m41.208,5.807a3.652,3.652,0,0,0,4.158-2.426,4.284,4.284,0,0,1-5.238-3.731,6.462,6.462,0,0,1-2.05.35c-.333,2.659.34,5.337,3.13,5.806M33.666,161.436a3.5,3.5,0,0,1,.312-3.565,3.634,3.634,0,0,1,3.015-1.38c-.167-1.3.243-2.63-.146-3.835-.417-1.29-1.958-1.919-3.193-2.364a5.56,5.56,0,0,1-8.419.082c-1.093.451-2.595,1.038-2.951,2.285a14.236,14.236,0,0,0-.073,3.872,3.383,3.383,0,0,1,3.1,1.57,3.558,3.558,0,0,1,.146,3.355Zm12.006,1.747H13.46v5.073H45.673Z" transform="translate(0 -112.703)" fill="#12263f"/>
        <path id="Trazado_1003321" data-name="Trazado 1003321" d="M49.351,19.491l.019-8.43a2.342,2.342,0,0,0-2.228-2.411l-14.89-.012-.038,6.5a5.256,5.256,0,0,1-5.8,5.077,2.151,2.151,0,0,0,1.9,1.544l5.33.045a.877.877,0,0,1,.952.818.959.959,0,0,1-.983.96h-4.72a4.37,4.37,0,0,1-4.348-3.38l-12.027.01L8.628,24.1a.92.92,0,0,1-1.022.2c-.978-.429-.279-2.951-.58-4.147a5.243,5.243,0,0,1-4.279-5.006l0-9.981A5.176,5.176,0,0,1,7.971.018L26.808,0a5.316,5.316,0,0,1,5.433,5.536,6.206,6.206,0,0,0,.05,1.326l14.839.04A4.07,4.07,0,0,1,51.1,11.064l.01,8.136a4.267,4.267,0,0,1-3.262,4.254L47.781,26.9a.841.841,0,0,1-.461.719.9.9,0,0,1-.94-.117l-3.916-3.9-4.675-.038a.9.9,0,0,1-.957-.942.92.92,0,0,1,1.069-.837c1.687.115,3.452-.2,5.124.117l2.968,2.658c.349-.909-.468-2.672.984-2.753a2.4,2.4,0,0,0,2.375-2.321M11.834,18.5l15.156-.033A3.544,3.544,0,0,0,30.5,14.778L30.494,5.33a3.477,3.477,0,0,0-3.408-3.573l-19.211,0A3.483,3.483,0,0,0,4.462,5.33l.027,9.812A3.5,3.5,0,0,0,7.951,18.49c1.416.06.647,1.914.985,2.769Z" transform="translate(-2.236 0)" fill="#12263f"/>
        <path id="Trazado_1003322" data-name="Trazado 1003322" d="M51.424,27.134l-16.068-.006a.859.859,0,1,1,.04-1.715l15.926,0a.858.858,0,0,1,.887.764.878.878,0,0,1-.786.953" transform="translate(-28.107 -20.72)" fill="#12263f"/>
        <path id="Trazado_1003323" data-name="Trazado 1003323" d="M51.309,51.806l-15.788,0c-.567,0-.95-.243-1.023-.742a.861.861,0,0,1,.848-.966H51.391a.862.862,0,0,1,.836.8.844.844,0,0,1-.919.9" transform="translate(-28.12 -40.847)" fill="#12263f"/>
        <path id="Trazado_1003324" data-name="Trazado 1003324" d="M43.275,76.431l-7.956-.011a.846.846,0,0,1-.832-.845.855.855,0,0,1,.855-.861l7.934-.008a.864.864,0,0,1,.929.869.851.851,0,0,1-.93.854" transform="translate(-28.117 -60.907)" fill="#12263f"/>
      </g>
    </g>
  </g>
</svg>
