<svg xmlns="http://www.w3.org/2000/svg" xmlns:xlink="http://www.w3.org/1999/xlink" width="396" height="357" viewBox="0 0 396 357">
  <defs>
    <clipPath id="clip-path">
      <rect id="Rectángulo_456216" data-name="Rectángulo 456216" width="396" height="357" transform="translate(290 3669)" fill="#d0e1dd" stroke="#707070" stroke-width="1"/>
    </clipPath>
    <clipPath id="clip-path-2">
      <rect id="Rectángulo_456361" data-name="Rectángulo 456361" width="348.564" height="480.402" fill="none"/>
    </clipPath>
    <clipPath id="clip-path-3">
      <path id="Trazado_1002912" data-name="Trazado 1002912" d="M.76,220.652c0,14.035-1.584,101.422-.177,114.653,1.169,10.993,5.323,16.336,22.632,16.8,9.18.248,38.632.155,65.6.064,23.877-.082,45.806-.163,49.978-.009,5.614.208,16.14.208,16.841-16.374.715-16.884.523-97.54.449-112.744.074-18.011-15.419-16.841-15.419-16.841-1.4,0-118.381-.056-125.4-.056s-14.5.468-14.5,14.5" transform="translate(0 -206.15)" fill="none"/>
    </clipPath>
    <clipPath id="clip-path-5">
      <path id="Trazado_1002971" data-name="Trazado 1002971" d="M361.044,243.343H234.678c-7.018,0-14.5.467-14.5,14.5S218.591,359.267,220,372.5c1.17,10.994,30.647,43.858,58.37,16.8,9.155.248,28.747.141,46.488.035,15.8-.095,30.13-.189,34.314-.035,5.614.208,16.14.208,16.842-16.374.715-16.885.523-97.54.448-112.744.066-15.94-12.061-16.857-14.851-16.857-.363,0-.566.016-.566.016" transform="translate(-219.416 -243.327)" fill="none"/>
    </clipPath>
    <clipPath id="clip-path-7">
      <path id="Trazado_1003028" data-name="Trazado 1003028" d="M260.739,8.99c-10.994,1.169-16.336,5.323-16.8,22.632s-10.866,118.657-11.194,127.54c-.208,5.614,26.531,43.835,53.236,17.128,35.651,1.217,74.794.236,90,.162,18.011.074,16.842-15.419,16.842-15.419,0-1.4-2.922-130.346-2.922-137.364s-.469-14.5-14.5-14.5c-9.717,0-54.607-.76-85.692-.761-13.811,0-24.891.151-28.96.583" transform="translate(-232.74 -8.407)" fill="none"/>
    </clipPath>
    <clipPath id="clip-path-9">
      <path id="Trazado_1003097" data-name="Trazado 1003097" d="M78.371,0C59.833,0,43.536.051,37.512.08,19.5.006,20.67,15.5,20.67,15.5V129.647c0,7.018.468,14.5,14.5,14.5s101.422,1.584,114.653.176c10.994-1.169,16.337-5.323,16.8-22.632s-.329-95.441,0-104.324c.208-5.614.208-16.139-16.374-16.841C140.394.111,108.776,0,81.153,0Z" transform="translate(-20.655)" fill="none"/>
    </clipPath>
  </defs>
  <g id="Enmascarar_grupo_1119301" data-name="Enmascarar grupo 1119301" transform="translate(-290 -3669)" clip-path="url(#clip-path)">
    <g id="Grupo_1192232" data-name="Grupo 1192232" transform="translate(313.718 3674)">
      <g id="Grupo_1192215" data-name="Grupo 1192215">
        <g id="Grupo_1192214" data-name="Grupo 1192214" clip-path="url(#clip-path-2)">
          <path id="Trazado_1002867" data-name="Trazado 1002867" d="M129.411,206.146H15.262c-7.017,0-14.5.468-14.5,14.5S-.825,322.071.583,335.3c1.17,10.994,5.323,16.337,22.633,16.8s95.441-.329,104.324,0c5.614.208,16.139.208,16.841-16.374.715-16.885.523-97.54.448-112.744.074-18.011-15.418-16.842-15.418-16.842" transform="translate(0 -39.322)" fill="#d0e1dd"/>
        </g>
      </g>
      <g id="Grupo_1192217" data-name="Grupo 1192217" transform="translate(0 166.824)">
        <g id="Grupo_1192216" data-name="Grupo 1192216" clip-path="url(#clip-path-3)">
          <path id="Trazado_1002868" data-name="Trazado 1002868" d="M158.568,346.209l-.238-.431c3.923-2.16,5.282-7.1,4.889-11.04-.443-4.423-2.639-8.477-4.575-12.054-2.089-3.857-4.236-7.823-4.774-12.188-.476-3.869.359-7.75,1.168-11.5.386-1.789.785-3.639,1.034-5.462a36,36,0,0,0-7.184-26.823c-1.152-1.483-2.467-2.953-3.739-4.374-3.856-4.309-7.844-8.763-8.156-14.485l.49-.027c.3,5.548,4.234,9.938,8.032,14.184,1.278,1.427,2.6,2.9,3.761,4.4a36.492,36.492,0,0,1,7.284,27.191c-.253,1.841-.654,3.7-1.041,5.5-.8,3.714-1.627,7.553-1.16,11.34.525,4.273,2.65,8.2,4.7,11.992,1.971,3.639,4.192,7.739,4.644,12.26.409,4.1-1.021,9.253-5.139,11.521" transform="translate(-26.133 -214.099)" fill="#e19e2c"/>
          <path id="Trazado_1002869" data-name="Trazado 1002869" d="M134.946,323.256c-3.822-6.327-6.511-13.946-6.581-18.519-.128-8.472,8.291-18.867-3-34.63-8.148-11.371-7.451-15.486-7.451-15.486L38.517,249.1s-2.494,12.494-7.47,18.952-13.057,11.227-8.931,25.226c3.387,11.486-4.432,22.54-8.691,28.814-4.2,6.18-2.417,12.709,2.537,27.857,0,0,3.507,2.195,6.346,3.731l1.144-6.456c1.081.465,1.986,7.9,3.277,8.3a33.994,33.994,0,0,0,4.125.985c-1.953-5.1-2.409-10.352-.393-14.582,7.468-17.28,12.618-34.524,6.924-53.164-4.077-13.984,6.577-25.069,18.134-27.585,16.181-3.366,29.462,5.8,43.467,11.826,4.66,1.49,10.866,2.956,13.256,7.6,4.767,8.511-3.58,18.781.426,28.084,2.413,6.205,8.678,11.572,11.1,18.558a36.3,36.3,0,0,1,1.34,21.656l.246.484a14.633,14.633,0,0,0,13.212-4.227c1.34-1.38,3.073-10.814-3.625-21.9" transform="translate(-2.113 -214.343)" fill="#e19e2c"/>
          <path id="Trazado_1002870" data-name="Trazado 1002870" d="M128.033,329.922c-2.425-6.986-8.69-12.353-11.1-18.558-4.006-9.3,4.342-19.573-.426-28.084-2.39-4.646-8.6-6.112-13.256-7.6-14.005-6.03-27.285-15.193-43.467-11.826-11.557,2.516-22.21,13.6-18.134,27.585,5.694,18.641.545,35.885-6.924,53.164-2.016,4.23-1.56,9.481.393,14.582a33.668,33.668,0,0,0,7.891.434l1.992-14,3.735,13.956s8.019,4.42,36.516-1.915,33.474-1.7,35.671-6.556-3.188-22.451-3.188-22.451l11.64,22.932a36.292,36.292,0,0,0-1.34-21.656" transform="translate(-6.374 -217.02)" fill="#d38a20"/>
          <path id="Trazado_1002871" data-name="Trazado 1002871" d="M106.246,313.977l-.356-6.852-20.116,1.034-.335,6.26a57.815,57.815,0,0,0,20.807-.443" transform="translate(-16.299 -225.412)" fill="#d8a178"/>
          <path id="Trazado_1002872" data-name="Trazado 1002872" d="M119.111,322.448l-14.838-1.929-.477-4.927a57.819,57.819,0,0,1-20.808.443l-.228,4.267s-6.709,2.824-9.1,3.415c.071,10.894-1.893,40.773-.649,51.751l47.477-.125s1.4-12.967,1.961-17.607c1.792-14.912-3.333-35.288-3.333-35.288" transform="translate(-13.848 -227.028)" fill="#ebbc8e"/>
          <path id="Trazado_1002873" data-name="Trazado 1002873" d="M70.219,289.472l-4.711-11.74S54,274.848,54.6,286.286s12.617,10.776,15.616,3.186" transform="translate(-10.412 -219.743)" fill="#ebbc8e"/>
          <path id="Trazado_1002874" data-name="Trazado 1002874" d="M125.682,286.194l1.419-12.571s10.327-5.839,12.787,5.347-9.3,13.743-14.205,7.224" transform="translate(-23.976 -218.731)" fill="#d8a178"/>
          <path id="Trazado_1002875" data-name="Trazado 1002875" d="M130.157,287.023a.228.228,0,0,0,.152-.354c-.034-.05-3.353-5.07.008-8.227a5.079,5.079,0,0,1,3.745-1.577,6.33,6.33,0,0,1,3.925,1.983.229.229,0,0,0,.345-.3,6.687,6.687,0,0,0-4.244-2.14,5.522,5.522,0,0,0-4.085,1.7c-3.647,3.425-.11,8.764-.074,8.817a.229.229,0,0,0,.228.1" transform="translate(-24.485 -219.551)" fill="#683935"/>
          <path id="Trazado_1002876" data-name="Trazado 1002876" d="M134.989,282.642a.229.229,0,0,0,.067-.431c-.043-.022-4.3-2.156-6.643,1.135a.229.229,0,1,0,.373.266c2.115-2.969,6.021-1.012,6.06-.992a.225.225,0,0,0,.142.022" transform="translate(-24.488 -220.526)" fill="#683935"/>
          <path id="Trazado_1002877" data-name="Trazado 1002877" d="M114.769,237.774s5.493,10.863,7.2,27.379c1.336,12.886-7.646,26.566-23.273,29.217-14.688,2.492-30.668-1.869-37.426-22.132s-1.94-37.455,16.4-44.014,31.919-2.919,37.093,9.55" transform="translate(-11.133 -209.748)" fill="#ebbc8e"/>
          <path id="Trazado_1002878" data-name="Trazado 1002878" d="M89.241,288.631c-.425,2.18-4.078,3.3-8.16,2.508s-7.047-3.206-6.622-5.386,4.077-3.3,8.159-2.507,7.047,3.206,6.623,5.385" transform="translate(-14.196 -220.808)" fill="#d8a178"/>
          <path id="Trazado_1002879" data-name="Trazado 1002879" d="M128.981,284.617c.477,2.151-2.4,4.62-6.429,5.515s-7.68-.123-8.158-2.274,2.4-4.62,6.428-5.515,7.68.123,8.159,2.274" transform="translate(-21.813 -220.623)" fill="#d8a178"/>
          <path id="Trazado_1002880" data-name="Trazado 1002880" d="M78.9,264.558s-2.287-2.02,2.526-4.57,6.509-2,7.3-.734c.717,1.153-.381,2.89-3.113,4.268-3.28,1.653-5.466,2.2-6.709,1.036" transform="translate(-14.947 -216.077)" fill="#d99e2e"/>
          <path id="Trazado_1002881" data-name="Trazado 1002881" d="M126.018,263.874s1.71-2.321-3.617-4.046-6.836-.924-7.278.427c-.4,1.233,1.106,2.75,4.112,3.661,3.608,1.095,5.872,1.28,6.784-.042" transform="translate(-21.949 -216.202)" fill="#d99e2e"/>
          <path id="Trazado_1002882" data-name="Trazado 1002882" d="M121.36,274.887a2.344,2.344,0,1,1-2.309-2.794,2.589,2.589,0,0,1,2.309,2.794" transform="translate(-22.274 -218.73)"/>
          <path id="Trazado_1002883" data-name="Trazado 1002883" d="M90.036,274.887a2.344,2.344,0,1,1-2.309-2.794,2.588,2.588,0,0,1,2.309,2.794" transform="translate(-16.299 -218.73)"/>
          <path id="Trazado_1002884" data-name="Trazado 1002884" d="M66.79,291.407a.229.229,0,0,1-.241-.3c.019-.057,1.885-5.78-2.195-7.928a5.076,5.076,0,0,0-4.03-.524,6.33,6.33,0,0,0-3.256,2.955.229.229,0,0,1-.413-.2,6.679,6.679,0,0,1,3.522-3.19,5.521,5.521,0,0,1,4.391.553c4.426,2.331,2.437,8.419,2.416,8.481a.229.229,0,0,1-.193.155" transform="translate(-10.804 -220.616)" fill="#683935"/>
          <path id="Trazado_1002885" data-name="Trazado 1002885" d="M61.612,288.352a.228.228,0,0,1-.193-.073.23.23,0,0,1,.014-.324c.035-.032,3.572-3.222,6.705-.672a.229.229,0,0,1-.289.356c-2.828-2.3-6.073.626-6.106.655a.228.228,0,0,1-.132.059" transform="translate(-11.705 -221.439)" fill="#683935"/>
          <path id="Trazado_1002886" data-name="Trazado 1002886" d="M106.776,277.95a.227.227,0,0,1-.1-.434,6.151,6.151,0,0,0,2.637-2.489A3.876,3.876,0,0,0,108.89,271a1.6,1.6,0,0,0-2-.114c-.025.013-.065.037-.119.068-2.794,1.635-4.058.909-4.63.011-1.045-1.648-.189-14.686-.088-16.168a.228.228,0,0,1,.455.032c-.273,3.984-.8,14.605.018,15.892.672,1.06,2.023,1.008,4.015-.159.061-.036.108-.064.138-.078a2.046,2.046,0,0,1,2.531.191,4.313,4.313,0,0,1,.518,4.556,6.492,6.492,0,0,1-2.856,2.7.225.225,0,0,1-.093.02" transform="translate(-19.386 -215.39)" fill="#683935"/>
          <path id="Trazado_1002887" data-name="Trazado 1002887" d="M102.69,292.4a3.147,3.147,0,0,0,3.463-1.274,19.662,19.662,0,0,0-6.493-2.6c.357,1.406,1.169,3.268,3.03,3.875" transform="translate(-19.012 -221.865)" fill="#cc555f"/>
          <path id="Trazado_1002888" data-name="Trazado 1002888" d="M99.319,286.432a9.471,9.471,0,0,0,.276,1.7,19.662,19.662,0,0,1,6.493,2.6,8.931,8.931,0,0,0,1.368-2.319c-2.774-2-8.137-1.979-8.137-1.979" transform="translate(-18.947 -221.465)"/>
          <path id="Trazado_1002889" data-name="Trazado 1002889" d="M55.571,266.973s29.055-8.6,34.536-32.471c0,0,25.289,32.738,34.441,23.18,0,0,3.3-28.869-16.245-36.824-10.726-4.364-19.011-2.077-19.011-2.077-14.4-1.986-23.155-3.693-38.267,9.744-15.56,13.835-11.336,45.757,4.546,38.448" transform="translate(-7.875 -208.303)" fill="#e19e2c"/>
          <path id="Trazado_1002890" data-name="Trazado 1002890" d="M16,348.29a30.266,30.266,0,0,1-3.394-27.741,61.3,61.3,0,0,1,3.375-6.986c1.988-3.708,4.045-7.543,4.6-11.733.457-3.472-.134-7.1-.706-10.608-.774-4.75-1.573-9.661.28-14.143,1.522-3.683,4.571-6.378,7.521-8.986a48.068,48.068,0,0,0,4.8-4.656,23.2,23.2,0,0,0,5.33-17.043l.489-.049a23.694,23.694,0,0,1-5.445,17.412,48.486,48.486,0,0,1-4.849,4.7c-3.04,2.688-5.912,5.228-7.392,8.805-1.8,4.353-1.046,8.978-.248,13.876.577,3.544,1.173,7.207.707,10.752-.563,4.279-2.641,8.155-4.651,11.9a61.073,61.073,0,0,0-3.349,6.929A29.77,29.77,0,0,0,16.4,348.009Z" transform="translate(-2.038 -213.818)" fill="#e19e2c"/>
          <path id="Trazado_1002891" data-name="Trazado 1002891" d="M41.668,272.813c-.464,0-.926-.006-1.389-.02l.014-.491a49.643,49.643,0,0,0,50.63-42.953l.488.066a50.136,50.136,0,0,1-49.742,43.4" transform="translate(-7.684 -210.576)" fill="#e19e2c"/>
          <path id="Trazado_1002892" data-name="Trazado 1002892" d="M132.256,257.616A55.228,55.228,0,0,1,92.5,221.461l.467-.152a54.726,54.726,0,0,0,39.4,35.827Z" transform="translate(-17.646 -209.042)" fill="#e19e2c"/>
          <path id="Trazado_1002893" data-name="Trazado 1002893" d="M118.717,547.7,105.6,438.5l25.281-7.345s8.607,81.713,3.62,112.884c0,0,24.309,9.095,24.16,13.686s-28.185.805-28.185.805-17.209,4.089-11.761-10.829" transform="translate(-20.145 -249.073)" fill="#ebbc8e"/>
          <path id="Trazado_1002894" data-name="Trazado 1002894" d="M59.6,550.3s-2.789-54.028-3.341-115.931c-.082-9.224,33.967-.558,33.967-.558S80.377,515.465,75.39,546.635c0,0,23.508,8.887,23.358,13.478s-27.383,1.013-27.383,1.013S54.155,565.215,59.6,550.3" transform="translate(-10.733 -248.875)" fill="#ebbc8e"/>
          <path id="Trazado_1002895" data-name="Trazado 1002895" d="M117.794,389.553s9.83,35.546,8.6,54.8c-.477,7.443.434,87.237.434,87.237s-6.471,1.872-20.553-.672l-11.727-99L77.92,533.454s-13.9,2.344-19.6-1.592c0,0-3.84-53.776-2.157-105.259.542-16.585,9.272-31.718,14.155-37.176Z" transform="translate(-10.632 -241.113)" fill="#42354c"/>
          <path id="Trazado_1002896" data-name="Trazado 1002896" d="M60.144,533.7c-.011,0,.189-2.855.178-2.856-.349-.006-.734,2.846-.927-14.812-.182-16.632-.284-44.5-.3-82.83-.015-.221-1.391-23.848,13.52-43.725a.247.247,0,1,1,.4.3c-14.8,19.727-13.437,43.178-13.422,43.412.034,68.556.324,91.1.571,97.716a.219.219,0,0,1,.165-.057.247.247,0,0,1,.239.255c-.086,2.5-.173,2.6-.417,2.6" transform="translate(-11.265 -241.104)" fill="#2f2537"/>
          <path id="Trazado_1002897" data-name="Trazado 1002897" d="M105.093,424.151h-.008a.247.247,0,0,1-.239-.255l1.088-33.28a.236.236,0,0,1,.256-.239.247.247,0,0,1,.239.255l-1.088,33.28a.249.249,0,0,1-.248.239" transform="translate(-20.001 -241.294)" fill="#2f2537"/>
          <path id="Trazado_1002898" data-name="Trazado 1002898" d="M63.753,412.586a.247.247,0,0,1-.121-.463c4.609-2.576,12.118-10.933,12.651-22.389a.259.259,0,0,1,.258-.236.248.248,0,0,1,.235.258c-.541,11.658-8.2,20.171-12.9,22.8a.242.242,0,0,1-.121.032" transform="translate(-12.114 -241.126)" fill="#2f2537"/>
          <path id="Trazado_1002899" data-name="Trazado 1002899" d="M136.732,410.546a.188.188,0,0,1-.043,0c-1.483-.253-3.194-1.672-4.817-3.991-2.759-3.943-5.271-10.7-4.265-16.232a.247.247,0,1,1,.486.088c-.98,5.39,1.483,12,4.184,15.861,1.525,2.178,2.412,3.684,3.744,3.913.134.023.977.026.954.16a.248.248,0,0,1-.243.206" transform="translate(-24.3 -241.244)" fill="#2f2537"/>
          <path id="Trazado_1002900" data-name="Trazado 1002900" d="M104.292,420.37h-.008c-.138,0-3.384-.185-3.968-6.753-.566-6.364-.185-23.028-.18-23.2a.248.248,0,0,1,.247-.242h.006a.248.248,0,0,1,.241.253c0,.167-.384,16.8.179,23.141.542,6.094,3.464,6.3,3.493,6.3a.247.247,0,0,1-.01.494" transform="translate(-19.077 -241.256)" fill="#2f2537"/>
          <path id="Trazado_1002901" data-name="Trazado 1002901" d="M96.787,395.524A214.106,214.106,0,0,1,70.349,393.9a.248.248,0,0,1-.215-.277.252.252,0,0,1,.276-.214,200.825,200.825,0,0,0,50.562.135.247.247,0,0,1,.077.489,173.8,173.8,0,0,1-24.261,1.494" transform="translate(-13.379 -241.871)" fill="#2f2537"/>
          <path id="Trazado_1002902" data-name="Trazado 1002902" d="M101.516,392.074a1.542,1.542,0,1,0,1.592-1.491,1.542,1.542,0,0,0-1.592,1.491" transform="translate(-19.365 -241.333)" fill="#2f2537"/>
          <path id="Trazado_1002903" data-name="Trazado 1002903" d="M116.367,322.054c7,1.271,13.873,3.843,17.747,8.841,5.769,9.24,13.347,19.78,13.347,19.78l7.918-24.222s4.29-8.813,6.416-8.953.032,4,.032,4,7.195-7.346,8.241-5.945-4.625,6.946-4.625,6.946,7.78-5.993,8.623-3.747c.444,1.343-6.684,5.729-6.684,5.729s7.45-3.893,8.006-2.5-6.752,4.826-6.752,4.826,6.235-2.381,6.709-.906c.4,1.25-6.488,5.124-10.652,6.895-.761,7.973-3.827,30.422-14.472,35.528-11.271,5.406-22.553-17.293-25.357-23.434" transform="translate(-22.199 -226.986)" fill="#ebbc8e"/>
          <path id="Trazado_1002904" data-name="Trazado 1002904" d="M153.218,360.714a.178.178,0,0,1-.067-.014.182.182,0,0,1-.1-.238c.019-.048,1.952-4.914,2.832-7.608a.183.183,0,1,1,.348.114c-.884,2.7-2.821,7.581-2.84,7.63a.184.184,0,0,1-.17.116" transform="translate(-29.194 -234.112)" fill="#683935"/>
          <path id="Trazado_1002905" data-name="Trazado 1002905" d="M124.43,322.333s3.308-3.492,5.146-3.492-.735,4.411.184,6.065,3.492.551,3.676,2.94-2.756,3.676-.551,5.882,4.595,3.124,3.308,5.146a24.236,24.236,0,0,0-2.205,5.33Z" transform="translate(-23.737 -227.647)" fill="#7671af"/>
          <path id="Trazado_1002906" data-name="Trazado 1002906" d="M68.528,329.863l6.454,10.187s-9.564,9.589-20.79,39.849c-4.229,11.4-8.792,27.79-8.792,27.79s4.293,7.868,2.981,9.872-3.609-2.674-3.609-2.674,1.731,11.43-.234,11.422-3.111-8.851-3.111-8.851.121,11.04-2.467,10.278c-1.506-.509-.625-9.878-.625-9.878s-1.542,9.322-3.171,8.879.232-9.327.232-9.327-2.078,7.21-3.724,6.637.3-12.747,1.666-16.453c0,0,3.7-44.74,19.9-74.676,3.259-5.7,8.054-7.224,11.16-6.238a7.617,7.617,0,0,1,4.13,3.184" transform="translate(-5.922 -229.089)" fill="#ebbc8e"/>
          <path id="Trazado_1002907" data-name="Trazado 1002907" d="M81.34,321.363a43.24,43.24,0,0,0,22.685.354s7.628.321,9.649.5,9.6,15.439,9.786,27.477c.125,8.187-4.4,26.7-4.4,26.7s-32.958,3.706-47.478.125l-6.433-27.289s7.9-.643,8.27-11.12-5.031-15.783-5.031-15.783a34.705,34.705,0,0,1,12.947-.974" transform="translate(-12.429 -228.088)" fill="#7671af"/>
          <path id="Trazado_1002908" data-name="Trazado 1002908" d="M94.913,371.135a.218.218,0,0,1-.108-.408,38.4,38.4,0,0,0,16.633-19.148.218.218,0,0,1,.406.161,38.849,38.849,0,0,1-16.822,19.367.219.219,0,0,1-.108.028" transform="translate(-18.064 -233.866)" fill="#4d4b82"/>
          <path id="Trazado_1002909" data-name="Trazado 1002909" d="M104.378,381.019a.218.218,0,0,1-.158-.369,42.121,42.121,0,0,0,9.884-17.178.219.219,0,0,1,.42.121,42.558,42.558,0,0,1-9.988,17.357.215.215,0,0,1-.158.068" transform="translate(-19.87 -236.131)" fill="#4d4b82"/>
          <path id="Trazado_1002910" data-name="Trazado 1002910" d="M68.049,322.32s-3.423-2.32-4.526-.666,3.308,4.595,4.227,5.7-3.308,2.573-2.757,4.595,4.227,3.124,3.86,5.7-4.044,4.043-4.044,5.881v5.7s8.087.184,8.454-10.293-5.215-16.61-5.215-16.61" transform="translate(-12.084 -228.07)" fill="#7671af"/>
          <path id="Trazado_1002911" data-name="Trazado 1002911" d="M172.762,333.595a.166.166,0,0,1-.028,0,.183.183,0,0,1-.153-.209,14.541,14.541,0,0,0-.835-7.527.183.183,0,0,1,.341-.135,14.917,14.917,0,0,1,.856,7.718.182.182,0,0,1-.18.155" transform="translate(-32.761 -228.938)" fill="#683935"/>
        </g>
      </g>
      <g id="Grupo_1192219" data-name="Grupo 1192219">
        <g id="Grupo_1192218" data-name="Grupo 1192218" clip-path="url(#clip-path-2)">
          <path id="Trazado_1002913" data-name="Trazado 1002913" d="M199.686,225.563H161.5c-2.348,0-4.851.114-4.851,3.532s-.53,24.7-.059,27.923c.391,2.678,1.78,3.979,7.571,4.092s31.928-.08,34.9,0c1.877.051,5.4.051,5.634-3.987.239-4.113.174-23.756.15-27.459.024-4.386-5.158-4.1-5.158-4.1" transform="translate(-29.834 -43.029)" fill="#0e5a52"/>
          <path id="Trazado_1002914" data-name="Trazado 1002914" d="M186.609,266.809s-.3,6.093-2.742,10.663c0,0,7.769-1.371,10.206-11.729Z" transform="translate(-35.075 -50.694)" fill="#0e5a52"/>
          <path id="Trazado_1002915" data-name="Trazado 1002915" d="M198.9,236.026H165.729c-.227,0-.469.007-.469.231s-.052,1.618-.006,1.83c.037.176.172.261.731.268s32.569,0,32.856,0c.182,0,.522,0,.545-.261s.017-1.556.015-1.8c0-.287-.5-.269-.5-.269" transform="translate(-31.521 -45.025)" fill="#fff"/>
          <path id="Trazado_1002916" data-name="Trazado 1002916" d="M198.9,246.966H165.729c-.227,0-.469.007-.469.231s-.052,1.618-.006,1.83c.037.176.172.261.731.268s32.569,0,32.856,0c.182,0,.522,0,.545-.261s.017-1.556.015-1.8c0-.287-.5-.269-.5-.269" transform="translate(-31.521 -47.112)" fill="#fff"/>
          <path id="Trazado_1002917" data-name="Trazado 1002917" d="M198.9,258.4H165.729c-.227,0-.469.007-.469.231s-.052,1.618-.006,1.83c.037.175.172.261.731.268s32.569,0,32.856,0c.182,0,.522,0,.545-.261s.017-1.556.015-1.8c0-.287-.5-.269-.5-.269" transform="translate(-31.521 -49.293)" fill="#fff"/>
          <path id="Trazado_1002918" data-name="Trazado 1002918" d="M363.923,243.342H249.774c-7.017,0-14.5.468-14.5,14.5S233.687,359.267,235.1,372.5c1.169,10.994,5.322,16.336,22.632,16.8s95.441-.329,104.324,0c5.614.207,16.139.207,16.841-16.374.715-16.885.523-97.54.448-112.744.074-18.011-15.418-16.842-15.418-16.842" transform="translate(-44.736 -46.418)" fill="#95ebba"/>
          <path id="Trazado_1002919" data-name="Trazado 1002919" d="M222.9,284.49h38.185c2.348,0,4.851.114,4.851,3.532s.53,24.7.059,27.923c-.391,2.678-1.78,3.979-7.571,4.092s-31.928-.08-34.9,0c-1.878.051-5.4.051-5.634-3.987-.24-4.113-.175-23.756-.151-27.458-.024-4.387,5.158-4.1,5.158-4.1" transform="translate(-41.532 -54.27)" fill="#02542b"/>
          <path id="Trazado_1002920" data-name="Trazado 1002920" d="M262.337,325.736s.3,6.093,2.742,10.662c0,0-7.769-1.371-10.205-11.729Z" transform="translate(-48.621 -61.935)" fill="#02542b"/>
          <path id="Trazado_1002921" data-name="Trazado 1002921" d="M231.379,320.338c.441,0,3.186.049,3.6.006.346-.037.513-.168.528-.711s-.011-3,0-3.277c.006-.176.006-.507-.514-.529s-3.065-.016-3.542-.014a.462.462,0,0,0-.529.485v3.586c0,.22.015.456.456.456" transform="translate(-44.052 -60.245)" fill="#fff"/>
          <path id="Trazado_1002922" data-name="Trazado 1002922" d="M245.015,316.3v3.586c0,.221.015.456.456.456s3.186.05,3.6.006c.346-.036.513-.167.528-.711s-.011-3,0-3.277c.006-.176.006-.507-.514-.529s-3.065-.016-3.542-.014a.462.462,0,0,0-.529.484" transform="translate(-46.74 -60.245)" fill="#fff"/>
          <path id="Trazado_1002923" data-name="Trazado 1002923" d="M259.107,316.3v3.586c0,.221.014.456.455.456s3.187.05,3.6.006c.346-.036.513-.167.528-.711s-.01-3,0-3.277c.006-.176.006-.507-.514-.529s-3.065-.016-3.542-.014a.461.461,0,0,0-.528.484" transform="translate(-49.428 -60.245)" fill="#fff"/>
          <path id="Trazado_1002924" data-name="Trazado 1002924" d="M231.379,308.251c.441,0,3.186.049,3.6.006.346-.037.513-.168.528-.711s-.011-14.673,0-14.952c.006-.176.006-.507-.514-.529s-3.065-.016-3.542-.014a.462.462,0,0,0-.529.484V307.8c0,.22.015.456.456.456" transform="translate(-44.052 -55.712)" fill="#fff"/>
          <path id="Trazado_1002925" data-name="Trazado 1002925" d="M245.015,292.534V307.8c0,.22.015.456.456.456s3.186.049,3.6,0c.346-.036.513-.167.528-.711s-.011-14.672,0-14.951c.006-.177.006-.508-.514-.53s-3.065-.017-3.542-.015a.462.462,0,0,0-.529.485" transform="translate(-46.74 -55.712)" fill="#fff"/>
          <path id="Trazado_1002926" data-name="Trazado 1002926" d="M259.107,292.534V307.8c0,.22.014.456.455.456s3.187.049,3.6,0c.346-.036.513-.167.528-.711s-.01-14.672,0-14.951c.006-.177.006-.508-.514-.53s-3.065-.017-3.542-.015a.461.461,0,0,0-.528.485" transform="translate(-49.428 -55.712)" fill="#fff"/>
        </g>
      </g>
      <g id="Grupo_1192221" data-name="Grupo 1192221" transform="translate(177.559 196.909)">
        <g id="Grupo_1192220" data-name="Grupo 1192220" clip-path="url(#clip-path-5)">
          <path id="Trazado_1002927" data-name="Trazado 1002927" d="M259.651,389.271c-.6.935-.941,1.48-.941,1.48l-5.153-13.838-.81-2.98s-2.933-7.934-3.271-10.082c-.4-2.556,1.825-10.061,1.589-12.972-.214-2.644-3.689.378-5.152,1.775-3.376-1.962-14.786-5.445-15.8-3.83-.907,1.441,5.763,4.147,8.054,5.023l-.031.009c-2.752-.944-11.827-3.886-12.27-1.8-.166,1.066,5.8,3.122,8.95,4.13-.021.046-.044.09-.065.138-3.357-.739-9.891-2.022-10.167-.881-.29,1.2,6.522,2.963,9.575,3.693,0,.019,0,.041,0,.061-3.153-.57-10.364-1.741-10.338-.491.033,1.678,7.383,3.546,10.258,4.289l.24-.191a50.878,50.878,0,0,0,1.718,7.89s.66,18.612,6.758,34.815c4.682,12.44,24.672,15.108,38.075-.5-8.8-2.826-16.768-7.658-21.217-15.735" transform="translate(-220.256 -263.373)" fill="#e6a07e"/>
          <path id="Trazado_1002928" data-name="Trazado 1002928" d="M289.315,407.936a42.966,42.966,0,0,0,6.117-9.474l-2.839-34.693a28.922,28.922,0,0,0-13.581,11.29c-4.191,6.566-8.94,14.035-10.916,17.142,4.451,8.077,12.416,12.909,21.218,15.735" transform="translate(-228.703 -266.303)" fill="#dc8765"/>
          <path id="Trazado_1002929" data-name="Trazado 1002929" d="M241.561,361.874s6.4-.186,6.908,4.243" transform="translate(-223.641 -265.941)" fill="none" stroke="#683935" stroke-miterlimit="10" stroke-width="0.642"/>
          <path id="Trazado_1002930" data-name="Trazado 1002930" d="M363.3,277.749s2.514,22.992-5.193,32.683-13.39,12.657-23.377,14.319-37.994-3.381-41.242-9.457-8.525-24.686-5.022-37.007,74.834-.538,74.834-.538" transform="translate(-232.369 -248.924)" fill="#050504"/>
          <path id="Trazado_1002931" data-name="Trazado 1002931" d="M316.012,348.4s3.587-2.009,14.633-1.722,12.626.431,12.626.431l-8.465,14.06L319.6,356.291Z" transform="translate(-237.843 -263.037)" fill="#486f6c"/>
          <path id="Trazado_1002932" data-name="Trazado 1002932" d="M341.221,343.356l.185-10.8-22.771,3.01.267,10.314a45.556,45.556,0,0,0,22.319-2.527" transform="translate(-238.343 -260.349)" fill="#dc8765"/>
          <path id="Trazado_1002933" data-name="Trazado 1002933" d="M341.284,345.9a45.556,45.556,0,0,1-22.319,2.527l.04,1.534s-.728,16.648,10.982,17.768,11.231-17.948,11.231-17.948Z" transform="translate(-238.406 -262.894)" fill="#e6a07e"/>
          <path id="Trazado_1002934" data-name="Trazado 1002934" d="M300.531,316.147l-.03-12.321s-9.373-6.757-12.952,3.81,7.532,14.3,12.982,8.512" transform="translate(-232.281 -254.462)" fill="#dc8765"/>
          <path id="Trazado_1002935" data-name="Trazado 1002935" d="M297.34,316.516a.22.22,0,0,1-.083-.045.223.223,0,0,1-.026-.315c.038-.045,3.789-4.55.872-7.965a4.945,4.945,0,0,0-3.458-1.927,6.16,6.16,0,0,0-4.011,1.5.223.223,0,0,1-.3-.329,6.506,6.506,0,0,1,4.337-1.617,5.373,5.373,0,0,1,3.773,2.083c3.164,3.7-.83,8.5-.871,8.544a.223.223,0,0,1-.231.07" transform="translate(-232.93 -255.246)" fill="#634927"/>
          <path id="Trazado_1002936" data-name="Trazado 1002936" d="M293.9,311.8a.22.22,0,0,1-.148-.135.224.224,0,0,1,.129-.289c.043-.015,4.393-1.627,6.31,1.809a.223.223,0,1,1-.39.217c-1.729-3.1-5.72-1.623-5.761-1.609a.214.214,0,0,1-.14.006" transform="translate(-233.594 -256.234)" fill="#634927"/>
          <path id="Trazado_1002937" data-name="Trazado 1002937" d="M295.686,272.2s-.489,13.161-.36,28.748c.1,12.618,10.3,24.878,25.711,25.741,14.489.81,29.479-5.154,33.811-25.5s.994-36.944-17.475-41.292-36.852-3.4-41.686,12.306" transform="translate(-233.893 -246.061)" fill="#e6a07e"/>
          <path id="Trazado_1002938" data-name="Trazado 1002938" d="M322.128,270.034c.079-.11.129-.172.129-.172s-.046.064-.129.172" transform="translate(-239.01 -248.389)" fill="#e09f25"/>
          <path id="Trazado_1002939" data-name="Trazado 1002939" d="M353.854,294.339s2.443-2.843-2.807-6.322-7.076-2.687-7.906-.917c-.757,1.615.459,4.016,3.438,5.894,3.575,2.253,5.95,2.978,7.276,1.345" transform="translate(-242.976 -251.389)" fill="#050504"/>
          <path id="Trazado_1002940" data-name="Trazado 1002940" d="M303.166,291.854s-1.9-3.23,3.879-5.726,7.44-1.4,7.945.494c.46,1.724-1.161,3.871-4.426,5.193-3.918,1.587-6.383,1.881-7.4.039" transform="translate(-235.335 -251.215)" fill="#050504"/>
          <path id="Trazado_1002941" data-name="Trazado 1002941" d="M341.477,306.329a2.3,2.3,0,1,0,2.232-2.77,2.54,2.54,0,0,0-2.232,2.77" transform="translate(-242.701 -254.817)"/>
          <path id="Trazado_1002942" data-name="Trazado 1002942" d="M307.533,305.725a2.3,2.3,0,1,0,2.232-2.77,2.54,2.54,0,0,0-2.232,2.77" transform="translate(-236.226 -254.702)"/>
          <path id="Trazado_1002943" data-name="Trazado 1002943" d="M322.914,308.514a.223.223,0,0,0,.089-.427,6.03,6.03,0,0,1-2.619-2.411,3.8,3.8,0,0,1,.37-3.96,1.573,1.573,0,0,1,1.965-.137l.118.065c2.762,1.572,4,.843,4.544-.045,1.006-1.63.008-14.417-.108-15.87a.226.226,0,0,0-.24-.2.223.223,0,0,0-.2.241c.315,3.907.96,14.325.173,15.6-.647,1.048-1.974,1.013-3.943-.108-.06-.035-.106-.061-.135-.075a2.008,2.008,0,0,0-2.483.218,4.229,4.229,0,0,0-.453,4.478,6.375,6.375,0,0,0,2.836,2.617.22.22,0,0,0,.092.019" transform="translate(-238.519 -251.377)" fill="#634927"/>
          <path id="Trazado_1002944" data-name="Trazado 1002944" d="M338.617,320.023c.439,2.118,4.011,3.167,7.977,2.344s6.824-3.207,6.385-5.325-4.011-3.167-7.977-2.344-6.824,3.207-6.385,5.325" transform="translate(-242.147 -256.888)" fill="#dc8765"/>
          <path id="Trazado_1002945" data-name="Trazado 1002945" d="M312.7,319.664c-.5,2.106-4.094,3.06-8.037,2.132s-6.736-3.387-6.241-5.494,4.094-3.059,8.037-2.131,6.737,3.387,6.241,5.493" transform="translate(-234.477 -256.774)" fill="#dc8765"/>
          <path id="Trazado_1002946" data-name="Trazado 1002946" d="M308.061,248.031c14.436-2.749,28.093,2.891,33.182,5.373-.4-3.018,1.013-6.5,2.024-6.483,1.337.018.978,5.9.836,7.7l.16.032c.587-1.333,2.366-4.877,4.158-3.561,1.22.9-.284,2.737-1.855,4.19,4.652,1.57,15.47,4.643,16.583,17.553,1.319,15.3-5.451,22.422-5.451,22.422s-1.97.5-9.227-2.325c-2.193-.853-8.109-31-16.166-23.268-17.119,16.423-25.563,14.593-40.218,17.278-5.156.944-3.26,4.332-5.194-5.5s2.912-29.937,21.168-33.414" transform="translate(-232.213 -244.013)" fill="#050504"/>
          <path id="Trazado_1002947" data-name="Trazado 1002947" d="M358.562,312.976l3.279-11.876s10.824-4.046,11.488,7.091-11.037,11.8-14.767,4.786" transform="translate(-245.96 -254.211)" fill="#e6a07e"/>
          <path id="Trazado_1002948" data-name="Trazado 1002948" d="M362.983,314.376a.233.233,0,0,0,.092-.019.223.223,0,0,0,.111-.3c-.024-.054-2.406-5.411,1.331-7.9a4.948,4.948,0,0,1,3.851-.911,6.161,6.161,0,0,1,3.451,2.536.223.223,0,0,0,.38-.235,6.511,6.511,0,0,0-3.732-2.737,5.372,5.372,0,0,0-4.2.976c-4.054,2.7-1.516,8.4-1.49,8.459a.224.224,0,0,0,.2.129" transform="translate(-246.61 -255.036)" fill="#634927"/>
          <path id="Trazado_1002949" data-name="Trazado 1002949" d="M368.487,310.875a.223.223,0,0,0,.134-.4c-.037-.028-3.783-2.763-6.564.021a.223.223,0,0,0,.316.316c2.509-2.512,5.947,0,5.981.022a.227.227,0,0,0,.134.044" transform="translate(-246.614 -255.902)" fill="#634927"/>
          <path id="Trazado_1002950" data-name="Trazado 1002950" d="M298.939,318.508A13.5,13.5,0,1,1,312.825,305.4a13.521,13.521,0,0,1-13.886,13.111m.754-26.281a12.787,12.787,0,1,0,12.414,13.149,12.8,12.8,0,0,0-12.414-13.149" transform="translate(-232.084 -252.518)" fill="#1c1d27"/>
          <path id="Trazado_1002951" data-name="Trazado 1002951" d="M344.542,319.817a13.5,13.5,0,1,1,13.886-13.111,13.52,13.52,0,0,1-13.886,13.111m.754-26.28a12.786,12.786,0,1,0,12.414,13.148A12.8,12.8,0,0,0,345.3,293.537" transform="translate(-240.783 -252.767)" fill="#1c1d27"/>
          <path id="Trazado_1002952" data-name="Trazado 1002952" d="M329.31,306.624a.36.36,0,0,1-.18-.054c-5.05-3.156-10.343-.328-10.4-.3a.359.359,0,1,1-.345-.63c.057-.03,5.72-3.055,11.121.319a.359.359,0,0,1-.2.664" transform="translate(-238.261 -254.971)" fill="#1c1d27"/>
          <path id="Trazado_1002953" data-name="Trazado 1002953" d="M327.566,324.089a3.225,3.225,0,0,1-3.546-1.3,20.135,20.135,0,0,1,6.649-2.664c-.366,1.44-1.2,3.346-3.1,3.968" transform="translate(-239.371 -257.977)" fill="#cc555f"/>
          <path id="Trazado_1002954" data-name="Trazado 1002954" d="M330.621,317.975a9.69,9.69,0,0,1-.282,1.737,20.131,20.131,0,0,0-6.648,2.664,9.153,9.153,0,0,1-1.4-2.374c2.841-2.045,8.333-2.026,8.333-2.026" transform="translate(-239.04 -257.567)"/>
          <path id="Trazado_1002955" data-name="Trazado 1002955" d="M382.894,446.546s-4.951,13.922-17.863,21.1a34.885,34.885,0,0,0,15.782,11.764s12.625-11.764,17.79-23.816c4.167-9.722,1.423-32.886-1-45.7a50.166,50.166,0,0,1-18.778,9.288Z" transform="translate(-247.194 -275.102)" fill="#e6a07e"/>
          <path id="Trazado_1002956" data-name="Trazado 1002956" d="M380.863,410.892l.984,6.618a50.166,50.166,0,0,0,18.778-9.288c-.58-3.068-1.141-5.549-1.585-7.1Z" transform="translate(-250.214 -273.428)" fill="#dc8765"/>
          <path id="Trazado_1002957" data-name="Trazado 1002957" d="M325.18,355.2l-1.865,7.317s-2.582-6.743-2.869-7.46-18.294.006-18.294.006-10.429.161-15.074,3.509c-5.766,3.56-12.75,17.214-16.237,21.121,0,0-1.74,10.083,21.5,16.682,0,0,.842,15.782.269,22.095s-2.87,28.407-2.87,28.407A45.789,45.789,0,0,0,317,460.366s4.877-2.582,6.886-7.173c0,0,4.878,7.173,11.191,8.608s18.938-9.182,24.1-15.494,5.739-10.33,5.739-10.33l-5.165-37.014s10.616-2.582,18.363-15.208c0,0-9.755-21.233-14.06-23.529s-24.963-5.738-24.963-5.738Z" transform="translate(-229.221 -264.532)" fill="#3a71a1"/>
          <path id="Trazado_1002958" data-name="Trazado 1002958" d="M380.722,405.861l.214,3.018s13.629-3.587,20.8-12.194c0,0-.286-4.878-2.653-6.031a66.843,66.843,0,0,1-18.364,15.207" transform="translate(-250.187 -271.432)" fill="#2f658e"/>
          <path id="Trazado_1002959" data-name="Trazado 1002959" d="M292.417,402.355v4.724A46.748,46.748,0,0,1,268.21,391.67s.287-4.878,2.654-6.032a111.751,111.751,0,0,0,21.553,16.717" transform="translate(-228.724 -270.475)" fill="#2f658e"/>
          <path id="Trazado_1002960" data-name="Trazado 1002960" d="M327.681,353.979s-12.051-4.448-13.055-5.165a61.016,61.016,0,0,0-5.882,7.173s9.756,9.469,12.912,10.187Z" transform="translate(-236.456 -263.45)" fill="#2f658e"/>
          <path id="Trazado_1002961" data-name="Trazado 1002961" d="M338,353.53s8.465-5.6,9.469-6.313a37,37,0,0,1,7.891,7.748s-8.178,10.043-11.334,10.76Z" transform="translate(-242.037 -263.145)" fill="#2f658e"/>
          <path id="Trazado_1002962" data-name="Trazado 1002962" d="M336.225,455.216a.171.171,0,0,1-.171-.169l-.573-90.672a.17.17,0,0,1,.169-.172h0a.17.17,0,0,1,.171.169l.574,90.672a.171.171,0,0,1-.17.172Z" transform="translate(-241.557 -266.386)" fill="#2f658e"/>
          <path id="Trazado_1002963" data-name="Trazado 1002963" d="M345.507,386.589l17.051-.948a1.956,1.956,0,0,1,2.045,1.681l1.894,13.49a1.957,1.957,0,0,1-.694,1.782l-7.884,6.492a1.956,1.956,0,0,1-2.19.2l-11.293-6.247a1.955,1.955,0,0,1-1.008-1.746l.232-12.788a1.955,1.955,0,0,1,1.847-1.917" transform="translate(-243.073 -270.475)" fill="#2f658e"/>
          <rect id="Rectángulo_456363" data-name="Rectángulo 456363" width="20.954" height="0.682" transform="translate(100.611 118.743) rotate(-1.565)" fill="#3a71a1"/>
          <path id="Trazado_1002964" data-name="Trazado 1002964" d="M341.272,458.885a.171.171,0,0,1-.171-.167l-1.721-94.044a.162.162,0,0,1,.01-.059l1.291-3.659a.171.171,0,0,1,.322.113l-1.281,3.629,1.721,94.011a.171.171,0,0,1-.168.174Z" transform="translate(-242.301 -265.745)" fill="#2f658e"/>
          <path id="Trazado_1002965" data-name="Trazado 1002965" d="M333.578,363.96a9.816,9.816,0,0,1-5.564-1.39.171.171,0,1,1,.2-.275c.036.027,3.757,2.645,10.9.405a.17.17,0,1,1,.1.325,18.825,18.825,0,0,1-5.635.935" transform="translate(-240.119 -266.015)" fill="#486f6c"/>
          <path id="Trazado_1002966" data-name="Trazado 1002966" d="M338.551,367.536a1.076,1.076,0,1,1-1.076-1.076,1.076,1.076,0,0,1,1.076,1.076" transform="translate(-241.732 -266.816)" fill="#2f658e"/>
          <path id="Trazado_1002967" data-name="Trazado 1002967" d="M338.551,383.138a1.076,1.076,0,1,1-1.076-1.076,1.076,1.076,0,0,1,1.076,1.076" transform="translate(-241.732 -269.793)" fill="#2f658e"/>
          <path id="Trazado_1002968" data-name="Trazado 1002968" d="M338.387,399.446a1.076,1.076,0,1,1-.064-1.521,1.076,1.076,0,0,1,.064,1.521" transform="translate(-241.755 -272.765)" fill="#2f658e"/>
          <path id="Trazado_1002969" data-name="Trazado 1002969" d="M338.8,417.729a1.076,1.076,0,1,1-.064-1.521,1.077,1.077,0,0,1,.064,1.521" transform="translate(-241.834 -276.252)" fill="#2f658e"/>
          <path id="Trazado_1002970" data-name="Trazado 1002970" d="M338.976,435.458a1.076,1.076,0,1,1-.065-1.521,1.078,1.078,0,0,1,.065,1.521" transform="translate(-241.867 -279.634)" fill="#2f658e"/>
        </g>
      </g>
      <g id="Grupo_1192223" data-name="Grupo 1192223">
        <g id="Grupo_1192222" data-name="Grupo 1192222" clip-path="url(#clip-path-2)">
          <path id="Trazado_1002972" data-name="Trazado 1002972" d="M396.11,166.506V52.357c0-7.017-.468-14.5-14.5-14.5s-101.422-1.584-114.653-.177c-10.993,1.17-16.336,5.323-16.8,22.633s.329,95.441,0,104.324c-.207,5.614-.207,16.139,16.374,16.841,16.885.715,97.54.523,112.744.448,18.011.074,16.842-15.418,16.842-15.418" transform="translate(-47.691 -7.076)" fill="#d0e1dd"/>
        </g>
      </g>
      <g id="Grupo_1192225" data-name="Grupo 1192225" transform="translate(188.341 6.803)">
        <g id="Grupo_1192224" data-name="Grupo 1192224" clip-path="url(#clip-path-7)">
          <path id="Trazado_1002973" data-name="Trazado 1002973" d="M409.993,193.7a120.269,120.269,0,0,0-5.51-14.252c-2.92-5.881-7.619-7.682-10.777-6.879a7.621,7.621,0,0,0-4.309,2.937l-7.039,9.793s1.949,2.616,6.279,14.455c7.994.736,15.056-1.807,21.356-6.053" transform="translate(-261.281 -39.689)" fill="#b16860"/>
          <path id="Trazado_1002974" data-name="Trazado 1002974" d="M411.473,198.724c-6.3,4.246-13.362,6.789-21.356,6.053.37,1.014.757,2.087,1.162,3.24a5.151,5.151,0,0,0,2.411-.742,5.151,5.151,0,0,1-2.411.742c1.7,4.837,3.716,10.936,6.063,18.608,3.555,11.625,12.075,32.949,12.075,32.949s-4.745,7.6-3.553,9.68,3.76-2.458,3.76-2.458-2.4,11.308-.435,11.416,3.623-8.654,3.623-8.654-.766,11.014,1.861,10.4c1.533-.42,1.2-9.823,1.2-9.823s.995,9.4,2.647,9.049.313-9.325.313-9.325,1.653,7.319,3.329,6.843.448-12.743-.7-16.522c0,0-.787-32.707-9.989-61.459" transform="translate(-262.761 -44.713)" fill="#b57567"/>
          <path id="Trazado_1002975" data-name="Trazado 1002975" d="M255.922,153.88a18.759,18.759,0,0,0-1.748-6.141c-.339-1.619-1.024-2.5-1.052-5.586a6.365,6.365,0,0,1,.745-3.665c3.884-5.366,10,.455,10,.455s-1.118-9.63.878-9.342,2.13,12.454,2.13,12.454a86.354,86.354,0,0,1-.024,9.086l.854,3.231" transform="translate(-236.627 -31.525)" fill="#b57567"/>
          <path id="Trazado_1002976" data-name="Trazado 1002976" d="M267.293,152.489a.172.172,0,0,1-.129-.057c-.278-.31-6.776-7.613-6.157-10.056a1.09,1.09,0,0,1,.747-.879c1.343-.369,3.832,2.082,3.936,2.187a.173.173,0,0,1-.244.246c-.678-.674-2.635-2.362-3.6-2.1a.765.765,0,0,0-.5.63c-.575,2.267,6.013,9.666,6.079,9.741a.172.172,0,0,1-.129.288" transform="translate(-238.124 -33.788)" fill="#503a33"/>
          <path id="Trazado_1002977" data-name="Trazado 1002977" d="M258,149.385a.179.179,0,0,1-.093-.027.174.174,0,0,1-.053-.24,7.905,7.905,0,0,1,3.65-2.937.173.173,0,0,1,.117.326,7.684,7.684,0,0,0-3.475,2.8.174.174,0,0,1-.146.08" transform="translate(-237.524 -34.688)" fill="#503a33"/>
          <path id="Trazado_1002978" data-name="Trazado 1002978" d="M257.243,145.412a1.918,1.918,0,0,1-1.556-1.28,5.8,5.8,0,0,1,.645-5.746.173.173,0,0,1,.27.216,5.443,5.443,0,0,0-.6,5.383c.377.813.931,1.13,1.333,1.075.331-.043.567-.326.647-.778a.168.168,0,0,1,.2-.139.173.173,0,0,1,.141.2,1.165,1.165,0,0,1-.944,1.059.952.952,0,0,1-.136.009" transform="translate(-237.02 -33.19)" fill="#503a33"/>
          <path id="Trazado_1002979" data-name="Trazado 1002979" d="M259.037,144.369c-.5,0-1.068-.343-1.419-1.2a4.151,4.151,0,0,1,1.557-5.309.172.172,0,0,1,.235.065.174.174,0,0,1-.063.236,3.75,3.75,0,0,0-1.408,4.877c.359.881.959,1.1,1.36.94.5-.2.767-.978.324-2.073-.7-1.72,1.041-3.433,1.116-3.506a.173.173,0,0,1,.24.249c-.016.015-1.646,1.623-1.036,3.127.555,1.364.122,2.264-.515,2.522a1.023,1.023,0,0,1-.392.076" transform="translate(-237.41 -33.097)" fill="#503a33"/>
          <path id="Trazado_1002980" data-name="Trazado 1002980" d="M255,147.009a1.251,1.251,0,0,1-.914-.481,4.577,4.577,0,0,1-.829-3.5.165.165,0,0,1,.194-.148.174.174,0,0,1,.149.2,4.277,4.277,0,0,0,.744,3.222,1.03,1.03,0,0,0,.668.364c.7-.015.739-.887.74-.924a.167.167,0,0,1,.178-.168.173.173,0,0,1,.168.179c-.014.428-.257,1.241-1.078,1.259Z" transform="translate(-236.645 -34.059)" fill="#503a33"/>
          <path id="Trazado_1002981" data-name="Trazado 1002981" d="M278.143,180.271c-1.062,1.7-1.683,2.768-1.683,2.768l-9.118-28.083.078-1.754a89.436,89.436,0,0,0-11.055,1.944c-.333,7.756-1.8,43.176,8.3,51.519,10.746,8.881,24.492-4.253,32.348-13.817a34.734,34.734,0,0,1-18.867-12.577" transform="translate(-237.195 -36.029)" fill="#b57567"/>
          <path id="Trazado_1002982" data-name="Trazado 1002982" d="M305.95,155.65c-7.879,2.522-18.536,18.558-22.61,25.087a34.73,34.73,0,0,0,18.867,12.577,97.358,97.358,0,0,0,6.262-8.476Z" transform="translate(-242.392 -36.496)" fill="#b16860"/>
          <path id="Trazado_1002983" data-name="Trazado 1002983" d="M350.952,149.65s14.671,2.747,23.367,7.1,14.048,19,14.048,19-6.126,9.377-16.75,12.362a155.792,155.792,0,0,0,.592,15.749c.728,6.651,2.657,22.783-5.427,24.658s-25.174,1.37-33.824,1.894-19.634-1.191-25.319-3.9-8.274-5.33-8.364-14.871,3.284-28.435,3.284-28.435a28.017,28.017,0,0,1-16.312-12.052s10.559-18.755,23.217-20.684c10.857-1.656,23.043-3.766,41.489-.833" transform="translate(-242.947 -35.072)" fill="#e3aba3"/>
          <path id="Trazado_1002984" data-name="Trazado 1002984" d="M391.654,194.568c-.626.212-.264,3.405-.264,3.405s10.957,1.08,20.3-11.877c0,0,.412-3.407-3.884-4.106,0,0-6.717,9.383-16.156,12.578" transform="translate(-262.984 -41.52)" fill="#e28279"/>
          <path id="Trazado_1002985" data-name="Trazado 1002985" d="M302.123,187.391c.6.2-.63,3.409-.63,3.409s-10.336,1.28-19.405-11.5c0,0-.452-3.4,3.6-4.176,0,0,7.46,9.25,16.438,12.273" transform="translate(-242.15 -40.209)" fill="#e28279"/>
          <path id="Trazado_1002986" data-name="Trazado 1002986" d="M338.579,226.459a.176.176,0,0,0,.1-.32,62.29,62.29,0,0,1-17.395-18.332.176.176,0,0,0-.3.185,62.661,62.661,0,0,0,17.493,18.434.177.177,0,0,0,.1.032" transform="translate(-249.569 -46.429)" fill="#d49a2c"/>
          <path id="Trazado_1002987" data-name="Trazado 1002987" d="M326.923,231.261a.175.175,0,0,0,.132-.291,56.777,56.777,0,0,1-11.018-18.9.175.175,0,1,0-.332.114A57.132,57.132,0,0,0,326.791,231.2a.175.175,0,0,0,.132.06" transform="translate(-248.565 -47.236)" fill="#d49a2c"/>
          <path id="Trazado_1002988" data-name="Trazado 1002988" d="M365.249,154.123a2.514,2.514,0,0,0-1.542-4.159,137.679,137.679,0,0,0-13.775-1.313c-3.945-.1-8.618-.1-12.083-.066a3.5,3.5,0,0,0-2.99,5.285c2.005,3.308,5.9,7.044,13.344,7.463a20.694,20.694,0,0,0,17.046-7.21" transform="translate(-252.124 -35.144)" fill="#e28279"/>
          <path id="Trazado_1002989" data-name="Trazado 1002989" d="M355.207,149.983s-2.175,14.62-2.5,24.373c0,0-22.27-1.3-29.422-1.625,0,0,1.145-19.516,2.12-24.068a46.63,46.63,0,0,0-6.081.579,84.579,84.579,0,0,0-4,23.652s-13,29.909-15.6,32.51L289.8,302.122l89.891.163L374,213.043s-10.729-29.909-13.33-36.412c0,0,.325-20.238,1.951-25.115a31.912,31.912,0,0,0-7.416-1.534" transform="translate(-243.625 -35.163)" fill="#cc555f"/>
          <path id="Trazado_1002990" data-name="Trazado 1002990" d="M342.476,210.856c-15.121-1.22-15.053-18.068-15.05-18.239a.193.193,0,0,1,.059-.136.227.227,0,0,1,.138-.054c12.3.241,32.72,1.451,32.924,1.463a.193.193,0,0,1,.18.225c-.028.173-2.927,16.8-16.785,16.8q-.712,0-1.465-.06m-14.662-18.039c.04,1.869.806,16.534,14.694,17.654,13.87,1.116,17.4-14.214,17.8-16.209-2.23-.13-20.873-1.209-32.491-1.445" transform="translate(-250.802 -43.511)" fill="#e28279"/>
          <path id="Trazado_1002991" data-name="Trazado 1002991" d="M376.175,251.632a.193.193,0,0,0,.017-.385c-.54-.046-54.129-4.59-72.717-.728a.193.193,0,0,0,.079.378c18.531-3.851,72.067.689,72.605.735h.016" transform="translate(-246.204 -54.297)" fill="#af3c2a"/>
          <path id="Trazado_1002992" data-name="Trazado 1002992" d="M375.271,258.864a.193.193,0,0,0,.017-.385c-.54-.046-54.13-4.589-72.717-.728a.193.193,0,0,0-.15.228.2.2,0,0,0,.228.15c18.533-3.851,72.066.689,72.605.735h.016" transform="translate(-246.031 -55.676)" fill="#af3c2a"/>
          <path id="Trazado_1002993" data-name="Trazado 1002993" d="M347.5,280.052a.193.193,0,0,0,.193-.185l1.219-29.991a.192.192,0,0,0-.185-.2.189.189,0,0,0-.2.185l-1.219,29.99a.192.192,0,0,0,.185.2Z" transform="translate(-254.596 -54.432)" fill="#af3c2a"/>
          <path id="Trazado_1002994" data-name="Trazado 1002994" d="M346.116,276.336a.193.193,0,1,0,0-.386c-.221,0-5.424-.084-5.659-6.4-.24-6.5.721-19.839.731-19.973a.192.192,0,0,0-.178-.206.179.179,0,0,0-.206.178c-.01.134-.974,13.5-.732,20.014.248,6.692,5.987,6.77,6.045,6.77" transform="translate(-253.207 -54.374)" fill="#af3c2a"/>
          <path id="Trazado_1002995" data-name="Trazado 1002995" d="M299.009,269.875l.024,0a19.344,19.344,0,0,0,15.444-12.435.193.193,0,0,0-.363-.129,18.951,18.951,0,0,1-15.129,12.181.193.193,0,0,0,.024.384" transform="translate(-245.344 -55.864)" fill="#af3c2a"/>
          <path id="Trazado_1002996" data-name="Trazado 1002996" d="M391.741,275.408a.193.193,0,0,0,.092-.363,19.288,19.288,0,0,1-9.667-13.775.191.191,0,0,0-.22-.161.193.193,0,0,0-.161.22,19.678,19.678,0,0,0,9.864,14.055.191.191,0,0,0,.092.023" transform="translate(-261.171 -56.613)" fill="#af3c2a"/>
          <path id="Trazado_1002997" data-name="Trazado 1002997" d="M374.473,182.325l-8.025-1.093a2.119,2.119,0,0,1-1.812-2.384l.106-.778a2.121,2.121,0,0,1,2.385-1.812l8.024,1.094a2.118,2.118,0,0,1,1.812,2.383l-.106.777a2.118,2.118,0,0,1-2.093,1.832,2.21,2.21,0,0,1-.291-.019m-9.348-4.2-.105.778a1.729,1.729,0,0,0,1.482,1.948l8.024,1.093a1.727,1.727,0,0,0,1.949-1.481l.106-.777a1.73,1.73,0,0,0-1.482-1.949l-8.024-1.094a1.77,1.77,0,0,0-.235-.016,1.734,1.734,0,0,0-1.715,1.5" transform="translate(-257.897 -40.423)" fill="#e28279"/>
          <path id="Trazado_1002998" data-name="Trazado 1002998" d="M367.437,185.649a2.926,2.926,0,1,0,2.926-2.926,2.926,2.926,0,0,0-2.926,2.926" transform="translate(-258.435 -41.66)" fill="#e28279"/>
          <path id="Trazado_1002999" data-name="Trazado 1002999" d="M329.226,177.593l-8.1-.011a2.119,2.119,0,0,1-2.115-2.119v-.785a2.116,2.116,0,0,1,2.116-2.114h0l8.1.01a2.116,2.116,0,0,1,2.115,2.119v.785a2.118,2.118,0,0,1-2.116,2.115Zm-8.1-.2h0Zm-1.214-3.935a1.721,1.721,0,0,0-.509,1.224v.784a1.734,1.734,0,0,0,1.729,1.734l8.1.01h0a1.732,1.732,0,0,0,1.73-1.729v-.785a1.73,1.73,0,0,0-1.729-1.733l-8.1-.01h0a1.72,1.72,0,0,0-1.221.5" transform="translate(-249.197 -39.722)" fill="#e28279"/>
          <path id="Trazado_1003000" data-name="Trazado 1003000" d="M322.7,181.8a2.926,2.926,0,1,0,2.508-3.29,2.926,2.926,0,0,0-2.508,3.29" transform="translate(-249.895 -40.852)" fill="#e28279"/>
          <path id="Trazado_1003001" data-name="Trazado 1003001" d="M365.561,39.665c0,8.62,7.324,15.608,16.359,15.608s16.359-6.988,16.359-15.608-7.324-15.608-16.359-15.608-16.359,6.988-16.359,15.608" transform="translate(-258.077 -11.392)" fill="#503a33"/>
          <ellipse id="Elipse_13851" data-name="Elipse 13851" cx="16.646" cy="15.882" rx="16.646" ry="15.882" transform="translate(108.097 12.165)" fill="none" stroke="#503a33" stroke-linecap="round" stroke-linejoin="round" stroke-width="0.438"/>
          <path id="Trazado_1003002" data-name="Trazado 1003002" d="M368.258,46.627s21.311-.3,23.112,15.008-4.2,17.709-1.2,21.611,9.3,8.4,7.5,14.708-4.8,7.8-3.3,12.007,2.1,6,.9,9.6c0,0-12.906,4.5-20.411,3l-.9-8.7-2.4,8.4a60.349,60.349,0,0,1-31.517.9c-17.109-4.2-27.614-2.4-33.617-6.9l3-12.307-6.3,10.806s-2.176,1.5-12.381-2.7c0,0-3.6-6.078-1.8-12.831,2.252-8.446,5.4-6.829,6.3-13.733s.275-16.02,8.48-22.962c7.8-6.6,3.6-10.5,8.4-17.109s28.215-10.8,46.525-1.5" transform="translate(-243.365 -14.153)" fill="#503a33"/>
          <path id="Trazado_1003003" data-name="Trazado 1003003" d="M319.882,112.242l.334-13.162s-9.811-7.5-13.948,3.684,7.621,15.5,13.614,9.479" transform="translate(-246.602 -25.235)" fill="#b57567"/>
          <path id="Trazado_1003004" data-name="Trazado 1003004" d="M315.721,131.977c-.108,0-.217,0-.325-.006a7.932,7.932,0,0,1-2.857-15.191.412.412,0,1,1,.332.755,7.107,7.107,0,1,0,9.748,8.229.412.412,0,1,1,.8.2,7.955,7.955,0,0,1-7.7,6.015" transform="translate(-247.057 -29.074)" fill="#e19e2c"/>
          <path id="Trazado_1003005" data-name="Trazado 1003005" d="M387.225,117.684l3.856-12.589s11.682-4,12.06,7.915-12.14,12.283-15.916,4.674" transform="translate(-262.21 -26.728)" fill="#b57567"/>
          <path id="Trazado_1003006" data-name="Trazado 1003006" d="M388.279,135.556A7.928,7.928,0,0,1,380.524,126a.412.412,0,0,1,.808.168,7.107,7.107,0,1,0,12.359-3.16.412.412,0,0,1,.626-.537,7.929,7.929,0,0,1-6.038,13.083" transform="translate(-260.899 -30.139)" fill="#e19e2c"/>
          <path id="Trazado_1003007" data-name="Trazado 1003007" d="M344.152,146.436a37.675,37.675,0,0,1-4.882-1.8l.158-8.368,21.314,1.646-.038,8.422a28.777,28.777,0,0,1-16.552.1" transform="translate(-253.062 -32.798)" fill="#b16860"/>
          <path id="Trazado_1003008" data-name="Trazado 1003008" d="M344.133,148.409a28.777,28.777,0,0,0,16.552-.1l-.023,5.218c-8.045,6.013-17.972,3.855-21.493-2.5l.083-4.418a37.675,37.675,0,0,0,4.882,1.8" transform="translate(-253.042 -34.77)" fill="#b57567"/>
          <path id="Trazado_1003009" data-name="Trazado 1003009" d="M318.818,65.621s-.914,14.045-1.241,30.7c-.265,13.482,10.261,26.881,26.7,28.262,15.452,1.3,31.642-4.628,36.875-26.236s2.16-39.435-17.439-44.629-39.265-4.73-44.9,11.9" transform="translate(-248.922 -16.493)" fill="#b57567"/>
          <path id="Trazado_1003010" data-name="Trazado 1003010" d="M347.427,63.926c.087-.116.143-.18.143-.18s-.052.066-.143.18" transform="translate(-254.618 -18.964)" fill="#503a33"/>
          <path id="Trazado_1003011" data-name="Trazado 1003011" d="M379.832,95.606s2.694-2.964-2.81-6.836-7.479-3.081-8.418-1.215c-.857,1.7.371,4.3,3.5,6.4,3.752,2.513,6.268,3.358,7.732,1.653" transform="translate(-258.607 -23.21)" fill="#503a33"/>
          <path id="Trazado_1003012" data-name="Trazado 1003012" d="M325.2,92.222s-1.936-3.506,4.315-6,7.988-1.269,8.471.765c.44,1.855-1.355,4.1-4.881,5.415-4.232,1.578-6.874,1.818-7.9-.179" transform="translate(-250.324 -22.985)" fill="#503a33"/>
          <path id="Trazado_1003013" data-name="Trazado 1003013" d="M392.018,118.911a.238.238,0,0,0,.223-.333c-.025-.058-2.462-5.829,1.581-8.415a5.284,5.284,0,0,1,4.134-.9,6.579,6.579,0,0,1,3.636,2.78A.239.239,0,0,0,402,111.8a6.956,6.956,0,0,0-3.933-3,5.746,5.746,0,0,0-4.505.959c-4.386,2.806-1.788,8.945-1.762,9.008a.238.238,0,0,0,.214.143" transform="translate(-262.933 -27.533)" fill="#503a33"/>
          <path id="Trazado_1003014" data-name="Trazado 1003014" d="M397.991,115.27a.238.238,0,0,0,.151-.427c-.039-.031-3.987-3.028-7.013-.11a.239.239,0,0,0,.331.344c2.731-2.633,6.353.116,6.39.144a.237.237,0,0,0,.142.049" transform="translate(-262.94 -28.447)" fill="#503a33"/>
          <path id="Trazado_1003015" data-name="Trazado 1003015" d="M349.181,105.165a.239.239,0,0,0,.108-.454,6.448,6.448,0,0,1-2.725-2.653,4.066,4.066,0,0,1,.513-4.219,1.683,1.683,0,0,1,2.1-.087l.124.074c2.9,1.76,4.243,1.019,4.855.087,1.123-1.712.438-15.4.357-16.956a.244.244,0,0,0-.252-.226.24.24,0,0,0-.226.252c.22,4.183.6,15.331-.278,16.669-.723,1.1-2.139,1.023-4.21-.233-.063-.039-.111-.068-.142-.085a2.148,2.148,0,0,0-2.659.159,4.522,4.522,0,0,0-.617,4.77,6.809,6.809,0,0,0,2.951,2.88.235.235,0,0,0,.1.023" transform="translate(-254.294 -22.204)" fill="#503a33"/>
          <path id="Trazado_1003016" data-name="Trazado 1003016" d="M346.329,120.4a7.213,7.213,0,0,1-.562-2.246,36.321,36.321,0,0,1,11.227-1.748,10,10,0,0,1-.193,2.565,27.514,27.514,0,0,0-10.471,1.429" transform="translate(-254.301 -29.008)"/>
          <path id="Trazado_1003017" data-name="Trazado 1003017" d="M356.933,119.561c-.389,1.872-1.478,4.142-4.462,4.514-3.679.458-5.295-1.43-6.009-3.085a27.514,27.514,0,0,1,10.471-1.429" transform="translate(-254.434 -29.603)" fill="#7c3645"/>
          <path id="Trazado_1003018" data-name="Trazado 1003018" d="M316.521,112.519a.241.241,0,0,1-.087-.049.239.239,0,0,1-.019-.337c.042-.047,4.183-4.748,1.168-8.483a5.284,5.284,0,0,0-3.636-2.161,6.58,6.58,0,0,0-4.329,1.483.239.239,0,0,1-.312-.361,6.95,6.95,0,0,1,4.68-1.6,5.747,5.747,0,0,1,3.969,2.337c3.27,4.052-1.139,9.051-1.185,9.1a.239.239,0,0,1-.249.068" transform="translate(-247.33 -26.069)" fill="#503a33"/>
          <path id="Trazado_1003019" data-name="Trazado 1003019" d="M313,107.37a.239.239,0,0,1-.007-.453c.047-.016,4.74-1.608,6.686,2.119a.238.238,0,1,1-.422.221c-1.756-3.363-6.063-1.9-6.106-1.889a.24.24,0,0,1-.151,0" transform="translate(-248.018 -27.132)" fill="#503a33"/>
          <path id="Trazado_1003020" data-name="Trazado 1003020" d="M365.816,117.94c.406,2.276,4.19,3.5,8.451,2.742s7.386-3.222,6.98-5.5-4.19-3.5-8.452-2.742-7.385,3.222-6.979,5.5" transform="translate(-258.119 -28.21)" fill="#b16860"/>
          <path id="Trazado_1003021" data-name="Trazado 1003021" d="M338.16,116.759c-.592,2.234-4.464,3.146-8.647,2.037s-7.1-3.819-6.5-6.053,4.465-3.146,8.648-2.037,7.1,3.82,6.5,6.053" transform="translate(-249.945 -27.832)" fill="#b16860"/>
          <path id="Trazado_1003022" data-name="Trazado 1003022" d="M372.327,108.022s.233-4.8-3.6-5.517-5.185,3.881-5.185,3.881" transform="translate(-257.692 -26.343)" fill="none" stroke="#000" stroke-linecap="round" stroke-linejoin="round" stroke-width="0.636"/>
          <line id="Línea_3322" data-name="Línea 3322" y1="0.738" x2="2.579" transform="translate(114.622 80.329)" fill="none" stroke="#000" stroke-linecap="round" stroke-linejoin="round" stroke-width="0.636"/>
          <line id="Línea_3323" data-name="Línea 3323" y1="0.586" x2="1.742" transform="translate(114.73 79.283)" fill="none" stroke="#000" stroke-linecap="round" stroke-linejoin="round" stroke-width="0.752"/>
          <path id="Trazado_1003023" data-name="Trazado 1003023" d="M331.28,104.727s1.244-4.645,5.113-4.155,3.753,5.279,3.753,5.279" transform="translate(-251.537 -25.982)" fill="none" stroke="#000" stroke-linecap="round" stroke-linejoin="round" stroke-width="0.636"/>
          <line id="Línea_3324" data-name="Línea 3324" x1="2.231" y1="1.49" transform="translate(77.711 76.677)" fill="none" stroke="#000" stroke-linecap="round" stroke-linejoin="round" stroke-width="0.636"/>
          <line id="Línea_3325" data-name="Línea 3325" x1="1.48" y1="1.09" transform="translate(78.725 75.904)" fill="none" stroke="#000" stroke-linecap="round" stroke-linejoin="round" stroke-width="0.752"/>
          <path id="Trazado_1003024" data-name="Trazado 1003024" d="M365.913,45.044s22.468,3.679,24.934,16.933-4.522,32.516-4.522,32.516-8.947-4.667-14.353-5.968c-2.911-.7,2.738-4.758-.325-15.125,0,0-3.857,9.551-8.416,10.4-5.374,1-18.2-.634-23.891-4.582-3.125-2.169-1.313-11.61-2.127-12.054-1.611-.879-3.214,10.89-4.927,11.205-1.167.214-9,5.729-11.029,2.726-1.648-2.444-.193-8.647-1.043-8.465-2.331.5-1.9,12.4-3.762,12.823-4.179.947-7.021,1.546-7.75,1.139-3.686-2.06-1.666-26.818,5.617-35.055s31.386-15.394,51.595-6.5" transform="translate(-246.887 -14.614)" fill="#503a33"/>
          <path id="Trazado_1003025" data-name="Trazado 1003025" d="M416.9,121.075a18.838,18.838,0,0,1-1.16-11.744c.661-2.915,2.01-5.631,2.767-8.522s.839-6.186-.861-8.643c-1.943-2.808-5.9-4.1-6.948-7.354-1.131-3.52,1.791-6.883,3.339-10.241a14.416,14.416,0,0,0-20.572-18.359" transform="translate(-263.4 -17.144)" fill="none" stroke="#503a33" stroke-linecap="round" stroke-linejoin="round" stroke-width="0.438"/>
          <path id="Trazado_1003026" data-name="Trazado 1003026" d="M323.717,40.05a32.929,32.929,0,0,0-9.2,1.5,11.116,11.116,0,0,0-6.76,6.054c-.926,2.421-.663,5.13-1.247,7.655-.959,4.145-4.065,7.392-6.88,10.583S294.035,72.731,294,76.986c-.038,4.329,2.76,8.849.856,12.736-1.08,2.2-3.389,3.476-5.138,5.2a12.891,12.891,0,0,0-.944,16.7" transform="translate(-242.928 -14.443)" fill="none" stroke="#503a33" stroke-linecap="round" stroke-linejoin="round" stroke-width="0.438"/>
          <path id="Trazado_1003027" data-name="Trazado 1003027" d="M284.416,198.336a.173.173,0,0,1-.167-.127,50.321,50.321,0,0,0-3.184-8.1.173.173,0,1,1,.308-.157,50.593,50.593,0,0,1,3.209,8.164.173.173,0,0,1-.12.213.193.193,0,0,1-.047.006" transform="translate(-241.955 -43.021)" fill="#503a33"/>
        </g>
      </g>
      <g id="Grupo_1192227" data-name="Grupo 1192227">
        <g id="Grupo_1192226" data-name="Grupo 1192226" clip-path="url(#clip-path-2)">
          <path id="Trazado_1003029" data-name="Trazado 1003029" d="M229,73.369h38.185c2.348,0,4.851.114,4.851,3.532s.53,24.7.059,27.923c-.391,2.678-1.78,3.979-7.571,4.092s-31.928-.08-34.9,0c-1.878.051-5.4.051-5.634-3.987-.24-4.113-.175-23.756-.15-27.459-.024-4.386,5.158-4.1,5.158-4.1" transform="translate(-42.697 -13.995)" fill="#0e5a52"/>
          <path id="Trazado_1003030" data-name="Trazado 1003030" d="M251.1,114.615s.305,6.093,2.742,10.663c0,0-7.769-1.371-10.205-11.729Z" transform="translate(-46.477 -21.661)" fill="#0e5a52"/>
          <path id="Trazado_1003031" data-name="Trazado 1003031" d="M237.3,105.626c.441,0,3.186.049,3.6.006.346-.037.513-.168.528-.711s-.011-3,0-3.277c.006-.176.006-.507-.514-.529s-3.065-.016-3.542-.014a.462.462,0,0,0-.529.485v3.586c0,.22.015.456.456.456" transform="translate(-45.181 -19.286)" fill="#fff"/>
          <path id="Trazado_1003032" data-name="Trazado 1003032" d="M250.935,101.584v3.586c0,.221.015.456.456.456s3.186.05,3.6.006c.346-.036.513-.167.528-.711s-.01-3,0-3.277c.006-.176.006-.507-.514-.529s-3.065-.016-3.542-.015a.462.462,0,0,0-.529.485" transform="translate(-47.869 -19.286)" fill="#fff"/>
          <path id="Trazado_1003033" data-name="Trazado 1003033" d="M265.027,101.584v3.586c0,.221.015.456.456.456s3.186.05,3.6.006c.346-.036.513-.167.528-.711s-.011-3,0-3.277c.006-.176.006-.507-.515-.529s-3.064-.016-3.541-.015a.462.462,0,0,0-.529.485" transform="translate(-50.557 -19.286)" fill="#fff"/>
          <path id="Trazado_1003034" data-name="Trazado 1003034" d="M20.67,15.5V129.647c0,7.017.468,14.5,14.5,14.5s101.422,1.584,114.653.177c10.993-1.17,16.336-5.323,16.8-22.633s-.329-95.441,0-104.324c.207-5.614.207-16.139-16.374-16.841C133.372-.186,52.716.006,37.512.079,19.5.006,20.67,15.5,20.67,15.5" transform="translate(-3.94 0)" fill="#95ebba"/>
        </g>
      </g>
      <g id="Grupo_1192229" data-name="Grupo 1192229" transform="translate(16.715)">
        <g id="Grupo_1192228" data-name="Grupo 1192228" clip-path="url(#clip-path-9)">
          <path id="Trazado_1003035" data-name="Trazado 1003035" d="M73.269,125.6s8.673-1.445,18.342-2.062a165.491,165.491,0,0,1,22.405.677s-8.855,20.4-23.713,16.359S73.269,125.6,73.269,125.6" transform="translate(-30.692 -23.534)" fill="#050504"/>
          <path id="Trazado_1003036" data-name="Trazado 1003036" d="M22.795,232.8s-2.21-30.7,2.045-52.417c6.213-31.707,13.949-41.492,17.895-45.829,5.526-6.075,17.731-9.161,17.731-9.161l9.471-1.227L69.191,111.6l21.922.183L92.22,123.2s7.779,3.843,11.167,5.617c.51,11.733,8.129,11.559,9.6,23-.1.04-.191.084-.289.124l1.159,66.451s-23.341,14.858-64.779-.973l-1.1-58.522s-6.913,27.334-8.436,34.772S37,231.967,37,231.967s5.4,9.113,3.935,11.533-4.374-3.006-4.374-3.006,2.525,13.425.2,13.5-4.045-10.322-4.045-10.322.606,13.033-2.481,12.241c-1.8-.538-1.152-11.638-1.152-11.638s-1.43,11.074-3.372,10.619-.118-11.026-.118-11.026-2.151,8.6-4.118,8,.028-13.2,1.313-19.066" transform="translate(-20.655 -21.289)" fill="#e7a17e"/>
          <path id="Trazado_1003037" data-name="Trazado 1003037" d="M81.085,119.212l-.452-7.615,21.922.183.884,9.118c-5.695.4-14.256.439-22.354-1.686" transform="translate(-32.097 -21.289)" fill="#dd8865"/>
          <path id="Trazado_1003038" data-name="Trazado 1003038" d="M77.192,369.775,84.837,257.57l-33.665-4.111s8.094,85.428,12.158,112.927c0,0-21.5,7.752-21.416,11.8s24.808,1.005,24.808,1.005,15.11,3.782,10.47-9.411" transform="translate(-24.71 -48.351)" fill="#e7a17e"/>
          <path id="Trazado_1003039" data-name="Trazado 1003039" d="M107.984,365.774s-5.557-74.789-8.952-129.2c-.507-8.107,30.129,11.9,30.129,11.9s-4.547,85.69-7.468,113.333c0,0,21.089,6.71,21.173,10.754s-24.031,2.178-24.031,2.178-14.941,4.4-10.851-8.97" transform="translate(-35.605 -44.762)" fill="#e7a17e"/>
          <path id="Trazado_1003040" data-name="Trazado 1003040" d="M143.81,397.189c6.7,2.878,8.806,5.734,8.806,5.734s-.313.935-9.53,2.148a12.1,12.1,0,0,1,.724-7.882" transform="translate(-43.944 -75.769)" fill="#fff"/>
          <path id="Trazado_1003041" data-name="Trazado 1003041" d="M109.373,394.738c8.75,4.47,18.946-1.187,18.946-1.187a57.847,57.847,0,0,1,8.968,2.944,12.1,12.1,0,0,0-.724,7.882c-2.376.312-5.333.643-9.04.981-18.09,1.65-18.942-3.04-18.942-3.04a25.907,25.907,0,0,1,.792-7.579" transform="translate(-37.422 -75.075)" fill="#e4bb5b"/>
          <path id="Trazado_1003042" data-name="Trazado 1003042" d="M108.589,404.363a26.924,26.924,0,0,0,.418,2.813s5.261,1.678,19.48,1.384c15.888-.329,17.883-2.4,17.883-2.4a5,5,0,0,0-.268-1.889,88.023,88.023,0,0,1-37.512.088" transform="translate(-37.43 -77.121)" fill="#fff"/>
          <path id="Trazado_1003043" data-name="Trazado 1003043" d="M138.775,395.392a5.787,5.787,0,0,0-2.359,5.516" transform="translate(-42.73 -75.426)" fill="none" stroke="#57687e" stroke-linecap="round" stroke-linejoin="round" stroke-width="0.538"/>
          <path id="Trazado_1003044" data-name="Trazado 1003044" d="M134.81,394.172s-2.382,1.5-2.288,5.51" transform="translate(-41.995 -75.194)" fill="none" stroke="#57687e" stroke-linecap="round" stroke-linejoin="round" stroke-width="0.538"/>
          <path id="Trazado_1003045" data-name="Trazado 1003045" d="M133.673,394.612s1.888-4.626-.1-4.653S133.673,394.612,133.673,394.612Z" transform="translate(-42.033 -74.39)" fill="none" stroke="#57687e" stroke-linecap="round" stroke-linejoin="round" stroke-width="0.538"/>
          <path id="Trazado_1003046" data-name="Trazado 1003046" d="M132.883,395.189s-3.293-3.758-4.2-2S132.883,395.189,132.883,395.189Z" transform="translate(-41.241 -74.917)" fill="none" stroke="#57687e" stroke-linecap="round" stroke-linejoin="round" stroke-width="0.538"/>
          <path id="Trazado_1003047" data-name="Trazado 1003047" d="M51.976,232.339s2.3,64.064,7.395,124.513c.489,5.8,23.26-.482,23.26-.482l3.626-95.483,9.051,95.039s17.714,3.116,22.778-.29c0,0,4.118-14.045,1.862-122.321Z" transform="translate(-26.63 -44.322)" fill="#2e2646"/>
          <path id="Trazado_1003048" data-name="Trazado 1003048" d="M104.029,269.42a.218.218,0,0,0,0-.435c-10.139-.332-24.553-3.3-24.7-3.334a.224.224,0,0,0-.257.17.219.219,0,0,0,.169.257c.145.029,14.6,3.009,24.772,3.342h.012" transform="translate(-31.799 -50.676)" fill="#1a162b"/>
          <path id="Trazado_1003049" data-name="Trazado 1003049" d="M130.935,355.5a.219.219,0,0,0,.214-.215L132.3,239.756a.218.218,0,0,0-.215-.22h-.006a.218.218,0,0,0-.214.215l-1.148,115.531a.218.218,0,0,0,.216.22h.006" transform="translate(-41.65 -45.695)" fill="#1a162b"/>
          <path id="Trazado_1003050" data-name="Trazado 1003050" d="M86.518,361.759a.219.219,0,0,0,.214-.214l1.57-93.487a.218.218,0,0,0-.436-.006l-1.57,93.487a.218.218,0,0,0,.214.221h.008" transform="translate(-33.177 -51.094)" fill="#1a162b"/>
          <path id="Trazado_1003051" data-name="Trazado 1003051" d="M91.591,254.574c.12,0,.214-.138.211-.3l-.457-22.07c0-.164-.1-.3-.224-.294s-.214.138-.211.3l.457,22.069c0,.164.1.3.224.294" transform="translate(-34.057 -44.24)" fill="#1a162b"/>
          <path id="Trazado_1003052" data-name="Trazado 1003052" d="M129.036,257.046a.215.215,0,0,0,.15-.064.218.218,0,0,0,0-.308,30.413,30.413,0,0,1-8.853-23.082.217.217,0,0,0-.2-.23.215.215,0,0,0-.23.2,30.857,30.857,0,0,0,8.981,23.416.217.217,0,0,0,.158.063" transform="translate(-39.577 -44.517)" fill="#1a162b"/>
          <path id="Trazado_1003053" data-name="Trazado 1003053" d="M53.932,253.553a.23.23,0,0,0,.064-.011c3.408-1.131,6.283-4.348,7.5-8.4,1.242-4.121.766-8.529.3-11.489a.218.218,0,0,0-.431.069c.46,2.916.931,7.26-.286,11.295-1.179,3.913-3.947,7.02-7.224,8.106a.218.218,0,0,0,.074.425" transform="translate(-26.961 -44.539)" fill="#1a162b"/>
          <path id="Trazado_1003054" data-name="Trazado 1003054" d="M91.679,254.335c.121,0,2.982-.128,3.565-5.9.564-5.6.552-13.161.552-13.237a.217.217,0,0,0-.218-.217h0a.219.219,0,0,0-.214.218c0,.076.012,7.618-.55,13.193-.541,5.36-3.116,5.512-3.142,5.513a.218.218,0,0,0,.011.435" transform="translate(-34.162 -44.825)" fill="#1a162b"/>
          <path id="Trazado_1003055" data-name="Trazado 1003055" d="M119.509,242.627a.224.224,0,0,1-.056-.006c-22.428-5.835-52.081-4.586-61.828-4.178-3.521.148-3.521.148-3.6-.062a.2.2,0,0,1,.286-.249c.239.032,1.593-.024,3.294-.1,9.76-.408,39.46-1.66,61.949,4.191a.2.2,0,0,1-.048.4" transform="translate(-27.019 -45.332)" fill="#1a162b"/>
          <path id="Trazado_1003056" data-name="Trazado 1003056" d="M94.677,233.467c.019.9-.514,1.648-1.19,1.661s-1.239-.707-1.258-1.61.514-1.648,1.19-1.662,1.239.707,1.258,1.611" transform="translate(-34.309 -44.23)" fill="#1a162b"/>
          <path id="Trazado_1003057" data-name="Trazado 1003057" d="M49.231,399.113c-6.574,3.154-8.561,6.094-8.561,6.094s.351.922,9.611,1.751a12.1,12.1,0,0,0-1.05-7.846" transform="translate(-24.473 -76.136)" fill="#fff"/>
          <path id="Trazado_1003058" data-name="Trazado 1003058" d="M79.066,395.419c-8.558,4.829-18.978-.4-18.978-.4a57.8,57.8,0,0,0-8.838,3.314,12.1,12.1,0,0,1,1.05,7.845c2.386.214,5.355.422,9.072.605,18.143.9,18.8-3.822,18.8-3.822a25.876,25.876,0,0,0-1.105-7.54" transform="translate(-26.491 -75.355)" fill="#e4bb5b"/>
          <path id="Trazado_1003059" data-name="Trazado 1003059" d="M78.1,404.832a26.922,26.922,0,0,1-.3,2.827s-5.187,1.9-19.406,2.191c-15.888.329-17.966-1.653-17.966-1.653a4.992,4.992,0,0,1,.189-1.9A88.02,88.02,0,0,0,78.1,404.832" transform="translate(-24.423 -77.227)" fill="#fff"/>
          <path id="Trazado_1003060" data-name="Trazado 1003060" d="M55.891,397.122a5.787,5.787,0,0,1,2.586,5.413" transform="translate(-27.377 -75.756)" fill="none" stroke="#57687e" stroke-linecap="round" stroke-linejoin="round" stroke-width="0.538"/>
          <path id="Trazado_1003061" data-name="Trazado 1003061" d="M59.827,395.737s2.442,1.4,2.514,5.411" transform="translate(-28.128 -75.492)" fill="none" stroke="#57687e" stroke-linecap="round" stroke-linejoin="round" stroke-width="0.538"/>
          <path id="Trazado_1003062" data-name="Trazado 1003062" d="M61.117,396.116s-2.077-4.544-.1-4.653S61.117,396.116,61.117,396.116Z" transform="translate(-28.192 -74.676)" fill="none" stroke="#57687e" stroke-linecap="round" stroke-linejoin="round" stroke-width="0.538"/>
          <path id="Trazado_1003063" data-name="Trazado 1003063" d="M61.343,396.659s3.134-3.891,4.119-2.169S61.343,396.659,61.343,396.659Z" transform="translate(-28.417 -75.17)" fill="none" stroke="#57687e" stroke-linecap="round" stroke-linejoin="round" stroke-width="0.538"/>
          <path id="Trazado_1003064" data-name="Trazado 1003064" d="M61.468,127.681a57.883,57.883,0,0,1,7.237-1.856,42.3,42.3,0,0,0,17.732,3.2,39.486,39.486,0,0,0,17.127-4.463s1.273,6.765,7.054,4.2c4.165,13.857,11.617,19.371,15.78,33.334-.233.127-.466.263-.7.363,0,0-.884,4.81.75,14.559,2.327,13.867.291,35.451-1.712,38.226s-1.15,2.84-17.892-.186S62.3,211.5,54.91,215.82s-5.388-11.231-5.135-11.469,1.47-9.021.083-16.625a10.041,10.041,0,0,1,.876-6.133" transform="translate(-26.127 -23.762)" fill="#050504"/>
          <path id="Trazado_1003065" data-name="Trazado 1003065" d="M46.712,182.327c-6.213-.79-13.594-7.883-18.449-13.358,2.13-10.512,5.66-21.1,11.757-27.931,5-5.61,8.948-9.795,17.426-12.622" transform="translate(-22.106 -24.497)" fill="#050504"/>
          <path id="Trazado_1003066" data-name="Trazado 1003066" d="M146.761,192.056s7.12-3.4,4.169-17.245l-12.274,4.584Z" transform="translate(-43.165 -33.348)" fill="#dd8865"/>
          <path id="Trazado_1003067" data-name="Trazado 1003067" d="M129.693,178.849c6.238-.559,13.877-7.374,18.931-12.665-1.738-10.584-4.873-21.291-10.713-28.348-4.791-5.791-8.579-10.119-16.946-13.259" transform="translate(-39.79 -23.765)" fill="#050504"/>
          <path id="Trazado_1003068" data-name="Trazado 1003068" d="M90.64,132.451a27.267,27.267,0,0,0,22.125-9.92.2.2,0,1,0-.333-.235c-.077.109-7.907,10.948-23.863,9.64a46.33,46.33,0,0,1-18.326-5.31.2.2,0,0,0-.211.35,46.81,46.81,0,0,0,18.5,5.367q1.075.09,2.1.108" transform="translate(-30.055 -23.313)" fill="#282822"/>
          <path id="Trazado_1003069" data-name="Trazado 1003069" d="M46.937,189.852a.2.2,0,0,0,.046-.4c-11.555-2.54-17.838-14.142-17.9-14.26a.2.2,0,1,0-.36.192c.062.118,6.43,11.885,18.173,14.466a.168.168,0,0,0,.04,0" transform="translate(-22.189 -33.399)" fill="#282822"/>
          <path id="Trazado_1003070" data-name="Trazado 1003070" d="M51.67,196.231a.2.2,0,0,0,.082-.015.2.2,0,0,0,.111-.266c-.015-.037-1.508-3.907.631-16.954a.2.2,0,0,0-.4-.066c-2.165,13.21-.67,17.021-.6,17.177a.2.2,0,0,0,.185.125" transform="translate(-26.429 -34.101)" fill="#282822"/>
          <path id="Trazado_1003071" data-name="Trazado 1003071" d="M53.461,165.827a.2.2,0,0,0,.206-.172A288.391,288.391,0,0,0,57.3,133.6a.205.205,0,0,0-.2-.211.208.208,0,0,0-.211.2,287.88,287.88,0,0,1-3.629,32.005.205.205,0,0,0,.17.234l.028,0" transform="translate(-26.875 -25.445)" fill="#282822"/>
          <path id="Trazado_1003072" data-name="Trazado 1003072" d="M139.649,168.486a.2.2,0,0,0,.138-.357c-.091-.081-9.233-8.121-11.515-10.446a.2.2,0,0,0-.291.286c2.292,2.336,11.445,10.385,11.536,10.467a.207.207,0,0,0,.131.05" transform="translate(-41.118 -30.069)" fill="#282822"/>
          <path id="Trazado_1003073" data-name="Trazado 1003073" d="M51.961,233.589a.2.2,0,0,0,.117-.036c.062-.041,6.407-4.2,20.767-4l.22,0c6.205.116,15.391,1.309,24.278,2.464,12.271,1.6,23.863,3.1,26.8,1.686a.206.206,0,0,0,.095-.273.2.2,0,0,0-.273-.1c-2.826,1.363-14.359-.135-26.568-1.723-8.9-1.156-18.095-2.352-24.322-2.467l-.223,0c-14.5-.21-20.937,4.023-21,4.066a.2.2,0,0,0,.11.373" transform="translate(-26.589 -43.712)" fill="#282822"/>
          <path id="Trazado_1003074" data-name="Trazado 1003074" d="M111.565,215.97a.2.2,0,0,0,.108-.03,79.8,79.8,0,0,0,21.874-19.282.2.2,0,0,0-.32-.252,79.443,79.443,0,0,1-21.763,19.185.2.2,0,0,0-.07.279.205.205,0,0,0,.171.1" transform="translate(-37.959 -37.452)" fill="#282822"/>
          <path id="Trazado_1003075" data-name="Trazado 1003075" d="M124.679,222.932a.2.2,0,0,0,.154-.066,44.783,44.783,0,0,0,10.37-19.293.2.2,0,1,0-.395-.1,44.377,44.377,0,0,1-10.275,19.116.2.2,0,0,0,.013.288.2.2,0,0,0,.134.054" transform="translate(-40.461 -38.786)" fill="#282822"/>
          <path id="Trazado_1003076" data-name="Trazado 1003076" d="M49.158,40.362A10.5,10.5,0,0,0,43.512,57.2a3.879,3.879,0,0,1,.848,1.309,3.378,3.378,0,0,1-.476,2.283c-1.077,2.3-2.072,4.774-1.8,7.3s2.259,5.032,4.8,5.024" transform="translate(-24.568 -7.7)" fill="none" stroke="#63453c" stroke-miterlimit="10" stroke-width="1.008"/>
          <path id="Trazado_1003077" data-name="Trazado 1003077" d="M128.146,47c-.809-.812-1.473-1.487-1.984-2.012,1.326,2.654,2.969,5.752,3.676,6.3,0,0,2.748,15.541,4.59,18.358s3.23-7.573,1.361-13.674a21.218,21.218,0,0,0-2.743-6.254,14.224,14.224,0,0,1-4.9-2.719" transform="translate(-40.782 -8.582)" fill="#795948"/>
          <path id="Trazado_1003078" data-name="Trazado 1003078" d="M113.34,40.567s5.826,11.511,7.646,29.014c1.419,13.657-8.094,28.158-24.656,30.975-15.566,2.647-32.5-1.97-39.674-23.443s-2.07-39.7,17.368-46.654,33.828-3.106,39.316,10.107" transform="translate(-26.933 -5.16)" fill="#e7a17e"/>
          <path id="Trazado_1003079" data-name="Trazado 1003079" d="M89.223,92.573c-.216,2.344-3.949,3.915-8.338,3.51s-7.771-2.633-7.555-4.977,3.95-3.915,8.338-3.51,7.771,2.633,7.555,4.977" transform="translate(-30.701 -16.698)" fill="#dd8865"/>
          <path id="Trazado_1003080" data-name="Trazado 1003080" d="M130.7,84.585c.738,2.235-2.057,5.167-6.242,6.548s-8.176.69-8.914-1.545,2.057-5.166,6.242-6.548,8.176-.69,8.914,1.545" transform="translate(-38.733 -15.705)" fill="#dd8865"/>
          <path id="Trazado_1003081" data-name="Trazado 1003081" d="M102.845,38.425c-.1-.11-.161-.17-.161-.17l.161.17" transform="translate(-36.303 -7.298)" fill="#795948"/>
          <path id="Trazado_1003082" data-name="Trazado 1003082" d="M122.756,22.256c1-5.2-3.666-2.606-3.666-2.606s1.088-4.378-2.387-6.64-10.32,1.073-13.1,1.362c0,0,4.21-5.221.366-8.062s-14.3,4.639-17.908,6.028c-7.7,2.96-8.94-1.266-21.819,3.657a15.475,15.475,0,0,0-7.9,7.147s.784-10.265-2.253-9.795-2.167,13.285-2.167,13.285S44.092,24,43.684,27.49s5.05,6.319,5.05,6.319S37.016,42.017,45.077,49.8c0,0-5.258,5.82-3.221,12.063a4.15,4.15,0,0,0,3.208,2.649,10.1,10.1,0,0,0,1.707,13.45c6.839,6.416,11.019,16.937,17.455,15.033s-3.754-10.874-6.408-14.146-1.574-7.639-.754-16.861,2.208-21.093,2.208-21.093,20.872,7.4,28.814,1.634c7.067-5.129,3.86-9.429,3.067-10.315l-.162-.171s.064.061.162.171c1.122,1.164,8.049,8.032,14.383,6.958,4.883-.829,2.527-5.663,2.527-5.663s.861,1.848,1.928,3.984c.511.524,1.175,1.2,1.984,2.011a14.215,14.215,0,0,0,4.9,2.719,3.008,3.008,0,0,0-.711-.761s6.935,1.9,6-5.562c-.441-4.274-4.409-6.794-4.409-6.794a9.313,9.313,0,0,0,5-6.845" transform="translate(-24.61 -1.082)" fill="#795948"/>
          <path id="Trazado_1003083" data-name="Trazado 1003083" d="M63.438,96.115l-5-12.441s-12.2-3.052-11.555,9.07,13.376,11.416,16.551,3.371" transform="translate(-25.654 -15.897)" fill="#e7a17e"/>
          <path id="Trazado_1003084" data-name="Trazado 1003084" d="M75.17,71.547s-2.989-2.775,2.263-7.179,7.323-3.77,8.437-1.957c1.016,1.654-.006,4.4-3,6.792-3.591,2.874-6.07,3.947-7.7,2.344" transform="translate(-30.893 -11.643)" fill="#795948"/>
          <path id="Trazado_1003085" data-name="Trazado 1003085" d="M126.658,64.922s1.662-3.724-4.894-5.718-8.215-.6-8.529,1.506c-.287,1.92,1.729,4.044,5.419,5.074,4.43,1.237,7.132,1.253,8-.862" transform="translate(-38.311 -11.11)" fill="#795948"/>
          <path id="Trazado_1003086" data-name="Trazado 1003086" d="M87.882,79.736a2.5,2.5,0,1,1-2.752-2.723,2.765,2.765,0,0,1,2.752,2.723" transform="translate(-32.544 -14.689)"/>
          <path id="Trazado_1003087" data-name="Trazado 1003087" d="M121.493,75.248a2.5,2.5,0,1,1-2.752-2.723,2.765,2.765,0,0,1,2.752,2.723" transform="translate(-38.956 -13.833)"/>
          <path id="Trazado_1003088" data-name="Trazado 1003088" d="M59.8,98.169a.247.247,0,0,1-.1-.011.243.243,0,0,1-.154-.308c.021-.062,2-6.127-2.329-8.4a5.382,5.382,0,0,0-4.271-.554,6.71,6.71,0,0,0-3.45,3.133.243.243,0,1,1-.438-.211,7.082,7.082,0,0,1,3.731-3.383,5.854,5.854,0,0,1,4.653.584c4.692,2.47,2.586,8.923,2.564,8.987a.244.244,0,0,1-.206.164" transform="translate(-26.069 -16.822)" fill="#634927"/>
          <path id="Trazado_1003089" data-name="Trazado 1003089" d="M54.315,94.932a.243.243,0,0,1-.19-.421c.037-.034,3.785-3.416,7.107-.715a.243.243,0,1,1-.307.377c-3-2.437-6.436.665-6.471.7a.241.241,0,0,1-.139.063" transform="translate(-27.025 -17.693)" fill="#634927"/>
          <path id="Trazado_1003090" data-name="Trazado 1003090" d="M106.366,80.106a.243.243,0,0,1-.148-.452,6.559,6.559,0,0,0,2.536-2.926,4.139,4.139,0,0,0-.884-4.236,1.713,1.713,0,0,0-2.141.092c-.026.017-.066.046-.119.085-2.8,2.036-4.218,1.4-4.919.507C99.4,71.536,98.919,57.588,98.868,56a.247.247,0,0,1,.235-.251.244.244,0,0,1,.251.235c.137,4.263.713,15.607,1.719,16.888.827,1.054,2.258.855,4.25-.6.061-.045.108-.078.137-.1a2.188,2.188,0,0,1,2.712-.068,4.607,4.607,0,0,1,1.037,4.787,6.938,6.938,0,0,1-2.747,3.176.255.255,0,0,1-.1.032" transform="translate(-35.575 -10.635)" fill="#634927"/>
          <path id="Trazado_1003091" data-name="Trazado 1003091" d="M58.009,41.479A74.068,74.068,0,0,0,72.02,46.955a45.815,45.815,0,0,0,7.359,1.367,25.127,25.127,0,0,0,7.411-.272,15.2,15.2,0,0,0,3.5-1.194,9.8,9.8,0,0,0,2.961-2.122,6.98,6.98,0,0,0,1.692-3.144,8.875,8.875,0,0,0,.049-3.622,16.264,16.264,0,0,0-3.077-6.684A13.222,13.222,0,0,0,90.7,29.89a4.072,4.072,0,0,0-1.377-.993c-.11-.028-.142,0-.115-.02a.357.357,0,0,0-.02.172,2.532,2.532,0,0,0,.237.783,10.952,10.952,0,0,0,.919,1.587,34.9,34.9,0,0,0,4.972,5.612,31.847,31.847,0,0,0,6.017,4.465,15.793,15.793,0,0,0,3.416,1.439,7.443,7.443,0,0,0,3.585.179,3.845,3.845,0,0,0,2.6-2.163,8.38,8.38,0,0,0,.711-3.549,15.59,15.59,0,0,0-.436-3.681,11.477,11.477,0,0,0-1.334-3.415,2.852,2.852,0,0,0-.548-.642.768.768,0,0,0-.29-.159c-.112-.011-.052-.013-.084,0a1.456,1.456,0,0,0-.083.711,6.961,6.961,0,0,0,.122.9,21.865,21.865,0,0,0,1.108,3.563,32.824,32.824,0,0,0,3.5,6.625,15.168,15.168,0,0,0,2.437,2.781,4.423,4.423,0,0,0,3.149,1.3h.006a.364.364,0,1,1,.074.725h0a5.11,5.11,0,0,1-3.689-1.486,15.891,15.891,0,0,1-2.545-2.921,33.476,33.476,0,0,1-3.556-6.782,22.5,22.5,0,0,1-1.127-3.683,7.443,7.443,0,0,1-.13-.984,1.857,1.857,0,0,1,.212-1.132.659.659,0,0,1,.368-.255.8.8,0,0,1,.395,0,1.419,1.419,0,0,1,.541.284,3.453,3.453,0,0,1,.685.791,12.067,12.067,0,0,1,1.429,3.62,16.272,16.272,0,0,1,.459,3.839,9.019,9.019,0,0,1-.774,3.834,4.522,4.522,0,0,1-3.039,2.522,8.085,8.085,0,0,1-3.922-.178,16.478,16.478,0,0,1-3.567-1.5,32.481,32.481,0,0,1-6.155-4.553,35.53,35.53,0,0,1-5.083-5.726,11.58,11.58,0,0,1-.981-1.695,3.091,3.091,0,0,1-.3-1.027.911.911,0,0,1,.229-.714.8.8,0,0,1,.778-.159,4.536,4.536,0,0,1,1.7,1.172,13.95,13.95,0,0,1,1.278,1.468,16.96,16.96,0,0,1,3.22,6.986,9.586,9.586,0,0,1-.053,3.915,7.708,7.708,0,0,1-1.86,3.469,11,11,0,0,1-3.162,2.295,17.348,17.348,0,0,1-3.643,1.336,24.008,24.008,0,0,1-7.69.545A40.473,40.473,0,0,1,71.736,48,63.663,63.663,0,0,1,57.65,42.113a.364.364,0,0,1,.344-.642Z" transform="translate(-27.677 -5.376)" fill="#63453c"/>
          <path id="Trazado_1003092" data-name="Trazado 1003092" d="M110.34,125.826l3.213,23.432,19.856-4.488-16.081-30.943s-1.953-9.54-4.172-8.368-1.941,7.534-1.941,7.534S96.789,109.608,96.6,111.66s8.93,4.112,8.93,4.112-6.565-1.262-6.023,1.512c.384,1.622,5.3,1.674,5.3,1.674s-5.131.107-4.827,1.85,5.008,1.261,5.008,1.261-4.157.5-3.721,2.277,3.725,2.082,8.989,1.247" transform="translate(-35.143 -20.099)" fill="#e7a17e"/>
          <path id="Trazado_1003093" data-name="Trazado 1003093" d="M137.405,154.06s15.4,26.015,5.245,35.119-17.445,1.754-19.859-6.725-5.242-23.906-5.242-23.906" transform="translate(-39.139 -29.389)" fill="#e7a17e"/>
          <path id="Trazado_1003094" data-name="Trazado 1003094" d="M123.961,126.59l-6.633-12.763s-1.953-9.54-4.172-8.368-1.941,7.534-1.941,7.534S96.789,109.608,96.6,111.66s8.93,4.112,8.93,4.112-6.565-1.262-6.022,1.512c.384,1.622,5.3,1.674,5.3,1.674s-5.131.107-4.826,1.85,5.007,1.26,5.007,1.26-4.157.5-3.72,2.278,3.725,2.082,8.988,1.247" transform="translate(-35.143 -20.099)" fill="none" stroke="#634927" stroke-miterlimit="10" stroke-width="0.529"/>
          <path id="Trazado_1003095" data-name="Trazado 1003095" d="M98.975,92.149a6.644,6.644,0,0,1,.278-2.113,33.429,33.429,0,0,1,10.2,2.3,9.208,9.208,0,0,1-1.033,2.13,25.33,25.33,0,0,0-9.445-2.318" transform="translate(-35.595 -17.176)"/>
          <path id="Trazado_1003096" data-name="Trazado 1003096" d="M108.421,94.965a4.735,4.735,0,0,1-5.345,2.354c-3.3-.853-4.049-3.015-4.1-4.673a25.33,25.33,0,0,1,9.445,2.318" transform="translate(-35.596 -17.674)" fill="#7c3645"/>
        </g>
      </g>
      <g id="Grupo_1192231" data-name="Grupo 1192231">
        <g id="Grupo_1192230" data-name="Grupo 1192230" clip-path="url(#clip-path-2)">
          <path id="Trazado_1003098" data-name="Trazado 1003098" d="M192.686,39.74H154.5c-2.348,0-4.851.114-4.851,3.532s-.53,24.7-.059,27.923c.391,2.678,1.78,3.979,7.571,4.092s31.928-.08,34.9,0c1.877.051,5.4.051,5.634-3.987.239-4.113.174-23.756.15-27.458.024-4.387-5.158-4.1-5.158-4.1" transform="translate(-28.499 -7.58)" fill="#02542b"/>
          <path id="Trazado_1003099" data-name="Trazado 1003099" d="M162.663,80.987s-.305,6.093-2.742,10.663c0,0,7.769-1.371,10.205-11.729Z" transform="translate(-30.507 -15.246)" fill="#02542b"/>
          <path id="Trazado_1003100" data-name="Trazado 1003100" d="M167.346,75.322c.441,0,3.186.05,3.6.006.346-.037.513-.168.528-.711s-.011-3,0-3.277c.006-.176.006-.507-.514-.529s-3.065-.016-3.542-.014a.462.462,0,0,0-.529.485v3.586c0,.22.015.456.456.456" transform="translate(-31.837 -13.505)" fill="#fff"/>
          <path id="Trazado_1003101" data-name="Trazado 1003101" d="M167.346,63.235c.441,0,3.186.049,3.6.006.346-.037.513-.168.528-.711s-.011-14.673,0-14.952c.006-.176.006-.507-.514-.529s-3.065-.016-3.542-.014a.461.461,0,0,0-.529.484V62.78c0,.22.015.456.456.456" transform="translate(-31.837 -8.972)" fill="#fff"/>
          <path id="Trazado_1003102" data-name="Trazado 1003102" d="M182.755,63.707a.693.693,0,0,1-.759-.9c.028-.159.06-3.567.1-3.712.786-3.2,3.29-2.971,3.835-5.616a1.4,1.4,0,0,0-1.329-1.789,1.937,1.937,0,0,0-2.087,1.817c-.081.542-.352.786-.9.678l-3.09-.678a.8.8,0,0,1-.7-.9c.162-1.952,1.192-5.585,6.776-5.585,6.073,0,6.29,4.8,6.263,5.612,0,4.27-2.832,4.83-3.955,6.8-.06.106-.116,3.472-.165,3.587a.9.9,0,0,1-.923.677Zm-.082,2.369a.73.73,0,0,0-.813.813v3.036a.742.742,0,0,0,.813.813h3.036a.729.729,0,0,0,.813-.813V66.89a.719.719,0,0,0-.813-.813Z" transform="translate(-33.921 -8.972)" fill="#fff"/>
        </g>
      </g>
    </g>
  </g>
</svg>
