<svg id="Grupo_1179119" data-name="Grupo 1179119" xmlns="http://www.w3.org/2000/svg" xmlns:xlink="http://www.w3.org/1999/xlink" width="84" height="84" viewBox="0 0 84 84">
  <defs>
    <clipPath id="clip-path">
      <rect id="Rectángulo_456384" data-name="Rectángulo 456384" width="56.056" height="56.115" fill="#12263f"/>
    </clipPath>
  </defs>
  <g id="Grupo_1177731" data-name="Grupo 1177731">
    <g id="Grupo_1119665" data-name="Grupo 1119665">
      <path id="Trazado_991847" data-name="Trazado 991847" d="M5,0H79a5,5,0,0,1,5,5V79a5,5,0,0,1-5,5H5a5,5,0,0,1-5-5V5A5,5,0,0,1,5,0Z" fill="#a0f7fe"/>
    </g>
    <g id="Grupo_1192256" data-name="Grupo 1192256" transform="translate(13.972 13.943)">
      <g id="Grupo_1192255" data-name="Grupo 1192255" clip-path="url(#clip-path)">
        <path id="Trazado_1003208" data-name="Trazado 1003208" d="M137.46,3.732A3.733,3.733,0,1,1,133.727,0a3.733,3.733,0,0,1,3.733,3.732m-1.87,0a1.862,1.862,0,1,0-1.862,1.862,1.862,1.862,0,0,0,1.862-1.862" transform="translate(-105.7)" fill="#12263f"/>
        <path id="Trazado_1003209" data-name="Trazado 1003209" d="M47.95,37.031a.933.933,0,0,1-1.317-.3.881.881,0,0,1,.313-1.285l12.52-5.788a.929.929,0,0,1,1.242.338.981.981,0,0,1-.214,1.256Z" transform="translate(-37.792 -24.021)" fill="#12263f"/>
        <path id="Trazado_1003210" data-name="Trazado 1003210" d="M189.574,37.1,177.1,31.345a.934.934,0,1,1,.808-1.683l12.288,5.66c.537.247.841.676.664,1.18a.924.924,0,0,1-1.287.6" transform="translate(-143.538 -24.03)" fill="#12263f"/>
        <path id="Trazado_1003211" data-name="Trazado 1003211" d="M41.644,100.755l-9.826-2.506-9.729,2.509a3.613,3.613,0,0,1-3.018-.692,3.392,3.392,0,0,1-1.238-2.611l-.052-3.831a5.07,5.07,0,0,1-2.405.66H9.042c-2.8,0-4.424-2.223-4.371-4.871A7.786,7.786,0,0,1,8.63,82.354a4.677,4.677,0,1,1,7.167-.018,9.445,9.445,0,0,1,2.542,2.292,17.29,17.29,0,0,1,1.533-3.261c-1.046-1.055-.856-2.13-.468-3.421a3.481,3.481,0,0,0-1.378-3.42c-.851-.521-1.661-.726-1.9-1.79a8.228,8.228,0,0,1,.045-3.79c.262-.976,1.073-1.151,1.846-1.641a3.551,3.551,0,0,0,1.371-3.562c-.282-.968-.565-1.736,0-2.627a9.512,9.512,0,0,1,2.167-2.3c.979-.767,1.847-.553,3-.222a3.419,3.419,0,0,0,3.453-1.477c.529-1.076,1-1.834,2.264-1.991a13.229,13.229,0,0,1,3.1,0c1.259.153,1.736.921,2.261,1.987A3.435,3.435,0,0,0,39.1,58.6c.99-.255,1.755-.585,2.66.007a8.341,8.341,0,0,1,2.563,2.628c.512.854.19,1.594-.064,2.5a3.561,3.561,0,0,0,1.375,3.566c.77.489,1.584.666,1.844,1.641a8.287,8.287,0,0,1,.045,3.789c-.232,1.066-1.051,1.269-1.891,1.791a3.477,3.477,0,0,0-1.359,3.551,2.881,2.881,0,0,1-.486,3.288,18.283,18.283,0,0,1,1.525,3.263,9.213,9.213,0,0,1,2.544-2.291,4.681,4.681,0,1,1,7.169.016,7.812,7.812,0,0,1,3.952,7.254c-.007,2.469-1.549,4.649-4.173,4.66l-6.336.026a5.878,5.878,0,0,1-2.578-.631l-.065,3.8a3.343,3.343,0,0,1-4.177,3.293M37.5,75.827a16.15,16.15,0,0,1,5.219,3.892,5.633,5.633,0,0,1,2.906-7.35,4.348,4.348,0,0,0,0-2.9,5.61,5.61,0,0,1-2.945-7.187,4.4,4.4,0,0,0-2.1-2.128,5.505,5.505,0,0,1-7.065-2.96,4.386,4.386,0,0,0-3.368,0c-1.017,2.663-4.62,4.176-7.089,2.89a5.231,5.231,0,0,0-2.087,2.2,5.624,5.624,0,0,1-2.927,7.187,4.173,4.173,0,0,0-.02,2.89,5.647,5.647,0,0,1,2.91,7.359,16.253,16.253,0,0,1,5.233-3.906,7.479,7.479,0,1,1,11.336.012m-.073-4.912a5.6,5.6,0,1,0-5.6,5.6,5.6,5.6,0,0,0,5.6-5.6M14.995,79.323a2.8,2.8,0,1,0-2.8,2.8,2.8,2.8,0,0,0,2.8-2.8m39.254,0a2.8,2.8,0,1,0-2.8,2.8,2.8,2.8,0,0,0,2.8-2.8M38.422,88.554c.137-.66.479-.746.8-.77s.784.042.876.429l.259,1.086a3.814,3.814,0,0,1,1.679,3.876c-.541,3.271-3.858,3.057-6.334,4.075,2.062.666,4.089,1.191,6.215,1.683a1.623,1.623,0,0,0,2.049-1.666l-.018-8.985a11.856,11.856,0,0,0-8.1-11.064,7.6,7.6,0,0,1-8.1-.007,12.114,12.114,0,0,0-8.061,11.452l.006,8.6a1.707,1.707,0,0,0,.6,1.363,2.05,2.05,0,0,0,1.628.291l16.933-4.555a1.947,1.947,0,1,0-1.137-3.725L23.771,94.222a.979.979,0,0,1-1.3-.775c-.16-.589.508-.8.813-1.122.566-1.317-.7-4.656,1.149-4.559,1.467.076.561,2.756.911,4.107ZM15.465,92.4c1.707,0,2.349-1.374,2.383-2.787a5.857,5.857,0,0,0-3.806-5.976,5.063,5.063,0,0,1-3.678,0,5.852,5.852,0,0,0-3.815,5.97c.031,1.515.8,2.806,2.488,2.8Zm39.248,0c1.7,0,2.348-1.376,2.383-2.787a5.849,5.849,0,0,0-3.8-5.973,5.122,5.122,0,0,1-3.682,0A5.856,5.856,0,0,0,45.8,89.608c.031,1.512.8,2.806,2.489,2.8Z" transform="translate(-3.797 -44.753)" fill="#12263f"/>
        <path id="Trazado_1003212" data-name="Trazado 1003212" d="M168.7,206.858h-2.438a.946.946,0,0,1-1.071-.862c-.041-.622.369-1.011,1.074-1.013l2.437,0c.644,0,1.037.318,1.071.851.041.633-.357,1.028-1.072,1.028" transform="translate(-134.316 -166.67)" fill="#12263f"/>
        <path id="Trazado_1003213" data-name="Trazado 1003213" d="M267.459,63.724a3.732,3.732,0,1,1-3.732-3.732,3.732,3.732,0,0,1,3.732,3.732m-1.873,0a1.861,1.861,0,1,0-1.861,1.861,1.861,1.861,0,0,0,1.861-1.861" transform="translate(-211.404 -48.78)" fill="#12263f"/>
        <path id="Trazado_1003214" data-name="Trazado 1003214" d="M259.323,115.479a.954.954,0,0,1-1.23.795.933.933,0,0,1-.61-1.218l1.66-6.189a.912.912,0,0,1,1.078-.634.873.873,0,0,1,.692,1.08Z" transform="translate(-209.325 -87.993)" fill="#12263f"/>
        <path id="Trazado_1003215" data-name="Trazado 1003215" d="M7.464,63.724a3.732,3.732,0,1,1-3.732-3.732,3.732,3.732,0,0,1,3.732,3.732m-1.871,0a1.861,1.861,0,1,0-1.861,1.861,1.861,1.861,0,0,0,1.861-1.861" transform="translate(0 -48.78)" fill="#12263f"/>
        <path id="Trazado_1003216" data-name="Trazado 1003216" d="M27.179,114.955a.962.962,0,0,1-.591,1.3.928.928,0,0,1-1.208-.728l-1.617-6.238a.891.891,0,0,1,.7-1.082.922.922,0,0,1,1.073.639Z" transform="translate(-19.298 -87.973)" fill="#12263f"/>
      </g>
    </g>
  </g>
</svg>
