<svg id="Grupo_1179193" data-name="Grupo 1179193" xmlns="http://www.w3.org/2000/svg" xmlns:xlink="http://www.w3.org/1999/xlink" width="84" height="84" viewBox="0 0 84 84">
  <defs>
    <clipPath id="clip-path">
      <rect id="Rectángulo_456387" data-name="Rectángulo 456387" width="60.825" height="60.879" fill="#12263f"/>
    </clipPath>
  </defs>
  <g id="Grupo_1177731" data-name="Grupo 1177731">
    <g id="Grupo_1119665" data-name="Grupo 1119665">
      <path id="Trazado_991847" data-name="Trazado 991847" d="M5,0H79a5,5,0,0,1,5,5V79a5,5,0,0,1-5,5H5a5,5,0,0,1-5-5V5A5,5,0,0,1,5,0Z" fill="#a0f7fe"/>
    </g>
    <g id="Grupo_1192262" data-name="Grupo 1192262" transform="translate(11.588 11.561)">
      <g id="Grupo_1192261" data-name="Grupo 1192261" clip-path="url(#clip-path)">
        <path id="Trazado_1003229" data-name="Trazado 1003229" d="M22.842,96.076a15.369,15.369,0,0,1-4.508-.064c-1.934-2.572.52-1.484-3.554-3.056-.616-.238-1.884,1.283-2.774.381L9.5,90.793c-.688-.7.673-2.231.488-2.692L9,85.639a17.4,17.4,0,0,1-1.84-.766c-.485-.312-.374-.94-.412-1.493l-5.65-.038A1.017,1.017,0,0,1,.008,82.2a20.764,20.764,0,0,1,15.275-17.74,10.945,10.945,0,1,1,10.534,0A20.758,20.758,0,0,1,41.081,82.089a1.046,1.046,0,0,1-1.074,1.259l-5.61.022c.009,2.234-1.108,1.409-2.289,2.388-.367.759-.687,1.556-.973,2.332-.228.62,1.276,1.924.386,2.818L29.19,93.248c-1.034,1.039-2.17-.52-2.849-.3a13.539,13.539,0,0,0-2.365.981c-.61.446-.483,1.446-1.134,2.144m6.675-41.234a8.964,8.964,0,1,0-8.964,8.964,8.964,8.964,0,0,0,8.964-8.964M22.459,68.595c.913.016,1.029,2.017,1.519,2.226l2.187.93c.713.3,2.03-1.162,2.793-.462.926.849,1.781,1.728,2.643,2.629.727.76-.685,2.162-.47,2.71l.963,2.453a16.776,16.776,0,0,1,1.843.77c.472.3.393.935.446,1.5l4.6.044a18.689,18.689,0,0,0-36.861-.049l4.6.042c.077-.56-.042-1.1.354-1.466.514-.481,1.528-.4,1.914-.959.414-.747.663-1.575,1-2.341.2-.453-1.171-1.947-.487-2.693.84-.916,1.711-1.777,2.624-2.624.786-.73,2.1.77,2.808.453.741-.33,1.468-.567,2.177-.933.728-.376.327-2.311,1.983-2.282Zm-.846,25.42c.5-.439.34-1.5.94-1.722,1.226-.452,2.4-.94,3.6-1.5.608-.284,1.32.685,1.933.55a3.089,3.089,0,0,0,1.467-1.36c.024-.7-.585-1.23-.665-1.943a27.847,27.847,0,0,0,1.591-3.677c.26-.629,1.4-.454,1.755-.98a2.558,2.558,0,0,0,0-2.045c-.355-.523-1.5-.34-1.758-.978a27.1,27.1,0,0,0-1.586-3.678c.069-.714.7-1.25.653-1.94A3.49,3.49,0,0,0,28.215,73.4c-.744-.109-1.3.6-2.068.61a22,22,0,0,0-3.582-1.57c-.639-.288-.479-1.378-.971-1.751a2.409,2.409,0,0,0-2.058-.01c-.527.37-.358,1.484-1,1.761a31.194,31.194,0,0,0-3.457,1.475c-.64.37-1.814-.922-2.355-.436a5.061,5.061,0,0,0-1.243,1.355c.113.62.868,1.338.619,1.938l-1.491,3.6c-.271.578-1.293.548-1.818.929-.037.617-.281,1.555.077,2.108.315.486,1.493.333,1.748.949a28.328,28.328,0,0,0,1.592,3.678L11.462,90a18.774,18.774,0,0,0,1.4,1.388l2.088-.683a20.517,20.517,0,0,0,3.583,1.576c.64.278.509,1.4.987,1.771a2.3,2.3,0,0,0,2.1-.033" transform="translate(0 -35.333)" fill="#12263f"/>
        <path id="Trazado_1003230" data-name="Trazado 1003230" d="M83.25,211.653a7.028,7.028,0,1,1-7.028-7.028,7.028,7.028,0,0,1,7.028,7.028m-1.965,0a5.065,5.065,0,1,0-5.065,5.065,5.064,5.064,0,0,0,5.065-5.065" transform="translate(-55.667 -164.624)" fill="#12263f"/>
        <path id="Trazado_1003231" data-name="Trazado 1003231" d="M188.489,62.679c-1.644.251-3.6.434-4.736-.684a3.174,3.174,0,0,1-.633-2.424c-1.454-.506-1.388-2.076-1.859-3.1-.454-.986-1.6-1.464-1.449-2.913.374-3.505-.96-6.569-2.641-9.521a10.477,10.477,0,0,1,2.648-13.014,10.7,10.7,0,0,1,13.561-.116,10.485,10.485,0,0,1,2.741,13.256C194.486,47,193.181,50,193.563,53.359c.171,1.5-1.006,2.095-1.386,3.07a8.384,8.384,0,0,1-1.688,3.263c-.651.7-.132,2.7-2,2.987m-1.138-22.158a1.576,1.576,0,0,0,.052-.626,3.247,3.247,0,0,1,3.016-3.762,3.209,3.209,0,0,1,3.444,3.251,3.271,3.271,0,0,1-3.529,3.2,1.781,1.781,0,0,0-.973.131v8.592a12.163,12.163,0,0,0,2.267,0c.078-3.034,1.315-5.534,2.8-8.122a8.548,8.548,0,0,0-2.243-10.727,8.745,8.745,0,0,0-10.984-.023,8.547,8.547,0,0,0-2.233,10.823,17.079,17.079,0,0,1,2.773,8.071,12.88,12.88,0,0,0,2.26-.036l.015-8.615a3.438,3.438,0,0,0-1.119-.091A3.242,3.242,0,0,1,179.5,39.2a3.2,3.2,0,0,1,3.678-3.043c3.39.425,2.638,4.338,2.965,4.45.117.04,1.161.067,1.208-.082m-3.34-.915A1.3,1.3,0,0,0,182.6,38.1a1.222,1.222,0,0,0-1.105,1.488c.212,1.424,2.364,1.082,2.466.894.116-.214.037-.519.05-.871m6.761.992a1.266,1.266,0,0,0,1.113-1.389,1.237,1.237,0,0,0-1.265-1.122,1.2,1.2,0,0,0-1.241,1.046,5.188,5.188,0,0,0,.016,1.449,5.171,5.171,0,0,0,1.377.016M187.4,51.175l-.017-8.509a2.412,2.412,0,0,0-1.387.024v8.492a1.2,1.2,0,0,0,1.4-.006m3.317,3.361a.774.774,0,0,0,.713-.368c.089-.176.2-.834-.12-.834l-9.206,0c-.371,0-.269.653-.176.866s.382.337.774.337ZM189.164,57.7a.771.771,0,0,0,.718-.409c.068-.186.185-.783-.14-.779-2.089.021-4.159-.113-6.176.064-.289.048-.121,1.1.305,1.1Zm-.9,2.743c.065-.172.147-.706-.087-.717a11.533,11.533,0,0,0-3,.054c-.283.065-.1.989.279,1.032.78.087,2.575.242,2.807-.369" transform="translate(-141.536 -22.964)" fill="#12263f"/>
        <path id="Trazado_1003232" data-name="Trazado 1003232" d="M265.416,14.971a1.046,1.046,0,0,1-1.346.5.969.969,0,0,1-.425-1.373l1.085-1.879a1,1,0,0,1,1.34-.471.958.958,0,0,1,.424,1.321Z" transform="translate(-212 -9.368)" fill="#12263f"/>
        <path id="Trazado_1003233" data-name="Trazado 1003233" d="M154.111,44.765a.983.983,0,1,1-1.073,1.645l-1.847-1.076a1,1,0,0,1-.381-1.377.987.987,0,0,1,1.41-.291Z" transform="translate(-121.219 -34.991)" fill="#12263f"/>
        <path id="Trazado_1003234" data-name="Trazado 1003234" d="M294.52,45.28c-1.425.907-2.668,1.861-3.324.793s1.173-1.846,2.374-2.482a.952.952,0,0,1,1.295.4.974.974,0,0,1-.345,1.293" transform="translate(-234.159 -34.975)" fill="#12263f"/>
        <path id="Trazado_1003235" data-name="Trazado 1003235" d="M185.56,14.1a.962.962,0,0,1-.268,1.283.983.983,0,0,1-1.425-.317c-.551-1-2.017-2.782-.669-3.347a.976.976,0,0,1,1.246.45Z" transform="translate(-146.941 -9.362)" fill="#12263f"/>
        <path id="Trazado_1003236" data-name="Trazado 1003236" d="M227.825.895c.141,1.45.291,3.246-.925,3.329a.954.954,0,0,1-1-1.017l-.008-2.119a1.015,1.015,0,0,1,.855-1.081.97.97,0,0,1,1.079.888" transform="translate(-181.733 0)" fill="#12263f"/>
      </g>
    </g>
  </g>
</svg>
