<svg xmlns="http://www.w3.org/2000/svg" xmlns:xlink="http://www.w3.org/1999/xlink" width="80" height="80" viewBox="0 0 80 80">
  <defs>
    <clipPath id="clip-path">
      <rect id="Rectángulo_456385" data-name="Rectángulo 456385" width="39.999" height="67.247" fill="#12263f"/>
    </clipPath>
  </defs>
  <g id="Grupo_1178001" data-name="Grupo 1178001" transform="translate(-175.889 -5521)">
    <rect id="Rectángulo_402006" data-name="Rectángulo 402006" width="80" height="80" rx="5" transform="translate(175.889 5521)" fill="#a0f7fe"/>
    <g id="Grupo_1192258" data-name="Grupo 1192258" transform="translate(195.889 5527.376)">
      <g id="Grupo_1192257" data-name="Grupo 1192257" clip-path="url(#clip-path)">
        <path id="Trazado_1003217" data-name="Trazado 1003217" d="M13.713,41.4l-3.493.019A1.036,1.036,0,0,1,9.09,40.5L9.024,32.87l-2.367-.04a.893.893,0,0,1-.873-.51.98.98,0,0,1,.19-1.04l5.276-5.667a.937.937,0,0,1,1.332,0l5.278,5.665a1,1,0,0,1,.236.9.887.887,0,0,1-.92.649l-2.37.037-.042,7.47A1.013,1.013,0,0,1,13.713,41.4m-.826-1.988c.148-2.732-.154-5.257.142-7.847.075-.662,1.091-.44,1.828-.657a28.173,28.173,0,0,0-2.938-3.282,28.492,28.492,0,0,0-2.958,3.3c.916.144,1.888,0,1.9.809l.089,7.692a3.585,3.585,0,0,0,1.939-.017" transform="translate(-4.511 -20.012)" fill="#12263f"/>
        <path id="Trazado_1003218" data-name="Trazado 1003218" d="M133.718,41.4l-3.493.018A1.033,1.033,0,0,1,129.1,40.5l-.066-7.636-2.369-.038a.907.907,0,0,1-.874-.515.977.977,0,0,1,.191-1.034l5.275-5.668a.939.939,0,0,1,1.332,0l5.278,5.664a1,1,0,0,1,.236.9.891.891,0,0,1-.922.65l-2.369.038-.04,7.469a1.015,1.015,0,0,1-1.055,1.061m-.823-1.987c.148-2.732-.153-5.256.14-7.847.075-.662,1.088-.441,1.827-.66a27.887,27.887,0,0,0-2.938-3.281,28.534,28.534,0,0,0-2.959,3.307c.916.141,1.891-.005,1.9.8l.088,7.692a3.6,3.6,0,0,0,1.941-.015" transform="translate(-99.3 -20.012)" fill="#12263f"/>
        <path id="Trazado_1003219" data-name="Trazado 1003219" d="M74.768,15.078c-.01,1.365-2.7.942-4.747.926a.874.874,0,0,1-.91-.806L69.032,7.55l-2.36-.04A.9.9,0,0,1,65.829,7a.917.917,0,0,1,.124-1.03L71.211.315a.973.973,0,0,1,1.434,0l5.179,5.546a1.022,1.022,0,0,1,.267,1,.929.929,0,0,1-.905.654l-2.362.034Zm-1.85-.994.019-7.4c0-.387.17-.871.528-.913L75,5.6,71.934,2.233,68.85,5.572c.521.2,1.011.046,1.539.2a.913.913,0,0,1,.532.916l.04,7.423a3.687,3.687,0,0,0,1.956-.028" transform="translate(-51.914 0)" fill="#12263f"/>
        <path id="Trazado_1003220" data-name="Trazado 1003220" d="M24.37,153.63c-.763,1.067-.608,2.523-1.257,3.792a10.971,10.971,0,0,1-6.2,0l-1.188-3.753c-.836-.386-2.144-.916-3.063-1.248-1.59.257-2.976,2.484-4.356,1.335a12.981,12.981,0,0,1-3.522-3.886l1.747-3.453c-.115-1.057-.973-2.2-1.221-3.254-1.265-.517-2.665-.413-3.708-1.207-.3-.27-1.034-3.868.342-3.872l10.235-.036c-.052-1.974.494-4.293-.629-5.6L.684,119.8a3.1,3.1,0,0,1,.412-4.289,3.161,3.161,0,0,1,4.449.294l8.018,9.288,12.906,0,8.016-9.287a3.159,3.159,0,1,1,4.684,4.24L28.375,132.568c-.965,1.119-.487,3.811-.532,5.495l10.043.008c1.715,0,.826,3.527.51,3.838-.866.888-2.351.705-3.59,1.2a16.282,16.282,0,0,0-1.29,3.306l1.736,3.475a12.283,12.283,0,0,1-4.284,4.306l-3.6-1.733a23.908,23.908,0,0,0-2.993,1.164m2.772-22.452,10.79-12.545a1.332,1.332,0,0,0-.32-1.8A1.368,1.368,0,0,0,35.9,117l-8.585,9.927-14.591,0L4.046,116.9a1.41,1.41,0,0,0-1.743.03,1.347,1.347,0,0,0-.207,1.707l10.855,12.613a4.305,4.305,0,0,1,1.124,2.85l.056,3.97,11.769-.02.068-4.145a4.133,4.133,0,0,1,1.173-2.724M22.8,152.123a20.125,20.125,0,0,0,4.587-1.875l3.461,1.841a14.643,14.643,0,0,0,2.274-2.286c-2.867-5.419-1.714-1.811.056-8.018,1.041-.673,3.692-.7,3.818-1.5.053-.336-.244-.389-.588-.389l-5.982,0a10.454,10.454,0,0,1-20.824,0l-6.4.03c-.249,0-.148.458-.108.571.142.4,3.084.794,3.751,1.284,1.791,6.178,2.931,2.625.064,8.023A13.08,13.08,0,0,0,9.228,152.1l3.415-1.859a22.388,22.388,0,0,0,4.609,1.924,30.054,30.054,0,0,1,1.05,3.652,8.636,8.636,0,0,0,3.367.046Zm5.709-12.233-17.038.022a8.6,8.6,0,0,0,8.637,7.652,8.5,8.5,0,0,0,8.4-7.674" transform="translate(0 -90.623)" fill="#12263f"/>
        <path id="Trazado_1003221" data-name="Trazado 1003221" d="M77.377,101.814A6.474,6.474,0,1,1,70.9,95.34a6.474,6.474,0,0,1,6.474,6.474m-1.84,0a4.634,4.634,0,1,0-4.634,4.634,4.634,4.634,0,0,0,4.634-4.634" transform="translate(-50.89 -75.305)" fill="#12263f"/>
      </g>
    </g>
  </g>
</svg>
