<svg xmlns="http://www.w3.org/2000/svg" xmlns:xlink="http://www.w3.org/1999/xlink" width="396" height="285" viewBox="0 0 396 285">
  <defs>
    <clipPath id="clip-path">
      <rect id="Rectángulo_455450" data-name="Rectángulo 455450" width="396" height="285" transform="translate(289.711 3223)" fill="#d0e1dd" stroke="#707070" stroke-width="1"/>
    </clipPath>
    <clipPath id="clip-path-2">
      <rect id="Rectángulo_456382" data-name="Rectángulo 456382" width="389.031" height="300.304" fill="none"/>
    </clipPath>
    <clipPath id="clip-path-4">
      <path id="Trazado_1003121" data-name="Trazado 1003121" d="M178.142,126.409C167.626,144.192,164.671,160.6,166.7,166.68c2.685,8.054,7.384,10.739,2.014,16.779s-24.163,25.5-22.15,33.559,21.479,2.014,18.794,8.054-8.055,9.4-2.014,12.082,4.7,2.014,2.014,7.383.671,6.712,4.027,10.739,2.014,3.356.671,12.082-2.014,12.081,9.4,12.081,38.258-4.028,39.6,11.409a224.673,224.673,0,0,1,0,32.217H306.3c4.7,0-4.7-61.748,7.383-83.225,11.7-20.8,19.562-79.27,9.088-113.431Z" transform="translate(-146.411 -126.409)" fill="none"/>
    </clipPath>
    <clipPath id="clip-path-5">
      <rect id="Rectángulo_456373" data-name="Rectángulo 456373" width="184.537" height="189.536" fill="none"/>
    </clipPath>
    <clipPath id="clip-path-6">
      <rect id="Rectángulo_456374" data-name="Rectángulo 456374" width="26.664" height="13.847" fill="none"/>
    </clipPath>
    <clipPath id="clip-path-8">
      <rect id="Rectángulo_456375" data-name="Rectángulo 456375" width="9.233" height="9.795" fill="none"/>
    </clipPath>
    <clipPath id="clip-path-9">
      <rect id="Rectángulo_456376" data-name="Rectángulo 456376" width="11.556" height="23.411" fill="none"/>
    </clipPath>
  </defs>
  <g id="Enmascarar_grupo_1119302" data-name="Enmascarar grupo 1119302" transform="translate(-289.711 -3223)" clip-path="url(#clip-path)">
    <g id="Grupo_1192252" data-name="Grupo 1192252" transform="translate(293.969 3222.859)">
      <g id="Grupo_1192251" data-name="Grupo 1192251" clip-path="url(#clip-path-2)">
        <g id="Grupo_1192234" data-name="Grupo 1192234">
          <g id="Grupo_1192233" data-name="Grupo 1192233" clip-path="url(#clip-path-2)">
            <path id="Trazado_1003103" data-name="Trazado 1003103" d="M387.372,432.6H4.313a2.344,2.344,0,0,1,0-4.688H387.372a2.344,2.344,0,1,1,0,4.688" transform="translate(-0.685 -148.805)" fill="#15342f"/>
            <path id="Trazado_1003104" data-name="Trazado 1003104" d="M131.08,16.083q-.817-.023-1.711.028c-9.541.562-12.909,9.541-9.542,20.766C108.041,31.826,100.745,48.1,100.745,48.1h89.8c-1.683-8.419-14.031-7.3-14.031-7.3s6.174-6.174,0-14.031-16.837-5.613-20.766,3.929c0-6.735-11.225-8.98-14.031-2.807,0-5.787-2.466-11.576-10.636-11.814" transform="translate(-35.034 -5.59)" fill="#a0f7fe"/>
            <path id="Trazado_1003105" data-name="Trazado 1003105" d="M417.284.009c-8.17.239-10.636,6.026-10.636,11.813-2.806-6.174-14.032-3.929-14.032,2.807C388.686,5.087,378.024,2.842,371.85,10.7s0,14.031,0,14.031-12.347-1.123-14.031,7.3h89.8s-7.3-16.276-19.084-11.225C431.9,9.577,428.536.6,418.994.036c-.6-.035-1.166-.042-1.711-.027" transform="translate(-124.431 0)" fill="#c2ffff"/>
            <path id="Trazado_1003106" data-name="Trazado 1003106" d="M52.384,126.134a11.879,11.879,0,0,0-1.587.042c-8.333.794-10.716,7.54-9.524,14.288-5.954-3.175-19.05.4-18.255,9.128C16.667,148.4,5.953,147.21,0,158.322H83.736s-8.333-12.3-19.445-7.143c5.209-16.37-3.884-24.718-11.907-25.045" transform="translate(0 -43.86)" fill="#c2ffff"/>
            <path id="Trazado_1003107" data-name="Trazado 1003107" d="M444.484,177.556a11.759,11.759,0,0,0-1.586.042c-8.334.794-10.715,7.541-9.523,14.288-5.953-3.175-19.049.4-18.256,9.128-6.35-1.19-17.066-2.381-23.019,8.732h83.738s-8.334-12.3-19.446-7.144C461.6,186.229,452.508,177.881,444.484,177.556Z" transform="translate(-136.352 -61.741)" fill="#a0f7fe"/>
            <path id="Trazado_1003108" data-name="Trazado 1003108" d="M484.892,264.816c0-8.031-17.116,8.674-11.908,25.044C461.872,284.7,453.538,297,453.538,297h83.737c-5.952-11.112-16.668-9.923-23.018-8.732.793-8.731-12.3-12.3-18.256-9.128,1.19-6.747-1.19-13.494-9.523-14.288-.521-.05-1.586.494-1.586-.042" transform="translate(-157.717 -91.366)" fill="#a0f7fe"/>
            <path id="Trazado_1003109" data-name="Trazado 1003109" d="M29.652,276.924a1.354,1.354,0,0,0-1.357,1.357v3.231a15.172,15.172,0,0,0-2,.534l-1.614-2.8a1.353,1.353,0,0,0-1.853-.5l-2.742,1.583a1.353,1.353,0,0,0-.5,1.853l1.614,2.8a15.374,15.374,0,0,0-1.464,1.466l-2.8-1.616a1.354,1.354,0,0,0-1.853.5L13.5,288.074a1.354,1.354,0,0,0,.5,1.854l2.795,1.614a15.248,15.248,0,0,0-.532,2H13.032a1.354,1.354,0,0,0-1.357,1.357v3.165a1.354,1.354,0,0,0,1.357,1.357h3.26a15.368,15.368,0,0,0,.517,2L14,303.039a1.353,1.353,0,0,0-.5,1.853l1.583,2.742a1.353,1.353,0,0,0,1.853.5l2.833-1.635a15.365,15.365,0,0,0,1.451,1.449l-1.637,2.833a1.355,1.355,0,0,0,.5,1.854l2.742,1.582a1.354,1.354,0,0,0,1.853-.5L26.3,310.91a15.164,15.164,0,0,0,2,.516v3.261a1.353,1.353,0,0,0,1.357,1.355h3.165a1.353,1.353,0,0,0,1.357-1.355v-3.261a15.164,15.164,0,0,0,2-.516l1.621,2.807a1.353,1.353,0,0,0,1.853.5l2.742-1.582a1.355,1.355,0,0,0,.5-1.854l-1.637-2.833A15.365,15.365,0,0,0,42.7,306.5l2.833,1.635a1.353,1.353,0,0,0,1.853-.5l1.583-2.742a1.354,1.354,0,0,0-.5-1.853l-2.808-1.621a15.16,15.16,0,0,0,.516-2h3.26a1.354,1.354,0,0,0,1.357-1.357V294.9a1.354,1.354,0,0,0-1.357-1.357h-3.26a15.247,15.247,0,0,0-.516-1.994l2.808-1.621a1.355,1.355,0,0,0,.5-1.854l-1.583-2.741a1.354,1.354,0,0,0-1.853-.5l-2.834,1.636a15.279,15.279,0,0,0-1.449-1.449l1.637-2.834a1.353,1.353,0,0,0-.5-1.853l-2.742-1.583a1.353,1.353,0,0,0-1.853.5l-1.621,2.807a15.268,15.268,0,0,0-2-.517v-3.26a1.354,1.354,0,0,0-1.357-1.357Zm13.566,19.558h0A11.984,11.984,0,1,1,31.233,284.5a11.984,11.984,0,0,1,11.984,11.983" transform="translate(-4.06 -96.3)" fill="#052f79"/>
            <path id="Trazado_1003110" data-name="Trazado 1003110" d="M35.968,292.7a.642.642,0,0,0-.643.643v1.531a7.221,7.221,0,0,0-.949.254L33.61,293.8a.641.641,0,0,0-.878-.236l-1.3.751a.641.641,0,0,0-.235.879l.765,1.326a7.194,7.194,0,0,0-.695.695l-1.325-.766a.641.641,0,0,0-.879.235l-.751,1.3a.642.642,0,0,0,.235.879l1.325.766a7.2,7.2,0,0,0-.252.948H28.089a.642.642,0,0,0-.643.643v1.5a.642.642,0,0,0,.643.643h1.545a7.269,7.269,0,0,0,.245.946l-1.331.768a.642.642,0,0,0-.235.879l.751,1.3a.642.642,0,0,0,.879.235l1.342-.775a7.274,7.274,0,0,0,.688.687l-.776,1.343a.643.643,0,0,0,.235.879l1.3.75a.641.641,0,0,0,.878-.235l.769-1.331a7.382,7.382,0,0,0,.946.245V310.6a.642.642,0,0,0,.643.643h1.5a.642.642,0,0,0,.644-.643v-1.545a7.411,7.411,0,0,0,.946-.245l.768,1.331a.642.642,0,0,0,.879.235l1.3-.75a.642.642,0,0,0,.235-.879l-.776-1.343a7.267,7.267,0,0,0,.687-.687l1.343.775a.642.642,0,0,0,.879-.235l.75-1.3a.641.641,0,0,0-.235-.879l-1.331-.768a7.165,7.165,0,0,0,.245-.946h1.546a.642.642,0,0,0,.643-.643v-1.5a.642.642,0,0,0-.643-.643H43.8a7.154,7.154,0,0,0-.245-.945l1.331-.769a.641.641,0,0,0,.235-.879l-.75-1.3a.641.641,0,0,0-.879-.235l-1.344.776a7.271,7.271,0,0,0-.687-.687l.776-1.343a.642.642,0,0,0-.235-.879l-1.3-.751a.642.642,0,0,0-.879.236l-.768,1.331a7.293,7.293,0,0,0-.946-.245v-1.545a.642.642,0,0,0-.644-.643Zm6.431,9.272h0a5.681,5.681,0,1,1-5.681-5.68,5.681,5.681,0,0,1,5.681,5.68" transform="translate(-9.544 -101.784)" fill="#052f79"/>
            <path id="Trazado_1003111" data-name="Trazado 1003111" d="M273.277,120.45a8.954,8.954,0,0,1,1.085.131,8.253,8.253,0,0,1,1.028.259,7.243,7.243,0,0,1,.948.377,6.256,6.256,0,0,1,.845.49,5.18,5.18,0,0,1,.432.33,4.626,4.626,0,0,1,.375.353,4.1,4.1,0,0,1,.575.758,3.431,3.431,0,0,1,.346.806,3.07,3.07,0,0,1,.116.83v4.892a3.07,3.07,0,0,0-.116-.83,3.431,3.431,0,0,0-.346-.806,4.1,4.1,0,0,0-.575-.758,4.624,4.624,0,0,0-.375-.353,5.175,5.175,0,0,0-.432-.33,6.253,6.253,0,0,0-.845-.49,7.243,7.243,0,0,0-.948-.377,8.253,8.253,0,0,0-1.028-.259,8.951,8.951,0,0,0-1.085-.131Z" transform="translate(-95.031 -41.886)" fill="#4481cb"/>
            <path id="Trazado_1003112" data-name="Trazado 1003112" d="M296.4,137.2v4.892L277.256,155.34a8.479,8.479,0,0,1-9.009,0l-19.123-13.234v-4.892l19.123,13.234a8.479,8.479,0,0,0,9.009,0Z" transform="translate(-86.632 -47.712)" fill="#4481cb"/>
            <path id="Trazado_1003113" data-name="Trazado 1003113" d="M317.364,123.112V128a3.07,3.07,0,0,1-.115.832,3.435,3.435,0,0,1-.345.807,4.118,4.118,0,0,1-.576.757,4.85,4.85,0,0,1-.374.353c-.134.114-.278.224-.432.33s-.311.2-.477.3-.337.179-.515.26-.359.155-.547.222-.378.128-.573.182-.4.1-.6.142-.408.072-.616.1-.419.044-.632.056-.425.015-.641.011v-4.892q.323.006.641-.011c.213-.012.424-.031.632-.056s.414-.058.616-.1.4-.087.6-.142.387-.114.573-.182.37-.142.547-.222.35-.167.515-.26.324-.192.477-.3.3-.216.432-.33a4.853,4.853,0,0,0,.374-.353,4.119,4.119,0,0,0,.576-.757,3.436,3.436,0,0,0,.345-.807,3.071,3.071,0,0,0,.115-.832" transform="translate(-108.123 -42.812)" fill="#4481cb"/>
            <rect id="Rectángulo_456367" data-name="Rectángulo 456367" width="0.001" height="4.892" transform="translate(186.193 73.089)" fill="#5e96db"/>
            <path id="Trazado_1003114" data-name="Trazado 1003114" d="M272.826,112.057c-2.7,1.862-5.367,3.69-7.948,5.474a8.949,8.949,0,0,1,1.086.132,8.253,8.253,0,0,1,1.028.258,7.374,7.374,0,0,1,.948.378,6.3,6.3,0,0,1,.845.49q.23.159.432.331a4.848,4.848,0,0,1,.374.352,4.1,4.1,0,0,1,.576.757,3.439,3.439,0,0,1,.346.807,3.054,3.054,0,0,1,0,1.663,3.4,3.4,0,0,1-.345.806,4.134,4.134,0,0,1-.577.758,4.85,4.85,0,0,1-.374.352c-.134.113-.279.224-.432.33s-.313.206-.478.3-.335.179-.509.259a7.475,7.475,0,0,1-1.094.4,8.542,8.542,0,0,1-1.166.239,9.119,9.119,0,0,1-1.2.08,9,9,0,0,1-1.2-.08,8.424,8.424,0,0,1-1.166-.239,7.557,7.557,0,0,1-1.094-.4q-.261-.119-.509-.259t-.478-.3a5.287,5.287,0,0,1-.706-.59,4.285,4.285,0,0,1-.543-.661,3.56,3.56,0,0,1-.368-.716,3.153,3.153,0,0,1-.184-.755l-.434.3c-2.231,1.552-5.638,3.924-8.527,5.946L268.247,141.7a8.481,8.481,0,0,0,9.01,0L296.4,128.457c-2.864-1.991-5.031-3.495-6.965-4.844.215,0,.429,0,.641-.011s.423-.03.631-.056.414-.059.617-.1.4-.087.6-.142.387-.115.575-.182.369-.141.546-.221.349-.167.514-.26.325-.192.477-.3.3-.217.432-.331a4.988,4.988,0,0,0,.374-.352,4.135,4.135,0,0,0,.575-.757,3.42,3.42,0,0,0,.346-.807,3.069,3.069,0,0,0,0-1.663,3.424,3.424,0,0,0-.346-.807,4.124,4.124,0,0,0-.576-.757,4.726,4.726,0,0,0-.374-.352,5.422,5.422,0,0,0-.432-.331c-.153-.106-.313-.206-.477-.3s-.335-.179-.509-.259a7.577,7.577,0,0,0-1.094-.4,8.651,8.651,0,0,0-1.166-.239,9.11,9.11,0,0,0-2.4,0,8.522,8.522,0,0,0-1.166.239,7.559,7.559,0,0,0-1.095.4c-.174.08-.344.166-.509.26s-.324.192-.477.3a5.338,5.338,0,0,0-.425.327,4.937,4.937,0,0,0-.373.352,4.124,4.124,0,0,0-.581.768,3.416,3.416,0,0,0-.35.832,3.2,3.2,0,0,0-.084.433,3.087,3.087,0,0,0-.02.44C280,117.042,276.388,114.534,272.826,112.057Z" transform="translate(-86.633 -38.968)" fill="#5e96db"/>
            <path id="Trazado_1003115" data-name="Trazado 1003115" d="M217.911,100.309a23.831,23.831,0,1,0,33.62,2.359h0a23.83,23.83,0,0,0-33.618-2.357h0m3.707,4.262a18.182,18.182,0,0,1,25.65,1.8h0a18.182,18.182,0,0,1-27.451,23.85h0a18.182,18.182,0,0,1,1.8-25.65h0" transform="translate(-72.927 -32.85)" fill="#f6d32d"/>
            <path id="Trazado_1003116" data-name="Trazado 1003116" d="M217.912,100.309a23.831,23.831,0,0,1,33.619,2.357h0l-4.264,3.7a18.182,18.182,0,0,0-25.65-1.8h0a18.182,18.182,0,0,0-1.8,25.65h0a18.181,18.181,0,0,0,21.67,4.373l2.482,5.092a23.811,23.811,0,0,1-26.059-39.379h0" transform="translate(-72.927 -32.85)" fill="#0e5a52"/>
            <path id="Trazado_1003117" data-name="Trazado 1003117" d="M218.909,99.749a23.827,23.827,0,0,1,10.125-4.612h0l1.076,5.545h0a18.183,18.183,0,0,0-14.644,18.531l-5.656-1a23.831,23.831,0,0,1,9.1-18.461" transform="translate(-72.961 -33.083)" fill="#95ebba"/>
            <rect id="Rectángulo_456368" data-name="Rectángulo 456368" width="4.514" height="24.334" transform="translate(157.315 32.527)" fill="#9bc2f0"/>
            <rect id="Rectángulo_456369" data-name="Rectángulo 456369" width="4.514" height="8.09" transform="translate(150.043 48.772)" fill="#9bc2f0"/>
            <rect id="Rectángulo_456370" data-name="Rectángulo 456370" width="4.514" height="16.379" transform="translate(164.289 40.483)" fill="#9bc2f0"/>
            <rect id="Rectángulo_456371" data-name="Rectángulo 456371" width="4.514" height="12.167" transform="translate(171.263 44.694)" fill="#9bc2f0"/>
            <path id="Trazado_1003118" data-name="Trazado 1003118" d="M171.62,146.409c-5.348,6.127-6.949,21.146-4.923,27.226,2.685,8.054,7.383,10.739,2.014,16.779s-24.163,25.5-22.15,33.559,21.479,2.013,18.793,8.054-8.055,9.4-2.014,12.081,4.7,2.014,2.014,7.383.671,6.712,4.028,10.739,2.013,3.356.671,12.081-2.014,12.082,9.4,12.082,38.258-4.028,39.6,11.409a224.779,224.779,0,0,1,0,32.217H306.3c4.7,0-4.7-61.748,7.383-83.226,11.7-20.8,19.563-66.224,9.088-100.385Z" transform="translate(-50.914 -50.913)" fill="#9cb9b4"/>
          </g>
        </g>
        <g id="Grupo_1192242" data-name="Grupo 1192242" transform="translate(95.497 82.451)">
          <g id="Grupo_1192241" data-name="Grupo 1192241" clip-path="url(#clip-path-4)">
            <g id="Grupo_1192237" data-name="Grupo 1192237" transform="translate(17.835 28.318)" opacity="0.6" style="mix-blend-mode: multiply;isolation: isolate">
              <g id="Grupo_1192236" data-name="Grupo 1192236">
                <g id="Grupo_1192235" data-name="Grupo 1192235" clip-path="url(#clip-path-5)">
                  <path id="Trazado_1003119" data-name="Trazado 1003119" d="M345.147,169.824c-25.4,86.441-134.357,121.085-164.5,123.207s48.444,66.329,48.444,66.329l87.085-15.754,26.155-25.5,10.977-20.77,4.989-84.514Z" transform="translate(-173.754 -169.824)" fill="#c7ddf2"/>
                </g>
              </g>
            </g>
            <g id="Grupo_1192240" data-name="Grupo 1192240" transform="translate(0.151 88.052)" opacity="0.6" style="mix-blend-mode: multiply;isolation: isolate">
              <g id="Grupo_1192239" data-name="Grupo 1192239">
                <g id="Grupo_1192238" data-name="Grupo 1192238" clip-path="url(#clip-path-6)">
                  <path id="Trazado_1003120" data-name="Trazado 1003120" d="M146.642,263.964c6.866,4.4,24.411-6.561,26.51-.886s-17.827,13.949-22.045,11.838-4.465-10.953-4.465-10.953" transform="translate(-146.642 -261.406)" fill="#c7ddf2"/>
                </g>
              </g>
            </g>
          </g>
        </g>
        <g id="Grupo_1192250" data-name="Grupo 1192250">
          <g id="Grupo_1192249" data-name="Grupo 1192249" clip-path="url(#clip-path-2)">
            <path id="Trazado_1003122" data-name="Trazado 1003122" d="M48.92,164.93a2.236,2.236,0,0,0-2.24,2.241v5.335a25.146,25.146,0,0,0-3.306.882l-2.666-4.617a2.235,2.235,0,0,0-3.06-.821l-4.527,2.614a2.235,2.235,0,0,0-.819,3.06l2.666,4.619a25.2,25.2,0,0,0-2.418,2.42L27.93,178a2.236,2.236,0,0,0-3.06.822l-2.614,4.525a2.238,2.238,0,0,0,.819,3.062l4.615,2.665a25.267,25.267,0,0,0-.879,3.3H21.476a2.237,2.237,0,0,0-2.241,2.241v5.227a2.237,2.237,0,0,0,2.241,2.241h5.382a25.3,25.3,0,0,0,.854,3.295l-4.638,2.677a2.236,2.236,0,0,0-.82,3.06l2.614,4.527a2.235,2.235,0,0,0,3.06.819l4.678-2.7a25.219,25.219,0,0,0,2.4,2.393l-2.7,4.678a2.237,2.237,0,0,0,.819,3.062l4.527,2.612a2.235,2.235,0,0,0,3.06-.819l2.678-4.636a25.161,25.161,0,0,0,3.295.852v5.385a2.234,2.234,0,0,0,2.24,2.238h5.227a2.234,2.234,0,0,0,2.24-2.238V221.9a25.134,25.134,0,0,0,3.295-.852l2.677,4.636a2.235,2.235,0,0,0,3.06.819l4.527-2.612a2.237,2.237,0,0,0,.819-3.062l-2.7-4.678a25.289,25.289,0,0,0,2.4-2.393l4.678,2.7a2.235,2.235,0,0,0,3.06-.819l2.614-4.527a2.236,2.236,0,0,0-.82-3.06l-4.636-2.677a25.286,25.286,0,0,0,.852-3.295h5.382a2.237,2.237,0,0,0,2.241-2.241v-5.227a2.237,2.237,0,0,0-2.241-2.241H76.209a25.333,25.333,0,0,0-.852-3.293l4.636-2.677a2.238,2.238,0,0,0,.82-3.062L78.2,178.818a2.236,2.236,0,0,0-3.06-.822l-4.68,2.7a25.193,25.193,0,0,0-2.394-2.393l2.7-4.68a2.235,2.235,0,0,0-.819-3.06l-4.527-2.614a2.235,2.235,0,0,0-3.06.821l-2.677,4.636a25.137,25.137,0,0,0-3.295-.854v-5.383a2.236,2.236,0,0,0-2.24-2.241Zm22.4,32.3h0a19.789,19.789,0,1,1-19.79-19.789,19.789,19.789,0,0,1,19.79,19.789" transform="translate(-6.689 -57.354)" fill="#d0e1dd"/>
            <path id="Trazado_1003123" data-name="Trazado 1003123" d="M61.225,192.8a14.122,14.122,0,1,0,14.122,14.122A14.122,14.122,0,0,0,61.225,192.8" transform="translate(-16.38 -67.045)" fill="#d0e1dd"/>
            <path id="Trazado_1003124" data-name="Trazado 1003124" d="M354.52,119.62c4.87-2.812,10.42-2.317,12.4,1.106s-.371,8.475-5.241,11.287-10.42,2.316-12.4-1.106.37-8.476,5.241-11.287" transform="translate(-121.217 -40.963)" fill="#3d3846"/>
            <path id="Trazado_1003125" data-name="Trazado 1003125" d="M336.607,105.423l11.184-6.878c3.368-2.071,8.166-1.252,9.816,2.34l3.962,8.621a6.548,6.548,0,0,1-2.432,8.532l-10.252,6.3a6.548,6.548,0,0,1-8.711-1.679l-5.907-7.425C331.806,112.145,333.24,107.494,336.607,105.423Z" transform="translate(-115.81 -33.88)" fill="#5e5c64"/>
            <path id="Trazado_1003126" data-name="Trazado 1003126" d="M332.771,36.739a26,26,0,0,1,2.6,19.786c-.864,3.223,3.69,16.729,1.648,19.431a26.168,26.168,0,0,1-17.579,10.149c-3.362.417-12.781-10.28-16-11.144a26.075,26.075,0,1,1,29.33-38.223" transform="translate(-98.799 -8.241)" fill="#f6d32d"/>
            <path id="Trazado_1003127" data-name="Trazado 1003127" d="M331.128,61.058a8.869,8.869,0,0,1,1.623-.379,4.989,4.989,0,0,1,3.093.511,6.074,6.074,0,0,1,2.407,2.7c2.527,5,.854,9.017.569,12.854A11.206,11.206,0,0,0,340,80.8a63.179,63.179,0,0,0,3,5.709c1.051,1.809,2.1,3.48,2.921,4.765q-.513.525-1.058,1.025c-.85-1.324-1.982-3.128-3.109-5.067a64.45,64.45,0,0,1-3.065-5.845,10.862,10.862,0,0,1-1.306-4.744c.31-4.155,1.856-7.6-.417-12.1a4.621,4.621,0,0,0-1.816-2.09,3.478,3.478,0,0,0-2.211-.345c-1.7.22-3.848,1.357-6.127,2.76a5.063,5.063,0,0,0-1.912,2.08c3.834-.58,7.039.909,8.3,3.333a3.987,3.987,0,0,1-.712,4.763,5.042,5.042,0,0,1-5.414.754,6.888,6.888,0,0,1-4.108-5.52,7.106,7.106,0,0,1-.014-1.364,13.087,13.087,0,0,0-1.959.922,6.9,6.9,0,0,0-3.7,6.2c.133,2.29,1.633,4.48,5.2,5.516,4.176,1.211,7.742,5.815,10.4,10.054a66.462,66.462,0,0,1,3.3,5.945q-.686.251-1.379.462c-.74-1.494-1.812-3.52-3.143-5.64-2.592-4.131-6.175-8.448-9.582-9.436-4.012-1.163-6.075-3.923-6.244-6.817a8.328,8.328,0,0,1,4.422-7.537,13.8,13.8,0,0,1,2.969-1.246,6.386,6.386,0,0,1,2.81-3.7,25.112,25.112,0,0,1,5.075-2.584ZM324.4,68.5a5.75,5.75,0,0,0,0,1.573,5.527,5.527,0,0,0,3.2,4.377A3.546,3.546,0,0,0,331.49,74a2.464,2.464,0,0,0,.431-3.056C330.955,69.093,328.061,67.685,324.4,68.5Z" transform="translate(-109.833 -21.083)" fill="#e5a50a"/>
            <g id="Grupo_1192245" data-name="Grupo 1192245" transform="translate(200.534 18.69)" opacity="0.45">
              <g id="Grupo_1192244" data-name="Grupo 1192244">
                <g id="Grupo_1192243" data-name="Grupo 1192243" clip-path="url(#clip-path-8)">
                  <path id="Trazado_1003128" data-name="Trazado 1003128" d="M310.828,29.306a4.387,4.387,0,0,0-3.233,3.939c-.151,1.2-.352,2.756.357,3.831,1.421,2.154,6.616,1.605,7.913-.473C318.514,32.363,314.153,26.727,310.828,29.306Z" transform="translate(-307.449 -28.655)" fill="#fcf7b0"/>
                </g>
              </g>
            </g>
            <g id="Grupo_1192248" data-name="Grupo 1192248" transform="translate(189.417 29.893)" opacity="0.45">
              <g id="Grupo_1192247" data-name="Grupo 1192247">
                <g id="Grupo_1192246" data-name="Grupo 1192246" clip-path="url(#clip-path-9)">
                  <path id="Trazado_1003129" data-name="Trazado 1003129" d="M292.916,48.559c-2.4,3.975-3.406,11.42-1.557,16.211s5.514,6.306,6.029,1.674a48.12,48.12,0,0,1,4.2-14.335C303.582,47.943,297.2,42.439,292.916,48.559Z" transform="translate(-290.405 -45.83)" fill="#fcf7b0"/>
                </g>
              </g>
            </g>
            <path id="Trazado_1003130" data-name="Trazado 1003130" d="M366.486,68.38c-.529-5.041-3.028-12.422-.585-15.149s7.393,3.722,7.375,8.418a45.255,45.255,0,0,1-.5,7.651c-.425,2.171-9.287,8.266-9.287,8.266l-.93-3.45S364.682,71.033,366.486,68.38Z" transform="translate(-126.08 -18.285)" fill="#558ccd"/>
            <path id="Trazado_1003131" data-name="Trazado 1003131" d="M370.287,65.838s9.444,6.267,13.151,9.974a14.676,14.676,0,0,1,1.766-7.237l-15.711-4.943Z" transform="translate(-128.49 -22.128)" fill="#346caf"/>
            <path id="Trazado_1003132" data-name="Trazado 1003132" d="M448.9,85.914s3.25-.725,4.765-1.147,2.343-1.818,3.188-1.72,4.857,7.828,4.877,8.451-1.316.789-3.025-1.059-3.481-3.662-4.382-3.572a42.5,42.5,0,0,0-4.722,1.519Z" transform="translate(-156.105 -28.878)" fill="#f4b58e"/>
            <path id="Trazado_1003133" data-name="Trazado 1003133" d="M458.716,87.456a4.091,4.091,0,0,0-.963-3.142c.917-.567,1.545-1.341,2.18-1.267.845.1,4.859,7.828,4.878,8.451s-1.316.789-3.026-1.059A26.841,26.841,0,0,0,458.716,87.456Z" transform="translate(-159.183 -28.878)" fill="#031e4d"/>
            <path id="Trazado_1003134" data-name="Trazado 1003134" d="M393.56,134.068s-.288,3.136-.34,4.642,1.072,2.952.714,3.614-9.23-.065-9.851-.38-.373-1.534,1.98-1.995,4.692-.991,4.881-1.8a38.663,38.663,0,0,0-.041-4.8Z" transform="translate(-133.463 -46.37)" fill="#f4b58e"/>
            <path id="Trazado_1003135" data-name="Trazado 1003135" d="M393.833,69.657c-.162,1.323,8.925,5.868,9.043,11.02.063,2.742-1.91,8.963-1.948,9.436-.11,1.363-4.255,24.448-4.255,24.448l-2.76-.083S392.732,98.4,392.5,90.141C392.353,84.752,393.833,69.657,393.833,69.657Z" transform="translate(-136.488 -24.223)" fill="#26558c"/>
            <path id="Trazado_1003136" data-name="Trazado 1003136" d="M394.241,56.32s11.657-.861,12.814,11.11c.333,3.444.34,15.112,2.4,13.913s8.384-3.784,22.442-5.576a5.112,5.112,0,0,1,.879,2.815S406.96,91.254,407.469,90.5c0,0-9.787-9.252-11.811-14.3a23.822,23.822,0,0,0-6-8.4Z" transform="translate(-135.503 -19.58)" fill="#316db5"/>
            <path id="Trazado_1003137" data-name="Trazado 1003137" d="M347.253,44.425s1.266,2.356,2.286,3.8,1.88,2.576,2.919,1.814a19.532,19.532,0,0,1,2.6-1.506l3.875,1.635,2.415-3.756a7.724,7.724,0,0,1-3.717-.654c-1.053-1.211-3.949-5.14-5.539-5.852s-3.121.016-4.405,1.449a2.8,2.8,0,0,0-.431,3.066" transform="translate(-120.66 -13.782)" fill="#f4b58e"/>
            <path id="Trazado_1003138" data-name="Trazado 1003138" d="M344.715,82.389l-1.8.885a5.025,5.025,0,0,0-1.7-.941,3.9,3.9,0,0,0-2.748.466c-.431.455.215.684,1.15.61s.5.479.018.689a11.746,11.746,0,0,0-3.05,2.1c-.669.806-.059,1.48.4,1.912s4.515-.71,5.538-1.18a2.225,2.225,0,0,0,1.3-1.167,16.553,16.553,0,0,1,2.277-1.489Z" transform="translate(-116.944 -28.608)" fill="#f4b58e"/>
            <path id="Trazado_1003139" data-name="Trazado 1003139" d="M371.424,65.691s10.062,5.208,14.3,6.708a12.039,12.039,0,0,0,1.766-6.266l-16.505-3.178Z" transform="translate(-129.008 -21.892)" fill="#e5246d"/>
            <path id="Trazado_1003140" data-name="Trazado 1003140" d="M355.764,65.084c.794-5.006-.046-11.038,2.12-13.99,2.182-2.974,5.572-2.994,8.833-1.722,4.714,1.839,11.589,3.8,15.55,4.175.784,3.107,2.657,9.895.055,13.1-5.577-.779-13.739-4.344-18.675-6.386-.611,2.018-1.072,5.356-2.045,7.342s-12.632,6.151-12.632,6.151l-1.56-2.955a90.163,90.163,0,0,0,8.351-5.714" transform="translate(-120.812 -16.891)" fill="#7aaeec"/>
            <path id="Trazado_1003141" data-name="Trazado 1003141" d="M389.957,141.929a4.847,4.847,0,0,0,3.4.861c.277,1.078.847,2.022.577,2.52-.358.662-9.23-.064-9.851-.38s-.373-1.534,1.98-2a22.265,22.265,0,0,0,3.895-1.006" transform="translate(-133.463 -49.355)" fill="#031e4d"/>
            <path id="Trazado_1003142" data-name="Trazado 1003142" d="M352.928,40.484c1.012,1.087,3.312,3.949,3.844,4.319s.466.51.233.9-2.649,0-2.976-.515,0-1.359-.928-2.171-1.443-.555-1.244.381c.089.421.207.745.249.984.644.946,2.026,3.059,1.923,3.651-.133.769-2.836,2.779-2.836,2.779l-1.462-1.288a14.287,14.287,0,0,0,2.237-2.254c.211-.453-.5-1.987-.9-2.788a4.118,4.118,0,0,1-.777-2.368c.082-.873-.2-.866-.822-.779s-2.205,1.777-3,2.726c-.494.452-1.68.282-1.428-.824C345.218,42.479,349.463,36.764,352.928,40.484Z" transform="translate(-119.977 -13.645)" fill="#865e3c"/>
            <path id="Trazado_1003143" data-name="Trazado 1003143" d="M362.913,53.4s1.466-2.355,3.579-2.557c-.419-.974-2.986.719-3.579,2.557" transform="translate(-126.202 -17.583)" fill="#4583cd"/>
            <path id="Trazado_1003144" data-name="Trazado 1003144" d="M372.175,55.577s.064,6.207-.513,8.637c.766-2.73,1.46-8.218.513-8.637" transform="translate(-129.245 -19.327)" fill="#4583cd"/>
            <path id="Trazado_1003145" data-name="Trazado 1003145" d="M360.993,73.871a5.253,5.253,0,0,1,3.14,1.347c-.683-1.608-2.514-1.905-3.14-1.347" transform="translate(-125.534 -25.598)" fill="#4583cd"/>
            <rect id="Rectángulo_456377" data-name="Rectángulo 456377" width="28.14" height="6.882" transform="translate(303.299 125.149) rotate(-35.928)" fill="#e5a50a"/>
            <path id="Trazado_1003146" data-name="Trazado 1003146" d="M455.241,191.173l-18.31-1.31,4.038,5.573,18.31,1.31Z" transform="translate(-151.942 -66.024)" fill="#e5a50a"/>
            <path id="Trazado_1003147" data-name="Trazado 1003147" d="M447.237,170.233c12.584-9.118,26.37-11.566,30.791-5.465l-22.787,16.511-18.311-1.31a52.493,52.493,0,0,1,10.307-9.736" transform="translate(-151.941 -56.13)" fill="#f6d32d"/>
            <path id="Trazado_1003148" data-name="Trazado 1003148" d="M440,190.313c-3.769,6.457-3.864,12.027-.254,14.9a13.762,13.762,0,0,0-.878,5.425c.252.1.51.2.781.279,7.432,2.3,20.3-2.46,30.513-11.282,5.678-4.9,9.621-10.274,11.341-15l-6.866,4.975c4.334-5.2,6.659-10.408,6.472-14.5l4.66,6.431c3.884,5.36-.732,15.7-10.947,24.521s-23.082,13.578-30.514,11.281a7.724,7.724,0,0,1-4.112-2.777l-4.66-6.431c-2.792-3.854-1.291-10.575,4.463-17.825" transform="translate(-150.984 -60.895)" fill="#052f79"/>
            <path id="Trazado_1003149" data-name="Trazado 1003149" d="M481.113,175.113c3.884,5.36-.732,15.7-10.947,24.521s-23.081,13.579-30.513,11.282-7.284-10.984.35-20.6l18.324,1.31Z" transform="translate(-150.984 -60.895)" fill="#124591"/>
            <path id="Trazado_1003150" data-name="Trazado 1003150" d="M232.534,160.054l20.63,19.843-6.833,3.241c1.261,4.5,4.425,15.609,11.671,38.379,9.027,28.369,20.913,17.3,44.511,20.481s33.281,40.052,44.341,72.059l-14.207,6.913c-11.06-32.007-20.742-68.875-44.341-72.059s-35.484,7.888-44.512-20.481c-7.311-22.975-10.492-34.158-11.716-38.534l-7.215,3.422Z" transform="translate(-78.196 -55.658)" fill="#f560a3"/>
            <path id="Trazado_1003151" data-name="Trazado 1003151" d="M322.2,285.131a75.454,75.454,0,0,0-13.047,7.122c-.371-.068-.734-.152-1.113-.2-11.1-1.5-19.592.127-26.432-.652a42.266,42.266,0,0,0,11.923-7.292c7.2,1.57,16.32-.631,28.669,1.025" transform="translate(-97.928 -98.797)" fill="#e5246d"/>
            <path id="Trazado_1003152" data-name="Trazado 1003152" d="M408.806,323.455a1.808,1.808,0,0,1,1.813,1.812v3.492a18.9,18.9,0,0,1,6.686,2.77l2.469-2.469a1.811,1.811,0,0,1,2.566,0l2.747,2.747a1.81,1.81,0,0,1,0,2.565l-2.469,2.469a18.908,18.908,0,0,1,2.768,6.686h3.494a1.808,1.808,0,0,1,1.812,1.813v3.886a1.808,1.808,0,0,1-1.812,1.813h-3.533a18.924,18.924,0,0,1-2.756,6.659l2.5,2.5a1.811,1.811,0,0,1,0,2.566l-2.747,2.747a1.811,1.811,0,0,1-2.566,0l-2.5-2.5a18.913,18.913,0,0,1-6.659,2.756V369.3a1.808,1.808,0,0,1-1.813,1.812H404.92a1.808,1.808,0,0,1-1.813-1.812v-3.533a18.9,18.9,0,0,1-6.658-2.756l-2.5,2.5a1.811,1.811,0,0,1-2.566,0l-2.747-2.747a1.811,1.811,0,0,1,0-2.566l2.5-2.5a18.916,18.916,0,0,1-2.758-6.659h-3.531a1.808,1.808,0,0,1-1.812-1.813V345.34a1.808,1.808,0,0,1,1.812-1.813h3.531a18.916,18.916,0,0,1,2.758-6.659l-2.5-2.5a1.81,1.81,0,0,1,0-2.565l2.747-2.747a1.811,1.811,0,0,1,2.566,0l2.5,2.5a18.9,18.9,0,0,1,6.658-2.756v-3.533a1.808,1.808,0,0,1,1.813-1.812Zm-12.562,23.828a10.619,10.619,0,1,0,10.619-10.619,10.62,10.62,0,0,0-10.619,10.619" transform="translate(-133.199 -112.481)" fill="#052f79"/>
            <path id="Trazado_1003153" data-name="Trazado 1003153" d="M338.537,375.13a1.2,1.2,0,0,1,1.205,1.205v2.323a12.59,12.59,0,0,1,4.447,1.842l1.642-1.642a1.2,1.2,0,0,1,1.706,0l1.828,1.828a1.2,1.2,0,0,1,0,1.706l-1.642,1.642a12.577,12.577,0,0,1,1.841,4.447h2.324a1.2,1.2,0,0,1,1.205,1.205v2.585a1.2,1.2,0,0,1-1.205,1.206h-2.35a12.577,12.577,0,0,1-1.833,4.429l1.661,1.661a1.2,1.2,0,0,1,0,1.706l-1.828,1.827a1.2,1.2,0,0,1-1.706,0l-1.661-1.661a12.57,12.57,0,0,1-4.429,1.833v2.35a1.2,1.2,0,0,1-1.205,1.205h-2.585a1.2,1.2,0,0,1-1.205-1.205v-2.35a12.569,12.569,0,0,1-4.429-1.833l-1.661,1.661a1.2,1.2,0,0,1-1.707,0l-1.827-1.827a1.2,1.2,0,0,1,0-1.706l1.661-1.661a12.564,12.564,0,0,1-1.835-4.429H322.6a1.2,1.2,0,0,1-1.205-1.206v-2.585a1.2,1.2,0,0,1,1.205-1.205h2.348a12.564,12.564,0,0,1,1.835-4.429l-1.661-1.661a1.2,1.2,0,0,1,0-1.706l1.827-1.828a1.205,1.205,0,0,1,1.707,0l1.661,1.661a12.58,12.58,0,0,1,4.429-1.833v-2.35a1.2,1.2,0,0,1,1.205-1.205Zm-8.355,15.849a7.063,7.063,0,1,0,7.063-7.063,7.063,7.063,0,0,0-7.063,7.063" transform="translate(-111.765 -130.451)" fill="#0e5a52"/>
            <path id="Trazado_1003154" data-name="Trazado 1003154" d="M213.3,375a.7.7,0,0,1,.7.7v1.351a7.314,7.314,0,0,1,2.587,1.072l.956-.956a.7.7,0,0,1,.993,0l1.063,1.063a.7.7,0,0,1,0,.993l-.956.956a7.324,7.324,0,0,1,1.071,2.587h1.352a.7.7,0,0,1,.7.7v1.5a.7.7,0,0,1-.7.7h-1.367a7.312,7.312,0,0,1-1.067,2.577l.967.966a.7.7,0,0,1,0,.993l-1.063,1.063a.7.7,0,0,1-.993,0l-.967-.967a7.313,7.313,0,0,1-2.577,1.067v1.367a.7.7,0,0,1-.7.7h-1.5a.7.7,0,0,1-.7-.7v-1.367a7.313,7.313,0,0,1-2.577-1.067l-.966.967a.7.7,0,0,1-.993,0l-1.063-1.063a.7.7,0,0,1,0-.993l.966-.966a7.325,7.325,0,0,1-1.068-2.577h-1.366a.7.7,0,0,1-.7-.7v-1.5a.7.7,0,0,1,.7-.7H205.4a7.325,7.325,0,0,1,1.068-2.577l-.966-.966a.7.7,0,0,1,0-.993l1.063-1.063a.7.7,0,0,1,.993,0l.966.967a7.324,7.324,0,0,1,2.577-1.067V375.7a.7.7,0,0,1,.7-.7Zm-4.861,9.222a4.109,4.109,0,1,0,4.109-4.109,4.11,4.11,0,0,0-4.109,4.109" transform="translate(-70.708 -130.405)" fill="#052f79"/>
            <path id="Trazado_1003155" data-name="Trazado 1003155" d="M372.4,312.754a23.831,23.831,0,0,0,31.261,35.978h0a23.83,23.83,0,0,0,2.359-33.618h0a23.83,23.83,0,0,0-33.618-2.357h0m3.707,4.262a18.182,18.182,0,0,1,25.65,1.8h0a18.182,18.182,0,0,1-27.451,23.85h0a18.182,18.182,0,0,1,1.8-25.65h0" transform="translate(-126.65 -106.728)" fill="#f6d32d"/>
            <path id="Trazado_1003156" data-name="Trazado 1003156" d="M372.4,312.754a23.831,23.831,0,0,1,33.619,2.357h0l-4.264,3.7a18.182,18.182,0,0,0-25.65-1.8h0a18.182,18.182,0,0,0-1.8,25.65h0a18.181,18.181,0,0,0,21.67,4.373l2.482,5.092A23.811,23.811,0,0,1,372.4,312.755h0" transform="translate(-126.649 -106.728)" fill="#95ebba"/>
            <path id="Trazado_1003157" data-name="Trazado 1003157" d="M373.4,312.194a23.826,23.826,0,0,1,10.125-4.612h0l1.076,5.545h0a18.183,18.183,0,0,0-14.644,18.531l-5.656-1a23.831,23.831,0,0,1,9.1-18.461" transform="translate(-126.684 -106.961)" fill="#0e5a52"/>
            <rect id="Rectángulo_456378" data-name="Rectángulo 456378" width="67.227" height="45.168" transform="translate(278.633 215.61) rotate(-30.088)" fill="#7aaeec"/>
            <path id="Trazado_1003158" data-name="Trazado 1003158" d="M449.831,351.674l12.775-33.5-35.419-5.58,36.026,3.986,2.036-5.339,5.645.89,14.46-33.239-12.775,33.5L508,317.972l-36.928-4.084-4.582-.507-1.838,4.227Z" transform="translate(-148.553 -96.983)" fill="#4481cb"/>
            <path id="Trazado_1003159" data-name="Trazado 1003159" d="M485.355,278.889l-58.168,33.7,36.026,3.986,2.036-5.339,5.645.89Z" transform="translate(-148.553 -96.983)" fill="#124591"/>
            <path id="Trazado_1003160" data-name="Trazado 1003160" d="M427.187,310.244l58.169-33.7-42.381-4.407Z" transform="translate(-148.553 -94.634)" fill="#9bc2f0"/>
            <rect id="Rectángulo_456379" data-name="Rectángulo 456379" width="21.219" height="36.107" transform="translate(316.601 242.881)" fill="#e5a50a"/>
            <rect id="Rectángulo_456380" data-name="Rectángulo 456380" width="70.648" height="36.107" transform="translate(245.953 242.881)" fill="#f6d32d"/>
            <path id="Trazado_1003161" data-name="Trazado 1003161" d="M149.26,417.264s-7.767-10.238-23.654-7.767c-13.416-13.416-22.595-13.416-33.892-10.944s-16.593,12.356-16.593,12.356-18.358-4.943-28.95,6.355Z" transform="translate(-16.056 -138.157)" fill="#95ebba"/>
            <path id="Trazado_1003162" data-name="Trazado 1003162" d="M289.282,422.588s-3.884-5.119-11.827-3.883c-6.708-6.708-11.3-6.708-16.946-5.472a13.379,13.379,0,0,0-8.3,6.179s-9.179-2.471-14.475,3.177Z" transform="translate(-82.673 -143.481)" fill="#95ebba"/>
            <path id="Trazado_1003163" data-name="Trazado 1003163" d="M112.715,345.8c1.235-7.767,1.589-12.71-4.589-19.241-6.355,3.53-6.179,10.415-4.943,13.768s9.532,5.472,9.532,5.472" transform="translate(-35.644 -113.559)" fill="#b8fedb"/>
            <path id="Trazado_1003164" data-name="Trazado 1003164" d="M124.5,391.116s2.295-19.594-.53-28.42S107.9,342.219,109.316,332.51c-2.118,5.472-.176,9.533,4.59,16.593s8.473,12.356,9,19.594-2.118,22.6-2.118,22.6Z" transform="translate(-37.718 -115.63)" fill="#95ebba"/>
            <path id="Trazado_1003165" data-name="Trazado 1003165" d="M99.717,372.165s-1.236-4.589-5.472-6-8.12-1.765-10.238-3.884c-.882,8.121,4.237,12.533,7.944,13.239s7.767-3.354,7.767-3.354" transform="translate(-29.178 -125.982)" fill="#b8fedb"/>
            <path id="Trazado_1003166" data-name="Trazado 1003166" d="M116.058,377.472a11.511,11.511,0,0,0-9.179-4.06c-6,.177-15.711.53-20.653-6.531,1.588,5.472,7.943,7.943,13.063,8.3s12.886-2.119,17.122,5.472a4.309,4.309,0,0,1-.353-3.177" transform="translate(-29.985 -127.582)" fill="#95ebba"/>
            <path id="Trazado_1003167" data-name="Trazado 1003167" d="M136.686,333.863s3,8.12.352,13.063-8.826,4.766-8.826,3.883-2.118-3.178,0-7.59,8.473-9.356,8.473-9.356" transform="translate(-44.258 -116.1)" fill="#b8fedb"/>
            <path id="Trazado_1003168" data-name="Trazado 1003168" d="M126.875,360.647c0-1.412-.706-2.824,1.412-7.061s7.414-8.3,6.708-13.769a14.367,14.367,0,0,1-4.589,7.767,13.183,13.183,0,0,0-4.943,10.944,5.22,5.22,0,0,0,1.412,2.118" transform="translate(-43.627 -118.171)" fill="#95ebba"/>
            <path id="Trazado_1003169" data-name="Trazado 1003169" d="M160,369.673c-.9-5.663-1.158-9.267,3.346-14.029,4.634,2.574,4.505,7.594,3.6,10.039s-6.95,3.99-6.95,3.99" transform="translate(-55.453 -123.674)" fill="#b8fedb"/>
            <path id="Trazado_1003170" data-name="Trazado 1003170" d="M149.086,402.715s-1.673-14.286.386-20.721,11.712-14.929,10.683-22.008c1.545,3.99.128,6.95-3.347,12.1s-6.177,9.01-6.564,14.286,1.545,16.474,1.545,16.474Z" transform="translate(-51.621 -125.184)" fill="#95ebba"/>
            <path id="Trazado_1003171" data-name="Trazado 1003171" d="M167.582,388.9a6.786,6.786,0,0,1,3.99-4.376c3.089-1.03,5.921-1.287,7.465-2.831.643,5.92-3.089,9.138-5.792,9.653s-5.663-2.445-5.663-2.445" transform="translate(-58.276 -132.732)" fill="#b8fedb"/>
            <path id="Trazado_1003172" data-name="Trazado 1003172" d="M150.081,392.767a8.391,8.391,0,0,1,6.693-2.96c4.376.129,11.454.386,15.059-4.762-1.158,3.99-5.792,5.791-9.524,6.049s-9.4-1.545-12.485,3.99a3.142,3.142,0,0,0,.258-2.317" transform="translate(-52.101 -133.898)" fill="#95ebba"/>
            <path id="Trazado_1003173" data-name="Trazado 1003173" d="M142.552,360.972s-2.188,5.921-.258,9.524,6.436,3.474,6.436,2.831,1.544-2.317,0-5.534-6.178-6.821-6.178-6.821" transform="translate(-49.206 -125.527)" fill="#b8fedb"/>
            <path id="Trazado_1003174" data-name="Trazado 1003174" d="M150.194,380.5a7.621,7.621,0,0,0-1.03-5.148c-1.545-3.089-5.405-6.049-4.891-10.039a10.475,10.475,0,0,0,3.346,5.663,9.613,9.613,0,0,1,3.6,7.98,3.8,3.8,0,0,1-1.03,1.545" transform="translate(-50.154 -127.037)" fill="#95ebba"/>
            <path id="Trazado_1003175" data-name="Trazado 1003175" d="M64.563,382.246c-3.368-4.641-5.733-7.372-12.286-7.554-1.456,5.1,2.184,8.555,4.55,9.647s7.736-2.093,7.736-2.093" transform="translate(-18.063 -130.298)" fill="#b8fedb"/>
            <path id="Trazado_1003176" data-name="Trazado 1003176" d="M92.867,400.848s-8.919-11.285-14.925-14.379S59.1,384.193,54.826,378.46c1.729,3.914,4.823,5.005,10.921,6.189s10.739,2,14.743,5.461S91.048,402.85,91.048,402.85Z" transform="translate(-19.066 -131.609)" fill="#95ebba"/>
            <path id="Trazado_1003177" data-name="Trazado 1003177" d="M70.115,402a6.786,6.786,0,0,0-5.915-.273c-2.912,1.457-5.1,3.276-7.281,3.276,3.732,4.641,8.646,4.277,10.921,2.73S70.115,402,70.115,402" transform="translate(-19.793 -139.498)" fill="#b8fedb"/>
            <path id="Trazado_1003178" data-name="Trazado 1003178" d="M81.249,393.091a8.392,8.392,0,0,0-6.825,2.639c-3,3.186-7.827,8.373-14.016,7.28,3.64,2,8.191,0,11.012-2.457s5.551-7.736,11.649-6.007a3.142,3.142,0,0,1-1.82-1.456" transform="translate(-21.007 -136.684)" fill="#95ebba"/>
            <path id="Trazado_1003179" data-name="Trazado 1003179" d="M71.871,362.693s5.733,2.639,6.916,6.553-2.093,7.008-2.548,6.552-2.73-.546-3.913-3.913-.455-9.192-.455-9.192" transform="translate(-24.916 -126.126)" fill="#b8fedb"/>
            <path id="Trazado_1003180" data-name="Trazado 1003180" d="M80.774,381.526a7.619,7.619,0,0,1-2.912-4.368c-1.092-3.276-.455-8.1-3.64-10.557a10.473,10.473,0,0,1,1.638,6.371,9.614,9.614,0,0,0,3.094,8.191,3.81,3.81,0,0,0,1.82.364" transform="translate(-25.81 -127.484)" fill="#95ebba"/>
            <path id="Trazado_1003181" data-name="Trazado 1003181" d="M186.054,91.742c-.477-1.224-2.9-.048-4.251.291a5.128,5.128,0,0,0-1.025.429c.378-.572.679-1.373.165-1.425-.681-.068-1.764,1.871-2.551,2.832l.149-.039c-.868.584-1.548,1.089-1.548,1.089l.787,1.836s3.763-.608,5.075-1.395,4.028-1.493,3.2-3.619" transform="translate(-61.549 -31.658)" fill="#f2a778"/>
            <path id="Trazado_1003182" data-name="Trazado 1003182" d="M144.855,103.015l8.307-2.536L166.1,96.107a20.2,20.2,0,0,1,1.224,2.449c-4.722,2.273-13.466,7.52-13.466,7.52Z" transform="translate(-50.373 -33.421)" fill="#558ccd"/>
            <path id="Trazado_1003183" data-name="Trazado 1003183" d="M197.844,71.628a.976.976,0,0,1,.978.978v2.351a10.93,10.93,0,0,1,1.438.372l1.169-2.024a.977.977,0,0,1,1.336-.359l1.977,1.141a.976.976,0,0,1,.357,1.336l-1.18,2.044a10.977,10.977,0,0,1,1.045,1.045l2.043-1.18a.977.977,0,0,1,1.336.359l1.141,1.976A.976.976,0,0,1,209.129,81L207.1,82.173a11.047,11.047,0,0,1,.372,1.438h2.35a.977.977,0,0,1,.978.978v2.282a.976.976,0,0,1-.978.978h-2.35a11.066,11.066,0,0,1-.372,1.439l2.024,1.169a.976.976,0,0,1,.358,1.336l-1.141,1.977a.976.976,0,0,1-1.336.357l-2.042-1.179a11.066,11.066,0,0,1-1.046,1.045l1.18,2.042a.977.977,0,0,1-.357,1.337l-1.977,1.141a.976.976,0,0,1-1.336-.358l-1.168-2.024a10.963,10.963,0,0,1-1.439.372v2.351a.976.976,0,0,1-.978.977h-2.282a.976.976,0,0,1-.978-.977V96.5a11.058,11.058,0,0,1-1.438-.372l-1.169,2.024a.976.976,0,0,1-1.336.358l-1.977-1.141a.977.977,0,0,1-.358-1.337l1.18-2.042a11.052,11.052,0,0,1-1.046-1.045L186.4,94.127a.975.975,0,0,1-1.336-.357l-1.141-1.977a.975.975,0,0,1,.357-1.336l2.025-1.169a10.962,10.962,0,0,1-.372-1.439h-2.351a.976.976,0,0,1-.978-.978V84.589a.977.977,0,0,1,.978-.978h2.33a10.923,10.923,0,0,1,.384-1.442L184.277,81a.976.976,0,0,1-.357-1.336l1.141-1.976a.976.976,0,0,1,1.336-.359l2.017,1.165a10.982,10.982,0,0,1,1.056-1.057l-1.164-2.017a.976.976,0,0,1,.358-1.336l1.977-1.141a.976.976,0,0,1,1.336.359l1.164,2.015a11.05,11.05,0,0,1,1.443-.385v-2.33a.977.977,0,0,1,.978-.978ZM196.7,77.09a8.64,8.64,0,1,0,8.64,8.64,8.641,8.641,0,0,0-8.64-8.64" transform="translate(-63.499 -24.908)" fill="#f860a4"/>
            <path id="Trazado_1003184" data-name="Trazado 1003184" d="M189.4,93.455c-.778-1.059-2.809.7-4.031,1.381a5.143,5.143,0,0,0-.879.679c.217-.65.3-1.5-.209-1.418-.676.11-1.22,2.263-1.732,3.4l.134-.077c-.687.79-1.214,1.453-1.214,1.453l1.235,1.569s3.478-1.561,4.542-2.661,3.5-2.485,2.153-4.323" transform="translate(-63.105 -32.384)" fill="#f4b58e"/>
            <path id="Trazado_1003185" data-name="Trazado 1003185" d="M100.934,209.248a16.044,16.044,0,0,1-3.407,3.057c-2.422,1.723-2.735,2.735-2.735,2.735l2.012,2.012.663-.663a7.157,7.157,0,0,1,.985,1.814c.368,1.031,3.721,3.72,3.721,3.72.429-.581,1.4-1.687-1.138-4.983-2.267-2.948.047-4.629,1.565-6.074Z" transform="translate(-32.964 -72.766)" fill="#1f2e58"/>
            <path id="Trazado_1003186" data-name="Trazado 1003186" d="M103.549,210.866l-1.667-1.618a16.027,16.027,0,0,1-3.407,3.057c-.367.261-.68.5-.957.731a6.764,6.764,0,0,0,1.846,2.07,3.838,3.838,0,0,0,1.84.451C100.473,213.434,102.286,212.068,103.549,210.866Z" transform="translate(-33.912 -72.766)" fill="#f4b58e"/>
            <path id="Trazado_1003187" data-name="Trazado 1003187" d="M117.568,156.318c-.175,2.1-1.224,13.641-1.4,15.04s-14.34,20.811-14.34,20.811l2.1,1.923s14.34-10.843,16.614-15.914-2.973-21.861-2.973-21.861" transform="translate(-35.411 -54.359)" fill="#031e4d"/>
            <path id="Trazado_1003188" data-name="Trazado 1003188" d="M129.72,222.3a16.05,16.05,0,0,1-.247,4.571c-.494,2.931,0,3.868,0,3.868h2.844v-.937a7.151,7.151,0,0,1,1.979.586c.989.469,5.262,0,5.262,0-.108-.714-.2-2.182-4.328-2.72-3.688-.481-3.24-3.306-3.188-5.4Z" transform="translate(-44.947 -77.294)" fill="#1f2e58"/>
            <path id="Trazado_1003189" data-name="Trazado 1003189" d="M132.074,222.27l-2.323.035a16.031,16.031,0,0,1-.247,4.571c-.075.444-.125.837-.16,1.194a6.778,6.778,0,0,0,2.769.158,3.835,3.835,0,0,0,1.62-.982c-2.019-.983-1.7-3.231-1.66-4.975" transform="translate(-44.979 -77.294)" fill="#f4b58e"/>
            <path id="Trazado_1003190" data-name="Trazado 1003190" d="M126.926,137.818s-2.8,5.6-2.1,9.094,1.749,21.161,1.924,23.609-1.783,9.619,1.016,23.96a5.27,5.27,0,0,0,3.04-.051s5.038-26.532,4.688-25.658c0,0,2.973-11.367,3.323-16.964s.35-13.466.35-13.466Z" transform="translate(-43.369 -47.926)" fill="#052f79"/>
            <path id="Trazado_1003191" data-name="Trazado 1003191" d="M141,89.788s.684,2.6,1.094,4.379.685,3.216-.616,3.49a20.2,20.2,0,0,0-2.942.958l.137,2.6-4.516.889a8.226,8.226,0,0,0,.479-3.421c-.205-1.642-1.232-6.569-.684-8.28s2.463-2.4,4.448-2.4A2.353,2.353,0,0,1,141,89.788Z" transform="translate(-46.527 -30.605)" fill="#f4b58e"/>
            <path id="Trazado_1003192" data-name="Trazado 1003192" d="M149.773,104.388s-12.825-1.591-16.04.388-3.71,1.484-4.205,6.678-2.473,9.893-2.225,12.613,11.872,3.463,14.1,1.979-.742-11.129.5-13.356,7.3-1.73,9.483-2.4c3.726-1.147,13.03-7.018,13.03-7.018l-1.27-3.2Z" transform="translate(-44.262 -34.799)" fill="#7aaeec"/>
            <path id="Trazado_1003193" data-name="Trazado 1003193" d="M133.462,97.487a12.123,12.123,0,0,0-1.5-4.414c-.724-1.055-2.06-3.671-.609-5.026s5-.655,7.2-1.931a1.807,1.807,0,0,1,2.889,1.545c-.234,1.085-.727,2.278-2.082,2.085s-3.484.1-3.58,1.451a21.66,21.66,0,0,0,0,2.709s-.58-1.742-1.452-.581S135.01,96.035,133.462,97.487Z" transform="translate(-45.453 -29.831)" fill="#865e3c"/>
            <path id="Trazado_1003194" data-name="Trazado 1003194" d="M89.248,234.7h19.984l1.041.044L78.6,360.725H77.547l.88-3.5H58.443l-.88,3.5H56.511L88.195,234.708Zm-5.084,20.222h19.984l4.786-19.035H88.949Zm-5.084,20.222H99.063l4.786-19.035H83.865ZM73.995,295.37H93.979l4.786-19.035H78.781ZM68.91,315.592H88.895l4.786-19.035H73.7Zm-5.084,20.222H83.81L88.6,316.78H68.612Zm-5.084,20.222H78.726L83.512,337H63.527Z" transform="translate(-19.652 -81.617)" fill="#3a6da0"/>
            <path id="Trazado_1003195" data-name="Trazado 1003195" d="M125.913,234.7H105.929l-1.041.044,31.674,125.977h1.051l-.88-3.5h19.984l.88,3.5h1.052L126.966,234.708ZM131,254.925H111.013l-4.786-19.035h19.984Zm5.084,20.222H116.1l-4.786-19.035H131.3Zm5.084,20.222H121.182L116.4,276.335H136.38Zm5.084,20.222H126.266l-4.786-19.035h19.984Zm5.084,20.222H131.351l-4.786-19.035h19.984Zm5.084,20.222H136.435L131.649,337h19.984Z" transform="translate(-36.475 -81.617)" fill="#3a6da0"/>
          </g>
        </g>
      </g>
    </g>
  </g>
</svg>
