<svg id="Grupo_1191895" data-name="Grupo 1191895" xmlns="http://www.w3.org/2000/svg" xmlns:xlink="http://www.w3.org/1999/xlink" width="84" height="84" viewBox="0 0 84 84">
  <defs>
    <clipPath id="clip-path">
      <rect id="Rectángulo_456389" data-name="Rectángulo 456389" width="60.743" height="60.741" fill="#12263f"/>
    </clipPath>
  </defs>
  <g id="Grupo_1177731" data-name="Grupo 1177731">
    <g id="Grupo_1119665" data-name="Grupo 1119665">
      <path id="Trazado_991847" data-name="Trazado 991847" d="M5,0H79a5,5,0,0,1,5,5V79a5,5,0,0,1-5,5H5a5,5,0,0,1-5-5V5A5,5,0,0,1,5,0Z" fill="#a0f7fe"/>
    </g>
    <g id="Grupo_1192266" data-name="Grupo 1192266" transform="translate(11.628 11.629)">
      <g id="Grupo_1192265" data-name="Grupo 1192265" clip-path="url(#clip-path)">
        <path id="Trazado_1003249" data-name="Trazado 1003249" d="M104.232,119c-.187-.732-1.193-2.225.057-2.668,1.216-.431,1.425,1.025,2.079,2.288s-1.273,2.114-2.087,3.269l5.689,5.688,2.081-2.01c.667-.644,2.134.488,3.785.993,1.413.432.628,2.372.888,3.8l8.015.026c.29-1.43-.528-3.385.865-3.807,2.186-.662,3.061-1.776,4-.852.625.615,1.148,1.218,1.885,1.843l5.682-5.676c-.81-1.189-2.722-2-2.08-3.269a19.964,19.964,0,0,0,1.12-2.694c.432-1.283,2.364-.489,3.758-.8v-8.011l-2.665-.034c-1.2-.015-1.225-1.433-2.256-3.548-.549-1.126,1.392-2.089,2.126-3.159l-5.693-5.689-1.891,1.858a1.156,1.156,0,0,1-1.388.222c-1.715-.872-3.378-1.063-3.4-2.024l-.063-2.8c-.767-.107-1.263-.554-1.2-1.145.083-.734.684-.967,1.434-.946.622.018,1.567-.063,1.743.707.249,1.088-.026,2.2.127,3.335a10.229,10.229,0,0,0,1.727.744l2.219-2.147a1,1,0,0,1,1.437.064l7.154,7.177c1.055,1.058-1.635,2.666-2.183,3.536a10.8,10.8,0,0,0,.751,1.737l3.013.044a1.022,1.022,0,0,1,1.016,1.034l-.008,10.106a.953.953,0,0,1-.833.954l-3.187.075a13.261,13.261,0,0,0-.753,1.705l2.178,2.283a1.1,1.1,0,0,1-.2,1.534l-7.076,7.031c-1.038,1.032-2.653-1.626-3.519-2.189a8.6,8.6,0,0,0-1.754.775l-.013,2.83a1.164,1.164,0,0,1-1.246,1.213l-9.907,0a1,1,0,0,1-1.008-1.006l-.034-3.031a11.484,11.484,0,0,0-1.765-.738c-1.4,1.024-2.353,3.389-3.849,1.892l-6.668-6.669c-1.491-1.491.891-2.461,1.895-3.845" transform="translate(-81.237 -71.657)" fill="#12263f"/>
        <path id="Trazado_1003250" data-name="Trazado 1003250" d="M168.21,159.133a9.106,9.106,0,1,1-9.106-9.106,9.106,9.106,0,0,1,9.106,9.106m-2.027,0a7.078,7.078,0,1,0-7.078,7.078,7.078,7.078,0,0,0,7.078-7.078" transform="translate(-119.629 -119.653)" fill="#12263f"/>
        <path id="Trazado_1003251" data-name="Trazado 1003251" d="M58.4,30.2a14.172,14.172,0,1,0-15.813-9.942,1.044,1.044,0,0,1-.728,1.158,1.015,1.015,0,0,1-1.253-.754A16.189,16.189,0,1,1,58.8,32.184a.982.982,0,0,1-1.158-.735A1.009,1.009,0,0,1,58.4,30.2" transform="translate(-31.877 0)" fill="#12263f"/>
        <path id="Trazado_1003252" data-name="Trazado 1003252" d="M97.67,100.4c3.618.038,3.779-3.074,5.285-2.145,1.622,1-1.614,4.13-5.135,4.174a6.834,6.834,0,0,1-5.644-2.857,1.071,1.071,0,0,1,.359-1.323c1.464-.884,1.686,2.115,5.134,2.151" transform="translate(-73.448 -78.224)" fill="#12263f"/>
        <path id="Trazado_1003253" data-name="Trazado 1003253" d="M74.642,56.29c-1.733.167-.523-2.218-2.438-2.268-1.94-.051-.738,2.342-2.422,2.276-.676-.027-1-.577-.934-1.276a3.347,3.347,0,0,1,6.678.2.991.991,0,0,1-.885,1.068" transform="translate(-54.903 -41.46)" fill="#12263f"/>
        <path id="Trazado_1003254" data-name="Trazado 1003254" d="M143.983,56.282c-1.825.377-.69-2.078-2.425-2.25-2.006-.2-.957,2.179-2.415,2.265a.993.993,0,0,1-1.1-1.069,3.345,3.345,0,0,1,6.674-.2,1.057,1.057,0,0,1-.738,1.251" transform="translate(-110.098 -41.466)" fill="#12263f"/>
        <path id="Trazado_1003255" data-name="Trazado 1003255" d="M24.286,127.17a12.143,12.143,0,1,1-12.143-12.143A12.143,12.143,0,0,1,24.286,127.17m-2.026,0a10.117,10.117,0,1,0-10.117,10.117A10.117,10.117,0,0,0,22.259,127.17" transform="translate(0 -91.739)" fill="#12263f"/>
        <path id="Trazado_1003256" data-name="Trazado 1003256" d="M46.7,190.383c-1.137,1.525-1.83-1.276-4.135-1.288-2.682-.015-2.469,2.2-3.968,1.575a.943.943,0,0,1-.464-1.244,5.03,5.03,0,0,1,4.045-2.336c2.75-.15,5.409,2.1,4.522,3.293" transform="translate(-30.331 -149.206)" fill="#12263f"/>
        <path id="Trazado_1003257" data-name="Trazado 1003257" d="M23.848,154.832c1.1.076.393-1.759,1.822-1.64a1.006,1.006,0,0,1,.908,1.182,2.711,2.711,0,0,1-5.415-.2,1,1,0,0,1,.89-.972c1.473-.148.709,1.559,1.794,1.634" transform="translate(-16.879 -122.173)" fill="#12263f"/>
        <path id="Trazado_1003258" data-name="Trazado 1003258" d="M74.737,154.838c1.067-.031.307-1.556,1.634-1.643a.993.993,0,0,1,1.057.975,2.711,2.711,0,0,1-5.415.2,1.013,1.013,0,0,1,.912-1.181c1.408-.125.737,1.676,1.811,1.645" transform="translate(-57.431 -122.172)" fill="#12263f"/>
      </g>
    </g>
  </g>
</svg>
