<svg xmlns="http://www.w3.org/2000/svg" xmlns:xlink="http://www.w3.org/1999/xlink" width="1020" height="412.071" viewBox="0 0 1020 412.071">
  <defs>
    <clipPath id="clip-path">
      <circle id="Elipse_13840" data-name="Elipse 13840" cx="90" cy="90" r="90" transform="translate(702 8034)" fill="#fff"/>
    </clipPath>
    <clipPath id="clip-path-2">
      <rect id="Rectángulo_456173" data-name="Rectángulo 456173" width="48.684" height="54.95" fill="#d0e1dd"/>
    </clipPath>
    <clipPath id="clip-path-4">
      <rect id="Rectángulo_456155" data-name="Rectángulo 456155" width="480.509" height="355.331" fill="none"/>
    </clipPath>
    <clipPath id="clip-path-6">
      <rect id="Rectángulo_456135" data-name="Rectángulo 456135" width="164.598" height="129.581" fill="none"/>
    </clipPath>
    <clipPath id="clip-path-7">
      <rect id="Rectángulo_456136" data-name="Rectángulo 456136" width="89.595" height="89.594" fill="none"/>
    </clipPath>
    <clipPath id="clip-path-8">
      <rect id="Rectángulo_456137" data-name="Rectángulo 456137" width="75.481" height="75.482" fill="none"/>
    </clipPath>
    <clipPath id="clip-path-9">
      <rect id="Rectángulo_456138" data-name="Rectángulo 456138" width="164.135" height="119.44" fill="none"/>
    </clipPath>
    <clipPath id="clip-path-10">
      <rect id="Rectángulo_456139" data-name="Rectángulo 456139" width="89.594" height="89.595" fill="none"/>
    </clipPath>
    <clipPath id="clip-path-11">
      <rect id="Rectángulo_456140" data-name="Rectángulo 456140" width="75.481" height="75.481" fill="none"/>
    </clipPath>
    <clipPath id="clip-path-12">
      <rect id="Rectángulo_456141" data-name="Rectángulo 456141" width="164.598" height="129.582" fill="none"/>
    </clipPath>
    <clipPath id="clip-path-13">
      <rect id="Rectángulo_456142" data-name="Rectángulo 456142" width="89.595" height="89.595" fill="none"/>
    </clipPath>
    <clipPath id="clip-path-18">
      <rect id="Rectángulo_456147" data-name="Rectángulo 456147" width="164.134" height="119.44" fill="none"/>
    </clipPath>
    <clipPath id="clip-path-20">
      <rect id="Rectángulo_456149" data-name="Rectángulo 456149" width="75.482" height="75.481" fill="none"/>
    </clipPath>
    <clipPath id="clip-path-24">
      <rect id="Rectángulo_456179" data-name="Rectángulo 456179" width="48.879" height="48.938" fill="#15342f"/>
    </clipPath>
    <clipPath id="clip-path-25">
      <rect id="Rectángulo_456180" data-name="Rectángulo 456180" width="53.311" height="34.159" fill="#02542b"/>
    </clipPath>
    <clipPath id="clip-path-26">
      <rect id="Rectángulo_456181" data-name="Rectángulo 456181" width="52.4" height="52.415" fill="#15342f"/>
    </clipPath>
    <clipPath id="clip-path-27">
      <rect id="Rectángulo_456182" data-name="Rectángulo 456182" width="50.024" height="49.961" fill="#02542b"/>
    </clipPath>
    <clipPath id="clip-path-28">
      <rect id="Rectángulo_456185" data-name="Rectángulo 456185" width="47.032" height="47.028" fill="#15342f"/>
    </clipPath>
    <clipPath id="clip-path-29">
      <rect id="Rectángulo_456186" data-name="Rectángulo 456186" width="44.65" height="48.163" fill="#02542b"/>
    </clipPath>
  </defs>
  <g id="Grupo_1192011" data-name="Grupo 1192011" transform="translate(-291 -7920)">
    <rect id="Rectángulo_456134" data-name="Rectángulo 456134" width="1020" height="412.071" rx="14" transform="translate(291 7920)" fill="#d0e1dd"/>
    <circle id="Elipse_13839" data-name="Elipse 13839" cx="90" cy="90" r="90" transform="translate(702 8034)" fill="#fff"/>
    <g id="Grupo_1191967" data-name="Grupo 1191967" transform="translate(-7.855 -13.21)">
      <g id="Rectángulo_454958" data-name="Rectángulo 454958" transform="translate(306.855 8100.96)" fill="#b8fedb" stroke="#02542b" stroke-width="2">
        <rect width="320.145" height="89" rx="12" stroke="none"/>
        <rect x="1" y="1" width="318.145" height="87" rx="11" fill="none"/>
      </g>
      <text id="La_falta_de_tolerancia_fomenta_la_discriminación_y_el_prejuicio." data-name="La falta de tolerancia fomenta la discriminación y el prejuicio." transform="translate(320.855 8130)" fill="#12263f" font-size="16" font-family="SegoeUI, Segoe UI"><tspan x="0" y="17">La falta de tolerancia fomenta la </tspan><tspan x="0" y="39">discriminación y el prejuicio.</tspan></text>
      <rect id="Rectángulo_454959" data-name="Rectángulo 454959" width="157.217" height="31.5" rx="8" transform="translate(306.855 8085.21)" fill="#02542b"/>
      <text id="Tolerancia" transform="translate(320.737 8088.96)" fill="#fff" font-size="17" font-family="SegoeUI-Bold, Segoe UI" font-weight="700"><tspan x="24.132" y="18">Tolerancia</tspan></text>
    </g>
    <g id="Rectángulo_454958-2" data-name="Rectángulo 454958" transform="translate(339 7970.75)" fill="#9cb9b4" stroke="#0e5a52" stroke-width="2">
      <rect width="371.145" height="89" rx="12" stroke="none"/>
      <rect x="1" y="1" width="369.145" height="87" rx="11" fill="none"/>
    </g>
    <g id="Rectángulo_456166" data-name="Rectángulo 456166" transform="translate(874 7970.75)" fill="#b8fedb" stroke="#02542b" stroke-width="2">
      <rect width="388" height="89" rx="12" stroke="none"/>
      <rect x="1" y="1" width="386" height="87" rx="11" fill="none"/>
    </g>
    <g id="Rectángulo_456169" data-name="Rectángulo 456169" transform="translate(959.145 8088.375)" fill="#9cb9b4" stroke="#0e5a52" stroke-width="2">
      <rect width="343" height="89" rx="12" stroke="none"/>
      <rect x="1" y="1" width="341" height="87" rx="11" fill="none"/>
    </g>
    <g id="Rectángulo_456163" data-name="Rectángulo 456163" transform="translate(339 8202.412)" fill="#9cb9b4" stroke="#0e5a52" stroke-width="2">
      <rect width="371.145" height="89" rx="12" stroke="none"/>
      <rect x="1" y="1" width="369.145" height="87" rx="11" fill="none"/>
    </g>
    <text id="La_falta_de_empatía_dificulta_la_comprensión_de_los_demás." data-name="La falta de empatía dificulta la comprensión de los demás." transform="translate(353 7999.791)" fill="#12263f" font-size="16" font-family="SegoeUI, Segoe UI"><tspan x="0" y="17">La falta de empatía dificulta la </tspan><tspan x="0" y="39">comprensión de los demás.</tspan></text>
    <text id="La_falta_de_comprensión_genera_malentendidos_y_conflictos." data-name="La falta de comprensión genera malentendidos y conflictos." transform="translate(990.145 7999.791)" fill="#12263f" font-size="16" font-family="SegoeUI, Segoe UI"><tspan x="35.451" y="17">La falta de comprensión genera </tspan><tspan x="65.498" y="39">malentendidos y conflictos.</tspan></text>
    <text id="La_ira_conduce_a_comportamientos_agresivos_y_dañinos." data-name="La ira conduce a comportamientos agresivos y dañinos." transform="translate(1035.535 8117.416)" fill="#12263f" font-size="16" font-family="SegoeUI, Segoe UI"><tspan x="8.516" y="17">La ira conduce a comportamientos </tspan><tspan x="110.938" y="39">agresivos y dañinos.</tspan></text>
    <text id="La_frustración_genera_resentimiento_y_comportamientos_negativos." data-name="La frustración genera resentimiento y comportamientos negativos." transform="translate(353 8231.452)" fill="#12263f" font-size="16" font-family="SegoeUI, Segoe UI"><tspan x="0" y="17">La frustración genera resentimiento </tspan><tspan x="0" y="39">y comportamientos negativos.</tspan></text>
    <rect id="Rectángulo_454959-2" data-name="Rectángulo 454959" width="157.217" height="31.5" rx="8" transform="translate(338.783 7955)" fill="#0e5a52"/>
    <rect id="Rectángulo_456167" data-name="Rectángulo 456167" width="157.217" height="31.5" rx="8" transform="translate(1104.783 7955)" fill="#02542b"/>
    <rect id="Rectángulo_456170" data-name="Rectángulo 456170" width="157.217" height="31.5" rx="8" transform="translate(1144.928 8072.625)" fill="#0e5a52"/>
    <rect id="Rectángulo_456164" data-name="Rectángulo 456164" width="157.217" height="31.5" rx="8" transform="translate(339 8186.663)" fill="#0e5a52"/>
    <text id="Empatía" transform="translate(352.665 7958.75)" fill="#fff" font-size="17" font-family="SegoeUI-Bold, Segoe UI" font-weight="700"><tspan x="32.358" y="18">Empatía</tspan></text>
    <text id="Comprensión" transform="translate(1118.665 7958.75)" fill="#fff" font-size="17" font-family="SegoeUI-Bold, Segoe UI" font-weight="700"><tspan x="11.59" y="18">Comprensión</tspan></text>
    <g id="Rectángulo_456171" data-name="Rectángulo 456171" transform="translate(874 8202.412)" fill="#b8fedb" stroke="#02542b" stroke-width="2">
      <rect width="388" height="89" rx="12" stroke="none"/>
      <rect x="1" y="1" width="386" height="87" rx="11" fill="none"/>
    </g>
    <text id="El_resentimiento_envenena_las_relaciones_y_la_convivencia." data-name="El resentimiento envenena las relaciones y la convivencia." transform="translate(970 8231.452)" fill="#12263f" font-size="16" font-family="SegoeUI, Segoe UI"><tspan x="68.814" y="17">El resentimiento envenena las </tspan><tspan x="89.095" y="39">relaciones y la convivencia.</tspan></text>
    <rect id="Rectángulo_456172" data-name="Rectángulo 456172" width="157.217" height="31.5" rx="8" transform="translate(1104.783 8186.662)" fill="#02542b"/>
    <text id="Resentimiento" transform="translate(1118.665 8190.412)" fill="#fff" font-size="17" font-family="SegoeUI-Bold, Segoe UI" font-weight="700"><tspan x="7.174" y="18">Resentimiento</tspan></text>
    <text id="Ira" transform="translate(1158.809 8076.375)" fill="#fff" font-size="17" font-family="SegoeUI-Bold, Segoe UI" font-weight="700"><tspan x="54.077" y="18">Ira</tspan></text>
    <text id="Frustración" transform="translate(352.881 8190.413)" fill="#fff" font-size="17" font-family="SegoeUI-Bold, Segoe UI" font-weight="700"><tspan x="19.924" y="18">Frustración</tspan></text>
    <circle id="Elipse_13833" data-name="Elipse 13833" cx="55" cy="55" r="55" transform="translate(558.145 8069)" fill="#d0e1dd"/>
    <circle id="Elipse_13834" data-name="Elipse 13834" cx="55" cy="55" r="55" transform="translate(626 7953)" fill="#d0e1dd"/>
    <circle id="Elipse_13836" data-name="Elipse 13836" cx="55" cy="55" r="55" transform="translate(849.145 7954)" fill="#d0e1dd"/>
    <circle id="Elipse_13837" data-name="Elipse 13837" cx="55" cy="55" r="55" transform="translate(916 8068.375)" fill="#d0e1dd"/>
    <circle id="Elipse_13838" data-name="Elipse 13838" cx="55" cy="55" r="55" transform="translate(849.145 8187)" fill="#d0e1dd"/>
    <circle id="Elipse_13835" data-name="Elipse 13835" cx="55" cy="55" r="55" transform="translate(626 8186)" fill="#d0e1dd"/>
    <text id="Convivencia_deteriorada_debido_a_la_mala_gestión_emocional" data-name="Convivencia deteriorada debido a la mala gestión emocional" transform="translate(724.672 8081.167)" fill="#12263f" font-size="16" font-family="SegoeUIBlack, Segoe UI"><tspan x="21.337" y="17">Convivencia </tspan><tspan x="22.669" y="39">deteriorada </tspan><tspan x="4.149" y="61">debido a la mala </tspan><tspan x="39.368" y="83">gestión </tspan></text>
    <rect id="Rectángulo_456175" data-name="Rectángulo 456175" width="14" height="8" transform="translate(815 8051)" fill="#d0e1dd"/>
    <g id="Grupo_1191970" data-name="Grupo 1191970">
      <g id="Enmascarar_grupo_1119272" data-name="Enmascarar grupo 1119272" clip-path="url(#clip-path)">
        <g id="Grupo_1191969" data-name="Grupo 1191969" transform="translate(843.741 8077.167) rotate(180)">
          <g id="Grupo_1191968" data-name="Grupo 1191968" clip-path="url(#clip-path-2)">
            <path id="Trazado_1002526" data-name="Trazado 1002526" d="M44.622,44.24,30.952,32.208,27,31.4l.933,4.523,2.781-2.756L28.341,37.82l3.2,17.13L23.478,31.069,19.39,32.112a13.264,13.264,0,0,1-.47-1.42l-5,12.609L15.7,33.428a41.217,41.217,0,0,1-4.914.07l5.254-1.632.742-3.949c-.791-.013-1.861-.517-2.669-.146L0,34.259l13.592-9.5.845-5.175c-1.908-.995-3.3-2.882-5.3-3.382L1.268,14.231c11.522-.262,6.512-.686,16.135,3.426l.395-4.792,1.88-6.8L15.679,0l5.846,5.579-1.217,7.449c-.215,1.317.253,2.617.322,3.872l1.071-.8,1.62,1.7c1.014-.695,2.473-.837,3.362-1.73l4.99-5.011.583-4.4L38.614.925,33.292,7.141l.346,4.656-4.169,5.895c3.752,2.58,2.72,2.495,7.4,2.8L41.1,15.84,38.7,20.587c.329.249.825.016,1.165.222l5.324,3.225,3.5-2.585-3.321,3.768c-2.073-.7-3.853-1.745-5.926-2.324-2.251-.629-6.022.9-8.312,1.584L32.5,29.24ZM17.29,25.187a19.783,19.783,0,0,1,2.938.217l1.021,3.411L24.3,27.548l4.524,1.938-1.045-5.16,2.331-2.209-2.822-3.684-1.478,2.173-3.283-1.573-2.116,1.225-2.264-1.574-2.375,3.529,1.231,1.619c.273.359.014.926.283,1.355" fill="#d0e1dd"/>
          </g>
        </g>
        <g id="Grupo_1191971" data-name="Grupo 1191971" transform="translate(810 8234.167) rotate(180)">
          <g id="Grupo_1191968-2" data-name="Grupo 1191968" clip-path="url(#clip-path-2)">
            <path id="Trazado_1002526-2" data-name="Trazado 1002526" d="M44.622,44.24,30.952,32.208,27,31.4l.933,4.523,2.781-2.756L28.341,37.82l3.2,17.13L23.478,31.069,19.39,32.112a13.264,13.264,0,0,1-.47-1.42l-5,12.609L15.7,33.428a41.217,41.217,0,0,1-4.914.07l5.254-1.632.742-3.949c-.791-.013-1.861-.517-2.669-.146L0,34.259l13.592-9.5.845-5.175c-1.908-.995-3.3-2.882-5.3-3.382L1.268,14.231c11.522-.262,6.512-.686,16.135,3.426l.395-4.792,1.88-6.8L15.679,0l5.846,5.579-1.217,7.449c-.215,1.317.253,2.617.322,3.872l1.071-.8,1.62,1.7c1.014-.695,2.473-.837,3.362-1.73l4.99-5.011.583-4.4L38.614.925,33.292,7.141l.346,4.656-4.169,5.895c3.752,2.58,2.72,2.495,7.4,2.8L41.1,15.84,38.7,20.587c.329.249.825.016,1.165.222l5.324,3.225,3.5-2.585-3.321,3.768c-2.073-.7-3.853-1.745-5.926-2.324-2.251-.629-6.022.9-8.312,1.584L32.5,29.24ZM17.29,25.187a19.783,19.783,0,0,1,2.938.217l1.021,3.411L24.3,27.548l4.524,1.938-1.045-5.16,2.331-2.209-2.822-3.684-1.478,2.173-3.283-1.573-2.116,1.225-2.264-1.574-2.375,3.529,1.231,1.619c.273.359.014.926.283,1.355" fill="#d0e1dd"/>
          </g>
        </g>
        <rect id="Rectángulo_456177" data-name="Rectángulo 456177" width="14" height="9" transform="translate(779 8204)" fill="#d0e1dd"/>
        <rect id="Rectángulo_456178" data-name="Rectángulo 456178" width="14" height="9" transform="translate(781 8207)" fill="#d0e1dd"/>
      </g>
      <rect id="Rectángulo_456174" data-name="Rectángulo 456174" width="14" height="8" transform="translate(813 8047)" fill="#d0e1dd"/>
      <path id="Trazado_1002527" data-name="Trazado 1002527" d="M0,0H14V8H0Z" transform="translate(813 8049)" fill="#d0e1dd"/>
    </g>
    <g id="Grupo_1191965" data-name="Grupo 1191965" transform="translate(553.145 7948)">
      <g id="Grupo_1191964" data-name="Grupo 1191964" clip-path="url(#clip-path-4)">
        <g id="Grupo_1191963" data-name="Grupo 1191963">
          <g id="Grupo_1191962" data-name="Grupo 1191962" clip-path="url(#clip-path-4)">
            <g id="Grupo_1191907" data-name="Grupo 1191907" transform="translate(247.808 2.746)" opacity="0.15" style="mix-blend-mode: multiply;isolation: isolate">
              <g id="Grupo_1191906" data-name="Grupo 1191906">
                <g id="Grupo_1191905" data-name="Grupo 1191905" clip-path="url(#clip-path-6)">
                  <path id="Trazado_1002490" data-name="Trazado 1002490" d="M375.639,3A59.68,59.68,0,0,0,331.18,102.54l-7.7,7.7A90.087,90.087,0,0,0,271.331,88.81l-.57,7.755a82.516,82.516,0,0,1,62.382,36.018l6.421-4.384a92.127,92.127,0,0,0-10.4-12.648l7.573-7.573A59.7,59.7,0,1,0,375.639,3m0,111.664A51.944,51.944,0,1,1,427.584,62.72a52,52,0,0,1-51.944,51.944" transform="translate(-270.762 -3)"/>
                </g>
              </g>
            </g>
            <path id="Trazado_1002491" data-name="Trazado 1002491" d="M372.639,0A59.68,59.68,0,0,0,328.18,99.54l-7.7,7.7A90.087,90.087,0,0,0,268.331,85.81l-.57,7.755a82.516,82.516,0,0,1,62.382,36.018l6.421-4.384a92.125,92.125,0,0,0-10.4-12.648l7.573-7.573A59.7,59.7,0,1,0,372.639,0m0,111.664A51.944,51.944,0,1,1,424.584,59.72a52,52,0,0,1-51.944,51.944" transform="translate(-22.7 0)" fill="#02542b"/>
            <g id="Grupo_1191910" data-name="Grupo 1191910" transform="translate(307.888 17.668)" opacity="0.15" style="mix-blend-mode: multiply;isolation: isolate">
              <g id="Grupo_1191909" data-name="Grupo 1191909">
                <g id="Grupo_1191908" data-name="Grupo 1191908" clip-path="url(#clip-path-7)">
                  <path id="Trazado_1002492" data-name="Trazado 1002492" d="M336.407,64.1a44.8,44.8,0,1,0,44.8-44.8,44.8,44.8,0,0,0-44.8,44.8" transform="translate(-336.407 -19.305)"/>
                </g>
              </g>
            </g>
            <path id="Trazado_1002493" data-name="Trazado 1002493" d="M333.407,61.1a44.8,44.8,0,1,0,44.8-44.8,44.8,44.8,0,0,0-44.8,44.8" transform="translate(-28.265 -1.382)" fill="#95ebba"/>
            <g id="Grupo_1191913" data-name="Grupo 1191913" transform="translate(314.512 24.292)" opacity="0.15" style="mix-blend-mode: multiply;isolation: isolate">
              <g id="Grupo_1191912" data-name="Grupo 1191912">
                <g id="Grupo_1191911" data-name="Grupo 1191911" clip-path="url(#clip-path-8)">
                  <path id="Trazado_1002494" data-name="Trazado 1002494" d="M343.645,64.283a37.741,37.741,0,1,0,37.741-37.741,37.741,37.741,0,0,0-37.741,37.741" transform="translate(-343.645 -26.542)"/>
                </g>
              </g>
            </g>
            <path id="Trazado_1002495" data-name="Trazado 1002495" d="M341.118,61.756a37.741,37.741,0,1,0,37.741-37.741,37.741,37.741,0,0,0-37.741,37.741" transform="translate(-28.919 -2.036)" fill="#95ebba"/>
            <g id="Grupo_1191916" data-name="Grupo 1191916" transform="translate(316.375 119.319)" opacity="0.15" style="mix-blend-mode: multiply;isolation: isolate">
              <g id="Grupo_1191915" data-name="Grupo 1191915">
                <g id="Grupo_1191914" data-name="Grupo 1191914" clip-path="url(#clip-path-9)">
                  <path id="Trazado_1002496" data-name="Trazado 1002496" d="M450.094,130.371a59.788,59.788,0,0,0-59.58,55.832H361.577a89.7,89.7,0,0,0-8.894-35.52l-7,3.381a83.145,83.145,0,0,1,0,72.053l7,3.381a89.7,89.7,0,0,0,8.894-35.52h28.938a59.714,59.714,0,1,0,59.58-63.607m0,111.664a51.944,51.944,0,1,1,51.944-51.944,52,52,0,0,1-51.944,51.944" transform="translate(-345.68 -130.371)"/>
                </g>
              </g>
            </g>
            <path id="Trazado_1002497" data-name="Trazado 1002497" d="M447.094,127.371a59.788,59.788,0,0,0-59.58,55.832H358.577a89.7,89.7,0,0,0-8.894-35.52l-7,3.381a83.144,83.144,0,0,1,0,72.053l7,3.381a89.7,89.7,0,0,0,8.894-35.52h28.938a59.714,59.714,0,1,0,59.58-63.607m0,111.664a51.944,51.944,0,1,1,51.944-51.944,52,52,0,0,1-51.944,51.944" transform="translate(-29.051 -10.798)" fill="#0e5a52"/>
            <g id="Grupo_1191919" data-name="Grupo 1191919" transform="translate(375.992 134.241)" opacity="0.15" style="mix-blend-mode: multiply;isolation: isolate">
              <g id="Grupo_1191918" data-name="Grupo 1191918">
                <g id="Grupo_1191917" data-name="Grupo 1191917" clip-path="url(#clip-path-10)">
                  <path id="Trazado_1002498" data-name="Trazado 1002498" d="M410.819,191.472a44.8,44.8,0,1,0,44.8-44.8,44.8,44.8,0,0,0-44.8,44.8" transform="translate(-410.819 -146.675)"/>
                </g>
              </g>
            </g>
            <path id="Trazado_1002499" data-name="Trazado 1002499" d="M407.819,188.472a44.8,44.8,0,1,0,44.8-44.8,44.8,44.8,0,0,0-44.8,44.8" transform="translate(-34.573 -12.18)" fill="#9cb9b4"/>
            <g id="Grupo_1191922" data-name="Grupo 1191922" transform="translate(382.615 140.865)" opacity="0.15" style="mix-blend-mode: multiply;isolation: isolate">
              <g id="Grupo_1191921" data-name="Grupo 1191921">
                <g id="Grupo_1191920" data-name="Grupo 1191920" clip-path="url(#clip-path-11)">
                  <path id="Trazado_1002500" data-name="Trazado 1002500" d="M418.056,191.654A37.741,37.741,0,1,0,455.8,153.913a37.741,37.741,0,0,0-37.741,37.741" transform="translate(-418.056 -153.913)"/>
                </g>
              </g>
            </g>
            <path id="Trazado_1002501" data-name="Trazado 1002501" d="M415.529,189.126a37.741,37.741,0,1,0,37.741-37.741,37.741,37.741,0,0,0-37.741,37.741" transform="translate(-35.227 -12.834)" fill="#9cb9b4"/>
            <g id="Grupo_1191925" data-name="Grupo 1191925" transform="translate(247.808 225.749)" opacity="0.15" style="mix-blend-mode: multiply;isolation: isolate">
              <g id="Grupo_1191924" data-name="Grupo 1191924">
                <g id="Grupo_1191923" data-name="Grupo 1191923" clip-path="url(#clip-path-12)">
                  <path id="Trazado_1002502" data-name="Trazado 1002502" d="M375.639,256.8a59.446,59.446,0,0,0-38.9,14.463l-7.574-7.573a92.129,92.129,0,0,0,10.4-12.648l-6.421-4.383a82.522,82.522,0,0,1-62.382,36.018l.57,7.754A90.089,90.089,0,0,0,323.479,269l7.7,7.7a59.687,59.687,0,1,0,44.459-19.9m0,111.665a51.944,51.944,0,1,1,51.944-51.944,52,52,0,0,1-51.944,51.944" transform="translate(-270.762 -246.66)"/>
                </g>
              </g>
            </g>
            <path id="Trazado_1002503" data-name="Trazado 1002503" d="M372.639,253.8a59.446,59.446,0,0,0-38.9,14.463l-7.574-7.573a92.127,92.127,0,0,0,10.4-12.648l-6.421-4.383a82.521,82.521,0,0,1-62.382,36.018l.57,7.754A90.089,90.089,0,0,0,320.479,266l7.7,7.7a59.687,59.687,0,1,0,44.459-19.9m0,111.665a51.944,51.944,0,1,1,51.944-51.944,52,52,0,0,1-51.944,51.944" transform="translate(-22.7 -20.656)" fill="#02542b"/>
            <g id="Grupo_1191928" data-name="Grupo 1191928" transform="translate(307.888 250.814)" opacity="0.15" style="mix-blend-mode: multiply;isolation: isolate">
              <g id="Grupo_1191927" data-name="Grupo 1191927">
                <g id="Grupo_1191926" data-name="Grupo 1191926" clip-path="url(#clip-path-13)">
                  <path id="Trazado_1002504" data-name="Trazado 1002504" d="M336.407,318.843a44.8,44.8,0,1,0,44.8-44.8,44.8,44.8,0,0,0-44.8,44.8" transform="translate(-336.407 -274.046)"/>
                </g>
              </g>
            </g>
            <path id="Trazado_1002505" data-name="Trazado 1002505" d="M333.407,315.843a44.8,44.8,0,1,0,44.8-44.8,44.8,44.8,0,0,0-44.8,44.8" transform="translate(-28.265 -22.978)" fill="#95ebba"/>
            <g id="Grupo_1191931" data-name="Grupo 1191931" transform="translate(314.512 257.438)" opacity="0.15" style="mix-blend-mode: multiply;isolation: isolate">
              <g id="Grupo_1191930" data-name="Grupo 1191930">
                <g id="Grupo_1191929" data-name="Grupo 1191929" clip-path="url(#clip-path-11)">
                  <path id="Trazado_1002506" data-name="Trazado 1002506" d="M343.645,319.024a37.741,37.741,0,1,0,37.741-37.741,37.741,37.741,0,0,0-37.741,37.741" transform="translate(-343.645 -281.284)"/>
                </g>
              </g>
            </g>
            <path id="Trazado_1002507" data-name="Trazado 1002507" d="M341.118,316.5a37.741,37.741,0,1,0,37.741-37.741A37.741,37.741,0,0,0,341.118,316.5" transform="translate(-28.919 -23.632)" fill="#95ebba"/>
            <g id="Grupo_1191934" data-name="Grupo 1191934" transform="translate(70.849 225.749)" opacity="0.15" style="mix-blend-mode: multiply;isolation: isolate">
              <g id="Grupo_1191933" data-name="Grupo 1191933">
                <g id="Grupo_1191932" data-name="Grupo 1191932" clip-path="url(#clip-path-12)">
                  <path id="Trazado_1002508" data-name="Trazado 1002508" d="M241.439,290.432l.571-7.754a82.522,82.522,0,0,1-62.383-36.018l-6.422,4.383a92,92,0,0,0,11.751,14l-7.486,7.486a59.876,59.876,0,1,0,5.375,5.621l7.916-7.916a90.1,90.1,0,0,0,50.677,20.194M137.131,368.466a51.944,51.944,0,1,1,51.944-51.944,52,52,0,0,1-51.944,51.944" transform="translate(-77.412 -246.66)"/>
                </g>
              </g>
            </g>
            <path id="Trazado_1002509" data-name="Trazado 1002509" d="M238.439,287.432l.571-7.754a82.522,82.522,0,0,1-62.383-36.018l-6.422,4.383a92,92,0,0,0,11.751,14l-7.486,7.486a59.876,59.876,0,1,0,5.375,5.621l7.916-7.916a90.1,90.1,0,0,0,50.677,20.194M134.131,365.466a51.944,51.944,0,1,1,51.944-51.944,52,52,0,0,1-51.944,51.944" transform="translate(-6.308 -20.656)" fill="#0e5a52"/>
            <g id="Grupo_1191937" data-name="Grupo 1191937" transform="translate(85.771 250.814)" opacity="0.15" style="mix-blend-mode: multiply;isolation: isolate">
              <g id="Grupo_1191936" data-name="Grupo 1191936">
                <g id="Grupo_1191935" data-name="Grupo 1191935" clip-path="url(#clip-path-13)">
                  <path id="Trazado_1002510" data-name="Trazado 1002510" d="M93.716,318.843a44.8,44.8,0,1,0,44.8-44.8,44.8,44.8,0,0,0-44.8,44.8" transform="translate(-93.716 -274.046)"/>
                </g>
              </g>
            </g>
            <path id="Trazado_1002511" data-name="Trazado 1002511" d="M90.716,315.843a44.8,44.8,0,1,0,44.8-44.8,44.8,44.8,0,0,0-44.8,44.8" transform="translate(-7.691 -22.978)" fill="#9cb9b4"/>
            <g id="Grupo_1191940" data-name="Grupo 1191940" transform="translate(92.396 257.438)" opacity="0.15" style="mix-blend-mode: multiply;isolation: isolate">
              <g id="Grupo_1191939" data-name="Grupo 1191939">
                <g id="Grupo_1191938" data-name="Grupo 1191938" clip-path="url(#clip-path-11)">
                  <path id="Trazado_1002512" data-name="Trazado 1002512" d="M100.954,319.024A37.741,37.741,0,1,0,138.7,281.283a37.741,37.741,0,0,0-37.741,37.741" transform="translate(-100.954 -281.284)"/>
                </g>
              </g>
            </g>
            <path id="Trazado_1002513" data-name="Trazado 1002513" d="M98.426,316.5a37.741,37.741,0,1,0,37.741-37.741A37.741,37.741,0,0,0,98.426,316.5" transform="translate(-8.344 -23.632)" fill="#9cb9b4"/>
            <g id="Grupo_1191943" data-name="Grupo 1191943" transform="translate(2.746 119.319)" opacity="0.15" style="mix-blend-mode: multiply;isolation: isolate">
              <g id="Grupo_1191942" data-name="Grupo 1191942">
                <g id="Grupo_1191941" data-name="Grupo 1191941" clip-path="url(#clip-path-18)">
                  <path id="Trazado_1002514" data-name="Trazado 1002514" d="M167.134,154.064l-7-3.381a89.7,89.7,0,0,0-8.893,35.52H122.3a59.72,59.72,0,1,0,0,7.775h28.938a89.694,89.694,0,0,0,8.893,35.52l7-3.381a83.153,83.153,0,0,1,0-72.053M62.72,242.035a51.944,51.944,0,1,1,51.944-51.944A52,52,0,0,1,62.72,242.035" transform="translate(-3 -130.371)"/>
                </g>
              </g>
            </g>
            <path id="Trazado_1002515" data-name="Trazado 1002515" d="M164.134,151.064l-7-3.381a89.7,89.7,0,0,0-8.893,35.52H119.3a59.72,59.72,0,1,0,0,7.775h28.938a89.694,89.694,0,0,0,8.893,35.52l7-3.381a83.153,83.153,0,0,1,0-72.053M59.72,239.035a51.944,51.944,0,1,1,51.944-51.944A52,52,0,0,1,59.72,239.035" transform="translate(0 -10.798)" fill="#02542b"/>
            <g id="Grupo_1191946" data-name="Grupo 1191946" transform="translate(17.668 134.241)" opacity="0.15" style="mix-blend-mode: multiply;isolation: isolate">
              <g id="Grupo_1191945" data-name="Grupo 1191945">
                <g id="Grupo_1191944" data-name="Grupo 1191944" clip-path="url(#clip-path-10)">
                  <path id="Trazado_1002516" data-name="Trazado 1002516" d="M19.3,191.472a44.8,44.8,0,1,0,44.8-44.8,44.8,44.8,0,0,0-44.8,44.8" transform="translate(-19.305 -146.675)"/>
                </g>
              </g>
            </g>
            <path id="Trazado_1002517" data-name="Trazado 1002517" d="M16.305,188.472a44.8,44.8,0,1,0,44.8-44.8,44.8,44.8,0,0,0-44.8,44.8" transform="translate(-1.382 -12.18)" fill="#95ebba"/>
            <g id="Grupo_1191949" data-name="Grupo 1191949" transform="translate(24.292 140.865)" opacity="0.15" style="mix-blend-mode: multiply;isolation: isolate">
              <g id="Grupo_1191948" data-name="Grupo 1191948">
                <g id="Grupo_1191947" data-name="Grupo 1191947" clip-path="url(#clip-path-20)">
                  <path id="Trazado_1002518" data-name="Trazado 1002518" d="M26.542,191.654a37.741,37.741,0,1,0,37.741-37.741,37.741,37.741,0,0,0-37.741,37.741" transform="translate(-26.542 -153.913)"/>
                </g>
              </g>
            </g>
            <path id="Trazado_1002519" data-name="Trazado 1002519" d="M24.015,189.126a37.741,37.741,0,1,0,37.741-37.741,37.741,37.741,0,0,0-37.741,37.741" transform="translate(-2.036 -12.834)" fill="#95ebba"/>
            <g id="Grupo_1191952" data-name="Grupo 1191952" transform="translate(70.849 2.746)" opacity="0.15" style="mix-blend-mode: multiply;isolation: isolate">
              <g id="Grupo_1191951" data-name="Grupo 1191951">
                <g id="Grupo_1191950" data-name="Grupo 1191950" clip-path="url(#clip-path-6)">
                  <path id="Trazado_1002520" data-name="Trazado 1002520" d="M241.439,88.81a90.109,90.109,0,0,0-50.678,20.2l-7.915-7.916a59.748,59.748,0,1,0-5.375,5.62l7.487,7.487a91.953,91.953,0,0,0-11.751,14l6.421,4.384A82.516,82.516,0,0,1,242.01,96.564ZM137.131,114.665A51.944,51.944,0,1,1,189.076,62.72a52,52,0,0,1-51.944,51.944" transform="translate(-77.412 -3)"/>
                </g>
              </g>
            </g>
            <path id="Trazado_1002521" data-name="Trazado 1002521" d="M238.439,85.81a90.109,90.109,0,0,0-50.678,20.2l-7.915-7.916a59.748,59.748,0,1,0-5.375,5.62l7.487,7.487a91.952,91.952,0,0,0-11.751,14l6.421,4.384a82.516,82.516,0,0,1,62.383-36.018ZM134.131,111.665A51.944,51.944,0,1,1,186.076,59.72a52,52,0,0,1-51.944,51.944" transform="translate(-6.308 0)" fill="#0e5a52"/>
            <g id="Grupo_1191955" data-name="Grupo 1191955" transform="translate(85.771 17.668)" opacity="0.15" style="mix-blend-mode: multiply;isolation: isolate">
              <g id="Grupo_1191954" data-name="Grupo 1191954">
                <g id="Grupo_1191953" data-name="Grupo 1191953" clip-path="url(#clip-path-7)">
                  <path id="Trazado_1002522" data-name="Trazado 1002522" d="M93.716,64.1a44.8,44.8,0,1,0,44.8-44.8,44.8,44.8,0,0,0-44.8,44.8" transform="translate(-93.716 -19.305)"/>
                </g>
              </g>
            </g>
            <path id="Trazado_1002523" data-name="Trazado 1002523" d="M90.716,61.1a44.8,44.8,0,1,0,44.8-44.8,44.8,44.8,0,0,0-44.8,44.8" transform="translate(-7.691 -1.382)" fill="#9cb9b4"/>
            <g id="Grupo_1191958" data-name="Grupo 1191958" transform="translate(92.396 24.292)" opacity="0.15" style="mix-blend-mode: multiply;isolation: isolate">
              <g id="Grupo_1191957" data-name="Grupo 1191957">
                <g id="Grupo_1191956" data-name="Grupo 1191956" clip-path="url(#clip-path-8)">
                  <path id="Trazado_1002524" data-name="Trazado 1002524" d="M100.954,64.283A37.741,37.741,0,1,0,138.7,26.542a37.741,37.741,0,0,0-37.741,37.741" transform="translate(-100.954 -26.542)"/>
                </g>
              </g>
            </g>
            <path id="Trazado_1002525" data-name="Trazado 1002525" d="M98.426,61.756a37.741,37.741,0,1,0,37.741-37.741A37.741,37.741,0,0,0,98.426,61.756" transform="translate(-8.344 -2.036)" fill="#9cb9b4"/>
          </g>
        </g>
      </g>
    </g>
    <g id="Grupo_1191973" data-name="Grupo 1191973" transform="translate(657 7984)">
      <g id="Grupo_1191972" data-name="Grupo 1191972" clip-path="url(#clip-path-24)">
        <path id="Trazado_1002528" data-name="Trazado 1002528" d="M103.933,33.8a7.409,7.409,0,0,0-4.466,12.67L112.39,59.492a.867.867,0,0,0,1.2-.143.88.88,0,0,0-.036-1.142l-10-10.127a.857.857,0,0,1,.031-1.045.841.841,0,0,1,1.1-.094l9.948,10.026a.846.846,0,0,0,1.18.127.924.924,0,0,0,.136-1.315l-8.227-8.108c-.7-.688-1.994-.483-2.3-1.695a2.755,2.755,0,0,1,.634-2.831l8.6-8.645A8.744,8.744,0,0,1,122.8,32.17a9.033,9.033,0,0,1,6.581,5.981,9.137,9.137,0,0,1-2.128,9.222c-1.516,1.649-3.383,2.993-4.586,4.838a6.521,6.521,0,0,1-2.284,2.021,6,6,0,0,1-2.376,2.526c-.749.521-1.02,2.326-2.581,2.171a2.767,2.767,0,0,1-1.588,2.218,2.62,2.62,0,0,1-2.843-.7l-13.164-13.4a8.719,8.719,0,0,1-1.249-9.959,8.93,8.93,0,0,1,14.3-2.344.863.863,0,0,1,.173,1.02.814.814,0,0,1-1.169.253,7.449,7.449,0,0,0-5.956-2.215m19.133,6.277a.8.8,0,0,1-.031,1.089,5.455,5.455,0,0,1-8.02.28.9.9,0,0,0-.722.731l7.873,7.971,3.991-4.025a7.4,7.4,0,0,0-4.533-12.479,7.009,7.009,0,0,0-5.727,1.947L107.139,44.4a.878.878,0,1,0,1.319,1.157l5.768-5.827c1.284-1.3,1.66,1.544,4.634,1.7,2.545.138,3.151-2.542,4.206-1.36m-3.528,12.2a.83.83,0,0,0,1.192-.128.886.886,0,0,0,0-1.113l-7.665-7.763a6.988,6.988,0,0,0-1.228,1.257ZM117.072,54.6a.855.855,0,0,0,1.254-.027.872.872,0,0,0,.014-1.161l-7.672-7.734a9.156,9.156,0,0,0-1.217,1.24Z" transform="translate(-80.969 -27.075)" fill="#15342f"/>
        <path id="Trazado_1002529" data-name="Trazado 1002529" d="M38.278,47.236a22.008,22.008,0,0,1-2.532-13c.087-.5.352-.8.846-.8a.793.793,0,0,1,.775.934,20.757,20.757,0,0,0,2.011,11.38c.4.715,1.565,2.113.986,2.79a.883.883,0,0,1-.679.328l-20.124.066a.939.939,0,0,1-1.042-.683c-.49-1.745-1.593-4.549-3.281-5.522C12.981,43.5,10.8,44.2,8.49,44.741a3.042,3.042,0,0,1-3.643-2.066c-.965-2.894.923-3.839-.9-4.6a1.358,1.358,0,0,1-.854-1.781c.423-1.03-1.616-1.033-.844-2.54l.661-1.291c.618-1.207-1.029-1.3-2.195-2.314a1.933,1.933,0,0,1-.246-2.769,31.738,31.738,0,0,0,4.248-6.9c.1-.411-.525-.832-.764-1.034A2.644,2.644,0,0,1,3.277,16a15.97,15.97,0,0,0,1.31-3.778A14.925,14.925,0,0,1,9.12,4.409c3.417-3.033,9.6-3.8,14.092-4.289a18.66,18.66,0,0,1,11.37,2.272.813.813,0,0,1,.338,1.115.786.786,0,0,1-1.069.325,16.837,16.837,0,0,0-9.578-2.149,47.3,47.3,0,0,0-9.56,1.623,11.357,11.357,0,0,0-4.591,2.4,13.334,13.334,0,0,0-3.95,6.919A17.414,17.414,0,0,1,4.745,16.7a1.124,1.124,0,0,0,.38,1.578c.7.545,1.56,1.617,1.18,2.6a30.622,30.622,0,0,1-4.41,7.3c-.121.16-.339.48-.173.65a6.375,6.375,0,0,0,1.612,1.006A2.29,2.29,0,0,1,4.52,32.827L3.9,34.206l1.05.875c.463.386.149,1-.306,1.523,3.387,1.792.637,3.645,1.919,5.9a1.5,1.5,0,0,0,1.788.614c1.894-.522,3.7-1.015,5.554-1.66l5.579-1.942a7.236,7.236,0,0,0,2.237-1.247c1.288-1.059.383-2.439,1.709-2.341.46.034.714.4.712.913-.006,2.131-2.113,3.408-3.86,4.117l-3.177,1.157a13.338,13.338,0,0,1,2.825,5.169Z" transform="translate(0 0)" fill="#15342f"/>
        <path id="Trazado_1002530" data-name="Trazado 1002530" d="M53.406,35.268c-3.3,3.45-2.1,6.831-3.74,6.59-.572-.084-.753-.594-.634-1.168.913-4.422,3.166-7.881,7.7-9.115a.826.826,0,0,1,1,.536c.466,1.428-2.038.766-4.328,3.157" transform="translate(-41.506 -26.722)" fill="#15342f"/>
        <path id="Trazado_1002531" data-name="Trazado 1002531" d="M44.155,107.56a.8.8,0,1,1-.8-.8.8.8,0,0,1,.8.8" transform="translate(-36.041 -90.433)" fill="#15342f"/>
      </g>
    </g>
    <g id="Grupo_1191975" data-name="Grupo 1191975" transform="translate(586.489 8107.296)">
      <g id="Grupo_1191974" data-name="Grupo 1191974" clip-path="url(#clip-path-25)">
        <path id="Trazado_1002532" data-name="Trazado 1002532" d="M38.116,27.587a4.312,4.312,0,0,1-1.556,2.865,4.219,4.219,0,0,1-3.5.466,4.9,4.9,0,0,1-1.63,2.574,3.461,3.461,0,0,1-3.538.3l-3.459-1.949a3.872,3.872,0,0,1-3.218.769,3.791,3.791,0,0,1-2.456-1.954,3.635,3.635,0,0,1-5.026-1.809,3.829,3.829,0,0,1-3.487-.257c-1.039-.528-1.329-1.938-1.765-2.815C7.47,25.408,6.088,25.3,5.414,24.2A3.937,3.937,0,0,1,4.981,20.6L.532,18.025a1.037,1.037,0,0,1-.468-1.252L5.481,2.428a1.032,1.032,0,0,1,1.252-.58c1.58.283,3.149.992,4.727,1.164L21.094.23a4.635,4.635,0,0,1,3.5.236l2.06,1.12C28.779.378,29.8-.449,32.455.308l9.377,2.674c1.508.222,5.834-1.868,6.389-.285l5.037,14.373a1.027,1.027,0,0,1-.706,1.247c-1.788.793-3.891,1.306-5.6,2.19a4.157,4.157,0,0,1-1.41,3.067,3.648,3.648,0,0,1-3.449.6,3.8,3.8,0,0,1-3.972,3.415m1.69-10.7a1.036,1.036,0,0,1,1.005-1.811l4.754,2.881c.2.12.413.589.73.47l4.626-1.739L46.574,4.306l-4.891.829L31.656,2.26a2.731,2.731,0,0,0-2.179.124l-7.617,4.4a1.521,1.521,0,0,0,1.4,2.686c1.448-.582,2.786-1.314,4.281-1.825a1.353,1.353,0,0,1,1.219.116l4.043,2.46a1.039,1.039,0,1,1-1.092,1.765L27.968,9.729c-1.309.463-2.471,1.044-3.717,1.615a3.637,3.637,0,0,1-4.728-1.531,3.576,3.576,0,0,1,1.235-4.8l3.7-2.189a2.95,2.95,0,0,0-2.823-.6L11.5,5.22,7.083,4.1,2.338,16.665,6,18.772c.886-1.488,1.579-2.657,3.456-2.84a3.634,3.634,0,0,1,3.305,1.534,3.67,3.67,0,0,1,6.374,2.022,3.594,3.594,0,0,1,4.018,3.495c1.67-.28,2.462.861,3.532,1.672,2.173,1.648,4.7,2.7,6.986,4.191a1.542,1.542,0,0,0,2.084-.558,1.513,1.513,0,0,0-.581-2.107l-7.255-4.206A1.036,1.036,0,0,1,28.984,20.2l8.667,5a1.529,1.529,0,0,0,2.159-.562,1.513,1.513,0,0,0-.572-2.033l-8.2-4.743a1.055,1.055,0,0,1-.455-1.466,1.018,1.018,0,0,1,1.351-.4L42.68,22.142a1.513,1.513,0,0,0,1.379-2.688Zm-30.1,5.794,1.421-2.5a1.48,1.48,0,0,0-.562-1.95,1.51,1.51,0,0,0-2.088.505c-.937,1.6-2.729,3.747-.776,4.691a1.541,1.541,0,0,0,2-.745m3.808,3.651L16.8,20.68a1.524,1.524,0,1,0-2.6-1.59L10.9,24.784a1.535,1.535,0,0,0,.533,2.07,1.515,1.515,0,0,0,2.081-.521m4.851,1.876L20.9,23.819a1.509,1.509,0,0,0-.571-2.042,1.542,1.542,0,0,0-2.082.567l-2.5,4.33a1.519,1.519,0,1,0,2.622,1.533m4.992,1.627c.528-.92,1.039-1.723,1.482-2.6a1.507,1.507,0,0,0-.635-1.992,1.491,1.491,0,0,0-2.014.549l-1.458,2.5a1.521,1.521,0,1,0,2.624,1.539M28.5,31.779a1.563,1.563,0,0,0,2.167-.472,1.511,1.511,0,0,0-.523-2.1L27.037,27.43a20.121,20.121,0,0,1-1.416,2.664Z" transform="translate(0 0)" fill="#02542b"/>
        <path id="Trazado_1002533" data-name="Trazado 1002533" d="M213.905,76.253a1.028,1.028,0,1,1-1.028-1.028,1.027,1.027,0,0,1,1.028,1.028" transform="translate(-176.567 -62.696)" fill="#02542b"/>
      </g>
    </g>
    <g id="Grupo_1191977" data-name="Grupo 1191977" transform="translate(655 8215)">
      <g id="Grupo_1191976" data-name="Grupo 1191976" clip-path="url(#clip-path-26)">
        <path id="Trazado_1002534" data-name="Trazado 1002534" d="M35.546,16.424l-7.58-4.244a2.455,2.455,0,0,1-1.295-2.108C26.615,8.3,28.063,7.915,29.2,6.9L27.741,4.835a1.73,1.73,0,0,1,.352-2.455l2.778-2a1.791,1.791,0,0,1,2.575.409l4.028,5.661a1.7,1.7,0,0,1-.349,2.328l-2.171,1.6L37.6,14.145a1.6,1.6,0,0,1-2.05,2.279m-6.638-5.717L35.548,14.4c-.584-1.166-1.429-2.03-2.093-3.1-1.218-1.954,1.508-2.888,2.557-3.9L31.978,1.757l-2.8,2.025L30.655,5.9a1.771,1.771,0,0,1-.46,2.482l-1.5,1.086a.679.679,0,0,0-.259.686.892.892,0,0,0,.476.548" transform="translate(-22.301 -0.005)" fill="#15342f"/>
        <path id="Trazado_1002535" data-name="Trazado 1002535" d="M234.984,12.089l-7.773,4.361a1.588,1.588,0,0,1-1.886-.487,1.613,1.613,0,0,1-.054-1.93l2.592-3.667L225.782,8.85a1.735,1.735,0,0,1-.44-2.409L229.373.78a1.788,1.788,0,0,1,2.573-.407l2.777,2a1.73,1.73,0,0,1,.353,2.456l-1.461,2.059c1.063.969,2.509,1.363,2.535,3.023a2.364,2.364,0,0,1-1.164,2.176m-.906-1.495a.68.68,0,0,0,.076-1.105l-1.522-1.1a1.775,1.775,0,0,1-.457-2.5l1.466-2.066a34.7,34.7,0,0,0-2.8-2.071l-4.03,5.666,2.2,1.625a1.68,1.68,0,0,1,.355,2.25,36.369,36.369,0,0,0-2.079,3.084Z" transform="translate(-188.124 -0.001)" fill="#15342f"/>
        <path id="Trazado_1002536" data-name="Trazado 1002536" d="M267.939,95a.856.856,0,0,1-1.125-.5.874.874,0,0,1,.513-1.134l7-2.678a.848.848,0,0,1,1.075.471.875.875,0,0,1-.461,1.144Z" transform="translate(-223.065 -75.795)" fill="#15342f"/>
        <path id="Trazado_1002537" data-name="Trazado 1002537" d="M105.635,7.487a.87.87,0,1,1-1.594.692l-2.678-6.959a.88.88,0,0,1,.385-1.1.869.869,0,0,1,1.224.441Z" transform="translate(-84.707 -0.018)" fill="#15342f"/>
        <path id="Trazado_1002538" data-name="Trazado 1002538" d="M193.3,8.127a.891.891,0,0,1-1.084.575.838.838,0,0,1-.563-1.13L194.332.579a.869.869,0,1,1,1.61.657Z" transform="translate(-160.206 -0.033)" fill="#15342f"/>
        <path id="Trazado_1002539" data-name="Trazado 1002539" d="M8.072,93.361a.894.894,0,0,1,.571,1.165.829.829,0,0,1-1.062.516L.63,92.378a.888.888,0,0,1-.6-1.079.843.843,0,0,1,1.1-.582Z" transform="translate(0 -75.812)" fill="#15342f"/>
        <path id="Trazado_1002540" data-name="Trazado 1002540" d="M156.319,7.769a.835.835,0,0,1-.794.925.826.826,0,0,1-.941-.838L154.573.972a.881.881,0,1,1,1.751,0Z" transform="translate(-129.253 -0.001)" fill="#15342f"/>
        <path id="Trazado_1002541" data-name="Trazado 1002541" d="M242.178,116.969c-.662.361-1.721.771-2.077-.033a.851.851,0,0,1,.39-1.149c.626-.3,1.659-.764,2.027.012a.872.872,0,0,1-.34,1.17" transform="translate(-200.7 -96.474)" fill="#15342f"/>
        <path id="Trazado_1002542" data-name="Trazado 1002542" d="M127.253,64.064a2.069,2.069,0,0,1,.77,2.133.874.874,0,0,1-1,.379,1.956,1.956,0,0,1-.8-2.171.894.894,0,0,1,1.033-.341" transform="translate(-105.452 -53.533)" fill="#15342f"/>
        <path id="Trazado_1002543" data-name="Trazado 1002543" d="M182.962,66.048a.866.866,0,1,1-1.6-.653l.31-.806a.867.867,0,0,1,1.657.507,6.31,6.31,0,0,1-.362.952" transform="translate(-151.598 -53.507)" fill="#15342f"/>
        <path id="Trazado_1002544" data-name="Trazado 1002544" d="M65.525,117.33a3.743,3.743,0,0,1-1.129-.417A.858.858,0,0,1,64,115.86a.845.845,0,0,1,1.028-.522c.829.22,1.728.529,1.482,1.421a.822.822,0,0,1-.989.571" transform="translate(-53.481 -96.419)" fill="#15342f"/>
        <path id="Trazado_1002545" data-name="Trazado 1002545" d="M155.751,64.091c.643.38.55,1.934.1,2.3a.938.938,0,0,1-1,.064c-.609-.336-.567-1.892-.1-2.284a.867.867,0,0,1,.992-.076" transform="translate(-129.112 -53.491)" fill="#15342f"/>
        <path id="Trazado_1002546" data-name="Trazado 1002546" d="M108.7,125.767a1.656,1.656,0,0,1-.2,1.672,1.841,1.841,0,0,1-1.529.74H88a1.843,1.843,0,0,1-1.458-.647,1.678,1.678,0,0,1-.268-1.764,9.433,9.433,0,0,1,7.637-5.384,3.08,3.08,0,0,0,.024-1.627,9.693,9.693,0,0,1-6.03-8.147,3.511,3.511,0,0,1-2.641-3.419l-.007-6.874a9.665,9.665,0,0,1,9.778-9.711l8.351.021a2.031,2.031,0,0,1,1.747,1.184,2.313,2.313,0,0,1-.321,2.386,6.133,6.133,0,0,1,4.9,5.961l.014,6.88a3.583,3.583,0,0,1-2.654,3.573,9.665,9.665,0,0,1-6.026,8.139,3.1,3.1,0,0,0,.018,1.624,9.463,9.463,0,0,1,7.642,5.391m-.748-23.695c.552-3.284-1.307-6.141-3.9-6.169l-3.912-.041A.872.872,0,0,1,99.255,95c0-1.45,1.968-.618,3.073-.975.185-.06,1.4-1.075,1.222-1.437a.431.431,0,0,0-.355-.26l-8.782.058c-4.681.031-8.169,4.819-7.4,9.7a3.061,3.061,0,0,1,2.407.349c1.982-2.5,3.611-.677,7.008-3.173a1.657,1.657,0,0,1,2.009-.052c3.829,2.659,4.512.608,7.165,3.146a3.721,3.721,0,0,1,2.343-.28m-2.6,7.712a.836.836,0,0,1,.8-.8,1.782,1.782,0,0,0,1.812-1.767l0-2.615a.849.849,0,0,0-.889-.866c-1.273,0-.423,1.8-1.807,1.687a.822.822,0,0,1-.787-.831,1.951,1.951,0,0,0-1.623-1.913,10.743,10.743,0,0,1-5.372-2.026,11.133,11.133,0,0,1-5.494,2.061,1.912,1.912,0,0,0-1.5,1.872.834.834,0,0,1-.947.838c-1.177-.048-.418-1.689-1.652-1.681a.832.832,0,0,0-.884.859l0,2.621a1.751,1.751,0,0,0,1.675,1.738.907.907,0,0,1,.945.887,7.863,7.863,0,1,0,15.727-.059M99.2,121.4a10.93,10.93,0,0,0-.013-2.118,9.434,9.434,0,0,1-3.415.01,13.048,13.048,0,0,0-.044,1.828,1.74,1.74,0,0,0,1.674,1.794,1.706,1.706,0,0,0,1.8-1.514m1.631.736a3.468,3.468,0,0,1-3.56,2.537A3.584,3.584,0,0,1,94.1,122.1a7.713,7.713,0,0,0-6.19,4.332l19.144-.058a7.577,7.577,0,0,0-6.215-4.24" transform="translate(-71.288 -75.765)" fill="#15342f"/>
        <path id="Trazado_1002547" data-name="Trazado 1002547" d="M141.842,221.908c-1.174,1.1-1.428-1.468-4.009-1.5-2.7-.035-2.832,2.428-4.058,1.578-1.3-.9,1.213-3.283,3.91-3.314s5.229,2.237,4.156,3.237" transform="translate(-111.567 -182.85)" fill="#15342f"/>
      </g>
    </g>
    <g id="Grupo_1191979" data-name="Grupo 1191979" transform="translate(880.378 7982.711)">
      <g id="Grupo_1191978" data-name="Grupo 1191978" clip-path="url(#clip-path-27)">
        <path id="Trazado_1002548" data-name="Trazado 1002548" d="M14.155,49.011c.021-1.269.328-5.441-.57-5.941-2.321.351-5.729,1.094-7.939-.053a3.376,3.376,0,0,1-1.789-3.19L4.185,33.2c.064-1.308-1.394-1.041-2.942-1.824A2.116,2.116,0,0,1,.057,28.935,6.826,6.826,0,0,1,1.1,26.673l2.559-3.914c.994-1.522-.067-2.579-.449-4.3a13.556,13.556,0,0,1,3.8-12.615A19.936,19.936,0,0,1,15.273.967c8.193-2.52,18.493-.123,23.456,7.28A6.988,6.988,0,0,1,47.993,9.6a9.038,9.038,0,0,1,1.948,7.095C49,23.073,42.241,28.048,37.018,31.14c-3.8,6.667-3.473,10.5-3.281,17.882a.824.824,0,0,1-.827.93l-17.847.009a.862.862,0,0,1-.908-.949m3.133-19.474L16.11,30.3a1.393,1.393,0,0,1-1.761-.21l-2.363-2.379c-1.16-1.168.731-2.414.535-3.047a17.329,17.329,0,0,0-.874-2.12c-.982-.24-2.47-.227-2.472-1.692l0-3.171c0-1.933,2.239-1.328,2.541-1.917a13.651,13.651,0,0,0,.858-2.088c-.2-.733-1.659-1.854-.532-2.984.812-.814,1.579-1.646,2.444-2.416.971-.864,2.091.288,2.816.645a12.5,12.5,0,0,0,2.247-.946c.4-.912.129-2.467,1.825-2.467h3.017c1.829,0,1.417,1.616,1.941,2.582C29.973,6,33.584,7.3,36.289,10.267A6.958,6.958,0,0,0,37.4,9.129C31-.3,15.513-.855,7.828,7.286,5.076,10.2,3.517,14.255,4.738,18.027l.815,2.517a3.308,3.308,0,0,1-.4,2.792c-.736,1.247-1.541,2.407-2.344,3.623-.441.667-1.57,2.235-1.07,2.826.63.746,4.175.556,4.03,3.256l-.34,6.325a2.342,2.342,0,0,0,.721,2.09c2.142,1.513,8.8-.251,11.286-1.093a.72.72,0,0,1,.937.511c.246,1.3-1.9,1.285-3.051,1.832.782,2.014.3,3.595.491,5.672l16.317-.015c-.2-7.056-.288-11.029,3.154-17.378l-2.8-1.766c-.247.027-.585.426-.735.615a1.666,1.666,0,0,1-2.471.2c-1.012-.834-1.337-.25-2.994.473-.379.655-.145,2.469-1.743,2.472l-3.148,0a1.546,1.546,0,0,1-1.58-1.417c-.263-1.594-.258-1.032-2.519-2.029m-1.9-.676,1.744-1.068a39.018,39.018,0,0,1,3.793,1.561l.517,2.02,2.91.01c.383-.73.083-1.972,1-2.281,1.083-.366,2.053-.959,3.179-1.233.7-.17,1.606,1.279,2.128.815.127-.113.5-.424.289-.589-3.492-2.759-7.2-6.178-8.149-10.721a9,9,0,0,1,2.125-8.121,11.658,11.658,0,0,1-.493-2.073,14.933,14.933,0,0,0-3-.041,13.845,13.845,0,0,1-.533,2c-.761.316-3.5,1.751-4.05,1.4L15.38,9.626,13.3,11.683c.16.62,1.3,1.541.956,2.188a25.032,25.032,0,0,1-1.491,3.292c-.393.538-1.361.306-1.965.577a15.967,15.967,0,0,0,.025,3.023c.632.234,1.577.07,1.989.576A19.216,19.216,0,0,1,14.3,24.961c-.037.666-.745,1.157-1,1.776a22.465,22.465,0,0,0,2.1,2.125M47.76,18.7a8,8,0,0,0-.411-7.308,5.448,5.448,0,0,0-7.314-2.065c-2.621,1.385-2.86,3.113-3.856,2.993-.612-.073-1.336-1.744-3.477-2.931a5.44,5.44,0,0,0-7.277,1.757,7.845,7.845,0,0,0-.67,7.292c1.877,4.824,7.16,8.684,11.55,11.276C40.562,27.2,45.741,23.458,47.76,18.7" transform="translate(0 0)" fill="#02542b"/>
        <path id="Trazado_1002549" data-name="Trazado 1002549" d="M185.863,82.01A2.958,2.958,0,1,1,190.2,78a6.59,6.59,0,0,0,.945.91l4.6-4.554a2.918,2.918,0,0,1,4.212.108,2.971,2.971,0,0,1-.1,4.135l-6.558,6.565a2.969,2.969,0,0,1-4.3.053Zm1.055-1.215,3.182,3.286a1.377,1.377,0,0,0,1.979.029l6.711-6.72a1.374,1.374,0,0,0-.092-1.94,1.388,1.388,0,0,0-1.913.084l-5.049,5.049a.812.812,0,0,1-1.176.042l-1.721-1.736a1.354,1.354,0,0,0-1.922,1.906" transform="translate(-155.705 -61.873)" fill="#02542b"/>
      </g>
    </g>
    <g id="Grupo_1191981" data-name="Grupo 1191981" transform="translate(947.484 8099.861)">
      <g id="Grupo_1191980" data-name="Grupo 1191980" clip-path="url(#clip-path-28)">
        <path id="Trazado_1002550" data-name="Trazado 1002550" d="M1.512,117.316c-.053,2.176,2.065,1.826,1.646,3.094a2.277,2.277,0,1,0,4.417.8,5.89,5.89,0,0,1,1.5.024,3.761,3.761,0,0,1-4.153,3.72,3.82,3.82,0,0,1-3.365-4.5A3.768,3.768,0,0,1,0,117.461a3.716,3.716,0,0,1,1.558-3.129,3.8,3.8,0,1,1,7.532-.84,3.108,3.108,0,0,1-1.507.071,2.281,2.281,0,1,0-4.426.8c.412,1.259-1.6.9-1.646,2.951" transform="translate(-0.001 -93.136)" fill="#15342f"/>
        <path id="Trazado_1002551" data-name="Trazado 1002551" d="M50.307,142.236a25.59,25.59,0,0,1-6.279-.763A5.533,5.533,0,0,1,44.37,140a25.506,25.506,0,0,0,5.9.715,4.4,4.4,0,0,1,.04,1.518" transform="translate(-37.344 -118.75)" fill="#15342f"/>
        <path id="Trazado_1002552" data-name="Trazado 1002552" d="M50.136,166.325a25.474,25.474,0,0,0-5.949.742,11.236,11.236,0,0,1-.375-1.453,24.553,24.553,0,0,1,6.31-.788,8.129,8.129,0,0,1,.014,1.5" transform="translate(-37.161 -139.804)" fill="#15342f"/>
        <path id="Trazado_1002553" data-name="Trazado 1002553" d="M255.965,120.47c-.42-1.4,1.573-.942,1.632-3.02.062-2.168-2.059-1.827-1.648-3.1a2.276,2.276,0,1,0-4.415-.8,4.81,4.81,0,0,1-1.5-.025,3.76,3.76,0,0,1,4.155-3.717,3.818,3.818,0,0,1,3.363,4.5,3.792,3.792,0,0,1,0,6.128,3.821,3.821,0,0,1-3.365,4.5,3.76,3.76,0,0,1-4.153-3.726,7.977,7.977,0,0,1,1.5-.026,2.274,2.274,0,1,0,4.433-.72" transform="translate(-212.077 -93.127)" fill="#15342f"/>
        <path id="Trazado_1002554" data-name="Trazado 1002554" d="M230.5,141.42a25.045,25.045,0,0,1-6.3.779,7.4,7.4,0,0,1,0-1.5,26.906,26.906,0,0,0,5.934-.746,6.876,6.876,0,0,1,.361,1.465" transform="translate(-190.139 -118.709)" fill="#15342f"/>
        <path id="Trazado_1002555" data-name="Trazado 1002555" d="M230.126,167.07a25.518,25.518,0,0,0-5.914-.714,4.787,4.787,0,0,1-.024-1.509,26.6,26.6,0,0,1,6.273.748,5.554,5.554,0,0,1-.335,1.475" transform="translate(-190.115 -139.821)" fill="#15342f"/>
        <path id="Trazado_1002556" data-name="Trazado 1002556" d="M139.616,137.826a1.58,1.58,0,0,0-1.477-1.515,1.519,1.519,0,0,0-1.592,1.483,4.776,4.776,0,0,1-1.492-.027,3.015,3.015,0,0,1,6.029,0,6.235,6.235,0,0,1-1.468.06" transform="translate(-114.553 -114.328)" fill="#15342f"/>
        <rect id="Rectángulo_456183" data-name="Rectángulo 456183" width="1.531" height="3.398" transform="matrix(0.447, -0.894, 0.894, 0.447, 17.859, 15.825)" fill="#15342f"/>
        <rect id="Rectángulo_456184" data-name="Rectángulo 456184" width="3.402" height="1.53" transform="matrix(0.895, -0.446, 0.446, 0.895, 25.446, 15.979)" fill="#15342f"/>
        <path id="Trazado_1002557" data-name="Trazado 1002557" d="M77.6,47.024l-31.872,0a.776.776,0,0,1-.786-.773l.01-10.618a6.032,6.032,0,0,1,4.4-5.739l7.635-2.383A2.048,2.048,0,0,0,57,26.131a10.045,10.045,0,0,1-4.753-5.683,3.107,3.107,0,0,1-3.306-1.942,3.055,3.055,0,0,1,1.184-3.645l-.676-2.437a9.221,9.221,0,0,1,2.081-8.638A9.55,9.55,0,0,1,59.877.8l8.131.969c5.533.659,6.486-2.3,7.69-1.682.526.269.364,2.163.345,3.075a9.136,9.136,0,0,1-4.535,7.715L71.5,14.383a3.024,3.024,0,0,1,3.014,3.258,3.066,3.066,0,0,1-3.494,2.8,10.14,10.14,0,0,1-4.758,5.707,2.221,2.221,0,0,0,0,1.366l7.755,2.423a5.973,5.973,0,0,1,4.294,5.7l.01,10.624a.758.758,0,0,1-.729.768m-25-35.669,3.124-.015A9.683,9.683,0,0,0,64,6.442a8.5,8.5,0,0,1,1.288.728,11.471,11.471,0,0,1-2.872,3.383c1.647.09,3.015.04,4.521.033A7.615,7.615,0,0,0,74.5,2.169a10.186,10.186,0,0,1-5.245,1.214L59.063,2.263a7.583,7.583,0,0,0-6.533,2.68c-2.343,2.755-2.31,5.969-.859,9.492.409-.8-.53-3.074.926-3.08m.686,6.01a8.347,8.347,0,1,0,16.693.055l-.017-5.815a12.307,12.307,0,0,1-3.927.516l-6.393-.033a15.034,15.034,0,0,1-6.356.756ZM51.771,16c-.877-.22-1.563.693-1.514,1.495a1.455,1.455,0,0,0,1.628,1.4,17.283,17.283,0,0,1-.114-2.9m19.607,2.865a1.455,1.455,0,1,0,.126-2.9,20.067,20.067,0,0,1-.126,2.9M64.564,27.8c.224-.225.123-.726-.012-.949a9.951,9.951,0,0,1-5.856-.009c-.1.22-.23.724,0,.957l2.933,2.948Zm-4.252,3.819-2.674-2.633a1.615,1.615,0,0,0-1.128.367l1.043,3.638a25.382,25.382,0,0,0,2.759-1.372M65.7,33.006l1.05-3.706c-.323-.131-.8-.422-1.125-.316L62.953,31.6Zm-13.934,5.7v6.805h9.108l-.018-12.418-3.416,1.689a.8.8,0,0,1-1.115-.521l-1.3-4.524L49.657,31.4a4.45,4.45,0,0,0-3.191,4.232l-.019,9.874,3.8,0,0-6.827a11.94,11.94,0,0,1,1.521.028M71.5,38.684l1.518,0,0,6.826h3.8l-.02-9.873a4.451,4.451,0,0,0-3.19-4.235l-5.37-1.665-1.3,4.527a.791.791,0,0,1-1.012.566l-3.53-1.712,0,12.4h9.1Z" transform="translate(-38.115 0)" fill="#15342f"/>
        <path id="Trazado_1002558" data-name="Trazado 1002558" d="M175.5,250.1a13.065,13.065,0,0,1-2.5.72,11.955,11.955,0,0,1-2.415-.7.776.776,0,0,1-.609-.751v-3.8a.734.734,0,0,1,.749-.745l4.556,0a.736.736,0,0,1,.746.749v3.8a.755.755,0,0,1-.529.734m-.954-1.349-.027-2.422h-3.032l.035,2.523c1.553.451,1.41.643,3.024-.1" transform="translate(-144.174 -207.651)" fill="#15342f"/>
      </g>
    </g>
    <g id="Grupo_1191983" data-name="Grupo 1191983" transform="translate(881.819 8216.039)">
      <g id="Grupo_1191982" data-name="Grupo 1191982" clip-path="url(#clip-path-29)">
        <path id="Trazado_1002559" data-name="Trazado 1002559" d="M31.676,36.87a12.324,12.324,0,0,1,5.072,11.29l-28.834,0A12.172,12.172,0,0,1,12.99,36.886a10.77,10.77,0,0,0-1.634-1.34l-9.447.035-.026-7.3a5.228,5.228,0,0,1-.03-8.011L1.9,17.025A17.128,17.128,0,0,1,18.285.075c2.732-.1,5.348-.1,8.083,0a17.191,17.191,0,0,1,16.387,17.1l.042,3.094a5.214,5.214,0,0,1-.012,7.982l-.048,7.33-9.44-.034a10.734,10.734,0,0,0-1.621,1.323m-7.917-27a6.773,6.773,0,0,0,2.647,3.39,9.178,9.178,0,0,0,5.107,1.474,8.051,8.051,0,0,1,6.471,4.353,8.31,8.31,0,0,0,1.913.012,19.291,19.291,0,0,0,.02-2.051A14.3,14.3,0,0,0,26.191,2.91c-2.652-.084-5.206-.1-7.855.007a14.294,14.294,0,0,0-13.6,13.855c-.027.825-.036,1.488.01,2.324a5.351,5.351,0,0,0,1.966-.079A8,8,0,0,1,13,14.747a9.673,9.673,0,0,0,5.157-1.429,6.747,6.747,0,0,0,2.732-3.471,20.578,20.578,0,0,0,2.871.019m12.33,12.64c-.359-2.521-2.17-4.8-4.723-4.914-3.536-.155-6.829-1.374-9.041-4.369-2.218,2.994-5.506,4.213-9.04,4.372-2.613.117-4.429,2.5-4.725,4.973a13.773,13.773,0,1,0,27.528-.061m-30.35-.495A2.332,2.332,0,0,0,3.414,25.8a2.625,2.625,0,0,0,2.669.7,17.132,17.132,0,0,1-.344-4.49M38.615,26.55a2.609,2.609,0,0,0,2.833-1.037,2.33,2.33,0,0,0-.086-2.608,2.291,2.291,0,0,0-2.476-.864,19.988,19.988,0,0,1-.271,4.51m-29.9,6.089a26.89,26.89,0,0,1-1.7-3.173,11.84,11.84,0,0,0-2.293.01L4.772,32.7a33.412,33.412,0,0,0,3.938-.056m31.22,0-.043-3.21-2.25.038a32.074,32.074,0,0,1-1.709,3.218,32.212,32.212,0,0,0,4-.045M33.822,45.31a9.181,9.181,0,0,0-5.2-6.9,16.763,16.763,0,0,1-12.611.007,9.17,9.17,0,0,0-5.186,6.909Z" transform="translate(0 0)" fill="#02542b"/>
        <path id="Trazado_1002560" data-name="Trazado 1002560" d="M128.833,184.937a1.345,1.345,0,0,0-1.463-1.206l-4.974.011,0-2.823,5.547.026a3.86,3.86,0,0,1,3.666,3.992,17.885,17.885,0,0,1-2.778,0" transform="translate(-103.987 -153.707)" fill="#02542b"/>
        <path id="Trazado_1002561" data-name="Trazado 1002561" d="M78.038,141.3a10.475,10.475,0,0,0,2.515,1.408,5.285,5.285,0,0,1-4.588,2.624,4.9,4.9,0,0,1-4.255-2.545l2.462-1.461a2.01,2.01,0,0,0,2.076,1.146,2.183,2.183,0,0,0,1.791-1.172" transform="translate(-60.924 -120.048)" fill="#02542b"/>
        <path id="Trazado_1002562" data-name="Trazado 1002562" d="M175.2,142.8a4.981,4.981,0,0,1-4.265,2.536,5.294,5.294,0,0,1-4.593-2.624,10.02,10.02,0,0,0,2.514-1.407,2.19,2.19,0,0,0,1.791,1.171,2,2,0,0,0,2.076-1.147Z" transform="translate(-141.325 -120.052)" fill="#02542b"/>
      </g>
    </g>
  </g>
</svg>
