<svg id="Grupo_1191934" data-name="Grupo 1191934" xmlns="http://www.w3.org/2000/svg" xmlns:xlink="http://www.w3.org/1999/xlink" width="19.641" height="19.68" viewBox="0 0 19.641 19.68">
  <defs>
    <clipPath id="clip-path">
      <rect id="Rectángulo_454854" data-name="Rectángulo 454854" width="19.641" height="19.68" fill="#fe93c4"/>
    </clipPath>
  </defs>
  <g id="Grupo_1177657" data-name="Grupo 1177657" clip-path="url(#clip-path)">
    <path id="Trazado_997489" data-name="Trazado 997489" d="M13.839,7.578a6.933,6.933,0,0,0-5.1,10.9L1.928,18.46A2.134,2.134,0,0,1,.007,16.474L0,2.147A2.288,2.288,0,0,1,2.373,0L7.561,0A2.5,2.5,0,0,1,9.455.816l3.9,3.948c.578.584.52,1.885.481,2.814m-5.5-1.2,3.36-.051L7.518,2.152l-.058,3.5a1.153,1.153,0,0,0,.882.726" transform="translate(0 0)" fill="#fe93c4"/>
    <path id="Trazado_997490" data-name="Trazado 997490" d="M110.074,105.284a5.212,5.212,0,1,1-5.212-5.212,5.212,5.212,0,0,1,5.212,5.212m-6.149,1.855a.57.57,0,0,0,.751,0c.333-.4.6-.813.907-1.231l1.447-1.962a.569.569,0,0,0-.849-.759l-1.977,2.656c-.553-.395-1.049-1.387-1.633-1.028-.191.118-.473.415-.261.675.483.593,1.051,1.075,1.614,1.647" transform="translate(-90.433 -90.816)" fill="#fe93c4"/>
  </g>
</svg>
