<svg xmlns="http://www.w3.org/2000/svg" xmlns:xlink="http://www.w3.org/1999/xlink" width="84" height="84" viewBox="0 0 84 84">
  <defs>
    <clipPath id="clip-path">
      <rect id="Rectángulo_456398" data-name="Rectángulo 456398" width="60.775" height="60.802" fill="#12263f"/>
    </clipPath>
  </defs>
  <g id="Grupo_1192038" data-name="Grupo 1192038" transform="translate(-706 -1685.277)">
    <g id="Grupo_1177731" data-name="Grupo 1177731">
      <g id="Grupo_1119665" data-name="Grupo 1119665" transform="translate(530.111 -3835.723)">
        <path id="Trazado_991847" data-name="Trazado 991847" d="M5,0H79a5,5,0,0,1,5,5V79a5,5,0,0,1-5,5H5a5,5,0,0,1-5-5V5A5,5,0,0,1,5,0Z" transform="translate(175.889 5521)" fill="#a0f7fe"/>
      </g>
      <g id="Grupo_1192284" data-name="Grupo 1192284" transform="translate(717.613 1696.876)">
        <g id="Grupo_1192283" data-name="Grupo 1192283" clip-path="url(#clip-path)">
          <path id="Trazado_1003351" data-name="Trazado 1003351" d="M118.131,140.867l-21.122,0a1.047,1.047,0,0,1-1.142-1.13,11.769,11.769,0,0,1,7.753-9.812,6.425,6.425,0,1,1,7.834-.019,11.873,11.873,0,0,1,7.727,9.669,1.062,1.062,0,0,1-1.05,1.295m-6.147-16.061a4.453,4.453,0,1,0-4.453,4.453,4.453,4.453,0,0,0,4.453-4.453m5.089,14.074A9.772,9.772,0,0,0,98,138.9Z" transform="translate(-77.14 -95.274)" fill="#12263f"/>
          <path id="Trazado_1003352" data-name="Trazado 1003352" d="M104.068,22.064a1.087,1.087,0,0,1-.847.665.974.974,0,0,1-1-.612l-1.8-3.84c-.137-.292-.7-.212-.966-.2a3.382,3.382,0,0,1-3.706-3.5l0-11.147A3.264,3.264,0,0,1,98.9.02L115.807,0a3.315,3.315,0,0,1,3.319,3.437l-.014,11.337a3.26,3.26,0,0,1-3.282,3.294l-9.736.029Zm.917-5.921,10.649-.02a1.436,1.436,0,0,0,1.535-1.546l-.023-11.293a1.325,1.325,0,0,0-1.352-1.325H99.082a1.333,1.333,0,0,0-1.357,1.325l.02,11.652c0,1.834,3.154.829,3.8,1.418.861.788.873,2.134,1.669,2.959a28.674,28.674,0,0,1,1.774-3.17" transform="translate(-77.046 0)" fill="#12263f"/>
          <path id="Trazado_1003353" data-name="Trazado 1003353" d="M132.093,24.84l-12.348.019a1.006,1.006,0,0,1-.959-.94c-.026-.33.229-.989.778-.99l12.46-.022a.945.945,0,0,1,.945.852.975.975,0,0,1-.875,1.08" transform="translate(-95.586 -18.433)" fill="#12263f"/>
          <path id="Trazado_1003354" data-name="Trazado 1003354" d="M132.11,43.426l-12.172.032a1.06,1.06,0,0,1-1.134-.887c-.063-.673.434-1.087,1.136-1.086l12.086.017a.964.964,0,0,1,.085,1.924" transform="translate(-95.598 -33.383)" fill="#12263f"/>
          <path id="Trazado_1003355" data-name="Trazado 1003355" d="M131.826,62.025l-11.923,0a.985.985,0,1,1-.158-1.957l12.241,0a1.022,1.022,0,0,1,.98.994,1,1,0,0,1-1.14.964" transform="translate(-95.568 -48.335)" fill="#12263f"/>
          <path id="Trazado_1003356" data-name="Trazado 1003356" d="M22.432,218.772l-21.471-.01a.991.991,0,0,1-.927-1.068A11.8,11.8,0,0,1,7.8,207.838a6.422,6.422,0,1,1,7.856-.015,11.9,11.9,0,0,1,7.724,9.83,1.019,1.019,0,0,1-.946,1.119m-6.269-16.048a4.453,4.453,0,1,0-4.454,4.454,4.454,4.454,0,0,0,4.454-4.454m5.084,14.069a9.776,9.776,0,0,0-19.076,0Z" transform="translate(-0.024 -157.97)" fill="#12263f"/>
          <path id="Trazado_1003357" data-name="Trazado 1003357" d="M17.484,92.908c-.106.56-.313.806-.735.89a1.181,1.181,0,0,1-1.029-.334l-2.8-2.39a10.2,10.2,0,1,1,4.422-17.114,10.383,10.383,0,0,1,1.218,13.249Zm-1.669-2.076.889-4.448a8.362,8.362,0,0,0-.647-10.938,8.236,8.236,0,1,0-3.312,13.627c1.18-.377,2.12,1.454,3.071,1.759" transform="translate(0 -57.17)" fill="#12263f"/>
          <path id="Trazado_1003358" data-name="Trazado 1003358" d="M32.69,96.281a6.261,6.261,0,1,1-6.261-6.261,6.261,6.261,0,0,1,6.261,6.261m-1.96,0a4.3,4.3,0,1,0-4.3,4.3,4.3,4.3,0,0,0,4.3-4.3" transform="translate(-16.228 -72.439)" fill="#12263f"/>
          <path id="Trazado_1003359" data-name="Trazado 1003359" d="M36.243,113.879l-1.416-1.424a.984.984,0,0,1,.08-1.442c1.005-.828,1.73.814,2.162.722,1.248-.694,2.86-3.365,4.018-2.475a.98.98,0,0,1,.079,1.452L37.6,113.952a1,1,0,0,1-1.355-.073" transform="translate(-27.802 -87.778)" fill="#12263f"/>
          <path id="Trazado_1003360" data-name="Trazado 1003360" d="M214.09,218.765l-21.475,0a1.024,1.024,0,0,1-1.018-1.117,11.813,11.813,0,0,1,7.741-9.8,6.461,6.461,0,0,1-.768-9.481,6.421,6.421,0,1,1,8.615,9.463,11.82,11.82,0,0,1,7.756,9.861,1.024,1.024,0,0,1-.853,1.081m-6.364-16.047a4.453,4.453,0,1,0-4.453,4.453,4.453,4.453,0,0,0,4.453-4.453m5.086,14.043a9.77,9.77,0,0,0-19.064.04Z" transform="translate(-154.174 -157.963)" fill="#12263f"/>
          <path id="Trazado_1003361" data-name="Trazado 1003361" d="M210.064,93.561A1.1,1.1,0,0,1,209,93.78c-1.065-.282-1.1-5.473-1.739-6.627a10.42,10.42,0,0,1,1.306-13.209,10.2,10.2,0,1,1,4.419,17.15Zm3.107-4.468a8.234,8.234,0,1,0-3.4-13.577,8.43,8.43,0,0,0-.67,10.824l1.007,4.555c1.109-.65,1.95-2.159,3.058-1.8" transform="translate(-165.37 -57.191)" fill="#12263f"/>
          <path id="Trazado_1003362" data-name="Trazado 1003362" d="M238.094,96.281a6.26,6.26,0,1,1-6.26-6.26,6.26,6.26,0,0,1,6.26,6.26m-1.96,0a4.3,4.3,0,1,0-4.3,4.3,4.3,4.3,0,0,0,4.3-4.3" transform="translate(-181.52 -72.44)" fill="#12263f"/>
          <path id="Trazado_1003363" data-name="Trazado 1003363" d="M243.037,113.917c-.93.852-1.862-.519-2.752-1.391a1,1,0,0,1-.116-1.384,1.035,1.035,0,0,1,1.515-.017c.179.166.451.6.739.611,1.34-.676,2.887-3.443,4.086-2.446a.948.948,0,0,1,.092,1.364Z" transform="translate(-193.081 -87.774)" fill="#12263f"/>
        </g>
      </g>
    </g>
  </g>
</svg>
