<svg xmlns="http://www.w3.org/2000/svg" xmlns:xlink="http://www.w3.org/1999/xlink" width="84" height="84" viewBox="0 0 84 84">
  <defs>
    <clipPath id="clip-path">
      <rect id="Rectángulo_456400" data-name="Rectángulo 456400" width="56.936" height="56.95" fill="#12263f"/>
    </clipPath>
  </defs>
  <g id="Grupo_1192047" data-name="Grupo 1192047" transform="translate(-706 -1685.277)">
    <g id="Grupo_1177731" data-name="Grupo 1177731">
      <g id="Grupo_1119665" data-name="Grupo 1119665" transform="translate(530.111 -3835.723)">
        <path id="Trazado_991847" data-name="Trazado 991847" d="M5,0H79a5,5,0,0,1,5,5V79a5,5,0,0,1-5,5H5a5,5,0,0,1-5-5V5A5,5,0,0,1,5,0Z" transform="translate(175.889 5521)" fill="#a0f7fe"/>
      </g>
      <g id="Grupo_1192288" data-name="Grupo 1192288" transform="translate(719.532 1698.802)">
        <g id="Grupo_1192287" data-name="Grupo 1192287" clip-path="url(#clip-path)">
          <path id="Trazado_1003368" data-name="Trazado 1003368" d="M17.507,191.607l-16.576.008a.925.925,0,0,1-.924-.92L0,186.092a6.419,6.419,0,0,1,5.127-6.3c-1.507-1.929-.5-1.976-2.19-1.948A2.764,2.764,0,0,1,1.8,172.494l.031-2.951a4.526,4.526,0,0,1,4.4-4.535c2.059-.033,4.024-.075,6.075.017a4.436,4.436,0,0,1,4.209,4.332l.045,3.136a2.767,2.767,0,0,1,1.736,3.177,2.8,2.8,0,0,1-2.874,2.176c-1.727-.02-.644.01-2.2,1.931a6.454,6.454,0,0,1,5.134,6.313L18.35,190.7a.9.9,0,0,1-.843.908m-6.424-22.272a.866.866,0,0,1,1.092-.643c1.256.253-.047,2.354,2.461,3.432a21.225,21.225,0,0,0,.055-2.387,2.749,2.749,0,0,0-2.75-2.914H6.416a2.713,2.713,0,0,0-2.741,2.727l.007,2.768,2.384.012c1.7.009,4.576-.884,5.017-3m1.751,6.593c-.051-3.061.5-2.079-1.182-3.9a8.682,8.682,0,0,1-6.139,2.132c-.012.706-.031,1.334.008,2.03a3.659,3.659,0,0,0,7.313-.259m-9.162.023-.012-1.776a2.7,2.7,0,0,0-1.352.116.846.846,0,0,0-.444.863.869.869,0,0,0,.436.717,2.475,2.475,0,0,0,1.373.081m12.439-.141a.89.89,0,0,0-.05-1.511,2.538,2.538,0,0,0-1.364-.124,15.654,15.654,0,0,0,.018,1.8,2.227,2.227,0,0,0,1.4-.17m-5.144,5.709-3.592.018a1.777,1.777,0,0,0,1.888,1.791,1.742,1.742,0,0,0,1.7-1.809M12.86,186.1l1.827,0,.014,3.655a11.286,11.286,0,0,0,1.826,0l-.018-3.856a4.411,4.411,0,0,0-3.639-4.271,3.694,3.694,0,0,1-7.381,0,4.477,4.477,0,0,0-3.652,4.451v3.672a11.4,11.4,0,0,0,1.821,0l.014-3.654H5.5l.019,3.677h7.317Z" transform="translate(0 -134.665)" fill="#12263f"/>
          <path id="Trazado_1003369" data-name="Trazado 1003369" d="M115.663,174.642a.973.973,0,0,1-.55-.788.913.913,0,0,1,.449-.88l3.494-2.011a13.755,13.755,0,1,1-.007,5.625Zm2.307-.865,2.748,1.713a11.888,11.888,0,1,0-.023-3.348Z" transform="translate(-93.966 -130.608)" fill="#12263f"/>
          <path id="Trazado_1003370" data-name="Trazado 1003370" d="M175.445,194.713c-1.681-.053-1.183-4.655,1.619-7.556a1.119,1.119,0,0,0,.062-1.19.907.907,0,0,0-1.139-.332c-1.162.453.25,2.664-1.633,2.664h-3.322a1.169,1.169,0,0,1-.863-.327,1.481,1.481,0,0,1-.223-.96,6.434,6.434,0,1,1,12.834-.187,7.388,7.388,0,0,1-2.091,4.854c-1.253,1.289-.048,2.991-1.565,3.033-1.247.034-2.425.039-3.68,0m.988-1.843a7.855,7.855,0,0,0,1.758-.021c.377-2.731,2.39-2.505,2.737-5.856a4.585,4.585,0,0,0-4.284-5.113,4.532,4.532,0,0,0-4.837,4.545,9.187,9.187,0,0,0,1.79.019,2.812,2.812,0,0,1,1.92-2.607,2.747,2.747,0,0,1,3.106,1.041,2.853,2.853,0,0,1-.115,3.389c-1.13,1.344-2.2,2.743-2.074,4.6" transform="translate(-138.714 -146.962)" fill="#12263f"/>
          <path id="Trazado_1003371" data-name="Trazado 1003371" d="M200.508,267.764a2.75,2.75,0,1,1-2.75-2.75,2.75,2.75,0,0,1,2.75,2.75m-1.849,0a.9.9,0,1,0-.9.9.9.9,0,0,0,.9-.9" transform="translate(-159.185 -216.331)" fill="#12263f"/>
          <path id="Trazado_1003372" data-name="Trazado 1003372" d="M227.507,31.607l-16.576.008a.926.926,0,0,1-.924-.92l-.006-4.6a6.42,6.42,0,0,1,5.127-6.3c-1.507-1.928-.5-1.976-2.19-1.948a2.764,2.764,0,0,1-1.137-5.349l.031-2.951a4.527,4.527,0,0,1,4.4-4.535c2.059-.033,4.024-.075,6.075.017a4.436,4.436,0,0,1,4.209,4.332l.045,3.136a2.767,2.767,0,0,1,1.736,3.177,2.8,2.8,0,0,1-2.874,2.176c-1.727-.02-.643.008-2.2,1.931a6.455,6.455,0,0,1,5.134,6.313L228.35,30.7a.9.9,0,0,1-.843.908m-5.584-19.291c.935.045,1.787.015,2.748.01l.022-2.595a2.72,2.72,0,0,0-2.575-2.887l-5.7-.018a2.723,2.723,0,0,0-2.739,2.723,22.179,22.179,0,0,0,.041,2.575c2.648-1.075,1.048-3.562,2.789-3.457.462.028.755.366.837.905.243,1.6,2.982,2.667,4.579,2.744m.927,3.619c0-.685.025-1.2-.008-1.781a8.788,8.788,0,0,1-6.172-2.138c-1.482,1.7-1.229,1.037-1.132,4.166a3.618,3.618,0,0,0,3.728,3.475,3.662,3.662,0,0,0,3.584-3.723m-9.178.018-.012-1.776a2.7,2.7,0,0,0-1.352.116.846.846,0,0,0-.444.863.869.869,0,0,0,.436.717,2.475,2.475,0,0,0,1.373.081m12.439-.141a.89.89,0,0,0-.05-1.511,2.538,2.538,0,0,0-1.364-.124,15.653,15.653,0,0,0,.018,1.8,2.226,2.226,0,0,0,1.4-.17m-5.144,5.709-3.592.019a1.777,1.777,0,0,0,1.888,1.791,1.742,1.742,0,0,0,1.7-1.809M222.86,26.1l1.827,0,.014,3.655a11.289,11.289,0,0,0,1.826,0l-.018-3.856a4.41,4.41,0,0,0-3.639-4.271,3.694,3.694,0,0,1-7.381,0,4.477,4.477,0,0,0-3.652,4.451V29.76a11.4,11.4,0,0,0,1.821,0l.014-3.654h1.83l.019,3.677h7.317Z" transform="translate(-171.423 -4.057)" fill="#12263f"/>
          <path id="Trazado_1003373" data-name="Trazado 1003373" d="M55.582,12.906a.977.977,0,0,1,.547.79.935.935,0,0,1-.436.887L52.185,16.6a13.778,13.778,0,1,1,0-5.653Zm-2.317.859L50.52,12.057a11.881,11.881,0,1,0,.029,3.361Z" transform="translate(-20.342 0)" fill="#12263f"/>
          <path id="Trazado_1003374" data-name="Trazado 1003374" d="M71.846,49.42a1,1,0,0,1-1.414.087l-3.017-2.975L64.5,49.42a1,1,0,0,1-1.414.086l-2.652-2.641a.994.994,0,0,1-.079-1.417l2.966-3.014L60.353,39.42A.992.992,0,0,1,60.431,38l2.551-2.552a1.029,1.029,0,0,1,1.52,0l2.912,2.883L70.43,35.37a1,1,0,0,1,1.419.082L74.4,38a1,1,0,0,1,.082,1.419l-2.964,3.013,2.959,3.011a.994.994,0,0,1-.073,1.421Zm-.737-1.908a8.9,8.9,0,0,0,1.366-1.423l-3.074-3.2c-.382-.4,0-1,.3-1.3l2.791-2.808a7.366,7.366,0,0,0-1.421-1.421l-2.894,2.87a1.032,1.032,0,0,1-1.516.008l-2.891-2.878a7.2,7.2,0,0,0-1.418,1.419l2.94,2.989a.992.992,0,0,1-.073,1.421l-2.87,2.894A7.2,7.2,0,0,0,63.765,47.5l2.991-2.949a.952.952,0,0,1,1.32,0Z" transform="translate(-49.051 -28.659)" fill="#12263f"/>
        </g>
      </g>
    </g>
  </g>
</svg>
