<svg xmlns="http://www.w3.org/2000/svg" xmlns:xlink="http://www.w3.org/1999/xlink" width="84" height="84" viewBox="0 0 84 84">
  <defs>
    <clipPath id="clip-path">
      <rect id="Rectángulo_456397" data-name="Rectángulo 456397" width="63.506" height="51.398" fill="#12263f"/>
    </clipPath>
  </defs>
  <g id="Grupo_1192027" data-name="Grupo 1192027" transform="translate(-706 -1685.277)">
    <g id="Grupo_1177731" data-name="Grupo 1177731">
      <g id="Grupo_1119665" data-name="Grupo 1119665" transform="translate(530.111 -3835.723)">
        <path id="Trazado_991847" data-name="Trazado 991847" d="M5,0H79a5,5,0,0,1,5,5V79a5,5,0,0,1-5,5H5a5,5,0,0,1-5-5V5A5,5,0,0,1,5,0Z" transform="translate(175.889 5521)" fill="#a0f7fe"/>
      </g>
      <g id="Grupo_1192282" data-name="Grupo 1192282" transform="translate(716.247 1701.578)">
        <g id="Grupo_1192281" data-name="Grupo 1192281" clip-path="url(#clip-path)">
          <path id="Trazado_1003339" data-name="Trazado 1003339" d="M185.151,14.3c-1.227-.19.669,1.5-.883,2.682a1.569,1.569,0,0,1-2.029-.047l-3.34-2.618h-7.265a2.67,2.67,0,0,1-2.748-2.47L168.839,2.9A2.766,2.766,0,0,1,171.658.038l14.491.031A2.656,2.656,0,0,1,188.688,2.7l-.006,8.939a2.889,2.889,0,0,1-3.531,2.656m-2.717.188a2.085,2.085,0,0,1,.577-1.726c1.09-.946,2.885.078,3.622-.831.226-3.07.034-6.1.094-9.191a.806.806,0,0,0-.789-.7L171.658,2.02a.8.8,0,0,0-.826.887l0,8.534a.79.79,0,0,0,.818.882l7.922.054Z" transform="translate(-135.334 -0.03)" fill="#12263f"/>
          <path id="Trazado_1003340" data-name="Trazado 1003340" d="M200.864,22.735l-8.936-.011a.923.923,0,0,1-1-.932,1,1,0,0,1,1.02-1.029l9.083,0a1.018,1.018,0,0,1,.978,1.037c-.038.614-.481.933-1.143.932" transform="translate(-153.036 -16.644)" fill="#12263f"/>
          <path id="Trazado_1003341" data-name="Trazado 1003341" d="M218.516,43.259a42.447,42.447,0,0,1-4.924,0,.989.989,0,0,1-.94-1,.947.947,0,0,1,1.048-.93l4.583,0c.6,0,1.024.223,1.13.774a1,1,0,0,1-.9,1.161" transform="translate(-170.453 -33.124)" fill="#12263f"/>
          <path id="Trazado_1003342" data-name="Trazado 1003342" d="M60.921,14.27l-3.265,2.554a1.659,1.659,0,0,1-2.028.211c-1.868-1.235.479-2.984-1.179-2.763a2.875,2.875,0,0,1-3.377-2.858l.021-8.723A2.759,2.759,0,0,1,54.037,0L68.119.011A2.753,2.753,0,0,1,70.94,2.874l-.047,8.945a2.67,2.67,0,0,1-2.75,2.465Zm7.289-1.988a.714.714,0,0,0,.722-.681l.017-8.725a.8.8,0,0,0-.829-.886L53.839,2a.842.842,0,0,0-.8.88c.1,3.04-.143,6.011.117,9.015.713.948,2.617-.179,3.709.922a2.3,2.3,0,0,1,.476,1.668L60.2,12.354Z" transform="translate(-40.936 0)" fill="#12263f"/>
          <path id="Trazado_1003343" data-name="Trazado 1003343" d="M83.428,22.711l-9.03.021c-.661,0-1.106-.321-1.143-.931a1.015,1.015,0,0,1,.977-1.036l9.086-.005a1.013,1.013,0,0,1,1.01.875.908.908,0,0,1-.9,1.077" transform="translate(-58.717 -16.64)" fill="#12263f"/>
          <path id="Trazado_1003344" data-name="Trazado 1003344" d="M79.167,43.234a42.751,42.751,0,0,1-4.934.043,1.029,1.029,0,0,1-.984-1.027c.034-.63.472-.93,1.139-.929l4.584,0A.939.939,0,0,1,80,42.069a.952.952,0,0,1-.834,1.165" transform="translate(-58.712 -33.121)" fill="#12263f"/>
          <path id="Trazado_1003345" data-name="Trazado 1003345" d="M133.543,179.925a8.711,8.711,0,1,1-8.711-8.711,8.711,8.711,0,0,1,8.711,8.711m-1.987,0a6.723,6.723,0,1,0-6.723,6.723,6.723,6.723,0,0,0,6.723-6.723" transform="translate(-93.078 -137.238)" fill="#12263f"/>
          <path id="Trazado_1003346" data-name="Trazado 1003346" d="M140.148,205.114l-2.57-2.6a1.031,1.031,0,0,1-.077-1.326.986.986,0,0,1,1.371-.136l2.148,2.062,3.707-3.648a.985.985,0,0,1,1.394.145,1.038,1.038,0,0,1-.1,1.313l-4.152,4.178a1.151,1.151,0,0,1-1.725.005" transform="translate(-110.051 -159.707)" fill="#12263f"/>
          <path id="Trazado_1003347" data-name="Trazado 1003347" d="M18.962,188.31H2.784A2.779,2.779,0,0,1,0,185.461l0-5.778a8.742,8.742,0,0,1,8.42-8.806c1.7-.064,3.3-.067,4.993.007a8.711,8.711,0,0,1,8.349,8.8l-.017,5.933a2.726,2.726,0,0,1-2.783,2.7m-.031-1.977a.853.853,0,0,0,.848-.906l-.01-5.919a6.7,6.7,0,0,0-6.55-6.659c-1.566-.059-3.033-.044-4.6,0A6.7,6.7,0,0,0,2,179.485l-.01,5.967a.831.831,0,0,0,.8.877Z" transform="translate(0 -136.928)" fill="#12263f"/>
          <path id="Trazado_1003348" data-name="Trazado 1003348" d="M35.164,104.385A6.482,6.482,0,1,1,28.683,97.9a6.482,6.482,0,0,1,6.481,6.481m-1.985,0a4.5,4.5,0,1,0-4.5,4.5,4.5,4.5,0,0,0,4.5-4.5" transform="translate(-17.795 -78.476)" fill="#12263f"/>
          <path id="Trazado_1003349" data-name="Trazado 1003349" d="M245.488,104.382a6.482,6.482,0,1,1-6.482-6.482,6.482,6.482,0,0,1,6.482,6.482m-1.985,0a4.5,4.5,0,1,0-4.5,4.5,4.5,4.5,0,0,0,4.5-4.5" transform="translate(-186.382 -78.473)" fill="#12263f"/>
          <path id="Trazado_1003350" data-name="Trazado 1003350" d="M229.306,188.32l-15.976.009a2.766,2.766,0,0,1-2.892-2.72l-.008-6.116a8.643,8.643,0,0,1,8.337-8.6c1.7-.076,3.292-.067,4.995,0a8.733,8.733,0,0,1,8.416,8.806l0,5.772a2.788,2.788,0,0,1-2.868,2.858m.176-1.99c.526,0,.705-.571.7-.87l-.008-5.97a6.677,6.677,0,0,0-6.454-6.623c-1.619-.076-3.142-.063-4.762-.008a6.709,6.709,0,0,0-6.55,6.682l-.01,5.889a.882.882,0,0,0,.931.915Z" transform="translate(-168.672 -136.935)" fill="#12263f"/>
        </g>
      </g>
    </g>
  </g>
</svg>
