<svg xmlns="http://www.w3.org/2000/svg" xmlns:xlink="http://www.w3.org/1999/xlink" width="80" height="80" viewBox="0 0 80 80">
  <defs>
    <clipPath id="clip-path">
      <rect id="Rectángulo_456396" data-name="Rectángulo 456396" width="54.382" height="54.395" fill="#12263f"/>
    </clipPath>
  </defs>
  <g id="Grupo_1192022" data-name="Grupo 1192022" transform="translate(-175.889 -5521)">
    <rect id="Rectángulo_402006" data-name="Rectángulo 402006" width="80" height="80" rx="5" transform="translate(175.889 5521)" fill="#a0f7fe"/>
    <g id="Grupo_1192280" data-name="Grupo 1192280" transform="translate(188.698 5533.803)">
      <g id="Grupo_1192279" data-name="Grupo 1192279" clip-path="url(#clip-path)">
        <path id="Trazado_1003325" data-name="Trazado 1003325" d="M16.346,235.862a.981.981,0,0,1-1.032,1.094l-14.092.011c-.685,0-1.2-.313-1.191-1.031l0-3.405a4.618,4.618,0,0,1,3.1-4.42,5.434,5.434,0,0,1,.448-4.9L2.6,221.3a.911.911,0,0,1,.374-1.229c1.206-.594,1.413,1.167,1.951,1.664a5.357,5.357,0,0,1,6.594.067,5.441,5.441,0,0,1,1.719,6.3,4.662,4.662,0,0,1,3.111,4.557c.7.542,2.814.745,2.44,1.922a.916.916,0,0,1-1.191.605,5.149,5.149,0,0,0-1.216-.412,5.316,5.316,0,0,0-.033,1.084m-4.559-9.8a3.6,3.6,0,1,0-3.6,3.6,3.6,3.6,0,0,0,3.6-3.6m.415,3.75a5.57,5.57,0,0,1-8.034,0c-2.733.336-2.373,3.057-2.277,5.306l12.6,0c.09-2.234.442-4.988-2.285-5.309" transform="translate(-0.025 -182.572)" fill="#12263f"/>
        <path id="Trazado_1003326" data-name="Trazado 1003326" d="M236.076,16.324H225.042a.959.959,0,0,1-1.011-1.018l.009-3.58A4.574,4.574,0,0,1,227.1,7.473c-.244-.566-.127-1.279-.491-1.707-.586-.69-2.586-1.052-2.12-2.161a.941.941,0,0,1,1.351-.454c.426.179.73.508,1.191.565A5.439,5.439,0,1,1,237.241,7.47a4.639,4.639,0,0,1,3.1,4.425V15.3a.955.955,0,0,1-1.012,1.012,9.131,9.131,0,0,0-1.16.032,5.6,5.6,0,0,0,.405,1.218.922.922,0,0,1-.6,1.2c-1.158.347-1.3-1.446-1.9-2.441m-.29-10.892a3.6,3.6,0,1,0-3.6,3.6,3.6,3.6,0,0,0,3.6-3.6m.427,3.762a5.633,5.633,0,0,1-8.056,0c-2.714.322-2.369,3.059-2.279,5.313l12.6-.008c.094-2.246.45-5-2.266-5.3" transform="translate(-185.958 -0.005)" fill="#12263f"/>
        <path id="Trazado_1003327" data-name="Trazado 1003327" d="M15.375,16.3l-11.07.019c-.6.753-.738,2.836-1.938,2.439A.907.907,0,0,1,1.745,17.7c.083-.493.409-.856.436-1.353-.478-.075-.887,0-1.336-.04A1,1,0,0,1,0,15.133l0-3.244A4.652,4.652,0,0,1,3.1,7.462,5.443,5.443,0,1,1,13.333,3.754L14.639,3.1a.853.853,0,0,1,1.162.392c.673,1.158-1.488,1.591-2.068,2.269-.366.428-.246,1.145-.495,1.71a4.657,4.657,0,0,1,3.076,4.424v3.415a.929.929,0,0,1-.938,1M11.761,5.427a3.6,3.6,0,1,0-3.6,3.6,3.6,3.6,0,0,0,3.6-3.6m.424,3.758a5.62,5.62,0,0,1-8.047,0c-2.73.319-2.363,3.049-2.272,5.3l12.6.005c.1-2.244.433-5-2.279-5.313" transform="translate(0 -0.001)" fill="#12263f"/>
        <path id="Trazado_1003328" data-name="Trazado 1003328" d="M309.025,147.788c-.093.677-.415,1-.94,1a.876.876,0,0,1-.882-1.065,30.957,30.957,0,0,0,.262-6.632.889.889,0,1,1,1.769-.168,27.824,27.824,0,0,1-.21,6.863" transform="translate(-254.984 -116.281)" fill="#12263f"/>
        <path id="Trazado_1003329" data-name="Trazado 1003329" d="M2.215,147.6a.927.927,0,0,1-.57,1.081.876.876,0,0,1-1.154-.57,25.9,25.9,0,0,1-.31-7.235.893.893,0,0,1,.953-.85.881.881,0,0,1,.82,1.015,29.872,29.872,0,0,0,.261,6.56" transform="translate(-0.05 -116.229)" fill="#12263f"/>
        <path id="Trazado_1003330" data-name="Trazado 1003330" d="M117.5,1.423c.376,1.611-2.281,1.081-5.491,2.076a.888.888,0,0,1-1.145-.568.9.9,0,0,1,.62-1.157A26.62,26.62,0,0,1,116.452.8a.913.913,0,0,1,1.052.625" transform="translate(-91.992 -0.656)" fill="#12263f"/>
        <path id="Trazado_1003331" data-name="Trazado 1003331" d="M175.743,1.763a.925.925,0,0,1,.728,1.036.869.869,0,0,1-1.043.733,34.081,34.081,0,0,0-4.811-.941.9.9,0,0,1-.848-1A.889.889,0,0,1,170.828.81a27.144,27.144,0,0,1,4.914.954" transform="translate(-140.915 -0.666)" fill="#12263f"/>
        <path id="Trazado_1003332" data-name="Trazado 1003332" d="M213.037,236.955c-.654,0-1.081-.329-1.1-.853l-.044-1.336c-.694.038-1.831,1.067-2.378-.074A.929.929,0,0,1,210,233.51l1.89-.8a4.73,4.73,0,0,1,3.135-4.609,5.434,5.434,0,0,1,1.721-6.306,5.336,5.336,0,0,1,6.584-.061c.538-.484.751-2.27,1.955-1.668a.964.964,0,0,1,.323,1.357l-.926,1.783a5.43,5.43,0,0,1,.449,4.9,4.623,4.623,0,0,1,3.1,4.42v3.41a.964.964,0,0,1-1.024,1.018Zm10.642-10.895a3.6,3.6,0,1,0-3.6,3.6,3.6,3.6,0,0,0,3.6-3.6m.417,3.759a5.514,5.514,0,0,1-8.066-.1c-2.813.726-2.295,3.054-2.251,5.394l12.592,0c.1-2.227.445-5.013-2.275-5.3" transform="translate(-173.851 -182.566)" fill="#12263f"/>
        <path id="Trazado_1003333" data-name="Trazado 1003333" d="M143.6,310.1a26.055,26.055,0,0,1-6.732-.008.892.892,0,0,1-.71-1,.907.907,0,0,1,.979-.751,33.393,33.393,0,0,0,6.133,0,.9.9,0,0,1,.933.618.933.933,0,0,1-.6,1.145" transform="translate(-113.009 -255.933)" fill="#12263f"/>
        <path id="Trazado_1003334" data-name="Trazado 1003334" d="M89.882,126.787l-8.674-.028a1.787,1.787,0,0,1-1.85-1.719l-.055-3.55c0-.2-.445-.2-.585-.064l-5.076,5.055a.921.921,0,0,1-1.071.161c-.939-.444-.231-3.971-.528-5.331-1.161.208-2.625-.3-2.628-1.582l-.033-11.14a1.76,1.76,0,0,1,1.8-1.735l16.312,0a1.7,1.7,0,0,1,1.792,1.623l.071,3.792h8.017a1.793,1.793,0,0,1,1.9,1.757l-.046,11.191c-.005,1.247-1.474,1.754-2.606,1.5-.3,1.2.366,4.911-.5,5.342a.95.95,0,0,1-1.092-.116ZM79.3,119.415l.038-5.407a1.783,1.783,0,0,1,1.87-1.749l6.288-.022-.024-3.593H71.2l-.014,10.807,1.849.065c1.465.056.627,2.722.911,4.044l3.855-3.773c.388-.38.972-.22,1.5-.372m16.377,5.548a11.726,11.726,0,0,0,1.79-.081l-.026-10.816-16.254.013-.007,10.85,9.4.059,4.109,4.017c.4-1.188-.581-4.053.991-4.042" transform="translate(-57.59 -88.693)" fill="#12263f"/>
        <path id="Trazado_1003335" data-name="Trazado 1003335" d="M155.747,167.17l-5.37.008a.9.9,0,1,1,.037-1.8l5.34.012a.884.884,0,0,1,.9.867.9.9,0,0,1-.9.915" transform="translate(-124.042 -137.271)" fill="#12263f"/>
        <path id="Trazado_1003336" data-name="Trazado 1003336" d="M187.884,188.6c-1.957.093-3.786.049-5.66.02a.92.92,0,0,1-.789-.942.876.876,0,0,1,.941-.82h5.28a.9.9,0,0,1,.973.657.883.883,0,0,1-.746,1.087" transform="translate(-150.599 -155.103)" fill="#12263f"/>
        <path id="Trazado_1003337" data-name="Trazado 1003337" d="M206.367,166.1c.01,1.181-1.5.962-2.7.926a.894.894,0,1,1,.026-1.787c1.087-.03,2.667-.254,2.677.861" transform="translate(-168.318 -137.123)" fill="#12263f"/>
        <path id="Trazado_1003338" data-name="Trazado 1003338" d="M152.324,188.55c-.961.173-2.991.315-2.895-.9a.883.883,0,0,1,.937-.817l1.717-.006a.886.886,0,0,1,.921.7.868.868,0,0,1-.68,1.025" transform="translate(-124.031 -155.075)" fill="#12263f"/>
      </g>
    </g>
  </g>
</svg>
