<svg xmlns="http://www.w3.org/2000/svg" xmlns:xlink="http://www.w3.org/1999/xlink" width="396" height="350" viewBox="0 0 396 350">
  <defs>
    <clipPath id="clip-path">
      <rect id="Rectángulo_456360" data-name="Rectángulo 456360" width="341.067" height="350" fill="none"/>
    </clipPath>
  </defs>
  <g id="Grupo_1192213" data-name="Grupo 1192213" transform="translate(-186 -4855)">
    <rect id="Rectángulo_456286" data-name="Rectángulo 456286" width="396" height="350" transform="translate(186 4855)" fill="none"/>
    <g id="Grupo_1192212" data-name="Grupo 1192212" transform="translate(213 4855)">
      <g id="Grupo_1192211" data-name="Grupo 1192211" clip-path="url(#clip-path)">
        <path id="Trazado_1002679" data-name="Trazado 1002679" d="M242.257,382.71c-38.294-1.493-71.485.139-87.9,3.779H9.822l-8.505,8.505H90.955l51.622,17,31.148-9.073c17.809,3,42.025,5.367,68.7,6.407,54.643,2.13,98.9-2.1,98.854-9.451S296.9,384.841,242.257,382.71" transform="translate(-0.214 -61.993)" fill="#9cb9b4"/>
        <path id="Trazado_1002680" data-name="Trazado 1002680" d="M315.066,296.277c7.792-48.819,3.912-98.961-4.448-147.744-1.645-9.6-3.5-19.282-7.62-28.1A59.621,59.621,0,0,0,257.48,87.174a64,64,0,0,0-11.307-.421,335.821,335.821,0,0,0-14.36-39.114c-8.059-18.121-19.48-36.66-38.368-44.159C178.812-2.331,161.8-.375,147.308,5.745,120.716,16.97,101.768,41.009,90.857,66.98s-14.8,54.1-18.918,81.844c-1.233,8.312-2.676,17.041-8.051,23.642s-16.072,9.951-22.969,4.837C33,171.43,33,157.37,23.364,154.862c-4.837-1.258-10.039,1.466-12.986,5.379s-4.1,8.791-5.059,13.54a272.4,272.4,0,0,0,7.555,136.3C13.9,313.3,16.243,320.1,16.243,320.1l310.025-.631c4.713-8.74-1.453-20.889-11.2-23.19" transform="translate(0 0)" fill="#d0e1dd"/>
        <path id="Trazado_1002681" data-name="Trazado 1002681" d="M271.062,318.449H36.252a6.877,6.877,0,0,1-6.877-6.877V180.654a6.877,6.877,0,0,1,6.877-6.877H271.062a6.877,6.877,0,0,1,6.877,6.877V311.572a6.877,6.877,0,0,1-6.877,6.877" transform="translate(-4.765 -28.19)" fill="#072d2d"/>
        <rect id="Rectángulo_456347" data-name="Rectángulo 456347" width="248.565" height="129.622" transform="translate(24.609 152.869)" fill="#559ba3"/>
        <rect id="Rectángulo_456348" data-name="Rectángulo 456348" width="242.739" height="8.091" transform="translate(27.162 155.708)" fill="#f9f3ef"/>
        <rect id="Rectángulo_456349" data-name="Rectángulo 456349" width="220.565" height="114.392" transform="translate(38.248 166.143)" fill="#f9f3ef"/>
        <rect id="Rectángulo_456350" data-name="Rectángulo 456350" width="23.757" height="14.738" transform="translate(42.166 260.19)" fill="#dad5d1"/>
        <rect id="Rectángulo_456351" data-name="Rectángulo 456351" width="23.757" height="14.738" transform="translate(42.166 241.308)" fill="#dad5d1"/>
        <path id="Trazado_1002682" data-name="Trazado 1002682" d="M150.879,302.868l-46.525.271V291.7l46.478-.27a3.946,3.946,0,0,1,3.969,3.946v3.546a3.946,3.946,0,0,1-3.923,3.946" transform="translate(-16.928 -47.275)" fill="#c9bbb1"/>
        <path id="Trazado_1002683" data-name="Trazado 1002683" d="M167.682,248.239l-46.525.271V237.071l46.479-.27a3.946,3.946,0,0,1,3.969,3.946v3.546a3.946,3.946,0,0,1-3.923,3.946" transform="translate(-19.654 -38.414)" fill="#c9bbb1"/>
        <path id="Trazado_1002684" data-name="Trazado 1002684" d="M101.974,265.793l46.525-.271v11.439l-46.479.27a3.945,3.945,0,0,1-3.969-3.946v-3.546a3.946,3.946,0,0,1,3.922-3.946" transform="translate(-15.906 -43.073)" fill="#c9bbb1"/>
        <path id="Trazado_1002685" data-name="Trazado 1002685" d="M156.6,270.7a12.906,12.906,0,1,1-12.906-12.905A12.906,12.906,0,0,1,156.6,270.7" transform="translate(-21.216 -41.819)" fill="#0e5a52"/>
        <rect id="Rectángulo_456352" data-name="Rectángulo 456352" width="220.565" height="8.091" transform="translate(38.248 166.143)" fill="#0e5a52"/>
        <rect id="Rectángulo_456353" data-name="Rectángulo 456353" width="0.88" height="100.432" transform="translate(70.139 177.455)" fill="#559ba3"/>
        <rect id="Rectángulo_456354" data-name="Rectángulo 456354" width="0.88" height="100.432" transform="translate(199.918 177.455)" fill="#559ba3"/>
        <path id="Trazado_1002686" data-name="Trazado 1002686" d="M293.278,244.411H244.465V219.075h48.813Zm-47.933-.88H292.4V219.956H245.346Z" transform="translate(-39.657 -35.538)" fill="#559ba3"/>
        <rect id="Rectángulo_456355" data-name="Rectángulo 456355" width="39.134" height="15.657" transform="translate(209.647 188.376)" fill="#dad5d1"/>
        <path id="Trazado_1002687" data-name="Trazado 1002687" d="M293.278,314.14H244.465v-61.2h48.813Zm-47.933-.88H292.4V253.817H245.346Z" transform="translate(-39.657 -41.031)" fill="#559ba3"/>
        <rect id="Rectángulo_456356" data-name="Rectángulo 456356" width="39.134" height="51.525" transform="translate(209.647 216.746)" fill="#dad5d1"/>
        <path id="Trazado_1002688" data-name="Trazado 1002688" d="M110.313,294.031A11.732,11.732,0,1,1,98.58,282.3a11.733,11.733,0,0,1,11.732,11.732" transform="translate(-14.089 -45.794)" fill="#0e5a52"/>
        <path id="Trazado_1002689" data-name="Trazado 1002689" d="M108.539,294.457a9.532,9.532,0,1,1-9.532-9.532,9.532,9.532,0,0,1,9.532,9.532" transform="translate(-14.514 -46.22)" fill="#559ba3"/>
        <path id="Trazado_1002690" data-name="Trazado 1002690" d="M128.177,239.6a12.612,12.612,0,1,1-12.612-12.612A12.612,12.612,0,0,1,128.177,239.6" transform="translate(-16.701 -36.821)" fill="#0e5a52"/>
        <path id="Trazado_1002691" data-name="Trazado 1002691" d="M268.717,346.1H28.544a5.25,5.25,0,0,0-4.253,2.173L2.874,377.888H294.388l-21.417-29.62a5.249,5.249,0,0,0-4.253-2.173" transform="translate(-0.466 -56.143)" fill="#f9f3ef"/>
        <path id="Trazado_1002692" data-name="Trazado 1002692" d="M269.187,364.878l-8.453-13.785H48.629l-8.453,13.785Z" transform="translate(-6.517 -56.954)" fill="#8c794c"/>
        <path id="Trazado_1002693" data-name="Trazado 1002693" d="M269.187,363.653l-8.453-13.785H48.629l-8.453,13.785Z" transform="translate(-6.517 -56.755)" fill="#dad5d1"/>
        <path id="Trazado_1002694" data-name="Trazado 1002694" d="M103.774,369.3l-3.28,10.265H228.439l-3.28-10.265Z" transform="translate(-16.302 -59.907)" fill="#8c794c"/>
        <path id="Trazado_1002695" data-name="Trazado 1002695" d="M104.277,370.173l-3.257,10.265H228.084l-3.257-10.265Z" transform="translate(-16.387 -60.049)" fill="#dad5d1"/>
        <path id="Trazado_1002696" data-name="Trazado 1002696" d="M290.289,392.568H7.013a4.005,4.005,0,0,1-4.005-4.005v-4.733H294.295v4.733a4.006,4.006,0,0,1-4.005,4.005" transform="translate(-0.488 -62.264)" fill="#0e5a52"/>
        <path id="Trazado_1002697" data-name="Trazado 1002697" d="M314.083,388.438a1.618,1.618,0,1,1-1.619-1.619,1.619,1.619,0,0,1,1.619,1.619" transform="translate(-50.425 -62.749)" fill="#072d2d"/>
        <path id="Trazado_1002698" data-name="Trazado 1002698" d="M321.809,388.438a1.618,1.618,0,1,1-1.619-1.619,1.619,1.619,0,0,1,1.619,1.619" transform="translate(-51.678 -62.749)" fill="#072d2d"/>
        <path id="Trazado_1002699" data-name="Trazado 1002699" d="M329.536,388.438a1.618,1.618,0,1,1-1.619-1.619,1.619,1.619,0,0,1,1.619,1.619" transform="translate(-52.932 -62.749)" fill="#072d2d"/>
        <path id="Trazado_1002700" data-name="Trazado 1002700" d="M18.884,65.343H68.7v35.516H34.481v6.692L29.6,100.859H18.884Z" transform="translate(-3.063 -10.6)" fill="#f9f3ef"/>
        <path id="Trazado_1002701" data-name="Trazado 1002701" d="M63.265,77.044H28.606a.44.44,0,1,1,0-.88H63.265a.44.44,0,1,1,0,.88" transform="translate(-4.569 -12.355)" fill="#072d2d"/>
        <path id="Trazado_1002702" data-name="Trazado 1002702" d="M63.265,86.151H28.606a.44.44,0,1,1,0-.88H63.265a.44.44,0,1,1,0,.88" transform="translate(-4.569 -13.833)" fill="#072d2d"/>
        <path id="Trazado_1002703" data-name="Trazado 1002703" d="M66.748,95.259H50.079a.44.44,0,1,1,0-.88H66.748a.44.44,0,0,1,0,.88" transform="translate(-8.052 -15.31)" fill="#072d2d"/>
        <path id="Trazado_1002704" data-name="Trazado 1002704" d="M299.565,48.086H285.339a12,12,0,0,0-12,12V71.645a11.964,11.964,0,0,0,4.1,9.019L273.2,92.112l10.285-8.623a12.028,12.028,0,0,0,1.859.158h14.226a12,12,0,0,0,12-12V60.088a12,12,0,0,0-12-12" transform="translate(-44.317 -7.8)" fill="#e92227"/>
        <path id="Trazado_1002705" data-name="Trazado 1002705" d="M303.953,60.325H284.746a.44.44,0,0,1,0-.88h19.207a.44.44,0,1,1,0,.88" transform="translate(-46.12 -9.643)" fill="#f9f3ef"/>
        <path id="Trazado_1002706" data-name="Trazado 1002706" d="M303.953,69.8H284.746a.44.44,0,0,1,0-.88h19.207a.44.44,0,1,1,0,.88" transform="translate(-46.12 -11.18)" fill="#f9f3ef"/>
        <path id="Trazado_1002707" data-name="Trazado 1002707" d="M303.953,79.271H284.746a.44.44,0,0,1,0-.88h19.207a.44.44,0,1,1,0,.88" transform="translate(-46.12 -12.716)" fill="#f9f3ef"/>
        <path id="Trazado_1002708" data-name="Trazado 1002708" d="M228.9,286.823a16.544,16.544,0,1,1-16.544-16.544A16.544,16.544,0,0,1,228.9,286.823" transform="translate(-31.764 -43.844)" fill="#072d2d"/>
        <rect id="Rectángulo_456357" data-name="Rectángulo 456357" width="4.884" height="13.592" transform="translate(178.07 232.071)" fill="#559ba3"/>
        <path id="Trazado_1002709" data-name="Trazado 1002709" d="M217.991,299.532a3.132,3.132,0,1,1-3.132-3.132,3.132,3.132,0,0,1,3.132,3.132" transform="translate(-34.346 -48.082)" fill="#559ba3"/>
        <path id="Trazado_1002710" data-name="Trazado 1002710" d="M44.568,286.2a18.408,18.408,0,1,0-11.344,7.06,25.849,25.849,0,0,0,3.7-.562,35.137,35.137,0,0,0,9.342-3.56,8.3,8.3,0,0,0,3.759-3.442,22.333,22.333,0,0,1-5.459.5" transform="translate(-1.883 -41.684)" fill="#072d2d"/>
        <path id="Trazado_1002711" data-name="Trazado 1002711" d="M42.987,276.8a12.026,12.026,0,1,1-12.026-12.026A12.026,12.026,0,0,1,42.987,276.8" transform="translate(-3.072 -42.951)" fill="#e92227"/>
        <path id="Trazado_1002712" data-name="Trazado 1002712" d="M38.345,288.066h-.88a5.389,5.389,0,0,0-10.779,0h-.88a6.269,6.269,0,0,1,12.538,0" transform="translate(-4.186 -45.713)" fill="#072d2d"/>
        <path id="Trazado_1002713" data-name="Trazado 1002713" d="M32.445,275.612a4.369,4.369,0,0,1-4.363-4.362h.881a3.483,3.483,0,1,0,6.965,0h.88a4.368,4.368,0,0,1-4.362,4.362" transform="translate(-4.555 -44.002)" fill="#072d2d"/>
        <path id="Trazado_1002714" data-name="Trazado 1002714" d="M31,277.038a.99.99,0,1,1-1.98,0v-1.21a.99.99,0,1,1,1.98,0Z" transform="translate(-4.708 -44.584)" fill="#072d2d"/>
        <path id="Trazado_1002715" data-name="Trazado 1002715" d="M37.173,277.038a.99.99,0,1,1-1.98,0v-1.21a.99.99,0,1,1,1.98,0Z" transform="translate(-5.709 -44.584)" fill="#072d2d"/>
        <path id="Trazado_1002716" data-name="Trazado 1002716" d="M311.52,129.865a15.435,15.435,0,1,1-15.435-15.435,15.436,15.436,0,0,1,15.435,15.435" transform="translate(-45.526 -18.563)" fill="#072d2d"/>
        <path id="Trazado_1002717" data-name="Trazado 1002717" d="M308.44,132.836a1.1,1.1,0,0,0-.087-1.707c-.342-.215-.834-.261-1.008-.625s.121-.8.194-1.211a1.148,1.148,0,0,0-.847-1.27c-.439-.1-1.01.026-1.253-.353a1.625,1.625,0,0,1-.137-.617,1.841,1.841,0,0,0-2.08-1.213,21.278,21.278,0,0,0-2.545.725,9.472,9.472,0,0,1-2.275.147l-4.278-.069v8.374a10.15,10.15,0,0,1,9.97,8.355c.85,0,1.314-1.015,1.364-1.863a7.672,7.672,0,0,0-.788-3.589,1.391,1.391,0,0,1-.2-.826,1.021,1.021,0,0,1,.911-.691c.4-.057.816.006,1.216-.066.824-.149,1.5-1.136,1.064-1.851-.127-.209-.334-.385-.359-.628-.057-.538.708-.689,1.134-1.023" transform="translate(-47.712 -20.412)" fill="#fccfc9"/>
        <rect id="Rectángulo_456358" data-name="Rectángulo 456358" width="6.82" height="11.109" transform="translate(240.804 104.921)" fill="#559ba3"/>
        <path id="Trazado_1002718" data-name="Trazado 1002718" d="M293.339,135.563a.219.219,0,0,1-.22-.22v-9.49a.22.22,0,0,1,.44,0v9.49a.22.22,0,0,1-.22.22" transform="translate(-47.549 -20.38)" fill="#f9f3ef"/>
        <rect id="Rectángulo_456359" data-name="Rectángulo 456359" width="54.013" height="21.755" transform="translate(132.839 19.988)" fill="#072d2d"/>
        <path id="Trazado_1002719" data-name="Trazado 1002719" d="M206.753,29.678V51.434h-49.5l-4.518,4.518V29.678Z" transform="translate(-24.777 -4.814)" fill="#f9f3ef"/>
        <path id="Trazado_1002720" data-name="Trazado 1002720" d="M162.661,46.239a.658.658,0,0,1-.627-.867l2.58-7.774a.66.66,0,0,1,1.253.416l-2.58,7.774a.661.661,0,0,1-.627.451" transform="translate(-26.28 -6.026)" fill="#072d2d"/>
        <path id="Trazado_1002721" data-name="Trazado 1002721" d="M168.7,46.239a.658.658,0,0,1-.627-.867l2.58-7.774a.66.66,0,0,1,1.253.416l-2.58,7.774a.661.661,0,0,1-.627.451" transform="translate(-27.259 -6.026)" fill="#072d2d"/>
        <path id="Trazado_1002722" data-name="Trazado 1002722" d="M172.5,41.224H161.608a.66.66,0,1,1,0-1.32H172.5a.66.66,0,1,1,0,1.32" transform="translate(-26.109 -6.473)" fill="#072d2d"/>
        <path id="Trazado_1002723" data-name="Trazado 1002723" d="M171.381,44.9H160.492a.66.66,0,1,1,0-1.32h10.889a.66.66,0,1,1,0,1.32" transform="translate(-25.928 -7.069)" fill="#072d2d"/>
        <path id="Trazado_1002724" data-name="Trazado 1002724" d="M179.067,42.613a.678.678,0,0,1-.136-.013.661.661,0,0,1-.511-.782A50.055,50.055,0,0,1,180,36.009a.66.66,0,1,1,1.25.423,48.885,48.885,0,0,0-1.542,5.656.66.66,0,0,1-.645.525" transform="translate(-28.941 -5.769)" fill="#072d2d"/>
        <path id="Trazado_1002725" data-name="Trazado 1002725" d="M183.446,42.291a.671.671,0,0,1-.108-.008.661.661,0,0,1-.545-.759,19.551,19.551,0,0,1,1.917-5.787.66.66,0,0,1,1.173.6,18.227,18.227,0,0,0-1.787,5.4.66.66,0,0,1-.65.553" transform="translate(-29.651 -5.739)" fill="#072d2d"/>
        <path id="Trazado_1002726" data-name="Trazado 1002726" d="M177.983,48.214a.66.66,0,0,1-.595-.946l.569-1.183a.66.66,0,1,1,1.189.573l-.567,1.181a.662.662,0,0,1-.6.374" transform="translate(-28.765 -7.415)" fill="#072d2d"/>
        <path id="Trazado_1002727" data-name="Trazado 1002727" d="M182.012,48.042a.652.652,0,0,1-.169-.022.661.661,0,0,1-.469-.808,3.921,3.921,0,0,1,.707-1.413.66.66,0,1,1,1.035.818,2.6,2.6,0,0,0-.467.933.66.66,0,0,1-.638.491" transform="translate(-29.419 -7.389)" fill="#072d2d"/>
        <path id="Trazado_1002728" data-name="Trazado 1002728" d="M188.374,45.7a.659.659,0,0,1-.607-.4.624.624,0,0,1-.048-.169.66.66,0,0,1,0-.855,26.725,26.725,0,0,0,2.162-2.919,22.363,22.363,0,0,0-2.3-.846.66.66,0,0,1-.457-.733.637.637,0,0,1,.66-.558,24.67,24.67,0,0,0,3.447-.232q.552-1.1,1.005-2.246a.659.659,0,0,1,1.237.025q.314.9.663,1.8a30.841,30.841,0,0,1,6.071-.478.66.66,0,0,1,.338,1.206c-.957.647-2.847,1.717-4.878,2.809q.494,1.033,1.03,2.041a.66.66,0,0,1-1.01.813,22.96,22.96,0,0,0-2.243-1.68c-2,1.038-3.853,1.955-4.814,2.368a.665.665,0,0,1-.26.054m2.716-3.78q-.532.842-1.123,1.647c.657-.323,1.395-.694,2.167-1.091q-.514-.292-1.043-.556m.679-1.135q.891.451,1.745.974l.434-.23q-.334-.745-.646-1.5c-.4.061-.808.121-1.215.178-.1.194-.209.386-.318.577m2.878-.961q.229.543.468,1.082c.94-.507,1.842-1.005,2.626-1.454-1.035.079-2.071.219-3.095.372" transform="translate(-30.354 -5.893)" fill="#072d2d"/>
        <path id="Trazado_1002729" data-name="Trazado 1002729" d="M134.615,357.943l-33.04,8.934c-.933.287-1.067,2.716-.256,3.257l55.63,37.087a3.647,3.647,0,0,0,3.468.313l33.1-14.3c.87-.375,1.7-2.509.884-2.99l-56.576-31.928a4.013,4.013,0,0,0-3.214-.379" transform="translate(-16.349 -58.036)" fill="#e92227"/>
        <path id="Trazado_1002730" data-name="Trazado 1002730" d="M135.12,355.935l-32.993,10.123a1.157,1.157,0,0,0-.3,2.068l55.63,37.087a3.647,3.647,0,0,0,3.468.313l33.1-14.3a1.157,1.157,0,0,0,.128-2.059l-55.821-32.859a4.016,4.016,0,0,0-3.214-.378" transform="translate(-16.434 -57.711)" fill="#072d2d"/>
        <path id="Trazado_1002731" data-name="Trazado 1002731" d="M129.945,364.561c0,.406-.541.735-1.21.735s-1.21-.329-1.21-.735.541-.735,1.21-.735,1.21.329,1.21.735" transform="translate(-20.687 -59.019)" fill="#559ba3"/>
        <path id="Trazado_1002732" data-name="Trazado 1002732" d="M175.1,409.751c0,.368-.492.666-1.1.666s-1.1-.3-1.1-.666.491-.667,1.1-.667,1.1.3,1.1.667" transform="translate(-28.049 -66.361)" fill="#8c794c"/>
        <path id="Trazado_1002733" data-name="Trazado 1002733" d="M191.617,403c0,.368-.492.667-1.1.667s-1.1-.3-1.1-.667.491-.666,1.1-.666,1.1.3,1.1.666" transform="translate(-30.728 -65.266)" fill="#8c794c"/>
        <path id="Trazado_1002734" data-name="Trazado 1002734" d="M205,397.205c0,.368-.492.667-1.1.667s-1.1-.3-1.1-.667.491-.666,1.1-.666,1.1.3,1.1.666" transform="translate(-32.898 -64.326)" fill="#8c794c"/>
        <path id="Trazado_1002735" data-name="Trazado 1002735" d="M263.393,160a4.7,4.7,0,0,0-3.771-.053l-.347-.808a5.594,5.594,0,0,1,4.487.063Z" transform="translate(-42.059 -25.743)" fill="#c9bbb1"/>
        <path id="Trazado_1002736" data-name="Trazado 1002736" d="M245.037,348.643a89.725,89.725,0,0,1,22.2,3.012c7.039,1.874,13.881,4.617,21.127,5.477s15.278-.509,20.257-5.682c5.311-5.518,5.888-13.908,4.78-21.376-.684-4.609-2.089-9.459-5.766-12.455-3.171-2.585-19.826-14.614-23.944-15.068-17.492-1.925-22.836,11.24-40.276,13.56-3.724.5-15.069,3.586-17.724,6.164-2.17,2.108-2.732,5.213-3.3,8.139-.709,3.653.2,6.177,1.1,9.789s9.015,5.8,12.518,7.309c2.793,1.206,5.969,1.1,9.026,1.13" transform="translate(-36.035 -49.048)" fill="#072d2d"/>
        <path id="Trazado_1002737" data-name="Trazado 1002737" d="M229.059,328.041c-5.348-2.176-10.125-2.362-15.289.22-3.725,1.863-9.618,3.318-18.526,5.181-1.49-.166-3.375.1-6.257.062-3.183-.043-12.151-.81-16.865-.586a19.281,19.281,0,0,0-5.078,1.319,21.568,21.568,0,0,1-2.16.328,21.72,21.72,0,0,0-4.258.71,5.959,5.959,0,0,0-3.411,2.5,2.849,2.849,0,0,0-.433,1.559,1.711,1.711,0,0,0,.766,1.379,2.641,2.641,0,0,0,2.228-.074c1.153-.421.963-.692,2.006-1.338a1.824,1.824,0,0,1,1.245-.163c-.011.13-.023.259-.028.387a31.169,31.169,0,0,0-3.307,1.536c-.468.245-1.1.387-1.267.923a1.551,1.551,0,0,0,1.246,1.836,3.853,3.853,0,0,0,2.288-.573c-.528.329-1.13.8-1.092,1.463a1.171,1.171,0,0,0,1.032,1.02,3.04,3.04,0,0,0,1.469-.3c-.541.168-.534,1.115-.085,1.485a1.615,1.615,0,0,0,1.373.218.54.54,0,0,0-.249.5.775.775,0,0,0,.552.617,1.97,1.97,0,0,0,.831.017l3.689-.449c1.686.182,3.518.374,3.767.42,4.943.9,7.075-1.909,13.554-.323.542,1.162,1.279,1.837,2.259,1.654.6-.111,1.181-.2,1.768-.3.19.08.379.156.575.242,2.522,1.1,5.74.49,8.2-.71.266-.129.538-.28.811-.445,9.253-.335,17.779.662,27.359-.257,8.469-.814,8.528-3.63,9.2-10.266-1.642-4.775-3.242-7.886-7.92-9.789" transform="translate(-25.433 -52.943)" fill="#f49389"/>
        <path id="Trazado_1002738" data-name="Trazado 1002738" d="M202.914,345.544a2.275,2.275,0,0,0-1.464-.928,10.459,10.459,0,0,0-1.911-.359,48.893,48.893,0,0,1-6.782-1.024c-5.248-1.255-12.217-3.571-13.121-3.766a48.706,48.706,0,0,0-10.483-1.391,9.086,9.086,0,0,0-2.5.762,3.171,3.171,0,0,0-1.857,1.371,3.582,3.582,0,0,0-.219,2.284,8.25,8.25,0,0,0,4,6.153c2.048,1.132,5.155.585,7.646.482a17.336,17.336,0,0,0,5.266-1.178,7.577,7.577,0,0,1,3.293-1.072,8.56,8.56,0,0,1,3.906.447l.033.013a8.105,8.105,0,0,1,2.866,2,3.5,3.5,0,0,0,1.425,1.072,11.483,11.483,0,0,0,4.583.37,7.17,7.17,0,0,0,4.043-1.871,5.088,5.088,0,0,0,1.286-2.1,1.681,1.681,0,0,0-.008-1.263" transform="translate(-26.684 -54.842)" fill="#f7a5a1"/>
        <path id="Trazado_1002739" data-name="Trazado 1002739" d="M374.8,384.208c-.593-2.373-3.836-5.157-5.951-6.283-2.164-1.151-7.235-3.223-6.529-3.373s1.611.429,2.271.72a4.382,4.382,0,0,0,3.49-.07c.44-.617-1.792-1.552-2.356-2.059a6.018,6.018,0,0,0-2.164-1.344c-2.54-.637-4.773-.81-7.2-1.286.226-13.7,2.574-26.088,4.828-40.06a29.8,29.8,0,0,1-4.474-.385c-7.919-1.173-9.679-1.98-14.614-4.079-.086.97-.16,1.942-.2,2.915-.177,3.888.021,7.783.218,11.669.6,11.888,1.278,21.457,1.9,32.817a7.055,7.055,0,0,0-.677,2.051,8.132,8.132,0,0,0,2.978,7.458c1.933,1.544,4.434,2.174,6.549,3.456a12.173,12.173,0,0,1,4.574,4.98,4.52,4.52,0,0,0,.9,1.427,1.243,1.243,0,0,0,1.547.182c.647-.521-.192-2.28-.558-3.222-.816-2.1-1.933-2.889-3.189-4.757a7.422,7.422,0,0,1,4.444,3.64c1.172,1.813,2.792,4.893,4.886,4.52.768-1.842-3.49-9.3-6.056-10.391a8.548,8.548,0,0,1,6.525,2.873c1.738,1.787,3.825,5.1,5.745,4.046a17.733,17.733,0,0,0-7.818-9.877c6.247.524,8.917,6.02,10.941,4.433" transform="translate(-55.45 -52.882)" fill="#f49389"/>
        <path id="Trazado_1002740" data-name="Trazado 1002740" d="M358.255,316.52c.994-.2,1.988-.413,2.981-.635,2.06-12.771,4.62-25.5,6.926-38.212,1.779-9.8,3.414-19.773,2.383-29.68a19,19,0,0,0-1.983-7.387,8.292,8.292,0,0,0-5.98-4.387c-3.306-.382-6.372,1.865-8.445,4.47-6.33,7.952-6.418,18.992-6.9,29.146a225.684,225.684,0,0,1-2.666,25.428c-.874,5.377-1.939,10.74-2.421,16.158,3.6,4.408,10.34,5.74,16.108,5.1" transform="translate(-55.503 -38.312)" fill="#e92227"/>
        <path id="Trazado_1002741" data-name="Trazado 1002741" d="M357.148,326.826a25.486,25.486,0,0,1-13.9-4.119.33.33,0,0,1,.361-.552,24.787,24.787,0,0,0,17.97,3.6.336.336,0,0,1,.385.265.332.332,0,0,1-.265.385,24.919,24.919,0,0,1-4.549.416" transform="translate(-55.656 -52.251)" fill="#f49389"/>
        <path id="Trazado_1002742" data-name="Trazado 1002742" d="M307.991,317.746l-56.582.8c-4,4.755-10.1,7.823-16.224,9.474-7.992,2.155-16.382,2.437-24.429,4.377s-16.185,6.009-20.068,13.319a13.239,13.239,0,0,0-1.695,7.668,8.146,8.146,0,0,0,4.219,6.38c.014.966,54.122,2.86,64.592,2.651l21.569-.209c11.726.628,14.735,1.961,19.964-1.745s9.025-11.184,9.213-17.59c.28-9.493-3.35-13.681-.558-25.128" transform="translate(-30.647 -51.544)" fill="#072d2d"/>
        <path id="Trazado_1002743" data-name="Trazado 1002743" d="M327.482,338.246a.44.44,0,0,1-.44-.431l-.279-14.8a.439.439,0,0,1,.431-.448h.009a.44.44,0,0,1,.44.431l.279,14.8a.44.44,0,0,1-.431.448Z" transform="translate(-53.007 -52.327)" fill="#aa1f2f"/>
        <path id="Trazado_1002744" data-name="Trazado 1002744" d="M206.716,353.271q-8.941,0-17.839-.506a.44.44,0,0,1-.414-.464.434.434,0,0,1,.464-.414,313.615,313.615,0,0,0,40.624-.327c7.983-.584,17.169-1.542,25.165-5.536,8.477-4.235,14.243-11.691,15.049-19.457a.444.444,0,0,1,.483-.391.439.439,0,0,1,.391.483c-.836,8.062-6.787,15.785-15.531,20.153-8.14,4.066-17.428,5.036-25.495,5.627-7.593.555-15.248.833-22.9.833" transform="translate(-30.572 -52.911)" fill="#aa1f2f"/>
        <path id="Trazado_1002745" data-name="Trazado 1002745" d="M350.582,219.912c-4.393-2.49-9.727-2.425-14.775-2.285q-16.674.46-33.345,1.023c-3.349.112-6.87.277-9.727,2.032-5.5,3.379-6.267,10.926-6.434,17.381l-6.36,7.593c-4.687,20.756.628,19.056-2.932,27.013-5.771,12.9-8.586,18.847-17.45,32.906,24.78,9.6,51.391,1.318,60.588,6.671,3.571-18.97,12.936-29.7,20.981-39.032,9.023-10.462,16.844-19.425,17.95-33.2.615-7.662-1.809-16.315-8.5-20.105" transform="translate(-42.105 -35.294)" fill="#e92227"/>
        <path id="Trazado_1002746" data-name="Trazado 1002746" d="M306.158,243.687c.743-2.714,1-6.009-1.025-7.967a247.2,247.2,0,0,1-23.2,20.366q1.419,5.279,2.46,10.652a34.317,34.317,0,0,0,21.766-23.051" transform="translate(-45.735 -38.238)" fill="#aa1f2f"/>
        <path id="Trazado_1002747" data-name="Trazado 1002747" d="M316.857,219.822c-4.513.38-4.991-.541-5.77,1.846-1.619,4.961,5.461,16.131,9.6,19.307,2.094,1.605,4.816,2.709,5.9,5.114,1.366,3.034-.563,6.467-.785,9.787a9.614,9.614,0,0,0,2.443,7.016c1.908,2.1,4.706,3.3,6.4,5.575,1.959,2.631,2.068,6.162,2.049,9.443q-.026,4.658-.182,9.316c1.4-4.054,5.27-6.633,8.04-9.907,4.3-5.087,5.973-11.937,9.944-17.288,2.243-3.023,5.165-5.489,7.411-8.51s3.8-6.932,2.719-10.537c-.281-.938-.734-1.826-.928-2.786a13.1,13.1,0,0,1-.078-3.065,29.856,29.856,0,0,0-.813-8.045c-5.687-2.1-11.848-2.406-17.861-3.184s-12.215-2.166-16.92-5.991a4.135,4.135,0,0,0-1.681-1.006,3.735,3.735,0,0,0-1.934.3l-7.555,2.614" transform="translate(-50.426 -35.18)" fill="#aa1f2f"/>
        <path id="Trazado_1002748" data-name="Trazado 1002748" d="M291.967,194.853a16.612,16.612,0,0,0-8.559,5.365c.778-2.244,1.886-3.506,4.084-5.743.507-.516,1.659-1.491,2.1-2.062a1.882,1.882,0,0,0,.027-2.2,18.483,18.483,0,0,0-8.41,8.261c-.09-.057-.179-.114-.271-.169.56-2.574,1.569-4,3.686-6.634.47-.584,1.557-1.707,1.958-2.341a1.949,1.949,0,0,0-.2-2.274,19.162,19.162,0,0,0-8.072,10l-.116-.042a12.894,12.894,0,0,1,3.068-6.692c.441-.549,1.463-1.6,1.839-2.2a1.829,1.829,0,0,0-.186-2.135,17.971,17.971,0,0,0-7.766,10.02c-.541-.253-1.384-.442-1.748-.922-.693-.917.044-2.167-.225-3.283a3.559,3.559,0,0,0-2.545-2.565c.339,4.158-2.022,6.85-1.03,10.9a15.94,15.94,0,0,1,.118,6.38q-8.919,16.839-17.836,33.679c-2.4,4.532-4.868,9.35-4.614,14.471s4.384,10.424,9.493,9.97c3.2-.284,5.882-2.721,7.388-5.56s2.058-6.071,2.681-9.224c2.519-12.75,5.5-25.18,10.641-36.991a15.443,15.443,0,0,1,2.85-2.337c1.626-.621,2.346-2.6,3.222-4.11.1-.166.184-.333.267-.5.713-1.448,1.012-3.019,1.672-4.491.285-.633.768-.9,1.3-1.348a28.133,28.133,0,0,1,2.536-1.848c.54-.364,1.729-1.016,2.223-1.438a1.693,1.693,0,0,0,.419-1.936" transform="translate(-40.11 -30.171)" fill="#f49389"/>
        <path id="Trazado_1002749" data-name="Trazado 1002749" d="M297.02,220.162c-6.056.173-10.994,4.791-15.452,9.017-9.331,8.845-14.336,12.605-24.589,20.293-2.018,1.513-8.977,7.669-9.889,10.062-1.362,3.571.669,7.862,3.91,9.752s7.305,1.732,10.837.513,6.666-3.392,9.8-5.462a225.421,225.421,0,0,1,21.569-12.584c6.256-3.2,13.222-6.7,15.781-13.389a14.077,14.077,0,0,0-1.247-12.437,12.634,12.634,0,0,0-10.721-5.763" transform="translate(-40.013 -35.714)" fill="#e92227"/>
        <path id="Trazado_1002750" data-name="Trazado 1002750" d="M261.446,277.362a16.344,16.344,0,0,1-7.391-1.49,8.992,8.992,0,0,1-5.123-6.743.33.33,0,0,1,.657-.074,8.325,8.325,0,0,0,4.762,6.226,16.637,16.637,0,0,0,8.13,1.4.344.344,0,0,1,.342.318.33.33,0,0,1-.318.342q-.54.02-1.059.02" transform="translate(-40.381 -43.598)" fill="#f49389"/>
        <path id="Trazado_1002751" data-name="Trazado 1002751" d="M319.287,174.061a4.887,4.887,0,0,1-3.161-1.17.33.33,0,0,1,.432-.5,4.205,4.205,0,0,0,3.085.993.325.325,0,0,1,.358.3.329.329,0,0,1-.3.359c-.138.012-.277.018-.416.018" transform="translate(-51.263 -27.952)" fill="#072d2d"/>
        <path id="Trazado_1002752" data-name="Trazado 1002752" d="M329.21,153.287c-4.514.288-9.439,4.794-10.956,9.055-1.034,2.908-.008,4.105.07,7.19s-1.49,3.7-1.674,6.771c-.269,4.426,1.951,10.425,4.326,14.169.972,1.531,1.638,3.059,3.326,3.722,2.506.986,5.319,0,7.792-1.063,5.578-2.4,11.1-5.325,15.16-9.837s6.473-10.886,4.961-16.767a17.293,17.293,0,0,0-9.005-10.694,26.922,26.922,0,0,0-14-2.545" transform="translate(-51.363 -24.855)" fill="#f49389"/>
        <path id="Trazado_1002753" data-name="Trazado 1002753" d="M332.228,186.948a74.118,74.118,0,0,1-10.347,25.882c8.237,3.769,20.94,3.629,25.408,1.675a263.31,263.31,0,0,0-3.5-32.332,36.437,36.437,0,0,1-11.565,4.775" transform="translate(-52.215 -29.552)" fill="#f49389"/>
        <path id="Trazado_1002754" data-name="Trazado 1002754" d="M370.5,220.763c-1.1-3.854-4.77-6.765-5.385-10.665a11.029,11.029,0,0,0,.328,1.2,7.6,7.6,0,0,0,3.333,4.267.329.329,0,1,0,.322-.575,6.943,6.943,0,0,1-3.03-3.907,14.878,14.878,0,0,1-.648-4.7c.97-3.479,3.332-6.836,2.456-10.314-.863-3.429-4.5-5.338-6.415-8.308a11.911,11.911,0,0,1-1.665-7.031,21.241,21.241,0,0,0,3.073,7.49.33.33,0,0,0,.275.147.326.326,0,0,0,.183-.055.33.33,0,0,0,.093-.457,20.713,20.713,0,0,1-3.339-10.063c.257-1.7.643-3.394,1.02-5.022,1.159-5.012,1.9-10.924-1.567-14.73-2.923-3.214-6.95-7.132-10.874-9-3.2-1.52-8.563.029-11.936-1.047-5.134-1.637-9.238-2.842-14.24-.838a9.494,9.494,0,0,0-3.143,2.254,10.554,10.554,0,0,0-1.958,1.475,11.265,11.265,0,0,0-3.3,5.758,6.965,6.965,0,0,0,1.813,6.334.33.33,0,0,0,.456-.478,6.306,6.306,0,0,1-1.621-5.734,10.4,10.4,0,0,1,2.822-5.1,11.133,11.133,0,0,0-1.833,4.79c-.284,3.229,2.677,5.775,5.544,7.285s6.174,2.814,7.685,5.681c1.172,2.224.938,4.635.253,7.11a40.9,40.9,0,0,1-1.655,4.041c-.371.814-.756,1.656-1.1,2.5-1.523,3.733-1.784,6.77-.8,9.285a15.325,15.325,0,0,0,1.451,2.626,15.413,15.413,0,0,1,1.352,2.409.33.33,0,0,0,.3.205.333.333,0,0,0,.126-.025.329.329,0,0,0,.179-.43,15.885,15.885,0,0,0-1.407-2.517,14.8,14.8,0,0,1-1.392-2.51c-.826-2.1-.7-4.631.379-7.693a9.376,9.376,0,0,0,.257,6.1c1.224,2.76,4.253,4.718,4.575,7.7a31.8,31.8,0,0,1-4.023,5.646,28.064,28.064,0,0,0-4.548,6.716,14.392,14.392,0,0,0,.667,12.363.33.33,0,1,0,.576-.322,13.719,13.719,0,0,1-.634-11.784,27.511,27.511,0,0,1,4.448-6.551,39.834,39.834,0,0,0,3.45-4.605c-.506,2.584-2.971,4.649-4.715,6.817-5.105,6.347-3.942,16.779,2.436,21.844,1.313,1.042,2.856,1.966,4.275,2.964a12.634,12.634,0,0,1,2.115,4.151,8.326,8.326,0,0,1-2.076,8.389.331.331,0,0,0-.029.466.329.329,0,0,0,.466.029,9,9,0,0,0,2.275-9.061,12.365,12.365,0,0,0-1.168-2.76,7.221,7.221,0,0,1,2.737,4.389c.569,3.759-2.817,7.367-1.993,11.079.488,2.192,2.315,3.779,3.812,5.452s2.8,4,1.955,6.078a10.858,10.858,0,0,0,7.917-5.963c-.033.1-.06.2-.095.3a11.409,11.409,0,0,1-4.441,6.283.33.33,0,0,0,.175.609.324.324,0,0,0,.175-.05,12.047,12.047,0,0,0,4.717-6.627,44.079,44.079,0,0,0,1.216-4.676c.168-.757.346-1.529.537-2.3,1.328-1.8,3.532-2.9,5.5-4.093a31.624,31.624,0,0,0,11.533-12.248c1.618-3.073,2.73-6.666,1.776-10.006" transform="translate(-50.926 -23.702)" fill="#072d2d"/>
        <path id="Trazado_1002755" data-name="Trazado 1002755" d="M184.341,362.7c2.632,2.429,12.983,6.556,16.54,6.979,3.135.372,6.273-.5,9.288-1.437,4.154-1.289,8.373-2.771,11.69-5.585s2.812-12.7,1.9-16.956c-.851-3.962-8.52-3.546-11.622-6.154-2.172-1.826-4.545-3.739-7.375-3.953a12.987,12.987,0,0,0-5.728,1.293,118.879,118.879,0,0,0-11.488,5.359c-3.379,1.8-6.928,4.073-8.116,7.713-1.494,4.577,1.372,9.477,4.91,12.741" transform="translate(-29.041 -54.436)" fill="#072d2d"/>
        <path id="Trazado_1002756" data-name="Trazado 1002756" d="M254.291,360.186a28.45,28.45,0,0,0-5.152-.659,86.091,86.091,0,0,1-21.68-9.484c-1.49-.915-2.957-1.876-4.445-2.793a15.42,15.42,0,0,0-10.54,5.405c-3.97,5.1-3.184,10.936.229,15.383a169.536,169.536,0,0,1,18.154-.017c-1.83,3.127-5,7.935-7.864,11.8a27.99,27.99,0,0,0-3.3,6.4c-.9,2.284-2.319,4.25-2.229,6.826a3.265,3.265,0,0,0,.494,1.8,1.5,1.5,0,0,0,1.65.619,1.81,1.81,0,0,0,.974-1.2c.157-.473.233-.973.425-1.43.007.008.012.018.018.025.126.147.268.277.406.41-.014,1.257-.547,3.272-.048,4.26.817,1.614,1.747-.049,2.53-.88-.11,2.97,1.76,4.29,3.08.55,0,3.85,3.354,2.915,3.465-.55.219,1.1.488,2.406,1.98,2.585a2.438,2.438,0,0,0,2.392-1.568A8.482,8.482,0,0,0,236.2,392.5l.482-1.16q.622-.464,1.22-.948c5.214-4.21,2.438-9.181,13.973-14.414,2.817-1.278,4.5-4.489,5.093-7.524.561-2.875.114-7.37-2.676-8.264" transform="translate(-34.034 -56.33)" fill="#f49389"/>
        <path id="Trazado_1002757" data-name="Trazado 1002757" d="M258.6,368.544A6.438,6.438,0,0,0,257.5,365.8a2.3,2.3,0,0,0-1.206-.986,2.5,2.5,0,0,0-1.911.514,10.438,10.438,0,0,0-1.683,1.34,48.539,48.539,0,0,1-5.74,4.955c-4.88,3.47-11.979,7.569-12.8,8.183a48.345,48.345,0,0,0-8.689,7.809,9.274,9.274,0,0,0-1.035,2.721,3.557,3.557,0,0,0,0,2.655,4.9,4.9,0,0,0,2.015,1.982c2.581,1.61,5.856,2.641,8.653,1.441,2.636-1.13,4.191-3.945,5.832-6.114a17.324,17.324,0,0,0,2.584-5.4c.5-2.119.194-1.771,1.3-3.638a8.521,8.521,0,0,1,3.17-2.967l.036-.016a8.992,8.992,0,0,1,3.916-.861,3.928,3.928,0,0,0,2.02-.368,11.358,11.358,0,0,0,3.572-3.6,7.565,7.565,0,0,0,1.066-4.9" transform="translate(-36.366 -59.172)" fill="#f7a5a1"/>
        <path id="Trazado_1002758" data-name="Trazado 1002758" d="M238,402.964a5.064,5.064,0,0,0-1.762,2.742,1.085,1.085,0,0,0,.2,1.123,1.068,1.068,0,0,0,1.2-.15,4.269,4.269,0,0,0,1.814-2.8c.075-.451.015-1.019-.4-1.2a1.088,1.088,0,0,0-1.055.293" transform="translate(-38.312 -65.312)" fill="#f7a5a1"/>
        <path id="Trazado_1002759" data-name="Trazado 1002759" d="M233.163,407.258a1.231,1.231,0,0,0-.152-.968.732.732,0,0,0-.912-.161,1.363,1.363,0,0,0-.514.819,2.062,2.062,0,0,0-.123.818.732.732,0,0,0,1.335.417,1.8,1.8,0,0,0,.366-.925" transform="translate(-37.546 -65.867)" fill="#f7a5a1"/>
        <path id="Trazado_1002760" data-name="Trazado 1002760" d="M228.53,408.181a.988.988,0,0,0-.545-1.613,2.041,2.041,0,0,0-.546,1.056c-.032.4.287.854.686.8a.677.677,0,0,0,.4-.241" transform="translate(-36.895 -65.953)" fill="#f7a5a1"/>
        <path id="Trazado_1002761" data-name="Trazado 1002761" d="M225.277,405.938a.91.91,0,0,0,.061-.8.5.5,0,0,0-.7-.223,1.694,1.694,0,0,0-.411.786.584.584,0,0,0,.443.672.682.682,0,0,0,.606-.431" transform="translate(-36.373 -65.673)" fill="#f7a5a1"/>
        <path id="Trazado_1002762" data-name="Trazado 1002762" d="M221.088,401.608a.693.693,0,0,0-.426.312,1.684,1.684,0,0,0-.413.984.765.765,0,0,0,.609.781.754.754,0,0,0,.709-.442,1.612,1.612,0,0,0,.114-.87c-.033-.359-.235-.807-.593-.763" transform="translate(-35.728 -65.148)" fill="#f7a5a1"/>
        <path id="Trazado_1002763" data-name="Trazado 1002763" d="M324.379,162.938a6.29,6.29,0,0,1,1.369,4.282,33.383,33.383,0,0,0,.04,4.6c.374,2.455,1.853,4.575,3.245,6.632s2.778,4.272,2.918,6.752c1.016-2.323,2.033-4.651,2.813-7.063a18.97,18.97,0,0,0,1.025-5.1,11.832,11.832,0,0,0-1.1-5.03c-1.419-3.353-5.1-4.749-8.746-4.672Z" transform="translate(-52.62 -26.432)" fill="#072d2d"/>
        <path id="Trazado_1002764" data-name="Trazado 1002764" d="M327.428,178.362a5.931,5.931,0,0,1,.825-2.2,2.338,2.338,0,0,1,1.988-1.077c1.227.091,1.993,1.4,2.234,2.606a7.438,7.438,0,0,1-6.395,8.832Z" transform="translate(-52.896 -28.401)" fill="#f49389"/>
        <path id="Trazado_1002765" data-name="Trazado 1002765" d="M327.083,175.328a.329.329,0,0,1-.266-.136,14.072,14.072,0,0,1-2.641-9.144.336.336,0,0,1,.353-.307.33.33,0,0,1,.306.352,13.409,13.409,0,0,0,2.515,8.71.33.33,0,0,1-.266.524" transform="translate(-52.582 -26.886)" fill="#072d2d"/>
        <path id="Trazado_1002766" data-name="Trazado 1002766" d="M267.244,160.8c-9.919,8.594-22.437,8.653-34.17,11.146-.132-3.757.426-6.069.293-9.826,9.972-1.906,15.3-4.126,23.465-10.412-2.053-6.159-5.28-15.838-10.12-22,1.722-5.317,6.179-9.788,7.9-15.105,6.851,6.4,10.05,22.728,14.83,30.8a14.807,14.807,0,0,1,1.759,8.653,13.472,13.472,0,0,1-3.959,6.746" transform="translate(-37.806 -18.591)" fill="#072d2d"/>
        <path id="Trazado_1002767" data-name="Trazado 1002767" d="M186.5,116.173c1.734,59.066-52.877,85.01-47.45,132.524,8.882-18.369,21.537-20.742,36.967-34.967s31.775-27.793,44.667-44.02,18.291-35.535,18.584-56.358c-15.251-7.333-29.623-10.853-52.768,2.821" transform="translate(-22.494 -17.338)" fill="#072d2d"/>
        <path id="Trazado_1002768" data-name="Trazado 1002768" d="M233.36,124.25h-.135a24.931,24.931,0,0,1-13.057-3.785,11.562,11.562,0,0,1-3.969-3.709,5.875,5.875,0,0,1-.54-5.35.22.22,0,0,1,.4.182,5.435,5.435,0,0,0,.516,4.94,11.145,11.145,0,0,0,3.827,3.564,24.487,24.487,0,0,0,12.826,3.717h.132a11.948,11.948,0,0,0,6.374-1.49,6.117,6.117,0,0,0,3.09-5.493.22.22,0,0,1,.2-.24.224.224,0,0,1,.24.2,6.565,6.565,0,0,1-3.3,5.909,12.369,12.369,0,0,1-6.6,1.554" transform="translate(-34.916 -18.051)" fill="#f9f3ef"/>
        <path id="Trazado_1002769" data-name="Trazado 1002769" d="M219.18,186.327l-.588-.655a97.588,97.588,0,0,0,31.643-62.85l.875.09a98.472,98.472,0,0,1-31.93,63.415" transform="translate(-35.46 -19.924)" fill="#c9bbb1"/>
        <path id="Trazado_1002770" data-name="Trazado 1002770" d="M238.277,106.467a9.613,9.613,0,0,0-2.083-1.2c.365-3.668.85-7.324,1.484-10.956a24.464,24.464,0,0,1-8.085-5.287c-.549-.54-1.278-1.158-1.991-.868a1.942,1.942,0,0,0-.9,1.255l-6.014,16.607c-.208.095-.418.182-.622.284a6.5,6.5,0,0,0-1.9,1.312,2.827,2.827,0,0,0-.819,2.1,3.979,3.979,0,0,0,1.394,2.345A21.064,21.064,0,0,0,232.04,118a10.467,10.467,0,0,0,6.3-1.272,6.051,6.051,0,0,0,2.6-3.373,6.755,6.755,0,0,0-2.662-6.886" transform="translate(-35.256 -14.289)" fill="#fccfc9"/>
        <path id="Trazado_1002771" data-name="Trazado 1002771" d="M231.234,102.973a4.5,4.5,0,0,0,3,2.1c1.489.132,2.779-.963,3.831-2.025a13.494,13.494,0,0,1-9.257-8.641,13.059,13.059,0,0,0,2.425,8.564" transform="translate(-37.111 -15.315)" fill="#072d2d"/>
        <path id="Trazado_1002772" data-name="Trazado 1002772" d="M254.5,78.5a1.741,1.741,0,0,1-.515,1.294q-.888-2.143-1.977-4.2a9.186,9.186,0,0,0,2.443-.815A11.028,11.028,0,0,1,254.5,78.5" transform="translate(-40.88 -12.13)" fill="#8c794c"/>
        <path id="Trazado_1002773" data-name="Trazado 1002773" d="M249.983,87.071c.174-2.686-1.376-2.568.593-7.729L248.609,73l-17.96-1.234s-3.533,12.994-1.9,19.388c.739,2.895,2.02,5.776,4.341,7.633,2.874,2.3,6.763,2.634,10.5,2.7a1.138,1.138,0,0,0,1.158-1.054c.3-5.079,4.9-8.168,5.234-13.365" transform="translate(-37.037 -11.642)" fill="#fccfc9"/>
        <path id="Trazado_1002774" data-name="Trazado 1002774" d="M251.812,72.46A14.973,14.973,0,0,1,247,75.367a5.228,5.228,0,0,1-1.4.35,5.619,5.619,0,0,1-1.715-.209,20.575,20.575,0,0,1-4.553-1.912,4.451,4.451,0,0,0-1.433-.164,1.618,1.618,0,0,0-.576.245,4.836,4.836,0,0,1-3.123.8c-1.155,1.6-.554,6.514-1.026,7.186-1.373,1.954-1.91-.634-1.722,1.746-1.883.864-3.2,3.173-4.329,4.914-.409-3.361-1.125-7.622-1.534-10.984a5.008,5.008,0,0,1,.826-4l3.272-5.864,2.561.373a8.185,8.185,0,0,1,2.975-1.614,13.707,13.707,0,0,1,8.953.419,20.773,20.773,0,0,1,7.46,5.14l-1.234.9c.691-.094.993.009,1.418-.231" transform="translate(-36.577 -10.653)" fill="#8c794c"/>
        <path id="Trazado_1002775" data-name="Trazado 1002775" d="M232.159,83.186a1.879,1.879,0,0,0-2.345-1.624,3,3,0,0,0-2.3,1.924,4.127,4.127,0,0,0,.2,3.067,7.3,7.3,0,0,0,1.927,2.438,3.135,3.135,0,0,0,1.51.834,1.318,1.318,0,0,0,1.448-.737Z" transform="translate(-36.873 -13.226)" fill="#fccfc9"/>
        <path id="Trazado_1002776" data-name="Trazado 1002776" d="M246.7,100.648a.943.943,0,0,0,.426-.089.964.964,0,0,0,.36-.565c.278-.814.719-2.035,1-2.85a22.727,22.727,0,0,1-4.446-.364,1.364,1.364,0,0,0-.706,0,1.279,1.279,0,0,0-.655.9,6.284,6.284,0,0,0-.013,3.035c1.41-.07,2.628,0,4.038-.065" transform="translate(-39.335 -15.692)" fill="#072d2d"/>
        <path id="Trazado_1002777" data-name="Trazado 1002777" d="M248.889,92.753a1.3,1.3,0,0,1-.271-.027,5.885,5.885,0,0,0-2.4.013.336.336,0,0,1-.392-.253.331.331,0,0,1,.253-.393,6.558,6.558,0,0,1,2.676-.013.724.724,0,0,0,.844-.548,7.654,7.654,0,0,0-.572-5.052l-.092-.183a3.53,3.53,0,0,1-.4-1.031.33.33,0,0,1,.272-.379.322.322,0,0,1,.38.271,2.954,2.954,0,0,0,.331.838l.1.19a8.21,8.21,0,0,1,.623,5.493,1.392,1.392,0,0,1-1.349,1.072" transform="translate(-39.876 -13.77)" fill="#072d2d"/>
        <path id="Trazado_1002778" data-name="Trazado 1002778" d="M250.458,83.618l-.193-.715.318-.465a8.715,8.715,0,0,1,2.771-.943l.607-.1-.205,1.147-.209.167a6.881,6.881,0,0,0-2.321.658Z" transform="translate(-40.598 -13.204)" fill="#8c794c"/>
        <path id="Trazado_1002779" data-name="Trazado 1002779" d="M244.538,83l-.968-.068a9.182,9.182,0,0,0-2.143-1.017,3.2,3.2,0,0,0-2.183.616l-.493.369-.4-1.22.153-.136a4.3,4.3,0,0,1,3.261-.814,10.294,10.294,0,0,1,2.425,1.138l.65.5Z" transform="translate(-38.665 -13.084)" fill="#8c794c"/>
        <path id="Trazado_1002780" data-name="Trazado 1002780" d="M242.565,86.676a.54.54,0,0,0,.3.1.607.607,0,0,0,.49-.338,1.613,1.613,0,0,0,.156-.6,1.879,1.879,0,0,0-.029-.8.625.625,0,0,0-1.2-.11,1.513,1.513,0,0,0-.133.776,1.184,1.184,0,0,0,.411.972" transform="translate(-39.281 -13.712)" fill="#072d2d"/>
        <path id="Trazado_1002781" data-name="Trazado 1002781" d="M251.712,87.033a.451.451,0,0,0,.253.08.508.508,0,0,0,.41-.281,1.352,1.352,0,0,0,.13-.5,1.563,1.563,0,0,0-.024-.666.523.523,0,0,0-1-.091,1.265,1.265,0,0,0-.111.648.989.989,0,0,0,.343.812" transform="translate(-40.776 -13.828)" fill="#072d2d"/>
        <path id="Trazado_1002782" data-name="Trazado 1002782" d="M183.608,123.032c-3.556,3.2-7.117,6.4-10.368,9.908-2.285,2.465-8.055,6.653-9.068,9.859-1.9,6.021.674,12.594,4.317,17.753s12.37,14.162,15.618,19.577c2.12-1.841,7.119-2.777,9.239-4.62-3.74-6.61-12.1-19.566-15.838-26.177,6.342-5.337,16.321-8.991,20.531-16.131,1.685-2.856.917-10.916-1.173-13.492-1.477-1.821-3.5-3.1-5.72-2.347s-5.794,4.1-7.538,5.669" transform="translate(-26.527 -19.003)" fill="#072d2d"/>
        <path id="Trazado_1002783" data-name="Trazado 1002783" d="M191.6,147.18l-.594-.649.1-.087c3.5-3.2,7.121-6.5,9.306-10.69l.78.407c-2.256,4.325-5.935,7.683-9.493,10.932Z" transform="translate(-30.985 -22.022)" fill="#c9bbb1"/>
        <path id="Trazado_1002784" data-name="Trazado 1002784" d="M174.525,329.964q-.9-10.654-1.059-21.353a131.7,131.7,0,0,1-34.172,1.441c-1.661,6.572-3.329,13.216-4.341,19.912Z" transform="translate(-21.892 -50.062)" fill="#072d2d"/>
        <path id="Trazado_1002785" data-name="Trazado 1002785" d="M174.121,317.077a31.331,31.331,0,0,1-7.477,2.125,133.97,133.97,0,0,1-29.571,2.165q-.542,2.178-1.082,4.356c12.6,2.758,25.713.281,38.3-2.559l-.168-6.087" transform="translate(-22.06 -51.436)" fill="#f9f3ef"/>
        <path id="Trazado_1002786" data-name="Trazado 1002786" d="M255.6,224.817c.477-.357.94-.731,1.383-1.129.384-.345.734-.719,1.1-1.082a2.677,2.677,0,0,1,1.159-.545,19.024,19.024,0,0,1,2.074-.562c.434-.1,1.354-.227,1.774-.377a1.158,1.158,0,0,0,.741-1.135,11.37,11.37,0,0,0-6.785,1.339,9.825,9.825,0,0,1,4.015-2.675c.451-.206,1.426-.548,1.851-.8a1.289,1.289,0,0,0,.555-1.4,12.656,12.656,0,0,0-7.4,3.228c-.043-.059-.086-.116-.131-.174.986-1.51,1.981-2.177,3.979-3.342.443-.259,1.413-.711,1.824-1.019a1.334,1.334,0,0,0,.43-1.5,13.121,13.121,0,0,0-7.609,4.424L254.5,218a8.834,8.834,0,0,1,3.6-3.53c.416-.244,1.328-.669,1.714-.957a1.254,1.254,0,0,0,.4-1.412,12.308,12.308,0,0,0-7.417,4.51c-.284-.294-.777-.622-.891-1.017-.219-.756.558-1.376.658-2.155a2.437,2.437,0,0,0-1-2.263c-.8,2.742-2.967,3.886-3.324,6.721-.334,2.658-1.743,4.4-2.576,6.034a24.067,24.067,0,0,1,3.65,4.806c.018.031,4.826-2.9,5.254-3.188q.525-.356,1.035-.736" transform="translate(-39.851 -34.257)" fill="#fccfc9"/>
        <path id="Trazado_1002787" data-name="Trazado 1002787" d="M187.73,245.458c19.6-3.147,32.358-11.9,49.467-21.978,1.232,1.862,4.055,4.8,5.286,6.657-15.606,17.57-32.049,26.176-54.04,34.46a37.229,37.229,0,0,0,.191-15.271Z" transform="translate(-30.453 -36.253)" fill="#559ba3"/>
        <path id="Trazado_1002788" data-name="Trazado 1002788" d="M196.634,261.525a.213.213,0,0,1-.075-.413A124.489,124.489,0,0,0,242.9,230.371a.213.213,0,0,1,.31.292,124.947,124.947,0,0,1-46.506,30.848.209.209,0,0,1-.075.013" transform="translate(-31.863 -37.36)" fill="#f9f3ef"/>
        <path id="Trazado_1002789" data-name="Trazado 1002789" d="M147.979,248.964a21.5,21.5,0,0,0-8.309,11.079c-4.212,16.286-2.29,33.022-3.035,50.705,11.717,1.917,27.909-1.918,38.135-3.623,2.663-28.335,6.133-32.16,11.91-44.263,3.364-7.049,0-15.239-7.809-15.389l-18.321-.852c-2.828-.054-10.116.863-12.57,2.343" transform="translate(-22.165 -40.006)" fill="#559ba3"/>
        <path id="Trazado_1002790" data-name="Trazado 1002790" d="M152.6,274c.483,6.814-1.081,13.66-3.365,20.32a38.681,38.681,0,0,1-11.256,17.112,116.581,116.581,0,0,1-.054-16.822c5.661-6.117,11.257-13.008,14.675-20.61" transform="translate(-22.329 -44.448)" fill="#072d2d"/>
        <path id="Trazado_1002791" data-name="Trazado 1002791" d="M194.488,263.767a.2.2,0,0,1-.07-.012.213.213,0,0,1-.132-.271A16.673,16.673,0,0,0,194.2,252.4a.213.213,0,0,1,.127-.273.217.217,0,0,1,.273.128,17.1,17.1,0,0,1,.087,11.366.214.214,0,0,1-.2.144" transform="translate(-31.501 -40.898)" fill="#f9f3ef"/>
        <path id="Trazado_1002792" data-name="Trazado 1002792" d="M171.01,256.434a18.342,18.342,0,0,1-14.04-6.587.213.213,0,0,1,.33-.27,17.857,17.857,0,0,0,16.316,6.228A4.352,4.352,0,0,0,176.2,254.7a1.94,1.94,0,0,0,.467-1.457,1.217,1.217,0,0,0-.489-.888.214.214,0,0,1,.245-.35,1.646,1.646,0,0,1,.669,1.19,2.354,2.354,0,0,1-.575,1.791,4.733,4.733,0,0,1-2.835,1.243,17.214,17.214,0,0,1-2.671.207" transform="translate(-25.456 -40.473)" fill="#f9f3ef"/>
        <path id="Trazado_1002793" data-name="Trazado 1002793" d="M176.138,237.939c-3.205-.274-6.844-1.687-9.85-2.812-1.516,3.929-3.036,8.376-5.456,11.826a11.635,11.635,0,0,0,13.054,4.416,43.577,43.577,0,0,1,2.252-13.43" transform="translate(-26.09 -38.142)" fill="#fccfc9"/>
        <path id="Trazado_1002794" data-name="Trazado 1002794" d="M174.956,249.005a43.61,43.61,0,0,1,2.156-11.041c-3.084-.264-6.565-1.58-9.5-2.681-2.534,7.223,1.491,11.437,7.346,13.722" transform="translate(-27.064 -38.167)" fill="#072d2d"/>
        <path id="Trazado_1002795" data-name="Trazado 1002795" d="M184.542,231.977c.149-2.3-1.18-2.2.509-6.625l-1.686-5.436-15.4-1.057s-4.134,7.839-2.735,13.321c.633,2.481,2.837,8.25,4.826,9.842,2.463,1.97,5.8,2.258,9,2.316a.975.975,0,0,0,.992-.9c.261-4.354,4.2-7,4.487-11.457" transform="translate(-26.757 -35.503)" fill="#fccfc9"/>
        <path id="Trazado_1002796" data-name="Trazado 1002796" d="M183.873,218.642a2.116,2.116,0,0,0-.158-2.5,2.087,2.087,0,0,0-2.451-.453,1.205,1.205,0,0,0-.154-1.236c-.258-.351-.785-1.18-1.182-1.357-1.587-.713-2.549-.938-4.16-.245.15-.522-.989-1.011-1.527-1.028a3.734,3.734,0,0,0-1.7.764c-1.319-2.177-3.165-.872-4.274.365-.256-.851-1.486-1.019-2.23-.522a4.436,4.436,0,0,0-1.43,2.221c-.989-.173-1.851.786-2.154,1.753s-.28,2.022-.675,2.955c-.442,1.041-1.4,1.958-1.289,3.078.08.824.732,1.471.953,2.267.208.748.018,1.557.157,2.321s.627,2.1,1.337,1.779c.214,1.354.174.842.39,2.195.086.544.809,2.516,1.354,2.58.337.04.6.407.844.163a5.465,5.465,0,0,0,1.159-2.557c-.052-.043-.106-.084-.155-.127a6.245,6.245,0,0,1-1.653-2.089,3.537,3.537,0,0,1-.173-2.629,2.493,2.493,0,0,1,1.975-1.65,1.95,1.95,0,0,1,1.3.348.9.9,0,0,0-.415-.435,2.656,2.656,0,0,0,2.249-2.871,3.679,3.679,0,0,0,4.294.072,2.691,2.691,0,0,1,1.823.2,3.383,3.383,0,0,0,1.815.338c.615-.125,1.165-.8.906-1.371a4.061,4.061,0,0,0,5.322.092,1.547,1.547,0,0,0,1.885-1.426,1.306,1.306,0,0,0-1.973-1" transform="translate(-26.032 -34.296)" fill="#e92227"/>
        <path id="Trazado_1002797" data-name="Trazado 1002797" d="M181.929,243.615a.794.794,0,0,0,.364-.076.822.822,0,0,0,.309-.483c.239-.7.617-1.745.855-2.444a19.425,19.425,0,0,1-3.812-.312,1.16,1.16,0,0,0-.606,0,1.1,1.1,0,0,0-.561.77,5.392,5.392,0,0,0-.012,2.6c1.209-.06,2.254,0,3.462-.056" transform="translate(-28.925 -38.974)" fill="#072d2d"/>
        <path id="Trazado_1002798" data-name="Trazado 1002798" d="M185.545,228.846a.32.32,0,0,1-.152-.6,7.27,7.27,0,0,1,2.309-.786.325.325,0,0,1,.366.265.319.319,0,0,1-.265.366,6.617,6.617,0,0,0-2.106.717.319.319,0,0,1-.152.039" transform="translate(-30.047 -36.898)" fill="#072d2d"/>
        <path id="Trazado_1002799" data-name="Trazado 1002799" d="M179.67,228.428a.32.32,0,0,1-.16-.044,7.872,7.872,0,0,0-2.161-.979,2.456,2.456,0,0,0-2.094.385.32.32,0,0,1-.407-.493,3.107,3.107,0,0,1,2.639-.516,8.355,8.355,0,0,1,2.343,1.051.32.32,0,0,1-.161.6" transform="translate(-28.345 -36.774)" fill="#072d2d"/>
        <path id="Trazado_1002800" data-name="Trazado 1002800" d="M183.794,236.7a1.167,1.167,0,0,1-.239-.024,4.99,4.99,0,0,0-2.045.01.319.319,0,1,1-.136-.624,5.583,5.583,0,0,1,2.309-.011.585.585,0,0,0,.681-.442,6.535,6.535,0,0,0-.488-4.306l-.079-.156a3.032,3.032,0,0,1-.343-.9A1.224,1.224,0,0,1,183.95,229a.32.32,0,1,1,.332.546.6.6,0,0,0-.2.6,2.5,2.5,0,0,0,.281.71l.082.162a7.087,7.087,0,0,1,.538,4.734,1.232,1.232,0,0,1-1.193.948" transform="translate(-29.381 -37.14)" fill="#072d2d"/>
        <path id="Trazado_1002801" data-name="Trazado 1002801" d="M178.381,231.639a.461.461,0,0,0,.26.082.519.519,0,0,0,.421-.288,1.391,1.391,0,0,0,.133-.514,1.592,1.592,0,0,0-.025-.684.536.536,0,0,0-1.026-.095,1.31,1.31,0,0,0-.114.666,1.016,1.016,0,0,0,.352.833" transform="translate(-28.879 -37.278)" fill="#072d2d"/>
        <path id="Trazado_1002802" data-name="Trazado 1002802" d="M186.223,231.945a.383.383,0,0,0,.217.069.433.433,0,0,0,.351-.241,1.144,1.144,0,0,0,.111-.429,1.339,1.339,0,0,0-.021-.571.448.448,0,0,0-.857-.079,1.086,1.086,0,0,0-.1.556.849.849,0,0,0,.294.7" transform="translate(-30.161 -37.376)" fill="#072d2d"/>
        <path id="Trazado_1002803" data-name="Trazado 1002803" d="M148.62,249.926c-2.977-1.227-6.172,1.172-8.226,3.652-5.487,6.623-6.818,12.821-10.184,23.408-2.606,8.2-5.281,25.2,1.985,24,5.136,1.688,9.536-7.866,10.6-15.994,2.136-4.207,2.523-5.369,4.659-9.577,2.441-4.81,4.917-9.722,5.742-15.052.493-3.188-1.6-9.207-4.58-10.437" transform="translate(-20.682 -40.489)" fill="#559ba3"/>
        <path id="Trazado_1002804" data-name="Trazado 1002804" d="M152.925,273.56a4.666,4.666,0,0,1,1.45-1.85,1.478,1.478,0,0,1,.267-.168,2.927,2.927,0,0,0,1.318-.956c1.45-2.146,1.021-4.416.832-6.651a31.208,31.208,0,0,1,.438-8.437,3.763,3.763,0,0,0-3.25,4.191c.064.387.142.888-.2,1.076a.41.41,0,0,1-.173.035,7.265,7.265,0,0,0-1.859-1.386c-.194-.15-.39-.3-.6-.43a12.7,12.7,0,0,1-3.867-4.427,3.678,3.678,0,0,0-.535-.849,1.052,1.052,0,0,0-.9-.361.627.627,0,0,0-.527.72,1.046,1.046,0,0,0-.683-.932.93.93,0,0,0-1.069.385.839.839,0,0,0,.238,1.087.779.779,0,0,0-1.128.3,1.621,1.621,0,0,0,.018,1.3,10.956,10.956,0,0,1,.488,1.252.317.317,0,0,0-.411.159.846.846,0,0,0-.049.482c.267,2.547,1.869,4.731,3.451,6.745.245.311.489.625.731.942a2.853,2.853,0,0,1,.106,3.312c-.935,1.382-2.015,2.815-3.17,4.281a11.077,11.077,0,0,0,7.851,3.561c.277-.875.568-1.751.887-2.623.011-.029.163-.37.339-.767" transform="translate(-23.125 -41.056)" fill="#fccfc9"/>
        <path id="Trazado_1002805" data-name="Trazado 1002805" d="M141.393,277.319c-4.833,6.128-11.034,12.848-13.922,19.021-.746,12.889,8.2,11.292,15.02,5.007,3.435-6.336,5.374-13.952,7.6-20.985-2.991-.194-6.728-.757-8.7-3.043" transform="translate(-20.671 -44.986)" fill="#559ba3"/>
        <path id="Trazado_1002806" data-name="Trazado 1002806" d="M129.29,296.942a.213.213,0,0,1-.213-.2c-.145-2.5,1.237-4.742,2.664-6.828,2.686-3.924,5.585-7.778,8.614-11.451a.213.213,0,1,1,.328.271c-3.021,3.663-5.911,7.507-8.591,11.421-1.387,2.025-2.728,4.2-2.59,6.562a.214.214,0,0,1-.2.225Z" transform="translate(-20.937 -45.159)" fill="#f9f3ef"/>
        <path id="Trazado_1002807" data-name="Trazado 1002807" d="M113.8,57.633c-3.576.269-6.166,3.537-7.1,6.846s-.712,6.815-1.33,10.191c-.79,4.315-2.925,8.276-4.6,12.354a60.864,60.864,0,0,0-3.619,12.454,30.319,30.319,0,0,0-.3,10.626,15.762,15.762,0,0,0,5.053,9.3,26.99,26.99,0,0,0,7.561,4.021,4.6,4.6,0,0,0,1.691.44,4.661,4.661,0,0,0,1.7-.445,203.38,203.38,0,0,1,26.414-8.558,16.557,16.557,0,0,1-1.937-5.761c-.54-3.881.327-7.843-.173-11.73-.648-5.037-3.526-9.549-4.878-14.457-1.185-4.3-1.182-8.84-2.427-13.124a14.609,14.609,0,0,0-1.8-4.062,18.629,18.629,0,0,0-2.817-3.148c-2.113-1.983-4.977-3.963-7.788-3.071Z" transform="translate(-15.654 -9.349)" fill="#072d2d"/>
        <path id="Trazado_1002808" data-name="Trazado 1002808" d="M208.4,80.322c.434-.325.856-.666,1.26-1.029.349-.314.669-.654,1-.985a2.444,2.444,0,0,1,1.056-.5A17.5,17.5,0,0,1,213.6,77.3c.4-.092,1.234-.207,1.616-.343a1.056,1.056,0,0,0,.675-1.035,10.366,10.366,0,0,0-6.181,1.22,8.955,8.955,0,0,1,3.659-2.436c.411-.188,1.3-.5,1.685-.732a1.173,1.173,0,0,0,.506-1.278,11.525,11.525,0,0,0-6.738,2.941c-.039-.054-.08-.107-.12-.159a9.066,9.066,0,0,1,3.625-3.044c.4-.235,1.287-.648,1.661-.927a1.216,1.216,0,0,0,.391-1.369,11.955,11.955,0,0,0-6.93,4.031l-.059-.05A8.04,8.04,0,0,1,210.67,70.9c.38-.221,1.21-.608,1.561-.871a1.143,1.143,0,0,0,.368-1.286,11.209,11.209,0,0,0-6.756,4.108c-.259-.267-.708-.565-.813-.927-.2-.688.509-1.252.6-1.963a2.219,2.219,0,0,0-.911-2.061c-.729,2.5-2.7,3.54-3.029,6.122-.3,2.421-1.588,4.008-2.347,5.5a21.938,21.938,0,0,1,3.325,4.377c.016.028,4.4-2.641,4.785-2.9q.479-.324.943-.67" transform="translate(-32.337 -11.015)" fill="#fccfc9"/>
        <path id="Trazado_1002809" data-name="Trazado 1002809" d="M147.775,113.622c-1.683-7.238-1.618-11.392-4.923-18.047,8.441,2.553,17.713,1.307,25.848-2.1s15.259-8.846,21.806-14.757l5.118,6.59c-12.314,13.8-16.173,21.862-47.849,28.314" transform="translate(-23.173 -12.77)" fill="#0e5a52"/>
        <path id="Trazado_1002810" data-name="Trazado 1002810" d="M196.6,85.953a.438.438,0,0,0-.619.06c-11.6,14.112-28.819,23.5-45.95,25.326.047.29.093.579.141.869,17.34-1.862,34.752-11.363,46.488-25.636a.439.439,0,0,0-.06-.619" transform="translate(-24.339 -13.927)" fill="#072d2d"/>
        <path id="Trazado_1002811" data-name="Trazado 1002811" d="M102.439,158.055H132.72c.9-1.9,1.388-4.057,2.273-6.073,2.3-5.247.642-7.186,6.306-17.892,3.225-6.094,5.273-12.114,2.492-19.5-5.572-14.811-2.443-16.891-10.717-16.272l-20.519,1.534c-6.965.385-14.794,5.8-12.319,12.319,9.355,24.648,4.3,32.59,2.2,45.889" transform="translate(-16.184 -15.933)" fill="#e92227"/>
        <path id="Trazado_1002812" data-name="Trazado 1002812" d="M105.836,157.266a.428.428,0,0,1-.121-.017.441.441,0,0,1-.3-.544,79.351,79.351,0,0,0-.418-44.343.44.44,0,0,1,.841-.256,80.238,80.238,0,0,1,.424,44.84.44.44,0,0,1-.423.32" transform="translate(-17.029 -18.135)" fill="#072d2d"/>
        <path id="Trazado_1002813" data-name="Trazado 1002813" d="M124.407,94.115l-.33.44Z" transform="translate(-20.128 -15.267)" fill="#072d2d"/>
        <path id="Trazado_1002814" data-name="Trazado 1002814" d="M106.59,156.741l-3.08-1.32c-.88,9.239-8.963,13.352-9.306,24.418-.575,18.538,10.571,35.76,10.991,54.3,4.31,4.707,11.459,7.1,18.535-.481,3.081-15.445,3.432-31.16,5.929-46.71,1.793-11.164,3.381-21.9,6.37-32.275-12.072,3.423-17.16,4.654-29.439,2.066" transform="translate(-15.278 -25.091)" fill="#072d2d"/>
        <path id="Trazado_1002815" data-name="Trazado 1002815" d="M106.053,161.46a16.981,16.981,0,0,0,1.221-3.813c-.827-.273-1.651-.566-2.471-.895a18.673,18.673,0,0,1-1.746,5.332c.744.42,1.5.794,2.26,1.146l.735-1.77" transform="translate(-16.718 -25.428)" fill="#f9f3ef"/>
        <path id="Trazado_1002816" data-name="Trazado 1002816" d="M131.125,159.428a18.6,18.6,0,0,0-1.328,6.483,53.73,53.73,0,0,0,10.157-2.427c.608-2.221.709-4.294,1.614-6.489a54.2,54.2,0,0,1-10.443,2.434" transform="translate(-21.055 -25.467)" fill="#f9f3ef"/>
        <path id="Trazado_1002817" data-name="Trazado 1002817" d="M126.691,159.72a43.968,43.968,0,0,1-17.577-1.443q-1.1,2.811-2.18,5.63a36.062,36.062,0,0,0,17.982,2.342l1.774-6.529" transform="translate(-17.347 -25.675)" fill="#f9f3ef"/>
        <path id="Trazado_1002818" data-name="Trazado 1002818" d="M110.476,69.854a15.524,15.524,0,0,0,3.777,6.553c1.979,2.219,4.4,4.217,7.31,4.844a3.735,3.735,0,0,0,2.9-.333,4.651,4.651,0,0,0,1.459-2.313c1.305-3.446,5.232-3.98,7.972-6.443,1.2-1.076,1.176-4.379,1.45-5.965.142-.821-1.078-2.4-1.407-3.163a12.03,12.03,0,0,0-8.24-6.618,13.167,13.167,0,0,0-11.452,2.514,11.265,11.265,0,0,0-3.776,10.924" transform="translate(-17.878 -9.09)" fill="#072d2d"/>
        <path id="Trazado_1002819" data-name="Trazado 1002819" d="M132.622,95.944A37.242,37.242,0,0,1,129.4,82.479c-3.09.488-6.618-.745-9.743-.632.457,5.4.522,10.4-1.851,15.27,5.793,3.593,13.786,3.079,14.812-1.174" transform="translate(-19.111 -13.276)" fill="#fccfc9"/>
        <path id="Trazado_1002820" data-name="Trazado 1002820" d="M121.561,81.877c1.068,5.373,4.986,7.859,9.743,8.715a43.949,43.949,0,0,1-1.291-8.106c-2.672.421-5.669-.441-8.452-.609" transform="translate(-19.719 -13.282)" fill="#072d2d"/>
        <path id="Trazado_1002821" data-name="Trazado 1002821" d="M134.967,67.714c-.22,1.815-.557,2.051,0,3.354a16.854,16.854,0,0,1,.989,3.41c.646,2.8-.054,3.354-1.82,8.441a7.812,7.812,0,0,1-.515,1.074,3.166,3.166,0,0,1-3.922,1.551c-3.994-1.472-9.244-3.664-10.692-7.082-1.671-3.943-1.52-8.323,1.095-11.714s7.583-4.925,11.481-3.152Z" transform="translate(-19.128 -10.196)" fill="#fccfc9"/>
        <path id="Trazado_1002822" data-name="Trazado 1002822" d="M132.285,85.531c.016.242.085.528.314.611a.686.686,0,0,0,.427-.035l2.145-.655a1.026,1.026,0,0,0,.509-.27.966.966,0,0,0,.02-.946c-.138-.379.148-1.144-.282-1.262-.627.306-1.642-.11-2.29.148a1.451,1.451,0,0,0-.741,1.1,4.578,4.578,0,0,0-.1,1.313" transform="translate(-21.457 -13.46)" fill="#072d2d"/>
        <path id="Trazado_1002823" data-name="Trazado 1002823" d="M136.682,74.349a.579.579,0,0,0,.323-.545,1.715,1.715,0,0,0-.173-.646,1.315,1.315,0,0,0-.26-.445.44.44,0,0,0-.473-.115c-.228.106-.252.415-.243.666a1.7,1.7,0,0,0,.155.78.582.582,0,0,0,.67.3" transform="translate(-22.038 -11.772)" fill="#072d2d"/>
        <path id="Trazado_1002824" data-name="Trazado 1002824" d="M128.5,75.311a1.4,1.4,0,0,0-.48-1.28c-.168-.139-.437-.228-.587-.07a.453.453,0,0,0-.1.26,1.894,1.894,0,0,0,.271,1.259.576.576,0,0,0,.509.329c.224-.031.354-.275.39-.5" transform="translate(-20.653 -11.984)" fill="#072d2d"/>
        <path id="Trazado_1002825" data-name="Trazado 1002825" d="M123.754,71.728a.33.33,0,0,1-.23-.567,3.415,3.415,0,0,1,2.412-.813,7.343,7.343,0,0,1,3.291.726.33.33,0,1,1-.285.6,6.723,6.723,0,0,0-3-.661,2.791,2.791,0,0,0-1.96.627.331.331,0,0,1-.23.093" transform="translate(-20.022 -11.412)" fill="#8c794c"/>
        <path id="Trazado_1002826" data-name="Trazado 1002826" d="M135.107,71.312a.33.33,0,0,1-.22-.576,11.237,11.237,0,0,0,1.22-1.282,1.905,1.905,0,0,1,1.125-.831.33.33,0,1,1,.1.653c-.258.038-.481.312-.7.578a12.092,12.092,0,0,1-1.3,1.373.33.33,0,0,1-.22.084" transform="translate(-21.863 -11.132)" fill="#8c794c"/>
        <path id="Trazado_1002827" data-name="Trazado 1002827" d="M132.89,79.792a.33.33,0,0,1-.258-.535,2.167,2.167,0,0,1,1.5-.63,1.617,1.617,0,0,0,1.074-.4c.163-.22.167-.557.008-1.094a11,11,0,0,0-1.211-2.7l-.078-.124a3.812,3.812,0,0,1-.483-.958,1.434,1.434,0,0,1,.25-1.38.33.33,0,0,1,.489.442.813.813,0,0,0-.106.751,3.262,3.262,0,0,0,.409.793l.079.127a11.649,11.649,0,0,1,1.284,2.859,1.89,1.89,0,0,1-.114,1.676,2.113,2.113,0,0,1-1.507.653,1.668,1.668,0,0,0-1.075.388.33.33,0,0,1-.259.125" transform="translate(-21.504 -11.659)" fill="#072d2d"/>
        <path id="Trazado_1002828" data-name="Trazado 1002828" d="M117.038,75.061a1.107,1.107,0,0,0-1.5.1A2.2,2.2,0,0,0,115,76.694a4.7,4.7,0,0,0,3.53,4.549,2.583,2.583,0,0,0,2.921-1.025Z" transform="translate(-18.655 -12.136)" fill="#fccfc9"/>
        <path id="Trazado_1002829" data-name="Trazado 1002829" d="M120.383,59.68a10.235,10.235,0,0,1,5.591-1.615,16.007,16.007,0,0,1,5.663.479,7.579,7.579,0,0,1,4.457,3.349,5.018,5.018,0,0,1-.2,5.39c-5.7-2.118-12.983-.469-17.794,3.248-.493-.177-.435-1.1-.614-1.589a5.416,5.416,0,0,1-.1-1.7,12.392,12.392,0,0,1,.607-4.157,7.189,7.189,0,0,1,2.389-3.407" transform="translate(-19.039 -9.411)" fill="#072d2d"/>
        <path id="Trazado_1002830" data-name="Trazado 1002830" d="M124.1,62.745a1.533,1.533,0,0,0-.689-.647,1.32,1.32,0,0,0-.844,1.143c-.092-.15-.41-.419-.5-.569a2.219,2.219,0,0,0-.619.821.757.757,0,0,0-1.18.5l-.226-.529-.484.557a1.058,1.058,0,0,0-1.393-.178,2.449,2.449,0,0,0-.886,1.239,7.9,7.9,0,0,0-.5,3.69,5.647,5.647,0,0,1,1.216-2.611.8.8,0,0,1,1.186-.078,1.6,1.6,0,0,0,.27.222c.39.271.7-.1.9-.532.089-.189.1-.321.234-.677a.668.668,0,0,1,.9-.378c.235.106.469.214.717.3l.692-.746a8.51,8.51,0,0,1,4.29-.462,7.2,7.2,0,0,0-.014-1.227c1.21.2,1.283.66,1.707.943.089-.307.276-.691.364-1a11.942,11.942,0,0,0,4.584.816,7.19,7.19,0,0,0-3.838-2.559,3.09,3.09,0,0,1,.794,1.542c-.66-.55-.8-.88-1.395-1.07a.716.716,0,0,0-.887.343.431.431,0,0,1-.64.1c-.474-.39-1.232-.08-1.734.293-1.467-.568-1.513.015-2.017.751" transform="translate(-18.937 -9.86)" fill="#559ba3"/>
        <path id="Trazado_1002831" data-name="Trazado 1002831" d="M115.686,73.4a6.664,6.664,0,0,1-1.018-.89,10.9,10.9,0,0,1,5.985-2.754,5.009,5.009,0,0,0-1.222,3.482,7.512,7.512,0,0,1-.777,3.66,11.741,11.741,0,0,0-2.967-3.5" transform="translate(-18.601 -11.317)" fill="#072d2d"/>
        <path id="Trazado_1002832" data-name="Trazado 1002832" d="M162.37,136.766l-1.95-5.632a1.14,1.14,0,0,1-.092-.521c.079-.545.805-.666,1.361-.689a12.534,12.534,0,0,0,5.783-1.7,21.823,21.823,0,0,1,3.244-1.87c2.217-.828,4.765-.256,7.008-1.01.283.727-.356,1.513-1.082,1.814s-1.545.311-2.283.582-1.481.856-1.294,1.613c3.487,1.522,7.006,2.1,11.352,3.312-.937,2.254-4.617.324-8.065-.183a1.969,1.969,0,0,1,.591,1.442c-.08.5-.519.671-.826,1.069-.583.757.034,1.115-.9,1.35-.695.173-1.03.982-1.573,1.286a2.958,2.958,0,0,1-2.053.173,9.216,9.216,0,0,1-2.6-1.189,7.186,7.186,0,0,0-6.619.154" transform="translate(-26.007 -20.333)" fill="#fccfc9"/>
        <path id="Trazado_1002833" data-name="Trazado 1002833" d="M105.822,120.091A65.018,65.018,0,0,0,144.9,134.966c2.911.122,10.422-1.1,10.422-1.1s2.082-5.9.824-8.524c-13.394.361-26.7-4.383-36.015-14.019-2.623-2.714-4.993-5.787-8.259-7.678s-7.829-2.249-10.528.389c-2.246,2.2-2.511,5.863-1.366,8.788s3.445,5.239,5.843,7.269" transform="translate(-16.111 -16.569)" fill="#0e5a52"/>
        <path id="Trazado_1002834" data-name="Trazado 1002834" d="M145.575,137.682a61.645,61.645,0,0,1-43.3-17.957.44.44,0,1,1,.627-.617,60.548,60.548,0,0,0,49.235,17.312.44.44,0,0,1,.1.874,57.044,57.044,0,0,1-6.661.388" transform="translate(-16.57 -19.3)" fill="#072d2d"/>
        <path id="Trazado_1002835" data-name="Trazado 1002835" d="M118.783,109.958c-2.1-2.257-4.273-4.592-7.073-5.948-3.028-1.466-6.368-1.339-8.51.324l-.54-.7c2.4-1.866,6.107-2.031,9.433-.421,2.95,1.429,5.28,3.933,7.335,6.141Z" transform="translate(-16.653 -16.565)" fill="#c9bbb1"/>
        <path id="Trazado_1002836" data-name="Trazado 1002836" d="M157.78,127.689a48.05,48.05,0,0,1-33.573-13.916l.624-.621a47.1,47.1,0,0,0,34.617,13.625l.034.879q-.851.033-1.7.033" transform="translate(-20.149 -18.356)" fill="#c9bbb1"/>
        <path id="Trazado_1002837" data-name="Trazado 1002837" d="M63.428,169.876c2.054,2.84,7.479,4.729,11.109,8.689,3.995,4.357,6.471,6.11,7.039,9.568.4,2.411.1,3.26-.88,5.5-3.072,7.046-6.741,14.512-11.989,20.128-1.363-2.327-2.817-4.492-4.18-6.82,2.795-2.739,2.948-8.583,5.169-11.805a4.722,4.722,0,0,0,1.026-3.666c-.285-1.063.036-1.761-.876-2.375l-9.51-6.395Z" transform="translate(-9.788 -27.557)" fill="#072d2d"/>
        <path id="Trazado_1002838" data-name="Trazado 1002838" d="M86.83,251.159c-3.45,5.283-8.922,9.633-15.13,12.817a145.222,145.222,0,0,1,19.6,31.237c3.406-14.99.074-30.283-4.468-44.054" transform="translate(-11.631 -40.743)" fill="#fccfc9"/>
        <path id="Trazado_1002839" data-name="Trazado 1002839" d="M89.569,251.159c-.307.471-.649.925-.988,1.38a110.776,110.776,0,0,1,6.832,31.426c.291-11.278-2.436-22.471-5.844-32.806" transform="translate(-14.369 -40.743)" fill="#072d2d"/>
        <path id="Trazado_1002840" data-name="Trazado 1002840" d="M78.762,237.913c-1.276-3.87-2.647-7.62-3.991-11.212-5.141-13.734-8.686-25.925-6.508-41.172.441-3.08-4.586-7.886-5.609-8.91-4.289-4.289-3.9-7.8-9.76-8.633-10.254-1.464-17.005-.725-32.09,7.094l-1.173,10.265c1.7,9.753,12.993,18.653,18.478,26.983,4.882,7.416-.431,14.54,9.407,22.613a118.931,118.931,0,0,1,15.958,15.922c6.272-3.218,11.8-7.612,15.289-12.951" transform="translate(-3.185 -27.152)" fill="#8c794c"/>
        <path id="Trazado_1002841" data-name="Trazado 1002841" d="M78.762,237.65c-1.276-3.87-2.647-7.62-3.991-11.212-5.141-13.734-8.686-25.925-6.508-41.172.441-3.081-4.586-7.887-5.609-8.91-4.289-4.289-3.9-7.8-9.76-8.633-10.254-1.464-17.005-.725-32.09,7.093l-1.173,10.266c1.7,9.753,12.993,18.652,18.478,26.983,4.882,7.416-.431,14.54,9.407,22.613A118.931,118.931,0,0,1,63.474,250.6c6.272-3.218,11.8-7.612,15.289-12.951" transform="translate(-3.185 -27.109)" fill="#0e5a52"/>
        <path id="Trazado_1002842" data-name="Trazado 1002842" d="M65.323,251.368,50.2,235.321c-2.241-2.378-4.128-4.571-4.527-7.316a14.524,14.524,0,0,1-.1-2.055,14.282,14.282,0,0,0-.114-2.182c-.07-.453-.183-.9-.293-1.335a8.57,8.57,0,0,1-.349-2.039c0-.221-.015-.438-.028-.647-.059-.963-.055-1.431.645-1.541a.222.222,0,0,0,.186-.226.22.22,0,0,0-.2-.21,2.073,2.073,0,0,1-.8-.208,2.345,2.345,0,0,0-.574-.194c.426-.736.018-1.207-.411-1.7a4.084,4.084,0,0,1-.781-1.169,19.3,19.3,0,0,0-3.127-5.132,108.675,108.675,0,0,1-8.782-10.372c-.6-.768-1.2-1.551-1.831-2.353-4.156-5.3-6.079-11-5.415-16.052a.22.22,0,1,0-.436-.058c-.679,5.174,1.275,10.992,5.5,16.382.629.8,1.236,1.583,1.831,2.35a109.208,109.208,0,0,0,8.817,10.412,18.761,18.761,0,0,1,3.032,4.987,4.5,4.5,0,0,0,.857,1.291c.483.558.7.813.187,1.444a.22.22,0,0,0,.152.359,2.04,2.04,0,0,1,.8.207c.075.034.154.07.246.1-.416.385-.375,1.054-.335,1.707.012.2.024.411.026.624a9.076,9.076,0,0,0,.363,2.144c.107.424.219.862.285,1.294a14.055,14.055,0,0,1,.109,2.115,14.783,14.783,0,0,0,.1,2.119c.418,2.872,2.35,5.121,4.642,7.555l15.007,15.929.432-.184" transform="translate(-3.753 -29.254)" fill="#f9f3ef"/>
        <path id="Trazado_1002843" data-name="Trazado 1002843" d="M18.758,129.054a4.566,4.566,0,0,0-3.968-.649,7.585,7.585,0,0,0-5.59,7.431,13.264,13.264,0,0,0,1.341,4.721,20.063,20.063,0,0,0,3.49,5.77,8.488,8.488,0,0,0,5.927,2.887,56.365,56.365,0,0,1,1.17-19.7Z" transform="translate(-1.492 -20.801)" fill="#8c794c"/>
        <path id="Trazado_1002844" data-name="Trazado 1002844" d="M22.5,128.456a5.617,5.617,0,0,0-6.123,1.438,11.564,11.564,0,0,0-2.788,5.988c-.506,2.527-.5,5.482,1.344,7.284a3.261,3.261,0,0,0,2.46,1.012,2.077,2.077,0,0,0,1.911-1.666Z" transform="translate(-2.158 -20.772)" fill="#072d2d"/>
        <path id="Trazado_1002845" data-name="Trazado 1002845" d="M17.049,145.487a16.84,16.84,0,0,0,5.585,6.189c2.7,1.951,5.22,2.157,8.55,2.144a4.179,4.179,0,0,0,3.1-1.062,5.208,5.208,0,0,0,1.041-2.881c.6-4.083,4.767-5.613,7.173-8.966,1.051-1.464.234-5.074.152-6.876-.043-.932-1.757-2.363-2.3-3.121a13.472,13.472,0,0,0-10.605-5.26,14.747,14.747,0,0,0-11.924,5.5c-2.766,3.6-2.744,10.239-.769,14.329" transform="translate(-2.538 -20.383)" fill="#8c794c"/>
        <path id="Trazado_1002846" data-name="Trazado 1002846" d="M20.526,137.6l-.44-.99-.556,0c.065.235-.387.357-.449.121a1.176,1.176,0,0,1-.965-.441A2.335,2.335,0,0,1,17.754,135a9.02,9.02,0,0,0-.424,6.582,8.573,8.573,0,0,1,1.3-4.215,2.338,2.338,0,0,1-.127,1.128,2.568,2.568,0,0,0-.15,1.127.852.852,0,0,0,.747.746c.382,0,.693-.517.43-.794a1.367,1.367,0,0,1,1.134,1.12,19.739,19.739,0,0,1,2.373-4.426,7.167,7.167,0,0,0-2.515,1.331" transform="translate(-2.741 -21.9)" fill="#c9bbb1"/>
        <path id="Trazado_1002847" data-name="Trazado 1002847" d="M54.557,167.495a5.478,5.478,0,0,0-3.61-1.478c-.358-.045-.717-.072-1.077-.106-4.32-3.748-9.412-8.441-10.29-12.972-2.836-.073-7.223.913-9.972,1.614,2.161,4.682,4.942,9.393,4.261,13.554a4.889,4.889,0,0,0-.95.642,2.927,2.927,0,0,0-1.01,2.854c.34,1.2,1.589,1.864,2.752,2.3,6.42,2.433,13.595,1.963,20.18,3.906a33.166,33.166,0,0,0,.653-6.765,5.426,5.426,0,0,0-.937-3.554" transform="translate(-4.803 -24.809)" fill="#fccfc9"/>
        <path id="Trazado_1002848" data-name="Trazado 1002848" d="M46.275,162.382c-3.064-2.971-5.785-6.246-6.4-9.443a38.2,38.2,0,0,0-8.481,1.249c2.383,6.911,8.616,8.977,14.886,8.193" transform="translate(-5.092 -24.809)" fill="#072d2d"/>
        <path id="Trazado_1002849" data-name="Trazado 1002849" d="M58.66,180.89l-.045,0a.439.439,0,0,1-.393-.482c.094-.918.272-1.83.444-2.71.161-.825.328-1.677.42-2.518a7.2,7.2,0,0,0-.846-4.817,3.489,3.489,0,0,0-4.036-1.528.44.44,0,0,1-.343-.81,4.39,4.39,0,0,1,5.115,1.854,8.047,8.047,0,0,1,.985,5.4c-.1.876-.266,1.748-.431,2.59-.168.862-.342,1.753-.431,2.631a.441.441,0,0,1-.437.4" transform="translate(-8.693 -27.212)" fill="#072d2d"/>
        <path id="Trazado_1002850" data-name="Trazado 1002850" d="M44.7,141.015a6.886,6.886,0,0,0-.735-1.256c-2.507-3.53-2.151-2.657-2.454-4.729a2.571,2.571,0,0,0-1.01-1.687l-3.125-2.323c-1.809-.387-2.129,1.306-3.97,2.063-2.936,1.2-7.213,2.186-8.47,4.852a11.089,11.089,0,0,0-.347,8.047l-.295-.223a1.24,1.24,0,0,0-1.614.47,2.465,2.465,0,0,0-.224,1.807,5.264,5.264,0,0,0,4.955,4.128,3.732,3.732,0,0,0,.576-.043c2.781,2.7,8.3,3.7,12.583,4.292a3.579,3.579,0,0,0,3.963-2.632c.09-.352.189-.776.306-1.3,1.111-4.989,1.085-8.611-.139-11.466" transform="translate(-3.631 -21.245)" fill="#fccfc9"/>
        <path id="Trazado_1002851" data-name="Trazado 1002851" d="M29.615,144.454a.331.331,0,0,1-.321-.253,1.575,1.575,0,0,1,.423-1.4,2.829,2.829,0,0,1,1.071-.65,15.06,15.06,0,0,1,4.175-.922.33.33,0,0,1,.059.658,14.426,14.426,0,0,0-3.993.879,2.259,2.259,0,0,0-.833.49.922.922,0,0,0-.259.8.331.331,0,0,1-.244.4.354.354,0,0,1-.078.009" transform="translate(-4.747 -22.909)" fill="#8c794c"/>
        <path id="Trazado_1002852" data-name="Trazado 1002852" d="M42.142,140.026a.33.33,0,0,1-.269-.521,7.9,7.9,0,0,1,2.363-2.187.33.33,0,1,1,.339.566,7.213,7.213,0,0,0-2.164,2,.33.33,0,0,1-.27.139" transform="translate(-6.783 -22.268)" fill="#8c794c"/>
        <path id="Trazado_1002853" data-name="Trazado 1002853" d="M36.1,146.362a.649.649,0,0,0,.108-.7,1.908,1.908,0,0,0-.45-.6,1.455,1.455,0,0,0-.456-.354.493.493,0,0,0-.54.08c-.192.205-.088.536.027.793a1.911,1.911,0,0,0,.487.746.652.652,0,0,0,.824.036" transform="translate(-5.622 -23.467)" fill="#072d2d"/>
        <path id="Trazado_1002854" data-name="Trazado 1002854" d="M45.321,142.745a.648.648,0,0,0,.223-.674,1.9,1.9,0,0,0-.344-.665,1.458,1.458,0,0,0-.391-.424.493.493,0,0,0-.545-.012c-.224.171-.176.514-.106.787a1.911,1.911,0,0,0,.357.817.652.652,0,0,0,.807.172" transform="translate(-7.154 -22.855)" fill="#072d2d"/>
        <path id="Trazado_1002855" data-name="Trazado 1002855" d="M44.406,149.764a.33.33,0,0,1-.309-.446,2.714,2.714,0,0,1,.7-.938l.186-.189c.176-.186.461-.545.388-.865s-.454-.518-.873-.718a7.756,7.756,0,0,1-2.652-1.886,3.633,3.633,0,0,1-.849-3.214.33.33,0,0,1,.638.17,3.02,3.02,0,0,0,.717,2.621,7.152,7.152,0,0,0,2.43,1.713c.431.206,1.082.517,1.232,1.165a1.63,1.63,0,0,1-.551,1.467l-.2.2a2.171,2.171,0,0,0-.544.7.331.331,0,0,1-.309.214" transform="translate(-6.634 -22.916)" fill="#072d2d"/>
        <path id="Trazado_1002856" data-name="Trazado 1002856" d="M43.287,155.8c.076.261.22.557.49.593a.769.769,0,0,0,.459-.142l2.19-1.232a1.154,1.154,0,0,0,.492-.417,1.085,1.085,0,0,0-.205-1.04c-.243-.381-.113-1.287-.612-1.313-.612.485-1.823.275-2.469.713a1.622,1.622,0,0,0-.547,1.376,5.128,5.128,0,0,0,.2,1.461" transform="translate(-6.989 -24.698)" fill="#072d2d"/>
        <path id="Trazado_1002857" data-name="Trazado 1002857" d="M110.686,193.8c-3.652.669-6.985,1.325-10.637,1.992-1.285.235-2.131-.9-4.263.93-.877.751-1.791,1.082-2.711,1.8a17.232,17.232,0,0,1-3.469.667l-.371,6.193c1.241-.281,3.941-1.093,4.961-.746a6.454,6.454,0,0,0,3,.359c.745-.085,1.607-.5,2.349-.6.577-.077.663.28,1.228.121a3.437,3.437,0,0,0,1.156-.63c.85-.648,2.414-.806,2.466-2.008.011-.253-.475-.571-.333-.778.261-.381.326-.121.8-.839.759-1.02-1-1.1-.433-1.708.867-.929.467-1.251-.325-1.649,3.288-.959,6.5-1.169,6.589-3.1" transform="translate(-14.475 -31.438)" fill="#fccfc9"/>
        <path id="Trazado_1002858" data-name="Trazado 1002858" d="M19.517,177.032c-2.321,2.062-2.75,5.692-1.674,8.6,2.119,5.735,8.563,8.435,14.4,10.246,14.879,4.614,30.383,7.616,45.959,7.291.35-2.4.728-5.18,1.078-7.579-15.838-3.409-31.053-9.725-45.516-17.225a26.954,26.954,0,0,0-7.043-2.891,8.441,8.441,0,0,0-7.207,1.552" transform="translate(-2.804 -28.433)" fill="#072d2d"/>
        <path id="Trazado_1002859" data-name="Trazado 1002859" d="M78.166,195.849c-15.769-2.29-30.3-10.212-44.411-17.307l-.183-.092a27.126,27.126,0,0,0-5.961-2.426,7.634,7.634,0,0,0-5.648.567l-.412-.777a8.465,8.465,0,0,1,6.258-.648,27.8,27.8,0,0,1,6.158,2.5l.183.092c14.049,7.063,28.485,13.849,44.181,17.13Z" transform="translate(-3.496 -28.365)" fill="#c9bbb1"/>
        <path id="Trazado_1002860" data-name="Trazado 1002860" d="M88.616,206.132h-.01a.219.219,0,0,1-.209-.229l.292-6.453a.22.22,0,1,1,.439.02l-.292,6.453a.22.22,0,0,1-.22.21" transform="translate(-14.34 -32.32)" fill="#f9f3ef"/>
        <path id="Trazado_1002861" data-name="Trazado 1002861" d="M184.7,207H136.89a7.054,7.054,0,0,1-7.054-7.054V187.8a7.053,7.053,0,0,1,7.054-7.053H184.7a7.054,7.054,0,0,1,7.054,7.053v12.149A7.054,7.054,0,0,1,184.7,207" transform="translate(-21.062 -29.321)" fill="#072d2d"/>
        <path id="Trazado_1002862" data-name="Trazado 1002862" d="M192.652,197.18h-47.81a7.054,7.054,0,0,1-7.054-7.054V177.977a7.054,7.054,0,0,1,7.054-7.053h47.81a7.054,7.054,0,0,1,7.054,7.053v12.149a7.054,7.054,0,0,1-7.054,7.054" transform="translate(-22.352 -27.727)" fill="#e92227"/>
        <path id="Trazado_1002863" data-name="Trazado 1002863" d="M200.6,187.357h-47.81a7.054,7.054,0,0,1-7.054-7.054V168.154a7.054,7.054,0,0,1,7.054-7.053H200.6a7.054,7.054,0,0,1,7.054,7.053V180.3a7.054,7.054,0,0,1-7.054,7.054" transform="translate(-23.642 -26.134)" fill="#559ba3"/>
        <path id="Trazado_1002864" data-name="Trazado 1002864" d="M199.321,170.641H156.708a.439.439,0,1,1,0-.879h42.613a.439.439,0,1,1,0,.879" transform="translate(-25.35 -27.539)" fill="#f9f3ef"/>
        <path id="Trazado_1002865" data-name="Trazado 1002865" d="M199.321,177.445H156.708a.44.44,0,1,1,0-.88h42.613a.44.44,0,1,1,0,.88" transform="translate(-25.35 -28.642)" fill="#f9f3ef"/>
        <path id="Trazado_1002866" data-name="Trazado 1002866" d="M199.321,184.248H156.708a.44.44,0,0,1,0-.88h42.613a.44.44,0,1,1,0,.88" transform="translate(-25.35 -29.746)" fill="#f9f3ef"/>
      </g>
    </g>
  </g>
</svg>
