<svg xmlns="http://www.w3.org/2000/svg" xmlns:xlink="http://www.w3.org/1999/xlink" width="84" height="84" viewBox="0 0 84 84">
  <defs>
    <clipPath id="clip-path">
      <rect id="Rectángulo_456399" data-name="Rectángulo 456399" width="69.438" height="65.3" fill="#12263f"/>
    </clipPath>
  </defs>
  <g id="Grupo_1192049" data-name="Grupo 1192049" transform="translate(-706 -1685.277)">
    <g id="Grupo_1177731" data-name="Grupo 1177731">
      <g id="Grupo_1119665" data-name="Grupo 1119665" transform="translate(530.111 -3835.723)">
        <path id="Trazado_991847" data-name="Trazado 991847" d="M5,0H79a5,5,0,0,1,5,5V79a5,5,0,0,1-5,5H5a5,5,0,0,1-5-5V5A5,5,0,0,1,5,0Z" transform="translate(175.889 5521)" fill="#a0f7fe"/>
      </g>
      <g id="Grupo_1192286" data-name="Grupo 1192286" transform="translate(713.281 1694.627)">
        <g id="Grupo_1192285" data-name="Grupo 1192285" clip-path="url(#clip-path)">
          <path id="Trazado_1003364" data-name="Trazado 1003364" d="M31.867,175.988c-.779-1.369-1.636,1.351-4.6.417a3.811,3.811,0,0,1-2.46-2.632,3.949,3.949,0,0,1-4.973-2.428,3.774,3.774,0,0,1-6.306-2.946,18.962,18.962,0,0,0-3.665-.8L.95,165.717A1.143,1.143,0,0,1,.031,164.3l3.924-18.37a1.081,1.081,0,0,1,1.376-.852L17.6,147.547c5.655-1.336,9.494-3.166,15.6-3.695a29.632,29.632,0,0,1,18.1,3.942l12.8-2.73a1.114,1.114,0,0,1,1.369.872L69.4,164.3a1.018,1.018,0,0,1-.786,1.306c-4.869,1.489-10.073,1.7-14.876,3.514-2.309.872-7.925,5.684-14.86,6.657-.556.078-1.7,2.315-4.254,2.02a3.673,3.673,0,0,1-2.759-1.809m9.951-17.258c4.378,2.236,8.543,4.1,11.822,7.918l4.472-.984-3.483-16.33-3.682.747c-6.65-4.082-13.694-5.007-21.318-3.5l-6.963,6.532a2.435,2.435,0,0,0-.888,1.392c2.828.953,7.018-1.551,9.118-3.558a1.2,1.2,0,0,1,1.082-.366,1.217,1.217,0,0,1,.815.633c2,3.682,5.37,5.655,9.025,7.521M5.839,147.376,2.332,163.833,9.2,165.3l3.507-16.457Zm57.739,0-6.851,1.469L60.255,165.3l6.851-1.469ZM51.6,167.639c-5.751-6.279-15.179-6.986-20.086-14.3a14.758,14.758,0,0,1-8.695,3.561,3.062,3.062,0,0,1-3.127-1.656A3.143,3.143,0,0,1,20.726,152L25,147.811l-7.1,2.008c-.942.267-1.916-.394-3.07-.517l-3.492,16.249,2.952.724,3.818-3.408a4,4,0,0,1,3.645-.97c1.173.226,1.992,1.4,2.669,2.355,1.183-.645,2.455-1.181,3.807-.619a4.133,4.133,0,0,1,2.384,2.645,3.779,3.779,0,0,1,5.042,3.237,3.786,3.786,0,0,1,4.117,3.78c3.769-.588,8.616-3.322,11.82-5.656m-33.121,1.989,3.279-2.9a1.62,1.62,0,0,0,.3-2.076,1.518,1.518,0,0,0-2.163-.388l-3.581,3.1a1.586,1.586,0,0,0-.148,2.3,1.625,1.625,0,0,0,2.314-.035m5.939,1.783,3.613-3.187a1.564,1.564,0,0,0-.076-2.25,1.635,1.635,0,0,0-2.236.138l-3.23,2.86a1.607,1.607,0,0,0-.314,2.131,1.526,1.526,0,0,0,2.243.307m5.142,2.563,3.39-3a1.567,1.567,0,0,0-.031-2.359,1.624,1.624,0,0,0-2.185.147l-3.33,2.962a1.533,1.533,0,0,0-.082,2.214,1.6,1.6,0,0,0,2.238.037m6.309,1.424a4.766,4.766,0,0,0,1.463-1.35,1.552,1.552,0,0,0-.293-1.973c-1.1-.913-2.272.056-3.113.976a1.536,1.536,0,0,0-.067,2.015,1.487,1.487,0,0,0,2.011.332" transform="translate(0 -112.524)" fill="#12263f"/>
          <path id="Trazado_1003365" data-name="Trazado 1003365" d="M92.111,29.7l-4.452-4.873L76.579,24.8A3.437,3.437,0,0,1,73.2,21.29a12.013,12.013,0,0,0-.086-2.416l-3.688-.013L64.921,23.8a1.59,1.59,0,0,1-1.935.226,1.633,1.633,0,0,1-.663-1.747l.43-3.356c-1.254-.01-2.28.037-3.476-.043a3.367,3.367,0,0,1-3.315-3.156l.005-12.594A3.328,3.328,0,0,1,59.436,0L80.476.016a3.417,3.417,0,0,1,3.381,3.4,14.174,14.174,0,0,0,.089,2.525L98.089,6a3.186,3.186,0,0,1,3,2.987l-.01,12.825a3.324,3.324,0,0,1-3.19,3c-1.236.066-2.267-.08-3.546.057-.143,1.618,1.2,4.258-.313,5.126a1.5,1.5,0,0,1-1.919-.293M68.094,17.124a1.792,1.792,0,0,1,1.338-.437l11.057-.022a1.176,1.176,0,0,0,1.17-1.147l0-12.179a1.207,1.207,0,0,0-1.183-1.154l-21.03-.011a1.249,1.249,0,0,0-1.332,1.195l0,12.118a1.214,1.214,0,0,0,1.312,1.2l4.211.047c2.2.025,1.01,3.11,1.306,3.767Zm24,9.218a5.061,5.061,0,0,0-.07-1.949,1.512,1.512,0,0,1,1.489-1.724l4.118-.019a1.269,1.269,0,0,0,1.326-1.28l0-11.945a1.236,1.236,0,0,0-1.325-1.291L83.9,8.142l-.051,7.279A3.421,3.421,0,0,1,80.4,18.862c-1.656.149-3.239.026-4.927.069-.073,1.414-.58,3.713,1.322,3.722l11.806.054Z" transform="translate(-43.814 0)" fill="#12263f"/>
          <path id="Trazado_1003366" data-name="Trazado 1003366" d="M98.325,25.435l-13.651.005a1.114,1.114,0,0,1-1.2-1.028,1.043,1.043,0,0,1,.969-1.126l13.668-.02c.709,0,1.216.344,1.257,1.023a1.093,1.093,0,0,1-1.046,1.146" transform="translate(-65.354 -18.215)" fill="#12263f"/>
          <path id="Trazado_1003367" data-name="Trazado 1003367" d="M93.24,55.872l-8.586.036a1.115,1.115,0,0,1-1.166-1.037,1.1,1.1,0,0,1,1.188-1.145l8.425.012a1.055,1.055,0,0,1,1.1.925,1.013,1.013,0,0,1-.957,1.209" transform="translate(-65.365 -42.065)" fill="#12263f"/>
        </g>
      </g>
    </g>
  </g>
</svg>
