<svg id="Grupo_1191897" data-name="Grupo 1191897" xmlns="http://www.w3.org/2000/svg" xmlns:xlink="http://www.w3.org/1999/xlink" width="84" height="84" viewBox="0 0 84 84">
  <defs>
    <clipPath id="clip-path">
      <rect id="Rectángulo_456390" data-name="Rectángulo 456390" width="57.791" height="68.244" fill="#12263f"/>
    </clipPath>
  </defs>
  <g id="Grupo_1177731" data-name="Grupo 1177731">
    <g id="Grupo_1119665" data-name="Grupo 1119665">
      <path id="Trazado_991847" data-name="Trazado 991847" d="M5,0H79a5,5,0,0,1,5,5V79a5,5,0,0,1-5,5H5a5,5,0,0,1-5-5V5A5,5,0,0,1,5,0Z" fill="#a0f7fe"/>
    </g>
    <g id="Grupo_1192268" data-name="Grupo 1192268" transform="translate(13.104 7.878)">
      <g id="Grupo_1192267" data-name="Grupo 1192267" clip-path="url(#clip-path)">
        <path id="Trazado_1003259" data-name="Trazado 1003259" d="M105.136,9.131A9.131,9.131,0,1,1,96,0a9.131,9.131,0,0,1,9.131,9.131m-1.941,0a7.189,7.189,0,1,0-7.189,7.189,7.189,7.189,0,0,0,7.189-7.189" transform="translate(-67.735)" fill="#12263f"/>
        <path id="Trazado_1003260" data-name="Trazado 1003260" d="M119.041,53.561l-4.678.034a1,1,0,0,1-1.057-.772c-.066-.379.052-1.055.633-1.1,1.694-.132,3.344-.022,5.048-.052a.946.946,0,0,1,.054,1.891" transform="translate(-88.33 -40.275)" fill="#12263f"/>
        <path id="Trazado_1003261" data-name="Trazado 1003261" d="M104.911,34.919c-1.621.11-3.766.375-3.748-1a.971.971,0,0,1,1.1-.927l2.611.011a.9.9,0,0,1,.956.908.955.955,0,0,1-.923,1.011" transform="translate(-78.875 -25.721)" fill="#12263f"/>
        <path id="Trazado_1003262" data-name="Trazado 1003262" d="M137.936,34.794c-1.668.087-3.717.364-3.751-.989-.032-1.3,2.17-.945,3.711-.938a.937.937,0,0,1,.981.921.967.967,0,0,1-.941,1.006" transform="translate(-104.622 -25.589)" fill="#12263f"/>
        <path id="Trazado_1003263" data-name="Trazado 1003263" d="M197.691,34.93a9.13,9.13,0,1,1-9.13-9.13,9.13,9.13,0,0,1,9.13,9.13m-1.941,0a7.19,7.19,0,1,0-7.19,7.19,7.19,7.19,0,0,0,7.19-7.19" transform="translate(-139.9 -20.116)" fill="#12263f"/>
        <path id="Trazado_1003264" data-name="Trazado 1003264" d="M211.38,79.387c-1.364.57-1.09-1.447-3.024-1.443-1.695,0-1.591,1.842-2.841,1.468a.967.967,0,0,1-.56-1.279,3.85,3.85,0,0,1,6.927.062.974.974,0,0,1-.5,1.191" transform="translate(-159.74 -59.253)" fill="#12263f"/>
        <path id="Trazado_1003265" data-name="Trazado 1003265" d="M195.912,56.918c.707.2.367-1.162,1.27-1.329a.919.919,0,0,1,1.169.7,2.331,2.331,0,0,1-2.265,2.611,2.36,2.36,0,0,1-2.432-2.559.881.881,0,0,1,.868-.763c1.186-.09.84,1.189,1.389,1.345" transform="translate(-150.983 -43.325)" fill="#12263f"/>
        <path id="Trazado_1003266" data-name="Trazado 1003266" d="M228.82,56.882c.748.244.334-1.152,1.291-1.345a.925.925,0,0,1,1.161.717,2.338,2.338,0,0,1-2.05,2.586,2.379,2.379,0,0,1-2.66-2.208.959.959,0,0,1,.69-1.082.97.97,0,0,1,1.228.865.594.594,0,0,0,.34.468" transform="translate(-176.645 -43.284)" fill="#12263f"/>
        <path id="Trazado_1003267" data-name="Trazado 1003267" d="M18.26,50.039a9.13,9.13,0,1,1-9.13-9.13,9.13,9.13,0,0,1,9.13,9.13m-1.939,0a7.19,7.19,0,1,0-7.19,7.19,7.19,7.19,0,0,0,7.19-7.19" transform="translate(0 -31.896)" fill="#12263f"/>
        <path id="Trazado_1003268" data-name="Trazado 1003268" d="M28.72,92.543c1.983.114,1.749-1.808,3-1.468a.921.921,0,0,1,.635,1.206,3.736,3.736,0,0,1-3.2,2.219,3.933,3.933,0,0,1-3.641-1.953.952.952,0,0,1,.356-1.384c1.181-.691,1.29,1.289,2.857,1.379" transform="translate(-19.76 -70.965)" fill="#12263f"/>
        <path id="Trazado_1003269" data-name="Trazado 1003269" d="M18.1,73.869c-1.134.075-.829-1.137-1.327-1.343-.719-.3-.417,1.18-1.334,1.318a.924.924,0,0,1-1.144-.682,2.356,2.356,0,1,1,4.7-.193.905.905,0,0,1-.89.9" transform="translate(-11.124 -54.992)" fill="#12263f"/>
        <path id="Trazado_1003270" data-name="Trazado 1003270" d="M51.186,73.852c-1.276.249-1.049-1.14-1.5-1.312-.829-.317-.388,1.371-1.525,1.346a.929.929,0,0,1-1-.917,2.372,2.372,0,1,1,4.741.009.932.932,0,0,1-.721.874" transform="translate(-36.773 -54.996)" fill="#12263f"/>
        <path id="Trazado_1003271" data-name="Trazado 1003271" d="M47.571,137.274c-.927,0-1.2-.609-1.205-1.326l-.015-6.026c-6-.6-8.317-5.524-8.033-11.125l-3.441-.052a2.124,2.124,0,0,1-1.641-.98,2.272,2.272,0,0,1-.224-2.251l5.336-9.945c.219-10.257,7.482-16.978,17.658-17.031a20.788,20.788,0,0,1,8.451,1.5,14.486,14.486,0,0,1,8.25,9.366,24.543,24.543,0,0,1,.809,8.6,23.406,23.406,0,0,1-4.3,12.456l-3.135,4.412a6.966,6.966,0,0,0-1.4,4.024l-.013,7.254a1.051,1.051,0,0,1-1.172,1.117Zm.822-1.956,14.346-.023.067-7.077a8.592,8.592,0,0,1,1.911-4.748l2.987-4.221a22.124,22.124,0,0,0,3.929-13.269,19.465,19.465,0,0,0-1.109-6.988,12.516,12.516,0,0,0-6.77-7.147,18.914,18.914,0,0,0-7.743-1.36c-9.3-.026-15.773,6.337-15.743,15.613l-5.647,10.54c1.7.479,3.231.069,4.806.237,1.488.159.414,2.8,1.138,5.821a6.609,6.609,0,0,0,6.645,5.317,1.058,1.058,0,0,1,1.108,1.09c.049,2.094-.088,4.064.075,6.215" transform="translate(-25.577 -69.032)" fill="#12263f"/>
        <path id="Trazado_1003272" data-name="Trazado 1003272" d="M105.592,128.3c-.167,1.947-2.256,1.68-3.939,1.606-2.152-.1-1.158-2.413-2.443-2.99-1.652-.742-2.451,1.894-4.113.249l-1.439-1.425c-1.793-1.775.9-2.5.15-4.221a1.545,1.545,0,0,0-1.31-.792c-2.018-.186-1.722-2.147-1.677-3.879.058-2.232,2.351-1.243,2.968-2.485.826-1.664-1.928-2.533-.16-4.211.568-.539,1.05-1.144,1.668-1.624,1.573-1.224,2.27,1.076,3.884.414,1.315-.54.3-2.916,2.518-3.009,1.575-.066,3.744-.352,3.91,1.676a1.54,1.54,0,0,0,.958,1.388,1.485,1.485,0,0,0,1.608-.375c1.492-1.261,2.951.547,3.974,1.723,1.363,1.567-.979,2.409-.416,3.808a1.512,1.512,0,0,0,1.365.973c2.021.138,1.8,2.271,1.708,3.9-.124,2.254-2.4,1.169-3.026,2.553a1.488,1.488,0,0,0,.272,1.641c1.4,1.594-.4,2.8-1.449,3.885-1.66,1.713-2.533-.816-4.1-.221a1.554,1.554,0,0,0-.911,1.42m.39-3.284a3.6,3.6,0,0,1,3.3.573,3.755,3.755,0,0,0,1.174-1.238,3.442,3.442,0,0,1,2.336-5.567c.071-.484.251-1.458-.132-1.677a3.808,3.808,0,0,1-2.615-1.969,3.438,3.438,0,0,1,.42-3.633,3,3,0,0,0-1.253-1.233,3.386,3.386,0,0,1-3.5.464,3.325,3.325,0,0,1-2.015-2.718,2.947,2.947,0,0,0-1.747-.074,3.441,3.441,0,0,1-5.584,2.319,4.489,4.489,0,0,0-1.24,1.176,3.577,3.577,0,0,1,.471,3.635,3.892,3.892,0,0,1-2.668,2.039,1.622,1.622,0,0,0,.016,1.646,3.7,3.7,0,0,1,2.75,2.251,3.769,3.769,0,0,1-.568,3.449,13.066,13.066,0,0,0,1.195,1.174,3.456,3.456,0,0,1,3.541-.54,4,4,0,0,1,2.154,2.672c2.7,1.145.9-1.76,3.962-2.75" transform="translate(-70.78 -82.554)" fill="#12263f"/>
        <path id="Trazado_1003273" data-name="Trazado 1003273" d="M129.493,138.416a6.256,6.256,0,1,1-6.256-6.256,6.256,6.256,0,0,1,6.256,6.256m-1.933,0a4.324,4.324,0,1,0-4.323,4.323,4.323,4.323,0,0,0,4.323-4.323" transform="translate(-91.209 -103.044)" fill="#12263f"/>
      </g>
    </g>
  </g>
</svg>
