<svg xmlns="http://www.w3.org/2000/svg" xmlns:xlink="http://www.w3.org/1999/xlink" width="84" height="84" viewBox="0 0 84 84">
  <defs>
    <clipPath id="clip-path">
      <rect id="Rectángulo_456383" data-name="Rectángulo 456383" width="57.434" height="57.315" fill="#12263f"/>
    </clipPath>
  </defs>
  <g id="Grupo_1179117" data-name="Grupo 1179117" transform="translate(-706 -1685.277)">
    <g id="Grupo_1177731" data-name="Grupo 1177731">
      <g id="Grupo_1119665" data-name="Grupo 1119665" transform="translate(530.111 -3835.723)">
        <path id="Trazado_991847" data-name="Trazado 991847" d="M5,0H79a5,5,0,0,1,5,5V79a5,5,0,0,1-5,5H5a5,5,0,0,1-5-5V5A5,5,0,0,1,5,0Z" transform="translate(175.889 5521)" fill="#a0f7fe"/>
      </g>
      <g id="Grupo_1192254" data-name="Grupo 1192254" transform="translate(719.283 1698.62)">
        <g id="Grupo_1192253" data-name="Grupo 1192253" clip-path="url(#clip-path)">
          <path id="Trazado_1003196" data-name="Trazado 1003196" d="M29.41,84.3c-1.094.95-1.9-.713-2.745-1.34l-9.809,2.527a3.686,3.686,0,0,1-3.077-.7,3.46,3.46,0,0,1-1.27-2.671l-.034-2.288-6.436,0C2.256,79.85.025,76.871,0,73.318c-.03-4.443,1.752-8.53,5.931-10.665a6.678,6.678,0,1,1,9.352-.04L16.9,63.66c.745-.53,1.381-1.07,2.159-1.541.2-.324.083-.867.4-1.117l4.365-2.251c.219-.32.24-1.235-.051-1.457A9.964,9.964,0,0,1,20.943,54a3.954,3.954,0,0,1-4.257-2.135,3.764,3.764,0,0,1,1.033-4.583,1.087,1.087,0,0,0,.521-1.067,10.518,10.518,0,1,1,20.919.618A3.875,3.875,0,0,1,36.488,54,9.917,9.917,0,0,1,33.656,57.3c-.289.217-.261,1.135-.048,1.452L37.974,61c.364.188.143.869.426,1.091.671.529,1.377.914,2.051,1.55a8.344,8.344,0,0,0,1.705-1.021,6.686,6.686,0,1,1,9.351.03c4.154,2.127,5.966,6.216,5.925,10.671-.031,3.39-2.037,6.3-5.65,6.491L45,79.844c-.123,1.69.227,3.757-1.337,4.933a3.664,3.664,0,0,1-3.084.71l-9.748-2.528A14.848,14.848,0,0,0,29.41,84.3m4.008-40.151a3.191,3.191,0,0,0,3.859,2.169,8.6,8.6,0,1,0-17.114.049c4.464.463,3.248-3.707,5.188-2.714,4.84,2.478,7.464-1.5,8.066.5m1.815,7.525a12.955,12.955,0,0,0,.127-3.478,5.226,5.226,0,0,1-3.352-2.422,9.337,9.337,0,0,1-6.624.03,5.094,5.094,0,0,1-3.307,2.4,14.847,14.847,0,0,0,.051,3.1,6.678,6.678,0,0,0,13.105.37m-15.1-3.239c-1.1-.281-1.969.882-1.907,1.881a1.857,1.857,0,0,0,2.065,1.777,19.877,19.877,0,0,1-.158-3.658m17,3.643A1.843,1.843,0,0,0,39.2,50.142a1.769,1.769,0,0,0-1.884-1.754,21.392,21.392,0,0,1-.184,3.688M15.347,57.856a4.769,4.769,0,1,0-4.769,4.769,4.769,4.769,0,0,0,4.769-4.769m36.277,0a4.768,4.768,0,1,0-4.769,4.768,4.768,4.768,0,0,0,4.769-4.768M29.5,62.384c1.852-2.041,2.269-1.342,2.055-4.021a9.488,9.488,0,0,1-5.673,0c-.233,2.477.179,2.09,2.1,4.064a1.228,1.228,0,0,0,1.514-.046m-4.587,2.663a10.146,10.146,0,0,0,1.437-1.49l-2.6-2.6a10.667,10.667,0,0,0-1.936,1.026Zm7.714-.025,2.99-3.077a13.186,13.186,0,0,0-1.934-.987l-2.6,2.6a5.644,5.644,0,0,0,1.544,1.461m-12,5.291c3.09-.567,3.668,3.434,4.257,4.726.123.27.817.01.859-.293l.949-6.839c.051-.369-.623-.969-.924-.847-.639.257-1.123.515-1.67-.029l-3.549-3.537a10.982,10.982,0,0,0-6.121,9.829L14.4,81.918a1.789,1.789,0,0,0,.609,1.393,2.005,2.005,0,0,0,1.648.287L24.955,81.4A27.455,27.455,0,0,1,25.4,77.1L18.414,78.83c-.675.167-1.021-.333-1.157-.817-.177-.626.528-.838.88-1.142.4-2.047-.922-5.932,2.492-6.558m18.581,6.62c1.083.215,1,.93.809,1.5-.251.767-1.177.1-1.552.324a15.352,15.352,0,0,1-2.84,1.57l-2.982,1.062L40.774,83.6a2.038,2.038,0,0,0,1.646-.291,1.764,1.764,0,0,0,.611-1.391L43,73.324A10.977,10.977,0,0,0,36.889,63.5l-3.546,3.529c-.555.552-1.049.278-1.669.054-.3-.106-.97.478-.922.83l.759,5.5a1.719,1.719,0,0,0,1.962-1.2A3.023,3.023,0,0,1,36.8,70.316a2.893,2.893,0,0,1,2.417,2.8ZM12.564,72.518a12.051,12.051,0,0,1,2.929-7.385c-.57-.432-1.451-1.218-2.2-1.091a7.411,7.411,0,0,1-5.515-.105C3.72,65.414,1.837,69.2,1.912,73.32,1.96,75.9,3.4,77.938,6.222,77.929l6.249-.02Zm38.756,5.4c2.848.006,4.147-2.121,4.2-4.6.088-4.125-1.813-7.906-5.857-9.384a7.443,7.443,0,0,1-5.522.106c-.749-.131-1.612.669-2.192,1.09a12.815,12.815,0,0,1,2.971,7.994l.073,4.781ZM28.748,66.946l1.414-1.33a1.656,1.656,0,0,0-1.375-1.108c-.543-.028-1.52.486-1.338,1.085.17.562.862.928,1.3,1.353m1.815,13.4L29.015,69.565a.3.3,0,0,0-.344-.254c-.066.02-.236.1-.258.254l-1.53,10.872,1.84,1.781a14.265,14.265,0,0,0,1.84-1.868m-7.557-4.666c-.374-1.161-.862-3.854-2.166-3.454-1.179.361-.605,2.745-.665,4.149Zm14.3.048V73.314a1.075,1.075,0,0,0-.579-1.031c-1.127-.473-1.667.788-2.02,1.764a7.028,7.028,0,0,1,1.543,3.882,2.313,2.313,0,0,0,1.055-2.2m-3.14,3.09a3.851,3.851,0,0,0-.969-3.53c-.263-.265-1.354-.069-1.338.289a33.464,33.464,0,0,0,.515,3.8,6.582,6.582,0,0,0,1.792-.556" transform="translate(0 -28.272)" fill="#12263f"/>
          <path id="Trazado_1003197" data-name="Trazado 1003197" d="M121.268,9.414a.957.957,0,1,1-1.3,1.4c-.907-.865-2.121-1.754-1.38-2.614A.936.936,0,0,1,120,8.154Z" transform="translate(-95.754 -6.351)" fill="#12263f"/>
          <path id="Trazado_1003198" data-name="Trazado 1003198" d="M168.38,9.526c-.757.779-1.87,2.254-2.713,1.276a.962.962,0,0,1,.049-1.315l1.313-1.312a.955.955,0,1,1,1.351,1.35" transform="translate(-133.842 -6.373)" fill="#12263f"/>
          <path id="Trazado_1003199" data-name="Trazado 1003199" d="M147.051.971c.049,1.319.26,2.778-.857,2.84a.875.875,0,0,1-1-.756c-.137-1.194-.286-2.917.834-3.011a.906.906,0,0,1,1.022.927" transform="translate(-117.394 -0.032)" fill="#12263f"/>
          <path id="Trazado_1003200" data-name="Trazado 1003200" d="M232.526,7.492l-4.452-5.1L223.618,7.5c.717.347,2.528-.313,2.531,1.083l.009,3.814a.915.915,0,0,1-.862.958c-1.68.117-.8-2.47-1.077-3.781l-2.645-.023a1.08,1.08,0,0,1-.985-.454,1,1,0,0,1,.061-1.117L227.378.3a.959.959,0,0,1,1.394,0L235.5,7.98a1.02,1.02,0,0,1,.108.989.885.885,0,0,1-.858.568l-2.808.046c-.22.965.4,2.715-.919,2.805a.914.914,0,0,1-1.027-.945l0-2.861c0-1.347,1.605-.735,2.528-1.091" transform="translate(-178.352 -0.001)" fill="#12263f"/>
          <path id="Trazado_1003201" data-name="Trazado 1003201" d="M271.745,75.194c.635.333.569,2.109.109,2.488a1.075,1.075,0,0,1-1.145.07c-.632-.343-.566-2.086-.115-2.475a1.083,1.083,0,0,1,1.151-.083" transform="translate(-218.641 -60.734)" fill="#12263f"/>
          <path id="Trazado_1003202" data-name="Trazado 1003202" d="M241.745,80.194c.635.333.569,2.11.11,2.488a1.076,1.076,0,0,1-1.145.07c-.632-.343-.566-2.086-.115-2.475a1.083,1.083,0,0,1,1.151-.083" transform="translate(-194.369 -64.779)" fill="#12263f"/>
          <path id="Trazado_1003203" data-name="Trazado 1003203" d="M256.745,95.194c.635.333.569,2.11.11,2.488a1.075,1.075,0,0,1-1.145.07c-.633-.344-.567-2.085-.116-2.475a1.083,1.083,0,0,1,1.151-.083" transform="translate(-206.505 -76.915)" fill="#12263f"/>
          <path id="Trazado_1003204" data-name="Trazado 1003204" d="M12.522,7.492l-4.454-5.1L3.611,7.5c.729.352,2.525-.321,2.531,1.084l.017,3.627a.963.963,0,0,1-.872,1.1c-.636.042-1.044-.381-1.044-1.1V9.541c-.954-.1-3.3.32-3.655-.455-.108-.235-.264-.726-.027-1L7.369.3a.967.967,0,0,1,1.4,0l6.8,7.784c.243.278.078.762-.02,1.008a.856.856,0,0,1-.8.428l-2.819.056c-.22.973.4,2.721-.916,2.8-.635.039-1.049-.4-1.044-1.123l.019-2.674c.01-1.349,1.6-.735,2.531-1.09" transform="translate(-0.354 0.001)" fill="#12263f"/>
          <path id="Trazado_1003205" data-name="Trazado 1003205" d="M51.748,75.185c.638.335.568,2.114.11,2.49a1.078,1.078,0,0,1-1.144.068c-.631-.341-.568-2.082-.116-2.473a1.081,1.081,0,0,1,1.151-.086" transform="translate(-40.653 -60.727)" fill="#12263f"/>
          <path id="Trazado_1003206" data-name="Trazado 1003206" d="M21.747,80.185c.637.334.569,2.114.11,2.49a1.078,1.078,0,0,1-1.144.069c-.631-.341-.568-2.082-.116-2.473a1.081,1.081,0,0,1,1.151-.086" transform="translate(-16.381 -64.772)" fill="#12263f"/>
          <path id="Trazado_1003207" data-name="Trazado 1003207" d="M36.752,95.188c.635.33.562,2.114.105,2.488a1.077,1.077,0,0,1-1.144.069c-.631-.342-.568-2.082-.116-2.472a1.081,1.081,0,0,1,1.155-.084" transform="translate(-28.518 -76.909)" fill="#12263f"/>
        </g>
      </g>
    </g>
  </g>
</svg>
