<svg xmlns="http://www.w3.org/2000/svg" xmlns:xlink="http://www.w3.org/1999/xlink" width="80" height="80" viewBox="0 0 80 80">
  <defs>
    <clipPath id="clip-path">
      <rect id="Rectángulo_456391" data-name="Rectángulo 456391" width="54.022" height="48.96" fill="#12263f"/>
    </clipPath>
  </defs>
  <g id="Grupo_1191904" data-name="Grupo 1191904" transform="translate(-175.889 -5521)">
    <rect id="Rectángulo_402006" data-name="Rectángulo 402006" width="80" height="80" rx="5" transform="translate(175.889 5521)" fill="#a0f7fe"/>
    <g id="Grupo_1192270" data-name="Grupo 1192270" transform="translate(188.877 5536.52)">
      <g id="Grupo_1192269" data-name="Grupo 1192269" clip-path="url(#clip-path)">
        <path id="Trazado_1003274" data-name="Trazado 1003274" d="M28.472,48.48a2.452,2.452,0,0,1-2.962-.034C17.079,42.668,5.866,34.263,1.847,24.629a.777.777,0,0,1,.524-1.042c1.068-.316,1.33,1.824,2.17,2.914a13.39,13.39,0,0,1,10.11-.64c-.144-.785-.3-1.426-.393-2.206a3.8,3.8,0,0,1-3.33-1.807.769.769,0,0,1,.305-1.069c1.069-.615,1.088,1.349,2.962,1.265A13.043,13.043,0,0,1,15.434,17.4,11.939,11.939,0,0,1,7.186,13a9.112,9.112,0,0,0-5.475,4.091c-.4,1.824,1.461,4.735.021,5.127A.79.79,0,0,1,.8,21.68,21.5,21.5,0,0,1,0,15.694,15.815,15.815,0,0,1,7.981,2.059a.8.8,0,0,1,1.066.121c1.017,1.185-1.907,1.87-2.741,3.085a9.958,9.958,0,0,0,9.609,10.541c5.066.248,10.65-4.259,10.052-9.628C22.957,1.864,16.293.772,11.618,2.184a.734.734,0,0,1-1.01-.585.763.763,0,0,1,.551-.909A15.864,15.864,0,0,1,27.013,4.653,15.812,15.812,0,0,1,50.524,5.887.823.823,0,0,1,50.406,6.9c-.428.333-.728.267-1.18-.176-1.881-1.84-4.322-4.335-7.212-4.454-5.687-.233-10.2,5.361-9.411,10.851.827.729,4.847,4.576,3.249,5.434a.764.764,0,0,1-1.11-.4c-1.6-3.158-5.281-5.916-9.07-5.4a13.728,13.728,0,0,1-8.333,4.644,9.671,9.671,0,0,0-.215,10.135,9.963,9.963,0,0,0,8.242,5.019,14.67,14.67,0,0,1,.353-4.6,5.649,5.649,0,0,0-1.435.889,2.946,2.946,0,0,1-4.112-.618A2.887,2.887,0,0,1,20.91,24.1l7.61-5.18c1.586-1.08,3.37-.1,4.2,1.378,3.856-1.6,7.92-.5,11.266,1.481,4.026-.154,7.708-3.981,8.212-7.9.3-2.327-2.141-4.873-1.016-5.506a.809.809,0,0,1,1.125.264,15.432,15.432,0,0,1,1.714,6.9c.146,10-6.675,17.838-13.8,24.026A127.142,127.142,0,0,1,28.472,48.48M30.86,12.191A11.889,11.889,0,0,1,37.255,1.683a13.812,13.812,0,0,0-9.437,4.4A13.184,13.184,0,0,1,26.6,11.037a11.9,11.9,0,0,1,4.264,1.154M6.234,11.617A13.566,13.566,0,0,1,4.675,7,13.194,13.194,0,0,0,1.7,14.407a13.044,13.044,0,0,1,4.535-2.79M48.241,28.547c2.06-3.176,3.646-6.437,3.937-10.069a12.526,12.526,0,0,1-6.773,4.8,13.23,13.23,0,0,1,2.836,5.268M26.992,24.9c1.343-1.481,2.417-3.008,4.254-3.865a1.332,1.332,0,0,0-.834-.871,1.354,1.354,0,0,0-1.276.217l-7.293,5a1.334,1.334,0,0,0-.4,1.9,1.313,1.313,0,0,0,1.8.331c1.173-.938,2.7-1.552,3.748-2.71m3.7,10.718a8.094,8.094,0,0,1,11.967-.488,38.366,38.366,0,0,0,4.186-4.689,9.986,9.986,0,1,0-10.886,10.6c1.929-1.541,3.749-3.054,5.555-4.8a6.494,6.494,0,0,0-9.61.374.779.779,0,0,1-1.079.164.82.82,0,0,1-.133-1.169M16.769,29.869c-.551-.62-.721-1.381-1.281-1.782-2.387-1.709-7.5-1.739-10.1-.2A32.784,32.784,0,0,0,8.886,32.51a9.9,9.9,0,0,0,7.884-2.642M14.99,38.443a11.878,11.878,0,0,1,4.991-5.827,18.5,18.5,0,0,1-2.112-1.6,11.907,11.907,0,0,1-7.422,3.157,44.741,44.741,0,0,0,4.543,4.266m19.183,3.937A11.721,11.721,0,0,1,25.727,34.2a16.019,16.019,0,0,1-3.915-.729,9.823,9.823,0,0,0-5.5,6.147c3.369,2.785,6.722,5.224,10.236,7.613a.767.767,0,0,0,.946.007c2.255-1.578,4.489-3.056,6.685-4.855" transform="translate(0 0)" fill="#12263f"/>
        <path id="Trazado_1003275" data-name="Trazado 1003275" d="M64.756,43.008A7.658,7.658,0,0,1,53.111,44.27c-1.486-1.41-3.484-5.212-1.659-5.213l13.822,0c1.821,0-.009,3.21-.519,3.956m-.6-2.333H52.6A6.2,6.2,0,0,0,58.454,44.8a6.076,6.076,0,0,0,5.7-4.123" transform="translate(-42.158 -32.458)" fill="#12263f"/>
        <path id="Trazado_1003276" data-name="Trazado 1003276" d="M223.352,76.009c.184-.575.568-.81,1.037-.7a.8.8,0,0,1,.523,1.01,6.8,6.8,0,0,1-6.47,4.856,6.883,6.883,0,0,1-6.963-4.732.831.831,0,0,1,.388-1.1.793.793,0,0,1,1.071.47,5.2,5.2,0,0,0,4.128,3.669,5.392,5.392,0,0,0,6.286-3.478" transform="translate(-175.719 -62.571)" fill="#12263f"/>
        <path id="Trazado_1003277" data-name="Trazado 1003277" d="M111.193,117.471a.962.962,0,0,1-.855.441.8.8,0,0,1-.676-.623c-.13-.519.522-1.031.6-1.188.238-.473-1,.274-1.445-.376-.265-.384-.2-1.1.3-1.208.773-.174,3.44-.737,3.832-.208a.777.777,0,0,1,.069.881Z" transform="translate(-90.316 -94.824)" fill="#12263f"/>
        <path id="Trazado_1003278" data-name="Trazado 1003278" d="M145.618,90.778l-2.784.913a.808.808,0,0,1-.82-.225.857.857,0,0,1-.109-.883l1.376-2.494a.833.833,0,0,1,1.251-.344c.55.363.154,1.14-.072,1.523-.339.576,1.168-.547,1.646.294a.81.81,0,0,1-.488,1.217" transform="translate(-117.877 -72.795)" fill="#12263f"/>
        <path id="Trazado_1003279" data-name="Trazado 1003279" d="M30.671,125.445c-.676.047-.987-.342-1.01-.756-.073-1.321,1.522-.218,2.65-1.858a.78.78,0,0,1,1.314.838,3.72,3.72,0,0,1-2.955,1.777" transform="translate(-24.651 -101.812)" fill="#12263f"/>
        <path id="Trazado_1003280" data-name="Trazado 1003280" d="M232.759,48.015a.807.807,0,0,1-.768.851.791.791,0,0,1-.822-.8c-.038-1.518-.329-3.486.843-3.413a.812.812,0,0,1,.753.893Z" transform="translate(-192.086 -37.115)" fill="#12263f"/>
        <path id="Trazado_1003281" data-name="Trazado 1003281" d="M120.358,217.051c-.5.945-1.79,2.588-2.985,2.537-1.239-.053-2.392-1.579-2.9-2.462a2.3,2.3,0,0,1,.286-2.693c.705-.885,1.685-.589,2.679-.587.918,0,1.8-.27,2.456.44a2.267,2.267,0,0,1,.461,2.764m-1.626-1.64c-.766-.368-.976.891-1.918.111a.7.7,0,0,0-.826-.076c-.76.619.586,2.067,1.4,2.493.783-.307,2.313-2.064,1.347-2.528" transform="translate(-94.885 -177.697)" fill="#12263f"/>
        <path id="Trazado_1003282" data-name="Trazado 1003282" d="M263.766,48.008a.825.825,0,0,1-.706.908.78.78,0,0,1-.856-.778l-.009-2.544c0-.538.271-.863.728-.884a.743.743,0,0,1,.83.778Z" transform="translate(-217.922 -37.16)" fill="#12263f"/>
        <path id="Trazado_1003283" data-name="Trazado 1003283" d="M191.385,153.674c-.568.161.345,2.126-.913,2.189-1.387.069-.594-1.869-.952-2.568-.438-.591-1.242-.876-1.574-1.6a.8.8,0,0,1,.277-1.127.857.857,0,0,1,1.049.279c1.3,1.887,3,.622,3,2.016,0,.509-.343.655-.893.811" transform="translate(-156.117 -125.08)" fill="#12263f"/>
        <path id="Trazado_1003284" data-name="Trazado 1003284" d="M225.235,155.1a.744.744,0,0,1-.814.764c-1.123-.054-.619-1.484-.8-2.217-.538-.014-.959-.219-1.028-.642-.246-1.521,1.749-.293,3-2.161a.808.808,0,0,1,1.018-.278.789.789,0,0,1,.274,1.187,5.838,5.838,0,0,1-1.6,1.486Z" transform="translate(-184.989 -125.08)" fill="#12263f"/>
      </g>
    </g>
  </g>
</svg>
