<svg xmlns="http://www.w3.org/2000/svg" xmlns:xlink="http://www.w3.org/1999/xlink" width="395" height="1187.504" viewBox="0 0 395 1187.504">
  <defs>
    <clipPath id="clip-path">
      <ellipse id="Elipse_13840" data-name="Elipse 13840" cx="74.171" cy="74.171" rx="74.171" ry="74.171" fill="#fff"/>
    </clipPath>
    <clipPath id="clip-path-2">
      <rect id="Rectángulo_456173" data-name="Rectángulo 456173" width="40.121" height="45.286" fill="#d0e1dd"/>
    </clipPath>
    <clipPath id="clip-path-4">
      <rect id="Rectángulo_456155" data-name="Rectángulo 456155" width="393.385" height="290.904" fill="none"/>
    </clipPath>
    <clipPath id="clip-path-6">
      <rect id="Rectángulo_456135" data-name="Rectángulo 456135" width="134.753" height="106.086" fill="none"/>
    </clipPath>
    <clipPath id="clip-path-7">
      <rect id="Rectángulo_456136" data-name="Rectángulo 456136" width="73.35" height="73.349" fill="none"/>
    </clipPath>
    <clipPath id="clip-path-8">
      <rect id="Rectángulo_456137" data-name="Rectángulo 456137" width="61.795" height="61.796" fill="none"/>
    </clipPath>
    <clipPath id="clip-path-9">
      <rect id="Rectángulo_456138" data-name="Rectángulo 456138" width="134.374" height="97.783" fill="none"/>
    </clipPath>
    <clipPath id="clip-path-10">
      <rect id="Rectángulo_456139" data-name="Rectángulo 456139" width="73.349" height="73.35" fill="none"/>
    </clipPath>
    <clipPath id="clip-path-11">
      <rect id="Rectángulo_456140" data-name="Rectángulo 456140" width="61.795" height="61.795" fill="none"/>
    </clipPath>
    <clipPath id="clip-path-12">
      <rect id="Rectángulo_456141" data-name="Rectángulo 456141" width="134.753" height="106.087" fill="none"/>
    </clipPath>
    <clipPath id="clip-path-13">
      <rect id="Rectángulo_456142" data-name="Rectángulo 456142" width="73.35" height="73.35" fill="none"/>
    </clipPath>
    <clipPath id="clip-path-15">
      <rect id="Rectángulo_456144" data-name="Rectángulo 456144" width="134.754" height="106.087" fill="none"/>
    </clipPath>
    <clipPath id="clip-path-18">
      <rect id="Rectángulo_456147" data-name="Rectángulo 456147" width="134.373" height="97.783" fill="none"/>
    </clipPath>
    <clipPath id="clip-path-20">
      <rect id="Rectángulo_456149" data-name="Rectángulo 456149" width="61.796" height="61.795" fill="none"/>
    </clipPath>
    <clipPath id="clip-path-21">
      <rect id="Rectángulo_456150" data-name="Rectángulo 456150" width="134.754" height="106.086" fill="none"/>
    </clipPath>
    <clipPath id="clip-path-24">
      <rect id="Rectángulo_456179" data-name="Rectángulo 456179" width="40.283" height="40.331" fill="#15342f"/>
    </clipPath>
    <clipPath id="clip-path-25">
      <rect id="Rectángulo_456180" data-name="Rectángulo 456180" width="43.935" height="28.151" fill="#02542b"/>
    </clipPath>
    <clipPath id="clip-path-26">
      <rect id="Rectángulo_456181" data-name="Rectángulo 456181" width="43.184" height="43.197" fill="#15342f"/>
    </clipPath>
    <clipPath id="clip-path-27">
      <rect id="Rectángulo_456182" data-name="Rectángulo 456182" width="41.226" height="41.174" fill="#02542b"/>
    </clipPath>
    <clipPath id="clip-path-28">
      <rect id="Rectángulo_456185" data-name="Rectángulo 456185" width="38.76" height="38.757" fill="#15342f"/>
    </clipPath>
    <clipPath id="clip-path-29">
      <rect id="Rectángulo_456186" data-name="Rectángulo 456186" width="36.797" height="39.692" fill="#02542b"/>
    </clipPath>
  </defs>
  <g id="Grupo_1192010" data-name="Grupo 1192010" transform="translate(-291 -8365.965)">
    <rect id="Rectángulo_456188" data-name="Rectángulo 456188" width="395" height="1187.504" rx="14" transform="translate(291 8365.965)" fill="#d0e1dd"/>
    <ellipse id="Elipse_13842" data-name="Elipse 13842" cx="74.171" cy="74.171" rx="74.171" ry="74.171" transform="translate(412.675 8467.399)" fill="#fff"/>
    <ellipse id="Elipse_13845" data-name="Elipse 13845" cx="45.327" cy="45.327" rx="45.327" ry="45.327" transform="translate(294.121 8496.244)" fill="#d0e1dd"/>
    <ellipse id="Elipse_13846" data-name="Elipse 13846" cx="45.327" cy="45.327" rx="45.327" ry="45.327" transform="translate(350.042 8400.645)" fill="#d0e1dd"/>
    <ellipse id="Elipse_13847" data-name="Elipse 13847" cx="45.327" cy="45.327" rx="45.327" ry="45.327" transform="translate(533.941 8401.47)" fill="#d0e1dd"/>
    <ellipse id="Elipse_13843" data-name="Elipse 13843" cx="45.327" cy="45.327" rx="45.327" ry="45.327" transform="translate(589.039 8495.73)" fill="#d0e1dd"/>
    <ellipse id="Elipse_13841" data-name="Elipse 13841" cx="45.327" cy="45.327" rx="45.327" ry="45.327" transform="translate(533.941 8593.491)" fill="#d0e1dd"/>
    <ellipse id="Elipse_13844" data-name="Elipse 13844" cx="45.327" cy="45.327" rx="45.327" ry="45.327" transform="translate(350.042 8592.666)" fill="#d0e1dd"/>
    <text id="Convivencia_deteriorada_debido_a_la_mala_gestión_emocional" data-name="Convivencia deteriorada debido a la mala gestión emocional" transform="translate(427.025 8490.426)" fill="#12263f" font-size="16" font-family="SegoeUI-Bold, Segoe UI" font-weight="700"><tspan x="14.799" y="17">Convivencia </tspan><tspan x="16.158" y="38">deteriorada </tspan><tspan x="18.318" y="59">debido a la </tspan><tspan x="11.643" y="80">mala gestión </tspan><tspan x="21.006" y="101">emocional</tspan></text>
    <g id="Grupo_1191992" data-name="Grupo 1191992" transform="translate(412.675 8467.399)">
      <g id="Enmascarar_grupo_1119272" data-name="Enmascarar grupo 1119272" transform="translate(0 0)" clip-path="url(#clip-path)">
        <g id="Grupo_1191969" data-name="Grupo 1191969" transform="translate(116.813 35.575) rotate(180)">
          <g id="Grupo_1191968" data-name="Grupo 1191968" transform="translate(3 10)" clip-path="url(#clip-path-2)">
            <path id="Trazado_1002526" data-name="Trazado 1002526" d="M36.774,36.46,25.508,26.544l-3.26-.662.769,3.727,2.292-2.271-1.952,3.831,2.634,14.118L19.349,25.6l-3.369.86a10.931,10.931,0,0,1-.388-1.17L11.475,35.686l1.466-8.138a33.968,33.968,0,0,1-4.05.058l4.33-1.345.611-3.254c-.652-.011-1.534-.426-2.2-.12L0,28.234,11.2,20.4l.7-4.265c-1.572-.82-2.719-2.375-4.366-2.788L1.045,11.728c9.5-.216,5.366-.566,13.3,2.823l.325-3.949L16.217,5l-3.3-5L17.74,4.6l-1,6.139A14.413,14.413,0,0,0,17,13.927l.883-.661,1.335,1.4c.835-.573,2.038-.689,2.771-1.425L26.1,9.113l.48-3.627L31.823.762,27.437,5.885l.285,3.837L24.286,14.58c3.092,2.126,2.241,2.056,6.1,2.3l3.488-3.83L31.89,16.966c.271.205.68.013.96.183l4.387,2.658,2.884-2.13-2.737,3.105c-1.708-.574-3.176-1.438-4.883-1.915-1.855-.519-4.963.741-6.85,1.306L26.784,24.1Zm-22.525-15.7a16.3,16.3,0,0,1,2.421.179l.841,2.811L20.03,22.7l3.729,1.6L22.9,20.047l1.921-1.82-2.326-3.036-1.218,1.791-2.705-1.3-1.744,1.009-1.866-1.3L13,18.306l1.014,1.334c.225.3.011.764.233,1.117" fill="#d0e1dd"/>
          </g>
        </g>
        <g id="Grupo_1191971" data-name="Grupo 1191971" transform="translate(96.006 170.985) rotate(180)">
          <g id="Grupo_1191968-2" data-name="Grupo 1191968" clip-path="url(#clip-path-2)">
            <path id="Trazado_1002526-2" data-name="Trazado 1002526" d="M36.774,36.46,25.508,26.544l-3.26-.662.769,3.727,2.292-2.271-1.952,3.831,2.634,14.118L19.349,25.6l-3.369.86a10.931,10.931,0,0,1-.388-1.17L11.475,35.686l1.466-8.138a33.968,33.968,0,0,1-4.05.058l4.33-1.345.611-3.254c-.652-.011-1.534-.426-2.2-.12L0,28.234,11.2,20.4l.7-4.265c-1.572-.82-2.719-2.375-4.366-2.788L1.045,11.728c9.5-.216,5.366-.566,13.3,2.823l.325-3.949L16.217,5l-3.3-5L17.74,4.6l-1,6.139A14.413,14.413,0,0,0,17,13.927l.883-.661,1.335,1.4c.835-.573,2.038-.689,2.771-1.425L26.1,9.113l.48-3.627L31.823.762,27.437,5.885l.285,3.837L24.286,14.58c3.092,2.126,2.241,2.056,6.1,2.3l3.488-3.83L31.89,16.966c.271.205.68.013.96.183l4.387,2.658,2.884-2.13-2.737,3.105c-1.708-.574-3.176-1.438-4.883-1.915-1.855-.519-4.963.741-6.85,1.306L26.784,24.1Zm-22.525-15.7a16.3,16.3,0,0,1,2.421.179l.841,2.811L20.03,22.7l3.729,1.6L22.9,20.047l1.921-1.82-2.326-3.036-1.218,1.791-2.705-1.3-1.744,1.009-1.866-1.3L13,18.306l1.014,1.334c.225.3.011.764.233,1.117" fill="#d0e1dd"/>
          </g>
        </g>
        <rect id="Rectángulo_456177" data-name="Rectángulo 456177" width="11.538" height="7.417" transform="translate(62.633 144.634)" fill="#d0e1dd"/>
        <rect id="Rectángulo_456178" data-name="Rectángulo 456178" width="11.538" height="7.417" transform="translate(67.106 147.519)" fill="#d0e1dd"/>
      </g>
      <path id="Trazado_1002527" data-name="Trazado 1002527" d="M0,0H11.538V6.593H0Z" transform="translate(89.478 4.12)" fill="#d0e1dd"/>
    </g>
    <g id="Grupo_1191990" data-name="Grupo 1191990" transform="translate(292 8398.459)">
      <g id="Grupo_1191964" data-name="Grupo 1191964" clip-path="url(#clip-path-4)">
        <g id="Grupo_1191963" data-name="Grupo 1191963">
          <g id="Grupo_1191962" data-name="Grupo 1191962" clip-path="url(#clip-path-4)">
            <g id="Grupo_1191907" data-name="Grupo 1191907" transform="translate(202.876 2.248)" opacity="0.15" style="mix-blend-mode: multiply;isolation: isolate">
              <g id="Grupo_1191906" data-name="Grupo 1191906">
                <g id="Grupo_1191905" data-name="Grupo 1191905" clip-path="url(#clip-path-6)">
                  <path id="Trazado_1002490" data-name="Trazado 1002490" d="M356.623,3a48.859,48.859,0,0,0-36.4,81.491L313.92,90.8a73.753,73.753,0,0,0-42.692-17.546l-.467,6.349a67.555,67.555,0,0,1,51.071,29.487l5.257-3.589a75.424,75.424,0,0,0-8.513-10.355l6.2-6.2A48.877,48.877,0,1,0,356.623,3m0,91.417a42.526,42.526,0,1,1,42.526-42.526,42.574,42.574,0,0,1-42.526,42.526" transform="translate(-270.762 -3)"/>
                </g>
              </g>
            </g>
            <path id="Trazado_1002491" data-name="Trazado 1002491" d="M353.623,0a48.859,48.859,0,0,0-36.4,81.491L310.92,87.8a73.753,73.753,0,0,0-42.692-17.546l-.467,6.349a67.555,67.555,0,0,1,51.071,29.487l5.257-3.589a75.416,75.416,0,0,0-8.513-10.355l6.2-6.2A48.877,48.877,0,1,0,353.623,0m0,91.417a42.526,42.526,0,1,1,42.526-42.526,42.574,42.574,0,0,1-42.526,42.526" transform="translate(-67.133 0)" fill="#02542b"/>
            <g id="Grupo_1191910" data-name="Grupo 1191910" transform="translate(252.063 14.465)" opacity="0.15" style="mix-blend-mode: multiply;isolation: isolate">
              <g id="Grupo_1191909" data-name="Grupo 1191909">
                <g id="Grupo_1191908" data-name="Grupo 1191908" clip-path="url(#clip-path-7)">
                  <path id="Trazado_1002492" data-name="Trazado 1002492" d="M336.407,55.98A36.675,36.675,0,1,0,373.082,19.3,36.675,36.675,0,0,0,336.407,55.98" transform="translate(-336.407 -19.305)"/>
                </g>
              </g>
            </g>
            <path id="Trazado_1002493" data-name="Trazado 1002493" d="M333.407,52.98a36.675,36.675,0,1,0,36.675-36.675A36.675,36.675,0,0,0,333.407,52.98" transform="translate(-83.592 -4.088)" fill="#95ebba"/>
            <g id="Grupo_1191913" data-name="Grupo 1191913" transform="translate(257.486 19.887)" opacity="0.15" style="mix-blend-mode: multiply;isolation: isolate">
              <g id="Grupo_1191912" data-name="Grupo 1191912">
                <g id="Grupo_1191911" data-name="Grupo 1191911" clip-path="url(#clip-path-8)">
                  <path id="Trazado_1002494" data-name="Trazado 1002494" d="M343.645,57.44a30.9,30.9,0,1,0,30.9-30.9,30.9,30.9,0,0,0-30.9,30.9" transform="translate(-343.645 -26.542)"/>
                </g>
              </g>
            </g>
            <path id="Trazado_1002495" data-name="Trazado 1002495" d="M341.118,54.913a30.9,30.9,0,1,0,30.9-30.9,30.9,30.9,0,0,0-30.9,30.9" transform="translate(-85.526 -6.021)" fill="#95ebba"/>
            <g id="Grupo_1191916" data-name="Grupo 1191916" transform="translate(259.011 97.684)" opacity="0.15" style="mix-blend-mode: multiply;isolation: isolate">
              <g id="Grupo_1191915" data-name="Grupo 1191915">
                <g id="Grupo_1191914" data-name="Grupo 1191914" clip-path="url(#clip-path-9)">
                  <path id="Trazado_1002496" data-name="Trazado 1002496" d="M431.162,130.371a48.948,48.948,0,0,0-48.777,45.709H358.694A73.436,73.436,0,0,0,351.413,147l-5.733,2.768a68.069,68.069,0,0,1,0,58.988l5.733,2.768a73.433,73.433,0,0,0,7.281-29.079h23.691a48.887,48.887,0,1,0,48.777-52.074m0,91.417a42.526,42.526,0,1,1,42.526-42.525,42.573,42.573,0,0,1-42.526,42.525" transform="translate(-345.68 -130.371)"/>
                </g>
              </g>
            </g>
            <path id="Trazado_1002497" data-name="Trazado 1002497" d="M428.162,127.371a48.948,48.948,0,0,0-48.777,45.709H355.694A73.439,73.439,0,0,0,348.413,144l-5.733,2.768a68.069,68.069,0,0,1,0,58.988l5.733,2.768a73.436,73.436,0,0,0,7.281-29.079h23.691a48.887,48.887,0,1,0,48.777-52.074m0,91.417a42.526,42.526,0,1,1,42.526-42.525,42.573,42.573,0,0,1-42.526,42.525" transform="translate(-85.917 -31.935)" fill="#0e5a52"/>
            <g id="Grupo_1191919" data-name="Grupo 1191919" transform="translate(307.818 109.9)" opacity="0.15" style="mix-blend-mode: multiply;isolation: isolate">
              <g id="Grupo_1191918" data-name="Grupo 1191918">
                <g id="Grupo_1191917" data-name="Grupo 1191917" clip-path="url(#clip-path-10)">
                  <path id="Trazado_1002498" data-name="Trazado 1002498" d="M410.819,183.35a36.675,36.675,0,1,0,36.675-36.675,36.675,36.675,0,0,0-36.675,36.675" transform="translate(-410.819 -146.675)"/>
                </g>
              </g>
            </g>
            <path id="Trazado_1002499" data-name="Trazado 1002499" d="M407.819,180.35a36.675,36.675,0,1,0,36.675-36.675,36.675,36.675,0,0,0-36.675,36.675" transform="translate(-102.249 -36.022)" fill="#9cb9b4"/>
            <g id="Grupo_1191922" data-name="Grupo 1191922" transform="translate(313.24 115.324)" opacity="0.15" style="mix-blend-mode: multiply;isolation: isolate">
              <g id="Grupo_1191921" data-name="Grupo 1191921">
                <g id="Grupo_1191920" data-name="Grupo 1191920" clip-path="url(#clip-path-11)">
                  <path id="Trazado_1002500" data-name="Trazado 1002500" d="M418.056,184.811a30.9,30.9,0,1,0,30.9-30.9,30.9,30.9,0,0,0-30.9,30.9" transform="translate(-418.056 -153.913)"/>
                </g>
              </g>
            </g>
            <path id="Trazado_1002501" data-name="Trazado 1002501" d="M415.529,182.283a30.9,30.9,0,1,0,30.9-30.9,30.9,30.9,0,0,0-30.9,30.9" transform="translate(-104.182 -37.955)" fill="#9cb9b4"/>
            <g id="Grupo_1191925" data-name="Grupo 1191925" transform="translate(202.876 184.817)" opacity="0.15" style="mix-blend-mode: multiply;isolation: isolate">
              <g id="Grupo_1191924" data-name="Grupo 1191924">
                <g id="Grupo_1191923" data-name="Grupo 1191923" clip-path="url(#clip-path-12)">
                  <path id="Trazado_1002502" data-name="Trazado 1002502" d="M356.623,254.963A48.667,48.667,0,0,0,324.777,266.8l-6.2-6.2a75.425,75.425,0,0,0,8.513-10.355l-5.257-3.588a67.559,67.559,0,0,1-51.071,29.487l.467,6.348A73.754,73.754,0,0,0,313.92,264.95l6.305,6.305a48.864,48.864,0,1,0,36.4-16.292m0,91.418a42.526,42.526,0,1,1,42.526-42.526,42.574,42.574,0,0,1-42.526,42.526" transform="translate(-270.762 -246.66)"/>
                </g>
              </g>
            </g>
            <path id="Trazado_1002503" data-name="Trazado 1002503" d="M353.623,251.963A48.668,48.668,0,0,0,321.777,263.8l-6.2-6.2a75.417,75.417,0,0,0,8.513-10.355l-5.257-3.588a67.559,67.559,0,0,1-51.071,29.487l.467,6.348A73.755,73.755,0,0,0,310.92,261.95l6.305,6.305a48.864,48.864,0,1,0,36.4-16.292m0,91.418a42.526,42.526,0,1,1,42.526-42.526,42.574,42.574,0,0,1-42.526,42.526" transform="translate(-67.133 -61.091)" fill="#02542b"/>
            <g id="Grupo_1191928" data-name="Grupo 1191928" transform="translate(252.063 205.337)" opacity="0.15" style="mix-blend-mode: multiply;isolation: isolate">
              <g id="Grupo_1191927" data-name="Grupo 1191927">
                <g id="Grupo_1191926" data-name="Grupo 1191926" clip-path="url(#clip-path-13)">
                  <path id="Trazado_1002504" data-name="Trazado 1002504" d="M336.407,310.721a36.675,36.675,0,1,0,36.675-36.675,36.675,36.675,0,0,0-36.675,36.675" transform="translate(-336.407 -274.046)"/>
                </g>
              </g>
            </g>
            <path id="Trazado_1002505" data-name="Trazado 1002505" d="M333.407,307.721a36.675,36.675,0,1,0,36.675-36.675,36.675,36.675,0,0,0-36.675,36.675" transform="translate(-83.592 -67.957)" fill="#95ebba"/>
            <g id="Grupo_1191931" data-name="Grupo 1191931" transform="translate(257.486 210.76)" opacity="0.15" style="mix-blend-mode: multiply;isolation: isolate">
              <g id="Grupo_1191930" data-name="Grupo 1191930">
                <g id="Grupo_1191929" data-name="Grupo 1191929" clip-path="url(#clip-path-11)">
                  <path id="Trazado_1002506" data-name="Trazado 1002506" d="M343.645,312.181a30.9,30.9,0,1,0,30.9-30.9,30.9,30.9,0,0,0-30.9,30.9" transform="translate(-343.645 -281.284)"/>
                </g>
              </g>
            </g>
            <path id="Trazado_1002507" data-name="Trazado 1002507" d="M341.118,309.654a30.9,30.9,0,1,0,30.9-30.9,30.9,30.9,0,0,0-30.9,30.9" transform="translate(-85.526 -69.89)" fill="#95ebba"/>
            <g id="Grupo_1191934" data-name="Grupo 1191934" transform="translate(58.003 184.817)" opacity="0.15" style="mix-blend-mode: multiply;isolation: isolate">
              <g id="Grupo_1191933" data-name="Grupo 1191933">
                <g id="Grupo_1191932" data-name="Grupo 1191932" clip-path="url(#clip-path-15)">
                  <path id="Trazado_1002508" data-name="Trazado 1002508" d="M211.7,282.495l.468-6.348a67.559,67.559,0,0,1-51.072-29.487l-5.258,3.588a75.319,75.319,0,0,0,9.621,11.464l-6.128,6.128a49.019,49.019,0,1,0,4.4,4.6l6.481-6.481A73.76,73.76,0,0,0,211.7,282.495m-85.4,63.886a42.526,42.526,0,1,1,42.526-42.526A42.574,42.574,0,0,1,126.3,346.381" transform="translate(-77.412 -246.66)"/>
                </g>
              </g>
            </g>
            <path id="Trazado_1002509" data-name="Trazado 1002509" d="M208.7,279.5l.468-6.348a67.559,67.559,0,0,1-51.072-29.487l-5.258,3.588a75.318,75.318,0,0,0,9.621,11.464l-6.128,6.128a49.02,49.02,0,1,0,4.4,4.6l6.48-6.48A73.76,73.76,0,0,0,208.7,279.5m-85.4,63.886a42.526,42.526,0,1,1,42.526-42.526A42.574,42.574,0,0,1,123.3,343.381" transform="translate(-18.657 -61.091)" fill="#0e5a52"/>
            <g id="Grupo_1191937" data-name="Grupo 1191937" transform="translate(70.219 205.337)" opacity="0.15" style="mix-blend-mode: multiply;isolation: isolate">
              <g id="Grupo_1191936" data-name="Grupo 1191936">
                <g id="Grupo_1191935" data-name="Grupo 1191935" clip-path="url(#clip-path-13)">
                  <path id="Trazado_1002510" data-name="Trazado 1002510" d="M93.716,310.721a36.675,36.675,0,1,0,36.675-36.675,36.675,36.675,0,0,0-36.675,36.675" transform="translate(-93.716 -274.046)"/>
                </g>
              </g>
            </g>
            <path id="Trazado_1002511" data-name="Trazado 1002511" d="M90.716,307.721a36.675,36.675,0,1,0,36.675-36.675,36.675,36.675,0,0,0-36.675,36.675" transform="translate(-22.744 -67.957)" fill="#9cb9b4"/>
            <g id="Grupo_1191940" data-name="Grupo 1191940" transform="translate(75.643 210.76)" opacity="0.15" style="mix-blend-mode: multiply;isolation: isolate">
              <g id="Grupo_1191939" data-name="Grupo 1191939">
                <g id="Grupo_1191938" data-name="Grupo 1191938" clip-path="url(#clip-path-11)">
                  <path id="Trazado_1002512" data-name="Trazado 1002512" d="M100.954,312.181a30.9,30.9,0,1,0,30.9-30.9,30.9,30.9,0,0,0-30.9,30.9" transform="translate(-100.954 -281.284)"/>
                </g>
              </g>
            </g>
            <path id="Trazado_1002513" data-name="Trazado 1002513" d="M98.426,309.654a30.9,30.9,0,1,0,30.9-30.9,30.9,30.9,0,0,0-30.9,30.9" transform="translate(-24.677 -69.89)" fill="#9cb9b4"/>
            <g id="Grupo_1191943" data-name="Grupo 1191943" transform="translate(2.248 97.684)" opacity="0.15" style="mix-blend-mode: multiply;isolation: isolate">
              <g id="Grupo_1191942" data-name="Grupo 1191942">
                <g id="Grupo_1191941" data-name="Grupo 1191941" clip-path="url(#clip-path-18)">
                  <path id="Trazado_1002514" data-name="Trazado 1002514" d="M137.374,149.768,131.641,147a73.437,73.437,0,0,0-7.281,29.08H100.669a48.892,48.892,0,1,0,0,6.365H124.36a73.43,73.43,0,0,0,7.281,29.079l5.733-2.768a68.076,68.076,0,0,1,0-58.988m-85.481,72.02a42.526,42.526,0,1,1,42.525-42.525,42.574,42.574,0,0,1-42.525,42.525" transform="translate(-3 -130.371)"/>
                </g>
              </g>
            </g>
            <path id="Trazado_1002515" data-name="Trazado 1002515" d="M134.374,146.768,128.641,144a73.437,73.437,0,0,0-7.281,29.079H97.669a48.892,48.892,0,1,0,0,6.365H121.36a73.431,73.431,0,0,0,7.281,29.079l5.733-2.768a68.076,68.076,0,0,1,0-58.988m-85.481,72.02a42.526,42.526,0,1,1,42.525-42.525,42.574,42.574,0,0,1-42.525,42.525" transform="translate(0 -31.935)" fill="#02542b"/>
            <g id="Grupo_1191946" data-name="Grupo 1191946" transform="translate(14.465 109.9)" opacity="0.15" style="mix-blend-mode: multiply;isolation: isolate">
              <g id="Grupo_1191945" data-name="Grupo 1191945">
                <g id="Grupo_1191944" data-name="Grupo 1191944" clip-path="url(#clip-path-10)">
                  <path id="Trazado_1002516" data-name="Trazado 1002516" d="M19.305,183.35A36.675,36.675,0,1,0,55.98,146.675,36.675,36.675,0,0,0,19.305,183.35" transform="translate(-19.305 -146.675)"/>
                </g>
              </g>
            </g>
            <path id="Trazado_1002517" data-name="Trazado 1002517" d="M16.3,180.35A36.675,36.675,0,1,0,52.98,143.675,36.675,36.675,0,0,0,16.3,180.35" transform="translate(-4.088 -36.022)" fill="#95ebba"/>
            <g id="Grupo_1191949" data-name="Grupo 1191949" transform="translate(19.888 115.324)" opacity="0.15" style="mix-blend-mode: multiply;isolation: isolate">
              <g id="Grupo_1191948" data-name="Grupo 1191948">
                <g id="Grupo_1191947" data-name="Grupo 1191947" clip-path="url(#clip-path-20)">
                  <path id="Trazado_1002518" data-name="Trazado 1002518" d="M26.542,184.811a30.9,30.9,0,1,0,30.9-30.9,30.9,30.9,0,0,0-30.9,30.9" transform="translate(-26.542 -153.913)"/>
                </g>
              </g>
            </g>
            <path id="Trazado_1002519" data-name="Trazado 1002519" d="M24.015,182.283a30.9,30.9,0,1,0,30.9-30.9,30.9,30.9,0,0,0-30.9,30.9" transform="translate(-6.021 -37.955)" fill="#95ebba"/>
            <g id="Grupo_1191952" data-name="Grupo 1191952" transform="translate(58.003 2.248)" opacity="0.15" style="mix-blend-mode: multiply;isolation: isolate">
              <g id="Grupo_1191951" data-name="Grupo 1191951">
                <g id="Grupo_1191950" data-name="Grupo 1191950" clip-path="url(#clip-path-21)">
                  <path id="Trazado_1002520" data-name="Trazado 1002520" d="M211.7,73.251a73.771,73.771,0,0,0-41.489,16.534L163.73,83.3a48.915,48.915,0,1,0-4.4,4.6l6.129,6.129a75.282,75.282,0,0,0-9.621,11.463l5.257,3.589A67.555,67.555,0,0,1,212.166,79.6ZM126.3,94.418a42.526,42.526,0,1,1,42.526-42.526A42.575,42.575,0,0,1,126.3,94.418" transform="translate(-77.412 -3)"/>
                </g>
              </g>
            </g>
            <path id="Trazado_1002521" data-name="Trazado 1002521" d="M208.7,70.251a73.771,73.771,0,0,0-41.489,16.534L160.73,80.3a48.915,48.915,0,1,0-4.4,4.6l6.129,6.129a75.278,75.278,0,0,0-9.621,11.463l5.257,3.589A67.555,67.555,0,0,1,209.166,76.6ZM123.3,91.418a42.526,42.526,0,1,1,42.526-42.526A42.575,42.575,0,0,1,123.3,91.418" transform="translate(-18.657 0)" fill="#0e5a52"/>
            <g id="Grupo_1191955" data-name="Grupo 1191955" transform="translate(70.219 14.465)" opacity="0.15" style="mix-blend-mode: multiply;isolation: isolate">
              <g id="Grupo_1191954" data-name="Grupo 1191954">
                <g id="Grupo_1191953" data-name="Grupo 1191953" clip-path="url(#clip-path-7)">
                  <path id="Trazado_1002522" data-name="Trazado 1002522" d="M93.716,55.98A36.675,36.675,0,1,0,130.391,19.3,36.675,36.675,0,0,0,93.716,55.98" transform="translate(-93.716 -19.305)"/>
                </g>
              </g>
            </g>
            <path id="Trazado_1002523" data-name="Trazado 1002523" d="M90.716,52.98a36.675,36.675,0,1,0,36.675-36.675A36.675,36.675,0,0,0,90.716,52.98" transform="translate(-22.744 -4.088)" fill="#9cb9b4"/>
            <g id="Grupo_1191958" data-name="Grupo 1191958" transform="translate(75.643 19.887)" opacity="0.15" style="mix-blend-mode: multiply;isolation: isolate">
              <g id="Grupo_1191957" data-name="Grupo 1191957">
                <g id="Grupo_1191956" data-name="Grupo 1191956" clip-path="url(#clip-path-8)">
                  <path id="Trazado_1002524" data-name="Trazado 1002524" d="M100.954,57.44a30.9,30.9,0,1,0,30.9-30.9,30.9,30.9,0,0,0-30.9,30.9" transform="translate(-100.954 -26.542)"/>
                </g>
              </g>
            </g>
            <path id="Trazado_1002525" data-name="Trazado 1002525" d="M98.426,54.913a30.9,30.9,0,1,0,30.9-30.9,30.9,30.9,0,0,0-30.9,30.9" transform="translate(-24.677 -6.021)" fill="#9cb9b4"/>
          </g>
        </g>
      </g>
    </g>
    <g id="Grupo_1191996" data-name="Grupo 1191996" transform="translate(375.59 8426.192)">
      <g id="Grupo_1191972" data-name="Grupo 1191972" transform="translate(0)" clip-path="url(#clip-path-24)">
        <path id="Trazado_1002528" data-name="Trazado 1002528" d="M102.464,33.473a6.106,6.106,0,0,0-3.68,10.442l10.65,10.735a.714.714,0,0,0,.987-.118.725.725,0,0,0-.03-.941l-8.24-8.346a.706.706,0,0,1,.026-.861.693.693,0,0,1,.91-.077l8.2,8.262a.7.7,0,0,0,.972.1.762.762,0,0,0,.112-1.084l-6.78-6.682c-.575-.567-1.643-.4-1.892-1.4a2.271,2.271,0,0,1,.522-2.333l7.089-7.124a7.206,7.206,0,0,1,6.707-1.922,7.444,7.444,0,0,1,5.424,4.929,7.53,7.53,0,0,1-1.754,7.6c-1.25,1.359-2.788,2.467-3.779,3.987a5.374,5.374,0,0,1-1.883,1.665,4.948,4.948,0,0,1-1.958,2.082c-.617.429-.841,1.917-2.127,1.789a2.281,2.281,0,0,1-1.309,1.828,2.159,2.159,0,0,1-2.343-.58L97.437,44.389a7.186,7.186,0,0,1-1.03-8.208,7.359,7.359,0,0,1,11.786-1.931.711.711,0,0,1,.142.84.671.671,0,0,1-.963.208,6.139,6.139,0,0,0-4.909-1.825m15.768,5.173a.659.659,0,0,1-.026.9,4.5,4.5,0,0,1-6.609.23.745.745,0,0,0-.595.6l6.488,6.569,3.289-3.317a6.1,6.1,0,0,0-3.736-10.284,5.776,5.776,0,0,0-4.719,1.6l-7.218,7.262a.723.723,0,1,0,1.087.954l4.753-4.8c1.059-1.069,1.368,1.272,3.819,1.4,2.1.113,2.6-2.095,3.466-1.121M115.325,48.7a.684.684,0,0,0,.982-.106.73.73,0,0,0,0-.917l-6.317-6.4a5.759,5.759,0,0,0-1.012,1.036Zm-2.032,1.921a.7.7,0,0,0,1.033-.022.719.719,0,0,0,.012-.957l-6.323-6.374a7.545,7.545,0,0,0-1,1.022Z" transform="translate(-83.539 -27.934)" fill="#15342f"/>
        <path id="Trazado_1002529" data-name="Trazado 1002529" d="M31.546,38.929a18.137,18.137,0,0,1-2.087-10.71c.072-.413.29-.662.7-.66a.653.653,0,0,1,.638.77,17.106,17.106,0,0,0,1.657,9.379c.33.589,1.29,1.741.813,2.3a.727.727,0,0,1-.559.27l-16.585.054a.774.774,0,0,1-.859-.562c-.4-1.438-1.312-3.749-2.7-4.551C10.7,35.849,8.9,36.428,7,36.872a2.507,2.507,0,0,1-3-1.7c-.8-2.385.76-3.164-.741-3.793a1.119,1.119,0,0,1-.7-1.468c.348-.849-1.331-.851-.7-2.094L2.4,26.752c.509-.995-.848-1.075-1.809-1.907a1.593,1.593,0,0,1-.2-2.282,26.156,26.156,0,0,0,3.5-5.69c.082-.338-.433-.686-.63-.852A2.179,2.179,0,0,1,2.7,13.186a13.162,13.162,0,0,0,1.08-3.113A12.3,12.3,0,0,1,7.516,3.634C10.333,1.134,15.425.5,19.129.1A15.378,15.378,0,0,1,28.5,1.972a.67.67,0,0,1,.278.919.647.647,0,0,1-.881.268A13.876,13.876,0,0,0,20,1.387a38.985,38.985,0,0,0-7.879,1.337A9.36,9.36,0,0,0,8.341,4.7a10.989,10.989,0,0,0-3.255,5.7,14.352,14.352,0,0,1-1.175,3.357.927.927,0,0,0,.313,1.3C4.8,15.514,5.51,16.4,5.2,17.2a25.237,25.237,0,0,1-3.634,6.018c-.1.132-.28.4-.143.535a5.254,5.254,0,0,0,1.329.829,1.887,1.887,0,0,1,.977,2.466L3.217,28.19l.866.721c.382.318.123.823-.252,1.255,2.791,1.477.525,3,1.582,4.861a1.234,1.234,0,0,0,1.473.506c1.561-.43,3.05-.836,4.577-1.368l4.6-1.6A5.964,5.964,0,0,0,17.9,31.537c1.062-.873.316-2.01,1.409-1.929.379.028.588.332.587.752,0,1.756-1.742,2.809-3.181,3.393l-2.618.954a10.992,10.992,0,0,1,2.328,4.26Z" transform="translate(0 0)" fill="#15342f"/>
        <path id="Trazado_1002530" data-name="Trazado 1002530" d="M52.63,34.614c-2.721,2.843-1.733,5.63-3.082,5.431-.471-.069-.621-.489-.523-.963.753-3.644,2.609-6.495,6.343-7.512a.681.681,0,0,1,.828.441c.384,1.177-1.68.631-3.566,2.6" transform="translate(-42.823 -27.57)" fill="#15342f"/>
        <path id="Trazado_1002531" data-name="Trazado 1002531" d="M43.872,107.418a.663.663,0,1,1-.663-.663.663.663,0,0,1,.663.663" transform="translate(-37.185 -93.303)" fill="#15342f"/>
      </g>
    </g>
    <g id="Grupo_1191995" data-name="Grupo 1191995" transform="translate(317.48 8527.805)">
      <g id="Grupo_1191974" data-name="Grupo 1191974" transform="translate(0)" clip-path="url(#clip-path-25)">
        <path id="Trazado_1002532" data-name="Trazado 1002532" d="M31.413,22.735A3.554,3.554,0,0,1,30.13,25.1a3.477,3.477,0,0,1-2.884.384A4.042,4.042,0,0,1,25.9,27.6a2.852,2.852,0,0,1-2.916.251l-2.851-1.607a3.191,3.191,0,0,1-2.652.633,3.124,3.124,0,0,1-2.024-1.611,3,3,0,0,1-4.142-1.491,3.155,3.155,0,0,1-2.874-.212c-.856-.435-1.095-1.6-1.454-2.32-.834-.306-1.973-.392-2.528-1.3A3.245,3.245,0,0,1,4.1,16.977L.438,14.855a.855.855,0,0,1-.386-1.032L4.517,2a.85.85,0,0,1,1.032-.478c1.3.233,2.6.818,3.9.959L17.384.19a3.82,3.82,0,0,1,2.882.194l1.7.923c1.754-1,2.6-1.677,4.784-1.054l7.728,2.2c1.243.183,4.808-1.539,5.265-.235l4.151,11.845a.846.846,0,0,1-.582,1.028c-1.473.654-3.206,1.076-4.619,1.8a3.426,3.426,0,0,1-1.162,2.528,3.007,3.007,0,0,1-2.842.493,3.132,3.132,0,0,1-3.273,2.814m1.393-8.819a.854.854,0,0,1,.829-1.492L37.553,14.8c.163.1.341.485.6.387l3.813-1.433-3.584-10.2-4.031.683L26.088,1.862a2.25,2.25,0,0,0-1.8.1L18.015,5.592a1.254,1.254,0,0,0,1.157,2.213c1.193-.479,2.3-1.083,3.528-1.5a1.115,1.115,0,0,1,1,.1l3.332,2.027a.856.856,0,1,1-.9,1.455L23.049,8.018c-1.079.382-2.037.86-3.063,1.331a3,3,0,0,1-3.9-1.262,2.947,2.947,0,0,1,1.018-3.953l3.046-1.8a2.431,2.431,0,0,0-2.327-.494L9.478,4.3l-3.641-.92L1.927,13.734l3.015,1.737c.73-1.226,1.3-2.19,2.848-2.341a3,3,0,0,1,2.724,1.264,3.025,3.025,0,0,1,5.253,1.666,2.962,2.962,0,0,1,3.312,2.88c1.376-.231,2.029.709,2.911,1.378,1.791,1.358,3.872,2.228,5.758,3.454a1.271,1.271,0,0,0,1.718-.46,1.247,1.247,0,0,0-.478-1.736L23.008,18.11a.853.853,0,0,1,.879-1.463l7.143,4.119a1.26,1.26,0,0,0,1.779-.464,1.247,1.247,0,0,0-.472-1.676l-6.755-3.909a.869.869,0,0,1-.375-1.208.839.839,0,0,1,1.114-.333l8.853,5.071a1.247,1.247,0,0,0,1.136-2.215ZM8,18.692l1.171-2.061a1.219,1.219,0,0,0-.463-1.607,1.244,1.244,0,0,0-1.721.417c-.772,1.322-2.249,3.088-.639,3.866A1.27,1.27,0,0,0,8,18.692M11.14,21.7l2.7-4.658A1.256,1.256,0,1,0,11.7,15.732L8.986,20.425a1.265,1.265,0,0,0,.439,1.706,1.249,1.249,0,0,0,1.715-.43m4,1.546L17.22,19.63a1.244,1.244,0,0,0-.471-1.683,1.271,1.271,0,0,0-1.715.468l-2.057,3.568a1.252,1.252,0,1,0,2.161,1.264m4.114,1.341c.435-.758.856-1.42,1.222-2.141A1.242,1.242,0,0,0,19.95,20.8a1.229,1.229,0,0,0-1.66.453l-1.2,2.062a1.254,1.254,0,1,0,2.163,1.268m4.235,1.6a1.288,1.288,0,0,0,1.786-.389,1.245,1.245,0,0,0-.431-1.728l-2.561-1.467a16.583,16.583,0,0,1-1.167,2.2Z" transform="translate(0 0)" fill="#02542b"/>
        <path id="Trazado_1002533" data-name="Trazado 1002533" d="M213.544,76.072a.847.847,0,1,1-.847-.847.847.847,0,0,1,.847.847" transform="translate(-182.772 -64.9)" fill="#02542b"/>
      </g>
    </g>
    <g id="Grupo_1191994" data-name="Grupo 1191994" transform="translate(373.941 8616.566)">
      <g id="Grupo_1191976" data-name="Grupo 1191976" transform="translate(0)" clip-path="url(#clip-path-26)">
        <path id="Trazado_1002534" data-name="Trazado 1002534" d="M33.985,13.536l-6.247-3.5A2.023,2.023,0,0,1,26.671,8.3c-.046-1.464,1.147-1.778,2.087-2.617l-1.2-1.7a1.426,1.426,0,0,1,.29-2.023l2.29-1.65a1.476,1.476,0,0,1,2.122.337l3.319,4.665a1.4,1.4,0,0,1-.287,1.918L33.5,8.548l2.177,3.11a1.316,1.316,0,0,1-1.689,1.878M28.514,8.824l5.473,3.04c-.481-.961-1.177-1.673-1.725-2.551-1-1.61,1.242-2.38,2.107-3.215L31.045,1.449l-2.31,1.669,1.219,1.748a1.459,1.459,0,0,1-.379,2.046l-1.24.9a.559.559,0,0,0-.213.565.735.735,0,0,0,.393.452" transform="translate(-23.069 -0.006)" fill="#15342f"/>
        <path id="Trazado_1002535" data-name="Trazado 1002535" d="M233.224,9.963l-6.406,3.594a1.309,1.309,0,0,1-1.554-.4,1.329,1.329,0,0,1-.045-1.591l2.136-3.022L225.64,7.294a1.43,1.43,0,0,1-.362-1.985L228.6.643a1.474,1.474,0,0,1,2.12-.335l2.289,1.651a1.426,1.426,0,0,1,.291,2.024l-1.2,1.7c.876.8,2.067,1.123,2.089,2.491a1.948,1.948,0,0,1-.959,1.793m-.747-1.232a.56.56,0,0,0,.063-.911l-1.254-.909a1.462,1.462,0,0,1-.376-2.063l1.208-1.7a28.6,28.6,0,0,0-2.31-1.707l-3.321,4.67L228.3,7.449A1.384,1.384,0,0,1,228.6,9.3a29.969,29.969,0,0,0-1.713,2.541Z" transform="translate(-194.606 -0.001)" fill="#15342f"/>
        <path id="Trazado_1002536" data-name="Trazado 1002536" d="M267.732,94.237a.705.705,0,0,1-.927-.408.72.72,0,0,1,.423-.935L273,90.687a.7.7,0,0,1,.886.389.721.721,0,0,1-.38.943Z" transform="translate(-230.751 -78.406)" fill="#15342f"/>
        <path id="Trazado_1002537" data-name="Trazado 1002537" d="M104.873,6.174a.717.717,0,1,1-1.314.571L101.352,1.01a.725.725,0,0,1,.317-.9.716.716,0,0,1,1.009.363Z" transform="translate(-87.625 -0.019)" fill="#15342f"/>
        <path id="Trazado_1002538" data-name="Trazado 1002538" d="M193,6.7a.734.734,0,0,1-.893.474.691.691,0,0,1-.464-.931l2.21-5.763a.716.716,0,1,1,1.327.541Z" transform="translate(-165.726 -0.034)" fill="#15342f"/>
        <path id="Trazado_1002539" data-name="Trazado 1002539" d="M6.652,92.886a.737.737,0,0,1,.47.96.683.683,0,0,1-.875.425L.519,92.077a.732.732,0,0,1-.5-.889.7.7,0,0,1,.9-.48Z" transform="translate(-0.001 -78.424)" fill="#15342f"/>
        <path id="Trazado_1002540" data-name="Trazado 1002540" d="M156.012,6.4a.688.688,0,0,1-.654.762.68.68,0,0,1-.775-.691L154.573.8a.726.726,0,1,1,1.443,0Z" transform="translate(-133.706 -0.001)" fill="#15342f"/>
        <path id="Trazado_1002541" data-name="Trazado 1002541" d="M241.8,116.688c-.545.3-1.419.635-1.711-.027a.7.7,0,0,1,.321-.947c.516-.248,1.367-.63,1.671.01a.719.719,0,0,1-.281.964" transform="translate(-207.615 -99.797)" fill="#15342f"/>
        <path id="Trazado_1002542" data-name="Trazado 1002542" d="M127.052,64.056a1.705,1.705,0,0,1,.635,1.758.721.721,0,0,1-.826.313,1.612,1.612,0,0,1-.659-1.789.737.737,0,0,1,.851-.281" transform="translate(-109.085 -55.377)" fill="#15342f"/>
        <path id="Trazado_1002543" data-name="Trazado 1002543" d="M182.669,65.686a.714.714,0,1,1-1.323-.538l.255-.664a.714.714,0,0,1,1.366.418,5.2,5.2,0,0,1-.3.785" transform="translate(-156.821 -55.351)" fill="#15342f"/>
        <path id="Trazado_1002544" data-name="Trazado 1002544" d="M65.25,116.974a3.085,3.085,0,0,1-.931-.343.707.707,0,0,1-.324-.868.7.7,0,0,1,.848-.43c.683.182,1.424.436,1.222,1.171a.677.677,0,0,1-.815.471" transform="translate(-55.324 -99.741)" fill="#15342f"/>
        <path id="Trazado_1002545" data-name="Trazado 1002545" d="M155.514,64.07c.53.313.453,1.594.085,1.892a.773.773,0,0,1-.82.053c-.5-.277-.467-1.559-.083-1.882a.714.714,0,0,1,.817-.063" transform="translate(-133.561 -55.334)" fill="#15342f"/>
        <path id="Trazado_1002546" data-name="Trazado 1002546" d="M104.575,119.583a1.364,1.364,0,0,1-.163,1.378,1.517,1.517,0,0,1-1.26.61H87.514a1.519,1.519,0,0,1-1.2-.533,1.383,1.383,0,0,1-.221-1.454,7.774,7.774,0,0,1,6.294-4.437,2.538,2.538,0,0,0,.019-1.341,7.988,7.988,0,0,1-4.97-6.714,2.894,2.894,0,0,1-2.177-2.818l-.006-5.665a7.965,7.965,0,0,1,8.058-8l6.882.017a1.674,1.674,0,0,1,1.439.976,1.906,1.906,0,0,1-.264,1.966,5.054,5.054,0,0,1,4.035,4.913l.011,5.67a2.953,2.953,0,0,1-2.187,2.945,7.965,7.965,0,0,1-4.966,6.708,2.555,2.555,0,0,0,.015,1.338,7.8,7.8,0,0,1,6.3,4.443m-.617-19.528c.455-2.706-1.077-5.061-3.216-5.084l-3.224-.034a.718.718,0,0,1-.727-.711c0-1.2,1.622-.509,2.532-.8.153-.049,1.15-.886,1.007-1.184a.355.355,0,0,0-.293-.214l-7.237.048c-3.858.026-6.732,3.971-6.095,7.99a2.523,2.523,0,0,1,1.984.288c1.633-2.063,2.976-.558,5.776-2.615a1.366,1.366,0,0,1,1.656-.043c3.156,2.191,3.718.5,5.9,2.593a3.067,3.067,0,0,1,1.931-.231m-2.143,6.356a.689.689,0,0,1,.66-.663,1.468,1.468,0,0,0,1.493-1.456l0-2.155a.7.7,0,0,0-.732-.713c-1.049,0-.348,1.48-1.489,1.39a.677.677,0,0,1-.649-.685,1.608,1.608,0,0,0-1.337-1.576,8.854,8.854,0,0,1-4.427-1.669,9.175,9.175,0,0,1-4.527,1.7,1.575,1.575,0,0,0-1.235,1.542.687.687,0,0,1-.78.691c-.97-.04-.344-1.392-1.362-1.386a.686.686,0,0,0-.729.708l0,2.16a1.443,1.443,0,0,0,1.38,1.432.747.747,0,0,1,.779.731,6.481,6.481,0,1,0,12.961-.048m-5.065,9.572a9.008,9.008,0,0,0-.011-1.745,7.775,7.775,0,0,1-2.814.008,10.755,10.755,0,0,0-.036,1.506,1.434,1.434,0,0,0,1.38,1.479,1.406,1.406,0,0,0,1.482-1.248m1.344.606a2.858,2.858,0,0,1-2.934,2.091,2.954,2.954,0,0,1-2.62-2.119,6.357,6.357,0,0,0-5.1,3.57l15.777-.047a6.245,6.245,0,0,0-5.122-3.495" transform="translate(-73.744 -78.375)" fill="#15342f"/>
        <path id="Trazado_1002547" data-name="Trazado 1002547" d="M140.361,221.338c-.968.9-1.177-1.21-3.3-1.237-2.226-.029-2.334,2-3.344,1.3-1.071-.743,1-2.706,3.223-2.731s4.309,1.843,3.425,2.668" transform="translate(-115.411 -189.15)" fill="#15342f"/>
      </g>
    </g>
    <g id="Grupo_1191997" data-name="Grupo 1191997" transform="translate(559.682 8425.131)">
      <g id="Grupo_1191978" data-name="Grupo 1191978" transform="translate(0)" clip-path="url(#clip-path-27)">
        <path id="Trazado_1002548" data-name="Trazado 1002548" d="M11.666,40.391c.017-1.046.27-4.484-.47-4.9-1.913.289-4.721.9-6.542-.043a2.782,2.782,0,0,1-1.474-2.629l.27-5.466c.053-1.078-1.149-.858-2.424-1.5a1.744,1.744,0,0,1-.977-2.008A5.625,5.625,0,0,1,.91,21.982l2.109-3.226c.82-1.254-.055-2.126-.37-3.544a11.172,11.172,0,0,1,3.128-10.4A16.43,16.43,0,0,1,12.587.8c6.752-2.077,15.24-.1,19.331,6a5.759,5.759,0,0,1,7.635,1.111,7.449,7.449,0,0,1,1.605,5.847c-.773,5.26-6.345,9.36-10.65,11.908-3.134,5.494-2.862,8.652-2.7,14.737a.679.679,0,0,1-.682.766l-14.708.008a.71.71,0,0,1-.748-.782m2.582-16.049-.972.632a1.148,1.148,0,0,1-1.451-.173L9.878,22.84c-.956-.962.6-1.989.441-2.511A14.281,14.281,0,0,0,9.6,18.582c-.809-.2-2.036-.187-2.037-1.394l0-2.614c0-1.593,1.845-1.095,2.094-1.58a11.25,11.25,0,0,0,.707-1.721c-.167-.6-1.367-1.528-.438-2.459.669-.671,1.3-1.357,2.014-1.991.8-.712,1.723.237,2.32.532a10.305,10.305,0,0,0,1.852-.78c.33-.752.106-2.033,1.5-2.033H20.1c1.507,0,1.168,1.332,1.6,2.128,3-1.726,5.981-.654,8.21,1.792a5.734,5.734,0,0,0,.919-.938C25.548-.246,12.785-.7,6.452,6,4.184,8.407,2.9,11.748,3.9,14.857l.672,2.075a2.726,2.726,0,0,1-.331,2.3c-.606,1.027-1.27,1.984-1.932,2.986-.363.55-1.294,1.842-.882,2.329.519.615,3.441.458,3.321,2.683l-.28,5.213a1.93,1.93,0,0,0,.595,1.722c1.766,1.247,7.255-.206,9.3-.9a.593.593,0,0,1,.773.421c.2,1.072-1.563,1.059-2.515,1.509.645,1.66.251,2.962.4,4.674l13.447-.012c-.163-5.815-.237-9.089,2.6-14.322l-2.31-1.456c-.2.023-.482.351-.606.507a1.373,1.373,0,0,1-2.036.166c-.834-.687-1.1-.206-2.468.39-.312.54-.119,2.035-1.437,2.037l-2.594,0a1.274,1.274,0,0,1-1.3-1.168c-.216-1.313-.212-.85-2.076-1.672m-1.564-.557,1.437-.88a32.156,32.156,0,0,1,3.126,1.286l.426,1.665,2.4.008c.316-.6.068-1.625.821-1.879.893-.3,1.692-.791,2.62-1.016.577-.14,1.323,1.054,1.754.671.1-.093.411-.349.238-.485-2.878-2.274-5.931-5.092-6.716-8.835A7.42,7.42,0,0,1,20.54,7.627a9.608,9.608,0,0,1-.407-1.708,12.307,12.307,0,0,0-2.475-.034,11.41,11.41,0,0,1-.439,1.646c-.627.261-2.881,1.443-3.338,1.157l-1.206-.755-1.715,1.7c.132.511,1.068,1.27.788,1.8a20.63,20.63,0,0,1-1.229,2.713c-.324.444-1.121.252-1.62.475a13.159,13.159,0,0,0,.021,2.491c.521.193,1.3.058,1.639.474a15.837,15.837,0,0,1,1.222,2.986c-.031.549-.614.954-.828,1.464a18.514,18.514,0,0,0,1.73,1.751M39.36,15.407a6.591,6.591,0,0,0-.339-6.023,4.489,4.489,0,0,0-6.027-1.7c-2.16,1.141-2.357,2.565-3.178,2.467-.5-.06-1.1-1.437-2.865-2.416a4.483,4.483,0,0,0-6,1.448,6.465,6.465,0,0,0-.552,6.009c1.547,3.976,5.9,7.157,9.518,9.293,3.509-2.066,7.777-5.152,9.441-9.077" transform="translate(0 0)" fill="#02542b"/>
        <path id="Trazado_1002549" data-name="Trazado 1002549" d="M185.707,80.514a2.438,2.438,0,1,1,3.572-3.308,5.43,5.43,0,0,0,.779.75l3.787-3.753a2.4,2.4,0,0,1,3.471.089,2.449,2.449,0,0,1-.086,3.408l-5.4,5.41a2.447,2.447,0,0,1-3.541.044Zm.869-1,2.622,2.708a1.135,1.135,0,0,0,1.631.024l5.531-5.538a1.132,1.132,0,0,0-.076-1.6,1.144,1.144,0,0,0-1.576.069l-4.161,4.161a.669.669,0,0,1-.969.035l-1.418-1.431a1.116,1.116,0,0,0-1.584,1.57" transform="translate(-160.853 -63.919)" fill="#02542b"/>
      </g>
    </g>
    <g id="Grupo_1191993" data-name="Grupo 1191993" transform="translate(614.986 8521.678)">
      <g id="Grupo_1191980" data-name="Grupo 1191980" transform="translate(0)" clip-path="url(#clip-path-28)">
        <path id="Trazado_1002550" data-name="Trazado 1002550" d="M1.246,115.995c-.043,1.793,1.7,1.5,1.357,2.55a1.876,1.876,0,1,0,3.64.657,4.854,4.854,0,0,1,1.237.02,3.1,3.1,0,0,1-3.422,3.066,3.148,3.148,0,0,1-2.773-3.708A3.106,3.106,0,0,1,0,116.114a3.062,3.062,0,0,1,1.284-2.579,3.133,3.133,0,1,1,6.207-.692,2.561,2.561,0,0,1-1.242.058,1.88,1.88,0,1,0-3.648.661c.34,1.038-1.316.746-1.357,2.432" transform="translate(-0.001 -96.068)" fill="#15342f"/>
        <path id="Trazado_1002551" data-name="Trazado 1002551" d="M49.2,141.843a21.09,21.09,0,0,1-5.174-.629A4.56,4.56,0,0,1,44.31,140a21.019,21.019,0,0,0,4.859.589,3.626,3.626,0,0,1,.033,1.251" transform="translate(-38.52 -122.488)" fill="#15342f"/>
        <path id="Trazado_1002552" data-name="Trazado 1002552" d="M49.023,166.061a20.994,20.994,0,0,0-4.9.611,9.261,9.261,0,0,1-.309-1.2,20.235,20.235,0,0,1,5.2-.649,6.7,6.7,0,0,1,.011,1.236" transform="translate(-38.331 -144.205)" fill="#15342f"/>
        <path id="Trazado_1002553" data-name="Trazado 1002553" d="M254.922,118.593c-.346-1.155,1.3-.776,1.345-2.489.051-1.786-1.7-1.506-1.358-2.552a1.876,1.876,0,1,0-3.639-.658,3.964,3.964,0,0,1-1.238-.02,3.1,3.1,0,0,1,3.424-3.063,3.146,3.146,0,0,1,2.772,3.709,3.125,3.125,0,0,1,0,5.05,3.149,3.149,0,0,1-2.773,3.708,3.1,3.1,0,0,1-3.423-3.071,6.573,6.573,0,0,1,1.236-.021,1.874,1.874,0,1,0,3.654-.593" transform="translate(-218.752 -96.059)" fill="#15342f"/>
        <path id="Trazado_1002554" data-name="Trazado 1002554" d="M229.388,141.163a20.64,20.64,0,0,1-5.19.642,6.094,6.094,0,0,1,0-1.235,22.174,22.174,0,0,0,4.891-.615,5.664,5.664,0,0,1,.3,1.208" transform="translate(-196.123 -122.446)" fill="#15342f"/>
        <path id="Trazado_1002555" data-name="Trazado 1002555" d="M229.073,166.679a21.029,21.029,0,0,0-4.874-.589,3.946,3.946,0,0,1-.02-1.244,21.919,21.919,0,0,1,5.17.617,4.577,4.577,0,0,1-.276,1.216" transform="translate(-196.099 -144.222)" fill="#15342f"/>
        <path id="Trazado_1002556" data-name="Trazado 1002556" d="M138.814,137.292a1.3,1.3,0,0,0-1.218-1.248,1.252,1.252,0,0,0-1.312,1.222,3.935,3.935,0,0,1-1.23-.023,2.485,2.485,0,0,1,4.969,0,5.139,5.139,0,0,1-1.21.05" transform="translate(-118.159 -117.927)" fill="#15342f"/>
        <rect id="Rectángulo_456183" data-name="Rectángulo 456183" width="1.262" height="2.8" transform="matrix(0.447, -0.894, 0.894, 0.447, 14.718, 13.042)" fill="#15342f"/>
        <rect id="Rectángulo_456184" data-name="Rectángulo 456184" width="2.804" height="1.261" transform="matrix(0.895, -0.446, 0.446, 0.895, 20.971, 13.168)" fill="#15342f"/>
        <path id="Trazado_1002557" data-name="Trazado 1002557" d="M71.852,38.754l-26.267,0a.639.639,0,0,1-.648-.637l.008-8.75a4.971,4.971,0,0,1,3.623-4.729l6.292-1.964a1.688,1.688,0,0,0,.016-1.141,8.279,8.279,0,0,1-3.917-4.683,2.561,2.561,0,0,1-2.724-1.6,2.518,2.518,0,0,1,.975-3l-.557-2.008A7.6,7.6,0,0,1,50.368,3.12,7.871,7.871,0,0,1,57.249.657l6.7.8C68.51,2,69.3-.438,70.288.069c.433.222.3,1.783.284,2.534a7.529,7.529,0,0,1-3.737,6.358l-.006,2.891a2.492,2.492,0,0,1,2.484,2.685,2.527,2.527,0,0,1-2.88,2.306,8.356,8.356,0,0,1-3.922,4.7,1.831,1.831,0,0,0,0,1.125l6.391,2a4.923,4.923,0,0,1,3.539,4.7l.009,8.755a.625.625,0,0,1-.6.633m-20.6-29.4,2.575-.012a7.98,7.98,0,0,0,6.822-4.037,7,7,0,0,1,1.062.6A9.453,9.453,0,0,1,59.341,8.7c1.357.074,2.485.033,3.725.027A6.276,6.276,0,0,0,69.3,1.787a8.394,8.394,0,0,1-4.323,1l-8.4-.923a6.25,6.25,0,0,0-5.384,2.209c-1.931,2.271-1.9,4.919-.708,7.823.337-.659-.437-2.533.763-2.538m.565,4.953a6.879,6.879,0,1,0,13.757.045l-.014-4.792a10.142,10.142,0,0,1-3.236.425l-5.269-.027a12.39,12.39,0,0,1-5.238.623Zm-1.246-1.125c-.723-.181-1.288.571-1.248,1.232a1.2,1.2,0,0,0,1.342,1.154,14.244,14.244,0,0,1-.094-2.386m16.159,2.361a1.2,1.2,0,1,0,.1-2.39,16.538,16.538,0,0,1-.1,2.39m-5.615,7.362c.185-.186.1-.6-.01-.782a8.2,8.2,0,0,1-4.826-.008c-.086.181-.189.6,0,.789L58.7,25.337Zm-3.5,3.147-2.2-2.17a1.331,1.331,0,0,0-.93.3l.859,3a20.918,20.918,0,0,0,2.274-1.131M62.049,27.2l.865-3.054c-.266-.108-.663-.348-.927-.261l-2.2,2.16ZM50.566,31.9v5.608h7.506l-.015-10.234-2.815,1.392a.656.656,0,0,1-.919-.43l-1.071-3.729-4.426,1.37a3.667,3.667,0,0,0-2.63,3.488L46.182,37.5H49.31l0-5.627a9.841,9.841,0,0,1,1.254.023m16.262-.02,1.251,0,0,5.626h3.129l-.016-8.137a3.668,3.668,0,0,0-2.629-3.49L64.138,24.5l-1.073,3.731a.652.652,0,0,1-.834.466l-2.91-1.411,0,10.219h7.5Z" transform="translate(-39.315 0)" fill="#15342f"/>
        <path id="Trazado_1002558" data-name="Trazado 1002558" d="M174.527,249.167a10.77,10.77,0,0,1-2.058.593,9.852,9.852,0,0,1-1.991-.58.639.639,0,0,1-.5-.619v-3.129a.605.605,0,0,1,.617-.614l3.755,0a.607.607,0,0,1,.615.618v3.129a.622.622,0,0,1-.436.605m-.786-1.112-.022-2h-2.5l.029,2.079c1.28.372,1.162.53,2.492-.084" transform="translate(-148.712 -214.188)" fill="#15342f"/>
      </g>
    </g>
    <g id="Grupo_1191991" data-name="Grupo 1191991" transform="translate(560.869 8617.422)">
      <g id="Grupo_1191982" data-name="Grupo 1191982" transform="translate(0)" clip-path="url(#clip-path-29)">
        <path id="Trazado_1002559" data-name="Trazado 1002559" d="M26.105,30.385a10.156,10.156,0,0,1,4.18,9.3l-23.763,0A10.031,10.031,0,0,1,10.705,30.4a8.876,8.876,0,0,0-1.346-1.1l-7.786.029-.021-6.017a4.309,4.309,0,0,1-.025-6.6l.036-2.674A14.116,14.116,0,0,1,15.069.062c2.252-.083,4.407-.081,6.662,0A14.167,14.167,0,0,1,35.236,14.155l.035,2.549a4.3,4.3,0,0,1-.01,6.578l-.039,6.041-7.78-.028a8.846,8.846,0,0,0-1.336,1.09M19.581,8.13a5.582,5.582,0,0,0,2.181,2.794,7.564,7.564,0,0,0,4.209,1.215A6.635,6.635,0,0,1,31.3,15.726a6.849,6.849,0,0,0,1.577.01,15.9,15.9,0,0,0,.017-1.69A11.783,11.783,0,0,0,21.585,2.4c-2.185-.069-4.291-.082-6.473.005A11.78,11.78,0,0,0,3.9,13.822c-.023.68-.03,1.227.008,1.915a4.41,4.41,0,0,0,1.62-.065,6.59,6.59,0,0,1,5.181-3.519,7.972,7.972,0,0,0,4.25-1.178,5.56,5.56,0,0,0,2.251-2.861,16.958,16.958,0,0,0,2.366.015M29.742,18.548A4.426,4.426,0,0,0,25.85,14.5,9.324,9.324,0,0,1,18.4,10.9a9.346,9.346,0,0,1-7.45,3.6,4.421,4.421,0,0,0-3.894,4.1,11.35,11.35,0,1,0,22.687-.05M4.73,18.14a1.922,1.922,0,0,0-1.916,3.124,2.164,2.164,0,0,0,2.2.576,14.119,14.119,0,0,1-.283-3.7M31.824,21.88a2.15,2.15,0,0,0,2.335-.855,1.92,1.92,0,0,0-.071-2.15,1.888,1.888,0,0,0-2.04-.712,16.473,16.473,0,0,1-.224,3.717M7.179,26.9a22.161,22.161,0,0,1-1.4-2.615,9.758,9.758,0,0,0-1.89.008l.045,2.653A27.535,27.535,0,0,0,7.179,26.9m25.729,0-.036-2.646-1.854.031a26.433,26.433,0,0,1-1.408,2.652,26.547,26.547,0,0,0,3.3-.037M27.874,37.341a7.566,7.566,0,0,0-4.282-5.689,13.815,13.815,0,0,1-10.393.006,7.557,7.557,0,0,0-4.274,5.694Z" transform="translate(0 0)" fill="#02542b"/>
        <path id="Trazado_1002560" data-name="Trazado 1002560" d="M127.7,184.23a1.108,1.108,0,0,0-1.205-.993l-4.1.009v-2.327l4.571.022a3.181,3.181,0,0,1,3.021,3.29,14.737,14.737,0,0,1-2.29,0" transform="translate(-107.224 -158.493)" fill="#02542b"/>
        <path id="Trazado_1002561" data-name="Trazado 1002561" d="M76.925,141.3A8.634,8.634,0,0,0,79,142.461a4.356,4.356,0,0,1-3.781,2.163,4.035,4.035,0,0,1-3.507-2.1l2.029-1.2a1.657,1.657,0,0,0,1.711.945,1.8,1.8,0,0,0,1.476-.966" transform="translate(-62.821 -123.786)" fill="#02542b"/>
        <path id="Trazado_1002562" data-name="Trazado 1002562" d="M173.646,142.537a4.1,4.1,0,0,1-3.515,2.09,4.363,4.363,0,0,1-3.785-2.163,8.257,8.257,0,0,0,2.072-1.159,1.8,1.8,0,0,0,1.476.965,1.649,1.649,0,0,0,1.711-.946Z" transform="translate(-145.725 -123.79)" fill="#02542b"/>
      </g>
    </g>
    <g id="Grupo_1191986" data-name="Grupo 1191986" transform="translate(348 8379.965)">
      <circle id="Elipse_5841" data-name="Elipse 5841" cx="21.252" cy="21.252" r="21.252" transform="translate(0 0)" fill="#fe87f6"/>
      <text id="_1" data-name="1" transform="translate(16.528 28.638)" fill="#12263f" font-size="18" font-family="SegoeUI-Bold, Segoe UI" font-weight="700"><tspan x="0" y="0">1</tspan></text>
    </g>
    <g id="Grupo_1192000" data-name="Grupo 1192000" transform="translate(584.039 8379.965)">
      <circle id="Elipse_5841-2" data-name="Elipse 5841" cx="21.252" cy="21.252" r="21.252" transform="translate(0 0)" fill="#fe87f6"/>
      <text id="_4" data-name="4" transform="translate(16.528 28.638)" fill="#12263f" font-size="18" font-family="SegoeUI-Bold, Segoe UI" font-weight="700"><tspan x="0" y="0">4</tspan></text>
    </g>
    <g id="Grupo_1191999" data-name="Grupo 1191999" transform="translate(348 8662.496)">
      <circle id="Elipse_5841-3" data-name="Elipse 5841" cx="21.252" cy="21.252" r="21.252" transform="translate(0 0)" fill="#fe87f6"/>
      <text id="_3" data-name="3" transform="translate(16.528 28.638)" fill="#12263f" font-size="18" font-family="SegoeUI-Bold, Segoe UI" font-weight="700"><tspan x="0" y="0">3</tspan></text>
    </g>
    <g id="Grupo_1192002" data-name="Grupo 1192002" transform="translate(583.415 8662.496)">
      <circle id="Elipse_5841-4" data-name="Elipse 5841" cx="21.252" cy="21.252" r="21.252" transform="translate(0 0)" fill="#fe87f6"/>
      <text id="_6" data-name="6" transform="translate(16.528 28.638)" fill="#12263f" font-size="18" font-family="SegoeUI-Bold, Segoe UI" font-weight="700"><tspan x="0" y="0">6</tspan></text>
    </g>
    <g id="Grupo_1191998" data-name="Grupo 1191998" transform="translate(292.121 8476.862)">
      <circle id="Elipse_5841-5" data-name="Elipse 5841" cx="21.252" cy="21.252" r="21.252" transform="translate(0 0)" fill="#fe87f6"/>
      <text id="_2" data-name="2" transform="translate(16.528 28.638)" fill="#12263f" font-size="18" font-family="SegoeUI-Bold, Segoe UI" font-weight="700"><tspan x="0" y="0">2</tspan></text>
    </g>
    <g id="Grupo_1192001" data-name="Grupo 1192001" transform="translate(640.188 8476.862)">
      <circle id="Elipse_5841-6" data-name="Elipse 5841" cx="21.252" cy="21.252" r="21.252" transform="translate(0 0)" fill="#fe87f6"/>
      <text id="_5" data-name="5" transform="translate(16.528 28.638)" fill="#12263f" font-size="18" font-family="SegoeUI-Bold, Segoe UI" font-weight="700"><tspan x="0" y="0">5</tspan></text>
    </g>
    <g id="Grupo_1192009" data-name="Grupo 1192009" transform="translate(13.975)">
      <g id="Grupo_1192003" data-name="Grupo 1192003" transform="translate(314.025 8749.545)">
        <circle id="Elipse_5841-7" data-name="Elipse 5841" cx="21.252" cy="21.252" r="21.252" transform="translate(0)" fill="#fe87f6"/>
        <text id="_1-2" data-name="1" transform="translate(16.528 28.638)" fill="#12263f" font-size="18" font-family="SegoeUI-Bold, Segoe UI" font-weight="700"><tspan x="0" y="0">1</tspan></text>
      </g>
      <g id="Grupo_1192004" data-name="Grupo 1192004" transform="translate(314.025 8880.05)">
        <circle id="Elipse_5841-8" data-name="Elipse 5841" cx="21.252" cy="21.252" r="21.252" transform="translate(0)" fill="#fe87f6"/>
        <text id="_2-2" data-name="2" transform="translate(16.528 28.638)" fill="#12263f" font-size="18" font-family="SegoeUI-Bold, Segoe UI" font-weight="700"><tspan x="0" y="0">2</tspan></text>
      </g>
      <g id="Grupo_1192005" data-name="Grupo 1192005" transform="translate(314.025 9010.555)">
        <circle id="Elipse_5841-9" data-name="Elipse 5841" cx="21.252" cy="21.252" r="21.252" transform="translate(0 0)" fill="#fe87f6"/>
        <text id="_3-2" data-name="3" transform="translate(16.528 28.638)" fill="#12263f" font-size="18" font-family="SegoeUI-Bold, Segoe UI" font-weight="700"><tspan x="0" y="0">3</tspan></text>
      </g>
      <g id="Grupo_1192006" data-name="Grupo 1192006" transform="translate(314.025 9141.06)">
        <circle id="Elipse_5841-10" data-name="Elipse 5841" cx="21.252" cy="21.252" r="21.252" transform="translate(0 0)" fill="#fe87f6"/>
        <text id="_4-2" data-name="4" transform="translate(16.528 28.638)" fill="#12263f" font-size="18" font-family="SegoeUI-Bold, Segoe UI" font-weight="700"><tspan x="0" y="0">4</tspan></text>
      </g>
      <g id="Grupo_1192007" data-name="Grupo 1192007" transform="translate(314.025 9271.56)">
        <circle id="Elipse_5841-11" data-name="Elipse 5841" cx="21.252" cy="21.252" r="21.252" transform="translate(0)" fill="#fe87f6"/>
        <text id="_5-2" data-name="5" transform="translate(16.528 28.638)" fill="#12263f" font-size="18" font-family="SegoeUI-Bold, Segoe UI" font-weight="700"><tspan x="0" y="0">5</tspan></text>
      </g>
      <g id="Grupo_1192008" data-name="Grupo 1192008" transform="translate(314.025 9402.06)">
        <circle id="Elipse_5841-12" data-name="Elipse 5841" cx="21.252" cy="21.252" r="21.252" transform="translate(0)" fill="#fe87f6"/>
        <text id="_6-2" data-name="6" transform="translate(16.528 28.638)" fill="#12263f" font-size="18" font-family="SegoeUI-Bold, Segoe UI" font-weight="700"><tspan x="0" y="0">6</tspan></text>
      </g>
      <text id="Empatía_La_falta_de_empatía_dificulta_la_comprensión_de_los_demás." data-name="Empatía

La falta de empatía dificulta la comprensión de los demás." transform="translate(375.359 8761.049)" fill="#12263f" font-size="16" font-family="SegoeUI-Bold, Segoe UI" letter-spacing="0.003em" font-weight="700"><tspan x="0" y="17">Empatía</tspan><tspan font-family="SegoeUI, Segoe UI" font-weight="400"><tspan x="0" y="41"></tspan><tspan x="0" y="65">La falta de empatía dificulta la </tspan><tspan x="0" y="89">comprensión de los demás.</tspan></tspan></text>
      <text id="Tolerancia_La_falta_de_tolerancia_fomenta_la_discriminación_y_el_prejuicio." data-name="Tolerancia

La falta de tolerancia fomenta la discriminación y el prejuicio." transform="translate(375.359 8891.554)" fill="#12263f" font-size="16" font-family="SegoeUI-Bold, Segoe UI" letter-spacing="0.003em" font-weight="700"><tspan x="0" y="17">Tolerancia</tspan><tspan font-family="SegoeUI, Segoe UI" font-weight="400"><tspan x="0" y="41"></tspan><tspan x="0" y="65">La falta de tolerancia fomenta la </tspan><tspan x="0" y="89">discriminación y el prejuicio.</tspan></tspan></text>
      <text id="Frustración_La_frustración_genera_resentimiento_y_comportamientos_negativos." data-name="Frustración

La frustración genera resentimiento y comportamientos negativos." transform="translate(375.359 9022.059)" fill="#12263f" font-size="16" font-family="SegoeUI-Bold, Segoe UI" letter-spacing="0.003em" font-weight="700"><tspan x="0" y="17">Frustración</tspan><tspan font-family="SegoeUI, Segoe UI" font-weight="400"><tspan x="0" y="41"></tspan><tspan x="0" y="65">La frustración genera resentimiento </tspan><tspan x="0" y="89">y comportamientos negativos.</tspan></tspan></text>
      <text id="Comprensión_La_falta_de_comprensión_genera_malentendidos_y_conflictos." data-name="Comprensión

La falta de comprensión genera malentendidos y conflictos." transform="translate(375.359 9152.563)" fill="#12263f" font-size="16" font-family="SegoeUI-Bold, Segoe UI" letter-spacing="0.003em" font-weight="700"><tspan x="0" y="17">Comprensión</tspan><tspan font-family="SegoeUI, Segoe UI" font-weight="400"><tspan x="0" y="41"></tspan><tspan x="0" y="65">La falta de comprensión genera </tspan><tspan x="0" y="89">malentendidos y conflictos.</tspan></tspan></text>
      <text id="Ira_La_ira_conduce_a_comportamientos_agresivos_y_dañinos." data-name="Ira

La ira conduce a comportamientos agresivos y dañinos." transform="translate(375.359 9283.063)" fill="#12263f" font-size="16" font-family="SegoeUI-Bold, Segoe UI" letter-spacing="0.003em" font-weight="700"><tspan x="0" y="17">Ira</tspan><tspan font-family="SegoeUI, Segoe UI" font-weight="400"><tspan x="0" y="41"></tspan><tspan x="0" y="65">La ira conduce a comportamientos </tspan><tspan x="0" y="89">agresivos y dañinos.</tspan></tspan></text>
      <text id="Resentimiento_El_resentimiento_envenena_las_relaciones_y_la_convivencia." data-name="Resentimiento

El resentimiento envenena las relaciones y la convivencia." transform="translate(375.359 9413.563)" fill="#12263f" font-size="16" font-family="SegoeUI-Bold, Segoe UI" letter-spacing="0.003em" font-weight="700"><tspan x="0" y="17">Resentimiento</tspan><tspan font-family="SegoeUI, Segoe UI" font-weight="400"><tspan x="0" y="41"></tspan><tspan x="0" y="65">El resentimiento envenena las </tspan><tspan x="0" y="89">relaciones y la convivencia.</tspan></tspan></text>
    </g>
  </g>
</svg>
