<svg xmlns="http://www.w3.org/2000/svg" xmlns:xlink="http://www.w3.org/1999/xlink" width="84" height="84" viewBox="0 0 84 84">
  <defs>
    <clipPath id="clip-path">
      <rect id="Rectángulo_456388" data-name="Rectángulo 456388" width="59.457" height="59.507" fill="#12263f"/>
    </clipPath>
  </defs>
  <g id="Grupo_1178000" data-name="Grupo 1178000" transform="translate(-706 -1685.277)">
    <g id="Grupo_1177731" data-name="Grupo 1177731">
      <g id="Grupo_1119665" data-name="Grupo 1119665" transform="translate(530.111 -3835.723)">
        <path id="Trazado_991847" data-name="Trazado 991847" d="M5,0H79a5,5,0,0,1,5,5V79a5,5,0,0,1-5,5H5a5,5,0,0,1-5-5V5A5,5,0,0,1,5,0Z" transform="translate(175.889 5521)" fill="#a0f7fe"/>
      </g>
      <g id="Grupo_1192264" data-name="Grupo 1192264" transform="translate(716.021 1697.524)">
        <g id="Grupo_1192263" data-name="Grupo 1192263" clip-path="url(#clip-path)">
          <path id="Trazado_1003237" data-name="Trazado 1003237" d="M11.255,2.331c-3.91.688-6.733,1.647-8.3,5.427a16.069,16.069,0,0,0-.127,11.925c2.416,6.273,7.869,4.509,8.059,6.324.035.334-.274,1-.827.909C5.881,26.228,3,24.628,1.34,20.636A17.766,17.766,0,0,1,1.029,7.9c1.438-4.073,3.83-5.911,8-6.876A41.044,41.044,0,0,1,26.959.953,13.791,13.791,0,0,1,31.73,2.89c2.634,1.735,3.96,5.584,4.369,8.637a.878.878,0,1,1-1.732.236c-.4-3.239-1.751-6.857-5-8.207C24.32,1.457,16.6,1.391,11.255,2.331" transform="translate(0 0.001)" fill="#12263f"/>
          <path id="Trazado_1003238" data-name="Trazado 1003238" d="M40.719,47.178A3.234,3.234,0,0,1,37.6,48.989a3.346,3.346,0,0,1-2.928-2.009,8.6,8.6,0,0,1-4.843-1.43,6.237,6.237,0,0,1-2.291-5.475,5.8,5.8,0,0,1,4.118-5.632,10.993,10.993,0,0,1,6.627.036,5.686,5.686,0,0,1,3.947,4.987,7.028,7.028,0,0,1-1.488,5.46,3.056,3.056,0,0,1-.023,2.252m-5.981-2.039a3.382,3.382,0,0,1,4.773-1.509,5.074,5.074,0,0,0,1-3.9,4.058,4.058,0,0,0-3.049-3.7A10.032,10.032,0,0,0,32.481,36a4.147,4.147,0,0,0-3.194,4.289,4.508,4.508,0,0,0,1.463,3.767,5.641,5.641,0,0,0,3.987,1.083m4.433.849c-.083-.832-.971-1.1-1.575-1.041a1.249,1.249,0,0,0-1.25,1.122,1.277,1.277,0,0,0,1.422,1.169c.617,0,1.491-.356,1.4-1.25" transform="translate(-22.413 -27.636)" fill="#12263f"/>
          <path id="Trazado_1003239" data-name="Trazado 1003239" d="M124.348,42.069c.4-1.508,2.642.278,3.217-1.941a1.739,1.739,0,0,0-1.164-2.089c-2.319-.668-1.865,2.232-3.29,1.8a.879.879,0,0,1-.589-1.008,3.473,3.473,0,0,1,6.828,1.146,3.574,3.574,0,0,1-3.492,3.244l-.518,1.853a.85.85,0,0,1-.972.629.87.87,0,0,1-.67-1.164Z" transform="translate(-99.717 -29.471)" fill="#12263f"/>
          <path id="Trazado_1003240" data-name="Trazado 1003240" d="M125.262,97.111a.915.915,0,1,1-.915-.915.915.915,0,0,1,.915.915" transform="translate(-100.477 -78.307)" fill="#12263f"/>
          <path id="Trazado_1003241" data-name="Trazado 1003241" d="M100.074,113.39a.916.916,0,1,1-.916-.916.916.916,0,0,1,.916.916" transform="translate(-79.972 -91.558)" fill="#12263f"/>
          <path id="Trazado_1003242" data-name="Trazado 1003242" d="M101,95.753c3.112,1.459,7.955,3.166,10.057,5.646.553.883,2.675,4.416,1.022,4.758-1.388.287-1.026-2.03-2.527-3.82-1.478-1.763-7.255-4.151-9.619-5.07a15.181,15.181,0,0,1-5.582,8.758.908.908,0,0,1-1.088-.057,15.185,15.185,0,0,1-5.515-8.69l-3.5,1.442a.884.884,0,0,1-1.2-.454.9.9,0,0,1,.546-1.16l3.094-1.361A12.8,12.8,0,0,1,80.965,85.6a8.736,8.736,0,0,1-2.956-2.989,4.438,4.438,0,0,1-2.888-.315,2.5,2.5,0,0,1-.956-2.911c.416-1.572,2.228-1.662,3.644-1.646a4.085,4.085,0,0,1,3.1-2.664,5.808,5.808,0,0,0,0-1.754,32.712,32.712,0,0,1-6.09.956,3.43,3.43,0,0,1-2.356,3.683,7.444,7.444,0,0,1-5.119-.163,3.246,3.246,0,0,1-1.932-2.812,3.389,3.389,0,0,1,1.541-3.237c1.216-.775,2.605-.658,3.95-.741,1.449-.089,2.3,1.113,3.4,1.353,2.2.48,4.555-.515,6.649-.864a32.584,32.584,0,0,1,.13-3.836c.71-4.7,4.425-7.023,8.964-7.273a10.948,10.948,0,0,1,9.525-2.917c.582.08.955.331.965.863a.832.832,0,0,1-.972.882c-3.725-.364-6.007.158-8.7,2.748a25.864,25.864,0,0,0-4.017.845c-3.58,1.506-4.412,4.475-4.081,7.986l2.275-3.442,5.362,0a9.973,9.973,0,0,0,7.7,5.27c-.359-1.133-1.83-6.017.46-5.239a10.232,10.232,0,0,1,5.628,4.9,6.714,6.714,0,0,0,2.23-6.82c-.4-1.7,2.343-1.515,2.242-5.166-1.319.492-2.606,1.486-4.069,1.333-.8-.229-1.469-1.206-2.281-1.541-.415-.171-.335-.867-.2-1.125.579-1.085,2.189.355,2.911.906,1.462-.083,3.9-2.138,4.543-1.9a1.024,1.024,0,0,1,.656.731,6.486,6.486,0,0,1-2.018,6.619,9.334,9.334,0,0,1-1.417,6.858c-.271.815.048,1.9-.06,2.827a4.261,4.261,0,0,1,3.141,2.81,6.513,6.513,0,0,1-3.141,7.767A12.926,12.926,0,0,1,101,95.753m3.951-10.383-.01-11.349c-.511.241-.8.471-1.193.449s-.625-.3-.807-.708a8.117,8.117,0,0,0-3.731-4.138c-.165,1.977,2.541,4.938,0,4.871a11.771,11.771,0,0,1-9.776-5.411l-3.53.008-3.214,5.339L82.722,85.5a10.34,10.34,0,0,0,3.6,7.7c2.814,2.529,6.39,4.61,10.206,3.1a15.779,15.779,0,0,0,5.15-3.418,10.312,10.312,0,0,0,3.268-7.512M72.224,76.158a1.676,1.676,0,0,0,.8-1.9,1.7,1.7,0,0,0-1.421-1.317c-1.4-.332-4.373-.371-4.464,1.556a1.639,1.639,0,0,0,1.005,1.747,5.313,5.313,0,0,0,4.077-.084m8.722,7.17-.023-6.452c-2.946,1.529-.515,2.61-1.463,4.441a3.692,3.692,0,0,0,1.486,2.01m27.258-5.01a1.881,1.881,0,0,0-1.458-1.382l.042,6.436a4.562,4.562,0,0,0,1.416-5.054M77.815,79.843a1.4,1.4,0,0,0-1.933,0,.7.7,0,0,0,.118.92c.388.28,1.534.287,1.805-.09a.71.71,0,0,0,.009-.83M98.02,97.574a9.316,9.316,0,0,1-8.384,0,13.083,13.083,0,0,0,4.212,6.59,12.921,12.921,0,0,0,4.173-6.6" transform="translate(-53.239 -46.675)" fill="#12263f"/>
          <path id="Trazado_1003243" data-name="Trazado 1003243" d="M119.983,283.364c-1.675,1.822-1.222,4.383-2.73,3.952a.929.929,0,0,1-.521-1.257c1.293-3.553,1.7-4.17,5.075-6.041a.887.887,0,0,1,1.157.275c.741,1.374-1.535,1.5-2.981,3.071" transform="translate(-94.966 -227.856)" fill="#12263f"/>
          <path id="Trazado_1003244" data-name="Trazado 1003244" d="M203.9,227.206c-.37,2.077-7.79,2.118-8.4.082-.475-1.581,1.629-3.489,4.054-3.547,2.334-.055,4.679,1.609,4.348,3.465m-1.778-.576a3.052,3.052,0,0,0-4.866.056,8.187,8.187,0,0,0,4.866-.056" transform="translate(-159.083 -182.132)" fill="#12263f"/>
          <path id="Trazado_1003245" data-name="Trazado 1003245" d="M206.2,181.332a3.991,3.991,0,0,1-4.217-.12,2.228,2.228,0,0,1-.9-2.663c.425-1.369,1.448-4.01,3.009-4.1,1.785-.109,3.118,3.237,3.318,4.944a2.142,2.142,0,0,1-1.208,1.944m-.552-1.817a5.635,5.635,0,0,0-1.5-3.264c-.576.871-1.615,2.165-1.3,3.236.275.945,2.251.794,2.8.028" transform="translate(-163.584 -142.001)" fill="#12263f"/>
          <path id="Trazado_1003246" data-name="Trazado 1003246" d="M228.893,157.558c-.388.52.215,2.087-.948,2.208a.9.9,0,0,1-.969-.871,7.071,7.071,0,0,0-.087-1.773c-.167-.424-1.692-.312-1.536-1.459.261-1.91,2.875.817,6.619.381.594-.069,1.112.072,1.229.591.389,1.739-3,1.2-4.308.923" transform="translate(-183.436 -126.156)" fill="#12263f"/>
          <path id="Trazado_1003247" data-name="Trazado 1003247" d="M175.078,145.927a5.043,5.043,0,0,0-4.928-.115c-.532.3-1,.487-1.407-.007-1.263-1.536,3.712-3.541,7.324-1.319a.927.927,0,0,1,.258,1.285.888.888,0,0,1-1.247.156" transform="translate(-137.2 -116.812)" fill="#12263f"/>
          <path id="Trazado_1003248" data-name="Trazado 1003248" d="M182.272,163.364c.054,1.1.215,2.313-.668,2.529a.769.769,0,0,1-.94-.493,5.448,5.448,0,0,1,0-2.387c.1-.437.626-.528.9-.472a.849.849,0,0,1,.7.823" transform="translate(-146.96 -132.302)" fill="#12263f"/>
        </g>
      </g>
    </g>
  </g>
</svg>
