<svg xmlns="http://www.w3.org/2000/svg" xmlns:xlink="http://www.w3.org/1999/xlink" width="150" height="150" viewBox="0 0 150 150">
  <defs>
    <clipPath id="clip-path">
      <rect id="Rectángulo_456393" data-name="Rectángulo 456393" width="85.573" height="92.116" fill="#15342f"/>
    </clipPath>
  </defs>
  <g id="Grupo_1192015" data-name="Grupo 1192015" transform="translate(-383.746 -8400)">
    <circle id="Elipse_13609" data-name="Elipse 13609" cx="75" cy="75" r="75" transform="translate(383.746 8400)" fill="#fff"/>
    <g id="Grupo_1192274" data-name="Grupo 1192274" transform="translate(415.96 8426.03)">
      <g id="Grupo_1192273" data-name="Grupo 1192273" clip-path="url(#clip-path)">
        <path id="Trazado_1003305" data-name="Trazado 1003305" d="M83.259,207.811l-19.894.023a9.734,9.734,0,0,0,.114,1.845,2.742,2.742,0,0,1-2.777,2.934H24.873a2.74,2.74,0,0,1-2.778-2.933,9.815,9.815,0,0,0,.116-1.847l-19.558-.011a2.816,2.816,0,0,1-2.625-3.4,18.718,18.718,0,0,1,12.253-15.542,10.617,10.617,0,1,1,12.208.006,19.521,19.521,0,0,1,7.206,4.739,41.337,41.337,0,0,1,4.592-2.246,11.886,11.886,0,1,1,13,0,39.155,39.155,0,0,1,4.592,2.244,19.455,19.455,0,0,1,7.208-4.735,10.64,10.64,0,1,1,12.206-.008,18.719,18.719,0,0,1,12.251,15.544,2.856,2.856,0,0,1-2.286,3.385M26.082,180.158a7.72,7.72,0,1,0-7.72,7.72,7.72,7.72,0,0,0,7.72-7.72m48.849,0a7.72,7.72,0,1,0-7.72,7.72,7.72,7.72,0,0,0,7.72-7.72m-23.161,1.265a8.982,8.982,0,1,0-8.982,8.982,8.983,8.983,0,0,0,8.982-8.982m-28.741,23.45a21.681,21.681,0,0,1,6.31-9.55A15.512,15.512,0,0,0,2.928,204.9Zm39.579.056,20.036-.049a15.483,15.483,0,0,0-26.423-9.495,21.376,21.376,0,0,1,6.387,9.543m-2,4.748a17.87,17.87,0,0,0-35.615.039Z" transform="translate(0 -120.497)" fill="#15342f"/>
        <path id="Trazado_1003306" data-name="Trazado 1003306" d="M85.407,35.331c.263,2.452-1.222,4.8-3.793,4.8l-17.591.052-9.792,7.024a1.551,1.551,0,0,1-1.527.11,1.532,1.532,0,0,1-.781-1.341L51.851,40.3a3.567,3.567,0,0,0-1.478-.146,3.9,3.9,0,0,1-4.265-3.979l.015-19.627a3.89,3.89,0,0,1,4.25-3.879,13.2,13.2,0,0,0,2.3-.053L52.71,3.75A3.686,3.686,0,0,1,56.178,0L88.836.034c1.9,0,3.069,2.137,3.14,3.674.066,1.418-.08,2.479.074,3.9l9.208.075a3.713,3.713,0,0,1,3.708,3.654l.025,19.9a3.943,3.943,0,0,1-4.26,3.928,3.5,3.5,0,0,0-1.5.1l-.057,5.8a1.458,1.458,0,0,1-2.064,1.258L87.229,35.28a2.058,2.058,0,0,0-1.823.051M61.483,30.373l8.28-5.84,18.191-.008a1.106,1.106,0,0,0,1.138-1.118L89.084,3.817a1.011,1.011,0,0,0-1.1-.995L56.5,2.829a.957.957,0,0,0-.9.95l0,19.652a1.066,1.066,0,0,0,1.149,1.091l3.208.016c2.418.012.993,3.961,1.531,5.835m34.686,7.684c.492-1.812-.422-4.722.768-5.542.991-.682,3.656.206,5.117-.618l.064-20.254a1.088,1.088,0,0,0-1.134-1.1l-8.976.054-.063,13.127a3.889,3.889,0,0,1-4.209,3.711,7.842,7.842,0,0,0-2.312.1l.007,4.571c.82.422,1.906-.218,2.62.28ZM82.5,36.165c-.046-2.975.111-5.833-.086-8.732H70.63L60.8,34.466a1.431,1.431,0,0,1-1.627.024,1.48,1.48,0,0,1-.66-1.2l-.055-5.726a3.833,3.833,0,0,0-1.427-.151A3.953,3.953,0,0,1,52.7,23.473l-.022-7.787c-1.284-.172-2.536-.367-3.644.348l-.039,20.1a1.112,1.112,0,0,0,1.132,1.141l3.156,0c2.469,0,1.131,3.86,1.6,5.84L63.136,37.3l18.2-.038a1.058,1.058,0,0,0,1.166-1.1" transform="translate(-32.769 0)" fill="#15342f"/>
        <path id="Trazado_1003307" data-name="Trazado 1003307" d="M118.132,67.4,97,67.43a1.453,1.453,0,1,1,.166-2.9l20.865.021a1.409,1.409,0,0,1,1.35,1.172c.094.585-.248,1.678-1.252,1.679" transform="translate(-67.911 -45.862)" fill="#15342f"/>
        <path id="Trazado_1003308" data-name="Trazado 1003308" d="M117.935,22.845H97.149A1.479,1.479,0,0,1,95.6,21.58a1.4,1.4,0,0,1,1.52-1.627l21.108.032c.893,0,1.239.936,1.178,1.576a1.452,1.452,0,0,1-1.473,1.284" transform="translate(-67.935 -14.18)" fill="#15342f"/>
        <path id="Trazado_1003309" data-name="Trazado 1003309" d="M118.343,44.981l-21.234.044A1.42,1.42,0,0,1,95.562,43.7a1.482,1.482,0,0,1,1.564-1.557l20.782,0a1.487,1.487,0,0,1,1.448,1.076c.125.485-.037,1.759-1.013,1.761" transform="translate(-67.913 -29.949)" fill="#15342f"/>
      </g>
    </g>
  </g>
</svg>
