<svg xmlns="http://www.w3.org/2000/svg" xmlns:xlink="http://www.w3.org/1999/xlink" width="150" height="150" viewBox="0 0 150 150">
  <defs>
    <clipPath id="clip-path">
      <rect id="Rectángulo_456394" data-name="Rectángulo 456394" width="81.492" height="81.499" fill="#15342f"/>
    </clipPath>
  </defs>
  <g id="Grupo_1192016" data-name="Grupo 1192016" transform="translate(-383.746 -8400)">
    <circle id="Elipse_13609" data-name="Elipse 13609" cx="75" cy="75" r="75" transform="translate(383.746 8400)" fill="#fff"/>
    <g id="Grupo_1192276" data-name="Grupo 1192276" transform="translate(418 8434.25)">
      <g id="Grupo_1192275" data-name="Grupo 1192275" clip-path="url(#clip-path)">
        <path id="Trazado_1003310" data-name="Trazado 1003310" d="M29.415,140.189a1.268,1.268,0,0,1-.765,1.649,1.2,1.2,0,0,1-1.532-1,33.865,33.865,0,0,1,0-16.713,1.212,1.212,0,0,1,1.545-.988,1.193,1.193,0,0,1,.787,1.58,31.742,31.742,0,0,0-.034,15.47" transform="translate(-19.43 -91.741)" fill="#15342f"/>
        <path id="Trazado_1003311" data-name="Trazado 1003311" d="M235.129,220.629a14.5,14.5,0,1,1-14.5-14.5,14.5,14.5,0,0,1,14.5,14.5m-9.964,1.672a10.728,10.728,0,0,1,5.712,4.736,12.092,12.092,0,1,0-20.519-.02,11.543,11.543,0,0,1,5.793-4.757,6.084,6.084,0,0,1,8.808-8.392,6.23,6.23,0,0,1,.206,8.432m-.842-4.171a3.685,3.685,0,1,0-3.685,3.685,3.685,3.685,0,0,0,3.685-3.685M229.2,229.2c-1.4-3.828-4.881-5.068-8.583-5.071s-7.254,1.329-8.526,5.1A12.166,12.166,0,0,0,229.2,229.2" transform="translate(-153.637 -153.634)" fill="#15342f"/>
        <path id="Trazado_1003312" data-name="Trazado 1003312" d="M9.979,223.135a6.23,6.23,0,0,1,.195-8.447,6.082,6.082,0,0,1,8.8,8.39,11.584,11.584,0,0,1,5.8,4.755,12.111,12.111,0,0,0-7.835-18.24,1.208,1.208,0,0,1-1.05-1.478c.131-.676.777-1.009,1.6-.839a14.477,14.477,0,1,1-6.551.118,1.283,1.283,0,0,1,1.628.723c.138.442-.019,1.324-.7,1.484a12.241,12.241,0,0,0-8.376,6.76,12.008,12.008,0,0,0,.748,11.494,10.672,10.672,0,0,1,5.73-4.721m8.2-4.186a3.685,3.685,0,1,0-3.685,3.685,3.685,3.685,0,0,0,3.685-3.685m4.885,11.067c-1.446-3.871-4.912-5.051-8.551-5.064-3.708-.013-7.157,1.247-8.575,5.046a12.116,12.116,0,0,0,17.125.017" transform="translate(0 -154.453)" fill="#15342f"/>
        <path id="Trazado_1003313" data-name="Trazado 1003313" d="M140.928,282.8a33.464,33.464,0,0,1-16.811.023,1.217,1.217,0,0,1-1.031-1.332,1.177,1.177,0,0,1,1.375-1.012,33.206,33.206,0,0,0,16.044,0,1.181,1.181,0,0,1,.423,2.323" transform="translate(-91.734 -209.021)" fill="#15342f"/>
        <path id="Trazado_1003314" data-name="Trazado 1003314" d="M216.125,16.161a6.1,6.1,0,0,1,8.549-8.671,6.059,6.059,0,0,1,.387,8.645,11.121,11.121,0,0,1,5.81,4.747c1.783-2.261,1.1-5.507,3.075-5.127a1.192,1.192,0,0,1,.881,1.557,14.505,14.505,0,1,1-.179-6.4,1.212,1.212,0,0,1-.732,1.5,1.191,1.191,0,0,1-1.539-.779,12.1,12.1,0,1,0-22.013,9.279,10.675,10.675,0,0,1,5.76-4.749m8.167-4.168a3.68,3.68,0,1,0-3.68,3.68,3.68,3.68,0,0,0,3.68-3.68m4.873,11.1c-1.392-3.855-4.921-5.117-8.577-5.123-3.7-.006-7.3,1.4-8.509,5.146a12.2,12.2,0,0,0,17.086-.022" transform="translate(-153.611 0)" fill="#15342f"/>
        <path id="Trazado_1003315" data-name="Trazado 1003315" d="M282.908,140.718c-.219.895-.8,1.3-1.568,1.105a1.235,1.235,0,0,1-.789-1.528,32.341,32.341,0,0,0,0-15.643,1.238,1.238,0,0,1,.783-1.527,1.2,1.2,0,0,1,1.54.992,34.02,34.02,0,0,1,.033,16.6" transform="translate(-209.066 -91.73)" fill="#15342f"/>
        <path id="Trazado_1003316" data-name="Trazado 1003316" d="M116.338,128.367a52.029,52.029,0,0,1-7.018-.013c-2.768-.212-1.7-4.261-2.143-4.964a1.55,1.55,0,0,0-1.354-.71c-1.017.193-3.874,3.008-5.484.376-1.131-1.849-2.237-3.718-3.246-5.634-.852-1.618.343-3.074,1.84-3.71.855-.363,1.418-.736,1.462-1.515.054-.964-.515-1.378-1.462-1.776-1.5-.631-2.739-2.141-1.842-3.71l3.139-5.491a2.53,2.53,0,0,1,3.5-.87c.725.381,1.427,1.09,2.172,1.13a1.654,1.654,0,0,0,1.265-.73c.423-.626-.574-4.86,2.147-4.96a54.809,54.809,0,0,1,7.34.052c2.585.256,1.372,4.389,2.05,5.038.293.28.867.773,1.356.591a19.816,19.816,0,0,0,2.149-1.187,2.465,2.465,0,0,1,3.327.933l3.14,5.5c.9,1.577-.358,3.094-1.873,3.736-.846.359-1.391.713-1.433,1.488-.051.953.5,1.362,1.437,1.757,1.515.64,2.7,2.1,1.868,3.727-.96,1.875-2.082,3.658-3.139,5.485a2.489,2.489,0,0,1-3.5.882,7.521,7.521,0,0,0-2.078-1.119c-.476-.094-.984.336-1.255.581-.714.644.687,4.937-2.364,5.116m1.542-7.483c2.742-1.843,3.716.392,5.646.769l3-5.279c-2.072-1.616-3.558-1.17-3.512-4.306.046-3.189,1.216-2.561,3.522-4.312l-3.108-5.362c-2.367,1.05-3.025,2.485-5.558.852-2.628-1.695-1.529-2.03-1.9-5.184H109.8c-.384,2.437.73,3.791-1.933,5.2-.945.5-1.927,1.1-2.986.521l-2.546-1.39-3.107,5.366c2.15,1.642,3.546,1.191,3.516,4.314s-1.244,2.607-3.514,4.3l3.032,5.318c2.483-.8,2.629-2.459,5.616-.82,2.772,1.521,1.424,2.841,1.974,5.2l6.113-.006c.381-3.358-.718-3.417,1.91-5.183" transform="translate(-72.137 -71.322)" fill="#15342f"/>
        <path id="Trazado_1003317" data-name="Trazado 1003317" d="M147.3,140.691a6.588,6.588,0,1,1-6.588-6.588,6.588,6.588,0,0,1,6.588,6.588m-2.395,0a4.194,4.194,0,1,0-4.194,4.194,4.194,4.194,0,0,0,4.194-4.194" transform="translate(-99.965 -99.949)" fill="#15342f"/>
        <path id="Trazado_1003318" data-name="Trazado 1003318" d="M29,14.5A14.5,14.5,0,1,1,14.507,0,14.5,14.5,0,0,1,29,14.5M18.991,16.157a10.754,10.754,0,0,1,5.76,4.751,12.094,12.094,0,1,0-20.515-.023,11.216,11.216,0,0,1,5.812-4.749A6.077,6.077,0,0,1,18.72,7.629a6.12,6.12,0,0,1,.271,8.528m-.809-4.164a3.68,3.68,0,1,0-3.68,3.68,3.68,3.68,0,0,0,3.68-3.68M23.06,23.082c-1.389-3.854-4.9-5.1-8.539-5.115C10.8,17.953,7.2,19.361,5.973,23.115a12.189,12.189,0,0,0,17.087-.032" transform="translate(-0.008 -0.001)" fill="#15342f"/>
        <path id="Trazado_1003319" data-name="Trazado 1003319" d="M140.395,29.466a32.248,32.248,0,0,0-15.732-.01,1.252,1.252,0,0,1-1.53-.8,1.2,1.2,0,0,1,1-1.532,33.82,33.82,0,0,1,16.916.064,1.163,1.163,0,0,1,.79,1.469,1.217,1.217,0,0,1-1.439.806" transform="translate(-91.736 -19.442)" fill="#15342f"/>
      </g>
    </g>
  </g>
</svg>
