<svg xmlns="http://www.w3.org/2000/svg" xmlns:xlink="http://www.w3.org/1999/xlink" width="84" height="84" viewBox="0 0 84 84">
  <defs>
    <clipPath id="clip-path">
      <rect id="Rectángulo_456402" data-name="Rectángulo 456402" width="62.895" height="56.577" fill="#12263f"/>
    </clipPath>
  </defs>
  <g id="Grupo_1192056" data-name="Grupo 1192056" transform="translate(-706 -1685.277)">
    <g id="Grupo_1177731" data-name="Grupo 1177731">
      <g id="Grupo_1119665" data-name="Grupo 1119665" transform="translate(530.111 -3835.723)">
        <path id="Trazado_991847" data-name="Trazado 991847" d="M5,0H79a5,5,0,0,1,5,5V79a5,5,0,0,1-5,5H5a5,5,0,0,1-5-5V5A5,5,0,0,1,5,0Z" transform="translate(175.889 5521)" fill="#a0f7fe"/>
      </g>
      <g id="Grupo_1192292" data-name="Grupo 1192292" transform="translate(716.553 1698.989)">
        <g id="Grupo_1192291" data-name="Grupo 1192291" clip-path="url(#clip-path)">
          <path id="Trazado_1003381" data-name="Trazado 1003381" d="M145.851,27.493c-.1-.355-1.118-.347-1.382-.105a5.308,5.308,0,0,1-5.027,4.059,5.24,5.24,0,0,1-5.223-4.138,4.662,4.662,0,0,0-4.908,2.456,6.736,6.736,0,0,1-5.679,3.767l0,4.434a7.641,7.641,0,0,1,5.227,7.315l-.01,10.271a1.035,1.035,0,0,1-2.071,0l-.017-10.269a5.4,5.4,0,0,0-3.118-5L123.6,55.545a1,1,0,0,1-.945,1.028,1.013,1.013,0,0,1-1.132-1.036l0-23.02c0-2.147,3.891.3,5.843-3.586a7.686,7.686,0,0,1,3.019-3.119c-4.878-.647-6.766,1.526-11.388,1.426a1.036,1.036,0,1,1-.01-2.072,17.379,17.379,0,0,0,5.023-.863,18.342,18.342,0,0,1,8.591-.365,8.986,8.986,0,0,1-1.633-5.146,5.278,5.278,0,0,1-4.159-5.763,4.53,4.53,0,0,1,.984-1.766A11.668,11.668,0,0,1,133.7,1.476a11.5,11.5,0,0,1,12.012.455,1.039,1.039,0,0,1,.332,1.311,1.053,1.053,0,0,1-1.409.454,9.491,9.491,0,0,0-9.505-.6A9.344,9.344,0,0,0,130,10.423c.491.023,1.246.288,1.712-.052l3.835-2.8a1.133,1.133,0,0,1,1.521.182,9.206,9.206,0,0,0,6.475,2.722l5.08,0c.217-2.625-2.686-4.725-1-5.656,1.9-1.044,3.3,5.064,3.306,6.424.218.509.782,1.033.887,1.568.575,2.942-1.489,5.086-3.961,6.052-.419,2.024-.849,4.682-2.846,6.065a.5.5,0,0,0,.518.238.735.735,0,0,0,.541-.384c.728-1.623,2.239-1.645,3.742-1.757,3.254-.242,6.1,1.677,6.295,5.079A3.5,3.5,0,0,1,155,30.743c-.245.258.047.809.048,1.135l.008,6.9a1.032,1.032,0,0,1-2.064,0l-.092-7.23c-3.267-.331-3.164.354-5.183-2.214-.493-.627-1.6-.926-1.864-1.844m-.229-8.618c.008-2.176.062-4.251-.041-6.342a12.343,12.343,0,0,1-9.411-2.749l-3.1,2.237.033,7.267a6.118,6.118,0,0,0,6.55,5.853,6.264,6.264,0,0,0,5.973-6.266M130.9,16.525a30.684,30.684,0,0,0,.03-3.8c-.354-.349-1.676-.238-1.894.38a2.812,2.812,0,0,0,1.864,3.415m18.657-3.55c-.317-.593-1.32-.376-1.811-.37a36.441,36.441,0,0,0,.06,3.941c1.327-.5,2.509-2.156,1.751-3.572m4.218,15.947c.567-.868.038-1.988-.525-2.673-1.017-1.237-2.761-1.193-4.465-1.062A1.107,1.107,0,0,0,147.75,26.3c-.01,1.42,1.847.439,2.068,2,.246,1.733,3.65,1.091,3.954.625m-11.487-2.161a9.422,9.422,0,0,1-5.959-.02,2.974,2.974,0,0,0,3.112,2.589,2.815,2.815,0,0,0,2.847-2.569" transform="translate(-93.222 -0.001)" fill="#12263f"/>
          <path id="Trazado_1003382" data-name="Trazado 1003382" d="M257.09,197.757a1.033,1.033,0,0,1-.956,1.139,1.011,1.011,0,0,1-1.13-1.029l0-16.743a1.024,1.024,0,0,1,.952-1.038,1.012,1.012,0,0,1,1.128,1.038Z" transform="translate(-201.536 -142.324)" fill="#12263f"/>
          <path id="Trazado_1003383" data-name="Trazado 1003383" d="M287.1,213.569a1.035,1.035,0,0,1-.955,1.132,1.01,1.01,0,0,1-1.129-1.025l0-12.559a1.024,1.024,0,0,1,.95-1.033,1.011,1.011,0,0,1,1.126,1.033Z" transform="translate(-225.253 -158.128)" fill="#12263f"/>
          <path id="Trazado_1003384" data-name="Trazado 1003384" d="M206.74,90.308c2.146,1.869,2.946-1.079,4.224.042a1.047,1.047,0,0,1,.116,1.42,3.943,3.943,0,0,1-5.778,0,1.029,1.029,0,0,1,1.438-1.46" transform="translate(-162.074 -71.199)" fill="#12263f"/>
          <path id="Trazado_1003385" data-name="Trazado 1003385" d="M202.115,66.079a1.031,1.031,0,1,1-1.031-1.031,1.031,1.031,0,0,1,1.031,1.031" transform="translate(-158.108 -51.409)" fill="#12263f"/>
          <path id="Trazado_1003386" data-name="Trazado 1003386" d="M232.116,66.079a1.031,1.031,0,1,1-1.031-1.031,1.031,1.031,0,0,1,1.031,1.031" transform="translate(-181.819 -51.409)" fill="#12263f"/>
          <path id="Trazado_1003387" data-name="Trazado 1003387" d="M23.063,25.379a5.375,5.375,0,0,1-4.2,5.963,5.233,5.233,0,0,1-6.171-4.015,6.46,6.46,0,0,0-2.367.041c-.271,1.02-1.374,1.313-1.926,2-1.833,2.291-1.71,1.842-4.552,2.215a6.913,6.913,0,0,0-.706,3.449L3.131,55.546a1.007,1.007,0,0,1-.948,1.034,1.007,1.007,0,0,1-1.129-1.032L1.032,35.458a12.123,12.123,0,0,1,.662-4.366,3.21,3.21,0,0,1-1.679-3.18c.3-3.345,3.109-5.063,6.276-4.9,1.621.085,3.218.338,3.91,2.022a2.815,2.815,0,0,0,1.927.006A8.682,8.682,0,0,1,9.4,18.762a5.2,5.2,0,0,1-4.162-5.12l0-3.174A10.3,10.3,0,0,1,15.288.045L25.156.01A1.011,1.011,0,0,1,26.17.957a1,1,0,0,1-1.018,1.129l-9.866.06a8.21,8.21,0,0,0-7.931,8.446,21.768,21.768,0,0,1,2.7-.095,7.589,7.589,0,0,0,6.732-3.55,1.267,1.267,0,0,1,.939-.6,1.227,1.227,0,0,1,1.122.6A7.732,7.732,0,0,0,26.761,10.4,6.276,6.276,0,0,0,28.294,6.3l.021-5.243A1.006,1.006,0,0,1,29.257.029a1,1,0,0,1,1.12,1.026L30.4,5.872a9.229,9.229,0,0,1-1.409,5.1,3.428,3.428,0,0,1,1.362,2.252,5.2,5.2,0,0,1-4.123,5.544,8.452,8.452,0,0,1-3.169,6.615m1.033-6.5L24.07,12.5a9.541,9.541,0,0,1-6.257-3.392,9.756,9.756,0,0,1-6.28,3.417l-.005,6.141a6.286,6.286,0,1,0,12.568.213M9.37,16.532A30.09,30.09,0,0,0,9.4,12.739c-.347-.357-1.676-.237-1.893.377A2.811,2.811,0,0,0,9.37,16.532m18.656-3.549c-.317-.593-1.32-.376-1.811-.37a36.438,36.438,0,0,0,.06,3.941c1.327-.5,2.509-2.156,1.751-3.572M7.327,27.275c.682-.072,1.109-.5,1.012-1.147-.183-1.232-1.685-.964-3.118-.951a3.1,3.1,0,0,0-3.113,3.114c.008,1.359,1.861,1.125,3.125,1.052,1.6-.092.464-1.9,2.093-2.068m13.43-.507a9.422,9.422,0,0,1-5.959-.02,2.974,2.974,0,0,0,3.112,2.589,2.815,2.815,0,0,0,2.847-2.569" transform="translate(0 -0.008)" fill="#12263f"/>
          <path id="Trazado_1003388" data-name="Trazado 1003388" d="M37.09,193.8a1.032,1.032,0,0,1-.956,1.141A1.011,1.011,0,0,1,35,193.914l0-17.788a1.024,1.024,0,0,1,.952-1.039,1.012,1.012,0,0,1,1.128,1.039Z" transform="translate(-27.662 -138.373)" fill="#12263f"/>
          <path id="Trazado_1003389" data-name="Trazado 1003389" d="M71.741,90.308c2.148,1.869,2.945-1.079,4.223.043a1.046,1.046,0,0,1,.117,1.42,3.943,3.943,0,0,1-5.778,0,1.029,1.029,0,0,1,1.438-1.46" transform="translate(-55.379 -71.199)" fill="#12263f"/>
          <path id="Trazado_1003390" data-name="Trazado 1003390" d="M67.116,66.079a1.031,1.031,0,1,1-1.031-1.031,1.031,1.031,0,0,1,1.031,1.031" transform="translate(-51.414 -51.409)" fill="#12263f"/>
          <path id="Trazado_1003391" data-name="Trazado 1003391" d="M97.115,66.079a1.031,1.031,0,1,1-1.031-1.031,1.031,1.031,0,0,1,1.031,1.031" transform="translate(-75.123 -51.409)" fill="#12263f"/>
        </g>
      </g>
    </g>
  </g>
</svg>
