<svg id="Grupo_1179165" data-name="Grupo 1179165" xmlns="http://www.w3.org/2000/svg" xmlns:xlink="http://www.w3.org/1999/xlink" width="84" height="84" viewBox="0 0 84 84">
  <defs>
    <clipPath id="clip-path">
      <rect id="Rectángulo_456386" data-name="Rectángulo 456386" width="61.092" height="61.086" fill="#12263f"/>
    </clipPath>
  </defs>
  <g id="Grupo_1177731" data-name="Grupo 1177731">
    <g id="Grupo_1119665" data-name="Grupo 1119665">
      <path id="Trazado_991847" data-name="Trazado 991847" d="M5,0H79a5,5,0,0,1,5,5V79a5,5,0,0,1-5,5H5a5,5,0,0,1-5-5V5A5,5,0,0,1,5,0Z" fill="#a0f7fe"/>
    </g>
    <g id="Grupo_1192260" data-name="Grupo 1192260" transform="translate(11.454 11.457)">
      <g id="Grupo_1192259" data-name="Grupo 1192259" clip-path="url(#clip-path)">
        <path id="Trazado_1003222" data-name="Trazado 1003222" d="M25.093,196.5l-24.1,0A1.012,1.012,0,0,1,0,195.526l.033-3.936c.045-5.383,4.082-9.811,9.256-11.424a6.663,6.663,0,1,1,7.471-.009c5.143,1.62,9.2,6.024,9.243,11.394l.034,4.025a1,1,0,0,1-.944.926m-7.114-21.875a4.956,4.956,0,1,0-4.956,4.956,4.956,4.956,0,0,0,4.956-4.956m-3.663,15.254-.9-8.4c-.026-.243-.745-.235-.769,0l-.887,8.607,1.249,1.76a6.729,6.729,0,0,0,1.3-1.971m1.7.728-2.2,3.16a.939.939,0,0,1-.808.454.88.88,0,0,1-.712-.385l-2.283-3.312.844-8.987C4.4,182.906,1.016,188.455,1.735,194.8H24.281c-.011-1.146.111-2.162.011-3.281a11.179,11.179,0,0,0-9.085-9.969Z" transform="translate(0 -135.421)" fill="#12263f"/>
        <path id="Trazado_1003223" data-name="Trazado 1003223" d="M137.315,183.677l-3.713,1.531-.587,2.878a.934.934,0,0,1-1.016.729l-6.008,0c-1.5,0-1.035-2.277-1.633-3.623l-3.664-1.52-2.405,1.587a.845.845,0,0,1-1.1-.031l-4.473-4.444a.9.9,0,0,1-.175-1.137l1.612-2.472-1.5-3.713-2.881-.595a.87.87,0,0,1-.7-.885c-.041-1.614-.363-3.948.816-3.949l9.333-.009a.828.828,0,0,1,.833.826,8.957,8.957,0,0,0,17.913.021.8.8,0,0,1,.81-.836l9.324-.011a.81.81,0,0,1,.845.765l.021,3.162a.874.874,0,0,1-.619.881l-2.991.655-1.525,3.688,1.57,2.357a.977.977,0,0,1-.132,1.278l-4.359,4.353a.915.915,0,0,1-1.222.08ZM136.862,182c1.133-.484,2.144.984,3.305,1.468l3.474-3.49-1.358-2.029a1.317,1.317,0,0,1-.124-1.259l1.959-4.611a17.634,17.634,0,0,1,3.084-.749,2.705,2.705,0,0,0-.047-1.64l-7.532.019a10.655,10.655,0,0,1-21.238-.005l-7.521,0c-.122.372-.307,1.343.05,1.551l2.956.795,2.18,5.3L114.377,180l3.456,3.472,2.294-1.468a1.185,1.185,0,0,1,1.055.007c1.572.731,3.188,1.22,4.679,2.037l.7,3.044,4.9-.039.727-3.059Z" transform="translate(-87.869 -135.453)" fill="#12263f"/>
        <path id="Trazado_1003224" data-name="Trazado 1003224" d="M186.431,56.638a7.131,7.131,0,1,1-7.774.04l-.023-11.292c0-.552-1.965.342-2.665-.944a1.534,1.534,0,0,1,.2-1.829l5.133-5.706a1.589,1.589,0,0,1,1.244-.624,1.616,1.616,0,0,1,1.256.6l5.128,5.7a1.54,1.54,0,0,1,.276,1.728c-.57,1.2-1.653.716-2.745.951Zm-1.675-.823.019-11.552c0-1.2,1.916-.6,2.571-.866l-4.78-5.336-4.787,5.332c.846.3,2.576-.429,2.579,1.051l.027,11.385a8.594,8.594,0,0,1,4.371-.015m3.226,6.836a5.42,5.42,0,1,0-5.42,5.42,5.42,5.42,0,0,0,5.42-5.42" transform="translate(-141.428 -29.25)" fill="#12263f"/>
        <path id="Trazado_1003225" data-name="Trazado 1003225" d="M252.568,30.969l-4.369.015c-1.227,0-1.781-.906-1.779-2.043l.019-19.908c-.789-.276-2.166.195-2.719-.88a1.581,1.581,0,0,1,.227-1.86L249.291.4a1.517,1.517,0,0,1,2.06.009L256.6,6.2a1.609,1.609,0,0,1,.378,1.8c-.553,1.3-2,.7-2.783,1.054l-.008,20.278a1.626,1.626,0,0,1-1.623,1.632m-.055-1.691,0-21.212c0-1.31,1.831-.662,2.589-.95l-4.791-5.35-4.787,5.353c.741.275,2.586-.354,2.587.947l.018,21.23Z" transform="translate(-196.314 0)" fill="#12263f"/>
        <path id="Trazado_1003226" data-name="Trazado 1003226" d="M64.62,21.421l-.071,9.8A.829.829,0,0,1,63.7,32a.809.809,0,0,1-.825-.768l.034-10.658L87.747,2.8c-.539-.264-1.092-.259-1.179-.766C86.31.536,88.338,1,90.553.99a.922.922,0,0,1,.741.355.856.856,0,0,1,.1.728l-1.1,3.138a.854.854,0,0,1-1.281.367c-.37-.207-.282-.713-.308-1.355Z" transform="translate(-50.689 -0.748)" fill="#12263f"/>
        <path id="Trazado_1003227" data-name="Trazado 1003227" d="M121.367,90.376c-.018,2.25-3.347,1.614-6.043,1.634a1.674,1.674,0,0,1-1.7-1.645l-.05-5.721c-1.113-.109-2.216.213-2.736-.921a1.5,1.5,0,0,1,.262-1.663l5.225-5.816a1.533,1.533,0,0,1,2.308-.04l5.319,5.9a1.578,1.578,0,0,1,.25,1.508,1.332,1.332,0,0,1-1.114.953l-1.675.1Zm-1.7-.065.022-6.509c0-1.37,1.9-.609,2.621-.979l-4.82-5.344L112.7,82.844c.6.348,2.6-.409,2.613.949l.047,6.531Z" transform="translate(-89.237 -61.026)" fill="#12263f"/>
        <path id="Trazado_1003228" data-name="Trazado 1003228" d="M196.675,163.082c-1.017,1.016-2.069-1.486-2.676-2.576a.833.833,0,0,1,.244-1.112c1.169-.667,1.451,1,2.064,1.62l3.221-3.162a.843.843,0,1,1,1.211,1.172Z" transform="translate(-156.302 -127.047)" fill="#12263f"/>
      </g>
    </g>
  </g>
</svg>
