<svg xmlns="http://www.w3.org/2000/svg" width="128" height="128" viewBox="0 0 128 128">
  <g id="Grupo_1179207" data-name="Grupo 1179207" transform="translate(-72.746 -7992)">
    <g id="Trazado_1002068" data-name="Trazado 1002068" transform="translate(72.746 7992)" fill="#ffe8cb">
      <path d="M 64 125 C 55.76374053955078 125 47.77542114257812 123.387580871582 40.25696182250977 120.2075424194336 C 36.64311981201172 118.6790237426758 33.15731811523438 116.7869567871094 29.89641952514648 114.5839385986328 C 26.66571998596191 112.4013214111328 23.62759971618652 109.8946380615234 20.86647987365723 107.1335220336914 C 18.10536003112793 104.3723983764648 15.5986795425415 101.3342819213867 13.41606044769287 98.10357666015625 C 11.21304035186768 94.84268188476562 9.320980072021484 91.35688018798828 7.792459964752197 87.7430419921875 C 4.612420082092285 80.22457885742188 3 72.23625946044922 3 64 C 3 55.76374053955078 4.612420082092285 47.77542114257812 7.792459964752197 40.25696182250977 C 9.320980072021484 36.64311981201172 11.21304035186768 33.15731811523438 13.41606044769287 29.89641952514648 C 15.5986795425415 26.66571998596191 18.10536003112793 23.62759971618652 20.86647987365723 20.86647987365723 C 23.62759971618652 18.10536003112793 26.66571998596191 15.5986795425415 29.89641952514648 13.41606044769287 C 33.15731811523438 11.21304035186768 36.64311981201172 9.320980072021484 40.25696182250977 7.792459964752197 C 47.77542114257812 4.612420082092285 55.76374053955078 3 64 3 C 72.23625946044922 3 80.22457885742188 4.612420082092285 87.7430419921875 7.792459964752197 C 91.35688018798828 9.320980072021484 94.84268188476562 11.21304035186768 98.10357666015625 13.41606044769287 C 101.3342819213867 15.5986795425415 104.3723983764648 18.10536003112793 107.1335220336914 20.86647987365723 C 109.8946380615234 23.62759971618652 112.4013214111328 26.66571998596191 114.5839385986328 29.89641952514648 C 116.7869567871094 33.15731811523438 118.6790237426758 36.64311981201172 120.2075424194336 40.25696182250977 C 123.387580871582 47.77542114257812 125 55.76374053955078 125 64 C 125 72.23625946044922 123.387580871582 80.22457885742188 120.2075424194336 87.7430419921875 C 118.6790237426758 91.35688018798828 116.7869567871094 94.84268188476562 114.5839385986328 98.10357666015625 C 112.4013214111328 101.3342819213867 109.8946380615234 104.3723983764648 107.1335220336914 107.1335220336914 C 104.3723983764648 109.8946380615234 101.3342819213867 112.4013214111328 98.10357666015625 114.5839385986328 C 94.84268188476562 116.7869567871094 91.35688018798828 118.6790237426758 87.7430419921875 120.2075424194336 C 80.22457885742188 123.387580871582 72.23625946044922 125 64 125 Z" stroke="none"/>
      <path d="M 64 6 C 32.01869201660156 6 6 32.01869201660156 6 64 C 6 95.98130798339844 32.01869201660156 122 64 122 C 95.98130798339844 122 122 95.98130798339844 122 64 C 122 32.01869201660156 95.98130798339844 6 64 6 M 64 0 C 99.34622192382812 0 128 28.65378570556641 128 64 C 128 99.34622192382812 99.34622192382812 128 64 128 C 28.65378570556641 128 0 99.34622192382812 0 64 C 0 28.65378570556641 28.65378570556641 0 64 0 Z" stroke="none" fill="#fec96f"/>
    </g>
    <g id="Grupo_1177786" data-name="Grupo 1177786" transform="translate(73.234 8011.134)">
      <g id="Grupo_1177785" data-name="Grupo 1177785" transform="translate(31.454 18.094)">
        <g id="Grupo_1177783" data-name="Grupo 1177783" transform="translate(10.593)">
          <path id="Trazado_993704" data-name="Trazado 993704" d="M110.942,211.8h5.166a.738.738,0,0,1,.736.736V223.8a.738.738,0,0,1-.736.736h-5.166a.738.738,0,0,1-.736-.736V212.541A.738.738,0,0,1,110.942,211.8Z" transform="translate(-110.206 -191.897)" fill="#fe646f" fill-rule="evenodd"/>
          <path id="Trazado_993705" data-name="Trazado 993705" d="M140.3,211.8h1.472a.738.738,0,0,1,.736.736V223.8a.738.738,0,0,1-.736.736H140.3a.738.738,0,0,0,.736-.736V212.541A.738.738,0,0,0,140.3,211.8Z" transform="translate(-135.868 -191.897)" fill="#fd4755" fill-rule="evenodd"/>
          <path id="Trazado_993706" data-name="Trazado 993706" d="M199.837,166.481H194.67a.738.738,0,0,0-.736.736v17.936a.738.738,0,0,0,.736.736h5.166a.738.738,0,0,0,.736-.736V167.217a.738.738,0,0,0-.736-.736Z" transform="translate(-181.607 -153.245)" fill="#ffd064" fill-rule="evenodd"/>
          <path id="Trazado_993707" data-name="Trazado 993707" d="M225.5,166.481h-1.472a.738.738,0,0,1,.736.736v17.936a.738.738,0,0,1-.736.736H225.5a.738.738,0,0,0,.736-.736V167.217a.738.738,0,0,0-.736-.736Z" transform="translate(-207.27 -153.245)" fill="#ffc338" fill-rule="evenodd"/>
          <path id="Trazado_993708" data-name="Trazado 993708" d="M283.566,119.154H278.4a.738.738,0,0,0-.736.736v24.9a.738.738,0,0,0,.736.736h5.166a.738.738,0,0,0,.736-.736v-24.9A.738.738,0,0,0,283.566,119.154Z" transform="translate(-253.011 -112.886)" fill="#6cf5c2" fill-rule="evenodd"/>
          <path id="Trazado_993709" data-name="Trazado 993709" d="M309.228,119.154h-1.472a.738.738,0,0,1,.736.736v24.9a.738.738,0,0,1-.736.736h1.472a.738.738,0,0,0,.736-.736v-24.9A.738.738,0,0,0,309.228,119.154Z" transform="translate(-278.672 -112.886)" fill="#00e499" fill-rule="evenodd"/>
          <path id="Trazado_993710" data-name="Trazado 993710" d="M362.127,76.579h5.166a.738.738,0,0,1,.736.736v31.172a.738.738,0,0,1-.736.736h-5.166a.738.738,0,0,1-.736-.736V77.315A.737.737,0,0,1,362.127,76.579Z" transform="translate(-324.411 -76.579)" fill="#8ac9fe" fill-rule="evenodd"/>
          <path id="Trazado_993711" data-name="Trazado 993711" d="M391.483,76.579h1.472a.738.738,0,0,1,.736.736v31.172a.738.738,0,0,1-.736.736h-1.472a.738.738,0,0,0,.736-.736V77.315A.737.737,0,0,0,391.483,76.579Z" transform="translate(-350.073 -76.579)" fill="#60b7ff" fill-rule="evenodd"/>
        </g>
        <g id="Grupo_1177784" data-name="Grupo 1177784" transform="translate(0 25.111)">
          <path id="Trazado_993712" data-name="Trazado 993712" d="M70.3,247.146A32.053,32.053,0,0,0,38.251,279.2H50.2a20.1,20.1,0,1,1,40.209,0h11.949A32.053,32.053,0,0,0,70.3,247.146Z" transform="translate(-38.251 -247.146)" fill="#8ac9fe" fill-rule="evenodd"/>
          <circle id="Elipse_13636" data-name="Elipse 13636" cx="4.583" cy="4.583" r="4.583" transform="translate(25.562 32.05) rotate(-45)" fill="#685e68"/>
          <path id="Trazado_993713" data-name="Trazado 993713" d="M251.626,433.738a4.583,4.583,0,1,1-.75,9.1,4.583,4.583,0,0,0,0-9.043A4.614,4.614,0,0,1,251.626,433.738Z" transform="translate(-219.573 -406.268)" fill="#544854" fill-rule="evenodd"/>
          <path id="Trazado_993714" data-name="Trazado 993714" d="M331.622,293.994l10.35-5.975a32.212,32.212,0,0,0-11.734-11.734l-5.975,10.35a20.2,20.2,0,0,1,7.36,7.36Z" transform="translate(-282.155 -271.994)" fill="#6cf5c2" fill-rule="evenodd"/>
          <path id="Trazado_993715" data-name="Trazado 993715" d="M266.026,261.786,272,251.436a31.906,31.906,0,0,0-16.029-4.29v11.949A20.011,20.011,0,0,1,266.026,261.786Z" transform="translate(-223.919 -247.146)" fill="#ffd064" fill-rule="evenodd"/>
          <path id="Trazado_993716" data-name="Trazado 993716" d="M163.122,259.095V247.146a31.906,31.906,0,0,0-16.029,4.29l5.975,10.35A20.012,20.012,0,0,1,163.122,259.095Z" transform="translate(-131.069 -247.146)" fill="#ffe177" fill-rule="evenodd"/>
          <path id="Trazado_993717" data-name="Trazado 993717" d="M85.1,286.633l-5.975-10.35a32.212,32.212,0,0,0-11.734,11.734l10.35,5.975A20.2,20.2,0,0,1,85.1,286.633Z" transform="translate(-63.099 -271.993)" fill="#fd4755" fill-rule="evenodd"/>
          <path id="Trazado_993718" data-name="Trazado 993718" d="M52.89,361.963l-10.35-5.975a31.906,31.906,0,0,0-4.29,16.029H50.2A20.012,20.012,0,0,1,52.89,361.963Z" transform="translate(-38.251 -339.964)" fill="#fe646f" fill-rule="evenodd"/>
        </g>
      </g>
      <path id="Trazado_993719" data-name="Trazado 993719" d="M66.917,75.258a3.4,3.4,0,1,0-3.4,3.405A3.409,3.409,0,0,0,66.917,75.258Zm7.41-10.815a1.174,1.174,0,0,1,0,1.665l-6,6a5.771,5.771,0,1,1-1.667-1.666l6-6a1.175,1.175,0,0,1,1.664,0Zm20.039,9.638a30.614,30.614,0,0,0-3.551-13.225l-8.313,4.8a21.152,21.152,0,0,1,2.261,8.426ZM81.32,63.616a21.451,21.451,0,0,0-6.167-6.165l4.8-8.314a31.12,31.12,0,0,1,9.679,9.68ZM51.871,57.451l-4.8-8.314a31.12,31.12,0,0,0-9.679,9.68l8.313,4.8a21.45,21.45,0,0,1,6.167-6.165Zm-7.348,8.2a21.15,21.15,0,0,0-2.261,8.426h-9.6A30.642,30.642,0,0,1,36.21,60.856ZM43.23,48.93a33.073,33.073,0,0,1,4.284-2.812V39.18H43.23Zm12.326-5.948a33.377,33.377,0,0,1,4.285-.753V32.507H55.556Zm12.327-.669a33.17,33.17,0,0,1,4.283.849V25.54H67.883Zm-5.548,2.1v9.6a21.1,21.1,0,0,0-8.426,2.26l-4.8-8.316a30.664,30.664,0,0,1,13.226-3.546Zm15.52,3.514A30.656,30.656,0,0,0,64.69,44.408v9.6a21.1,21.1,0,0,1,8.426,2.26l4.739-8.209Zm2.355-1.408a33.12,33.12,0,0,1,4.282,2.971V19.272H80.21ZM96.742,75.258a1.177,1.177,0,0,1-1.178,1.178H83.616a1.177,1.177,0,0,1-1.177-1.178,18.927,18.927,0,0,0-37.854,0,1.177,1.177,0,0,1-1.177,1.178H31.459a1.178,1.178,0,0,1-1.178-1.178,33.015,33.015,0,0,1,9.733-23.5c.287-.287.58-.565.876-.841a1.232,1.232,0,0,1-.017-.182V38a1.179,1.179,0,0,1,1.178-1.178h6.64A1.178,1.178,0,0,1,49.869,38V44.94A32.869,32.869,0,0,1,53.2,43.652V31.33a1.179,1.179,0,0,1,1.178-1.177h6.639A1.178,1.178,0,0,1,62.2,31.33V42.056c.437-.017.876-.028,1.317-.028.676,0,1.346.022,2.015.062V24.362a1.177,1.177,0,0,1,1.178-1.178h6.638a1.178,1.178,0,0,1,1.178,1.178V43.889a32.638,32.638,0,0,1,3.333,1.376V18.094a1.178,1.178,0,0,1,1.178-1.178H85.67a1.177,1.177,0,0,1,1.177,1.178V50.738a1.175,1.175,0,0,1-.206.665c.124.119.246.237.368.358a33.02,33.02,0,0,1,9.732,23.5ZM40.241,32.1a1.178,1.178,0,0,1,.726-1.5,125.871,125.871,0,0,0,37.25-20.25H76.191a1.178,1.178,0,0,1,0-2.356h5.318a1.178,1.178,0,0,1,1.154,1.411l-1.051,5.212a1.18,1.18,0,0,1-1.155.945,1.2,1.2,0,0,1-.234-.024,1.178,1.178,0,0,1-.922-1.387l.4-1.972A128.216,128.216,0,0,1,41.741,32.827a1.167,1.167,0,0,1-.387.066,1.179,1.179,0,0,1-1.113-.791Z" fill="#242222" fill-rule="evenodd"/>
    </g>
  </g>
</svg>
