<svg xmlns="http://www.w3.org/2000/svg" xmlns:xlink="http://www.w3.org/1999/xlink" width="47" height="47" viewBox="0 0 47 47">
  <defs>
    <clipPath id="clip-path">
      <rect id="Rectángulo_454859" data-name="Rectángulo 454859" width="24.336" height="26.569" fill="#fff"/>
    </clipPath>
  </defs>
  <g id="Grupo_1192338" data-name="Grupo 1192338" transform="translate(-186 -5658.27)">
    <circle id="Elipse_13719" data-name="Elipse 13719" cx="23.5" cy="23.5" r="23.5" transform="translate(186 5658.27)" fill="#002d4f"/>
    <g id="Grupo_1191892" data-name="Grupo 1191892" transform="translate(197.332 5668.486)">
      <g id="Grupo_1177671" data-name="Grupo 1177671" clip-path="url(#clip-path)">
        <path id="Trazado_997501" data-name="Trazado 997501" d="M82.475,75.618l-12.91.012a3.023,3.023,0,0,1-2.993-3.068l0-16.015a3.008,3.008,0,0,1,2.991-3.037L82.343,53.5a3.011,3.011,0,0,1,3.036,2.972l0,16.162a2.971,2.971,0,0,1-2.906,2.982M80.128,59.592a.819.819,0,0,0,.821-.771.778.778,0,0,0-.688-.867l-8.543,0a.784.784,0,0,0-.71.854.837.837,0,0,0,.818.789Zm.006,4.421a.813.813,0,0,0,.819-.868.8.8,0,0,0-.774-.783l-8.452.008a.8.8,0,0,0-.716.9.839.839,0,0,0,.878.75Zm-.006,3.881a.819.819,0,0,0,.821-.771.778.778,0,0,0-.688-.867l-8.543,0a.784.784,0,0,0-.71.854.836.836,0,0,0,.818.788Zm.006,4.421a.813.813,0,0,0,.819-.868.8.8,0,0,0-.774-.783l-8.452.008a.8.8,0,0,0-.716.9.839.839,0,0,0,.878.75Z" transform="translate(-61.045 -49.06)" fill="#fff"/>
        <path id="Trazado_997502" data-name="Trazado 997502" d="M3.3,7.6l0,15.654A3.041,3.041,0,0,1,0,20.257V3.013A3.065,3.065,0,0,1,3.207,0L15.9.028a2.957,2.957,0,0,1,2.766,2.19L8.18,2.281A5.145,5.145,0,0,0,3.3,7.6" transform="translate(0 -0.001)" fill="#fff"/>
      </g>
    </g>
  </g>
</svg>
